%TF.GenerationSoftware,KiCad,Pcbnew,(6.0.4-0)*%
%TF.CreationDate,2022-06-17T12:44:21-07:00*%
%TF.ProjectId,VIO-Board-rounded,56494f2d-426f-4617-9264-2d726f756e64,rev?*%
%TF.SameCoordinates,Original*%
%TF.FileFunction,Soldermask,Top*%
%TF.FilePolarity,Negative*%
%FSLAX46Y46*%
G04 Gerber Fmt 4.6, Leading zero omitted, Abs format (unit mm)*
G04 Created by KiCad (PCBNEW (6.0.4-0)) date 2022-06-17 12:44:21*
%MOMM*%
%LPD*%
G01*
G04 APERTURE LIST*
G04 Aperture macros list*
%AMRoundRect*
0 Rectangle with rounded corners*
0 $1 Rounding radius*
0 $2 $3 $4 $5 $6 $7 $8 $9 X,Y pos of 4 corners*
0 Add a 4 corners polygon primitive as box body*
4,1,4,$2,$3,$4,$5,$6,$7,$8,$9,$2,$3,0*
0 Add four circle primitives for the rounded corners*
1,1,$1+$1,$2,$3*
1,1,$1+$1,$4,$5*
1,1,$1+$1,$6,$7*
1,1,$1+$1,$8,$9*
0 Add four rect primitives between the rounded corners*
20,1,$1+$1,$2,$3,$4,$5,0*
20,1,$1+$1,$4,$5,$6,$7,0*
20,1,$1+$1,$6,$7,$8,$9,0*
20,1,$1+$1,$8,$9,$2,$3,0*%
G04 Aperture macros list end*
%ADD10RoundRect,0.140000X-0.170000X0.140000X-0.170000X-0.140000X0.170000X-0.140000X0.170000X0.140000X0*%
%ADD11R,1.000000X0.700000*%
%ADD12R,0.600000X0.700000*%
%ADD13C,2.200000*%
%ADD14R,1.700000X1.700000*%
%ADD15O,1.700000X1.700000*%
%ADD16RoundRect,0.135000X0.185000X-0.135000X0.185000X0.135000X-0.185000X0.135000X-0.185000X-0.135000X0*%
%ADD17R,0.300000X0.300000*%
%ADD18R,0.300000X0.900000*%
%ADD19R,0.900000X0.300000*%
%ADD20R,1.800000X1.800000*%
%ADD21RoundRect,0.135000X-0.185000X0.135000X-0.185000X-0.135000X0.185000X-0.135000X0.185000X0.135000X0*%
%ADD22R,0.450000X1.380000*%
%ADD23R,1.425000X1.550000*%
%ADD24R,1.800000X1.900000*%
%ADD25R,1.000000X1.900000*%
%ADD26R,1.650000X1.300000*%
%ADD27R,3.800000X3.800000*%
%ADD28C,4.000000*%
%ADD29RoundRect,0.135000X0.135000X0.185000X-0.135000X0.185000X-0.135000X-0.185000X0.135000X-0.185000X0*%
G04 APERTURE END LIST*
D10*
%TO.C,C4*%
X70358000Y-67846000D03*
X70358000Y-68806000D03*
%TD*%
D11*
%TO.C,D1*%
X69354000Y-60182000D03*
D12*
X71054000Y-60182000D03*
X71054000Y-58182000D03*
X69154000Y-58182000D03*
%TD*%
D13*
%TO.C,REF\u002A\u002A*%
X59182000Y-87884000D03*
%TD*%
D14*
%TO.C,J6*%
X58445000Y-60208008D03*
D15*
X58445000Y-62748008D03*
X58445000Y-65288008D03*
X58445000Y-67828008D03*
X58445000Y-70368008D03*
X58445000Y-72908008D03*
X58445000Y-75448008D03*
X58445000Y-77988008D03*
X58445000Y-80528008D03*
%TD*%
D16*
%TO.C,R2*%
X74168000Y-66042000D03*
X74168000Y-65022000D03*
%TD*%
D14*
%TO.C,J4*%
X90932000Y-60208000D03*
D15*
X90932000Y-62748000D03*
X90932000Y-65288000D03*
X90932000Y-67828000D03*
X90932000Y-70368000D03*
X90932000Y-72908000D03*
X90932000Y-75448000D03*
X90932000Y-77988000D03*
X90932000Y-80528000D03*
%TD*%
D14*
%TO.C,J5*%
X66304000Y-84836000D03*
D15*
X68844000Y-84836000D03*
X71384000Y-84836000D03*
X73924000Y-84836000D03*
X76464000Y-84836000D03*
X79004000Y-84836000D03*
X81544000Y-84836000D03*
X84084000Y-84836000D03*
X86624000Y-84836000D03*
%TD*%
D10*
%TO.C,C2*%
X73152000Y-67846000D03*
X73152000Y-68806000D03*
%TD*%
D13*
%TO.C,REF\u002A\u002A*%
X59182000Y-53340000D03*
%TD*%
D17*
%TO.C,U1*%
X68346000Y-65512000D03*
D18*
X68846000Y-65812000D03*
X69346000Y-65812000D03*
X69846000Y-65812000D03*
X70346000Y-65812000D03*
D17*
X70846000Y-65512000D03*
D19*
X71146000Y-65012000D03*
X71146000Y-64512000D03*
X71146000Y-64012000D03*
X71146000Y-63512000D03*
D17*
X70846000Y-63012000D03*
D18*
X70346000Y-62712000D03*
X69846000Y-62712000D03*
X69346000Y-62712000D03*
X68846000Y-62712000D03*
D17*
X68346000Y-63012000D03*
D19*
X68046000Y-63512000D03*
X68046000Y-64012000D03*
X68046000Y-64512000D03*
X68046000Y-65012000D03*
D20*
X69596000Y-64262000D03*
%TD*%
D13*
%TO.C,REF\u002A\u002A*%
X93726000Y-87884000D03*
%TD*%
D21*
%TO.C,R3*%
X72898000Y-65022000D03*
X72898000Y-66042000D03*
%TD*%
D22*
%TO.C,J2*%
X71150000Y-54892000D03*
X70500000Y-54892000D03*
X69850000Y-54892000D03*
X69200000Y-54892000D03*
X68550000Y-54892000D03*
D23*
X67362500Y-54807000D03*
X72337500Y-54807000D03*
D24*
X71000000Y-52232000D03*
D25*
X68300000Y-52232000D03*
D26*
X66475000Y-52232000D03*
X73225000Y-52232000D03*
%TD*%
D27*
%TO.C,J1*%
X81066000Y-54102000D03*
D28*
X86066000Y-54102000D03*
%TD*%
D10*
%TO.C,C1*%
X71882000Y-67846000D03*
X71882000Y-68806000D03*
%TD*%
D13*
%TO.C,REF\u002A\u002A*%
X93726000Y-53340000D03*
%TD*%
D14*
%TO.C,J7*%
X94512994Y-60208008D03*
D15*
X94512994Y-62748008D03*
X94512994Y-65288008D03*
X94512994Y-67828008D03*
X94512994Y-70368008D03*
X94512994Y-72908008D03*
X94512994Y-75448008D03*
X94512994Y-77988008D03*
X94512994Y-80528008D03*
%TD*%
D29*
%TO.C,R1*%
X73408000Y-63754000D03*
X72388000Y-63754000D03*
%TD*%
D14*
%TO.C,J8*%
X66304000Y-88367000D03*
D15*
X68844000Y-88367000D03*
X71384000Y-88367000D03*
X73924000Y-88367000D03*
X76464000Y-88367000D03*
X79004000Y-88367000D03*
X81544000Y-88367000D03*
X84084000Y-88367000D03*
X86624000Y-88367000D03*
%TD*%
D14*
%TO.C,J3*%
X61976000Y-60208008D03*
D15*
X61976000Y-62748008D03*
X61976000Y-65288008D03*
X61976000Y-67828008D03*
X61976000Y-70368008D03*
X61976000Y-72908008D03*
X61976000Y-75448008D03*
X61976000Y-77988008D03*
X61976000Y-80528008D03*
%TD*%
D10*
%TO.C,C3*%
X69088000Y-67846000D03*
X69088000Y-68806000D03*
%TD*%
M02*
