%TF.GenerationSoftware,KiCad,Pcbnew,(6.0.4-0)*%
%TF.CreationDate,2022-06-17T12:44:21-07:00*%
%TF.ProjectId,VIO-Board-rounded,56494f2d-426f-4617-9264-2d726f756e64,rev?*%
%TF.SameCoordinates,Original*%
%TF.FileFunction,Legend,Top*%
%TF.FilePolarity,Positive*%
%FSLAX46Y46*%
G04 Gerber Fmt 4.6, Leading zero omitted, Abs format (unit mm)*
G04 Created by KiCad (PCBNEW (6.0.4-0)) date 2022-06-17 12:44:21*
%MOMM*%
%LPD*%
G01*
G04 APERTURE LIST*
%ADD10C,0.150000*%
%ADD11C,0.120000*%
G04 APERTURE END LIST*
D10*
X64280071Y-74890380D02*
X64470547Y-74890380D01*
X64565785Y-74938000D01*
X64661023Y-75033238D01*
X64708642Y-75223714D01*
X64708642Y-75557047D01*
X64661023Y-75747523D01*
X64565785Y-75842761D01*
X64470547Y-75890380D01*
X64280071Y-75890380D01*
X64184833Y-75842761D01*
X64089595Y-75747523D01*
X64041976Y-75557047D01*
X64041976Y-75223714D01*
X64089595Y-75033238D01*
X64184833Y-74938000D01*
X64280071Y-74890380D01*
X65137214Y-75890380D02*
X65137214Y-74890380D01*
X65518166Y-74890380D01*
X65613404Y-74938000D01*
X65661023Y-74985619D01*
X65708642Y-75080857D01*
X65708642Y-75223714D01*
X65661023Y-75318952D01*
X65613404Y-75366571D01*
X65518166Y-75414190D01*
X65137214Y-75414190D01*
X65994357Y-74890380D02*
X66565785Y-74890380D01*
X66280071Y-75890380D02*
X66280071Y-74890380D01*
X67089595Y-74890380D02*
X67280071Y-74890380D01*
X67375309Y-74938000D01*
X67470547Y-75033238D01*
X67518166Y-75223714D01*
X67518166Y-75557047D01*
X67470547Y-75747523D01*
X67375309Y-75842761D01*
X67280071Y-75890380D01*
X67089595Y-75890380D01*
X66994357Y-75842761D01*
X66899119Y-75747523D01*
X66851500Y-75557047D01*
X66851500Y-75223714D01*
X66899119Y-75033238D01*
X66994357Y-74938000D01*
X67089595Y-74890380D01*
X67708642Y-75985619D02*
X68470547Y-75985619D01*
X69232452Y-74938000D02*
X69137214Y-74890380D01*
X68994357Y-74890380D01*
X68851500Y-74938000D01*
X68756261Y-75033238D01*
X68708642Y-75128476D01*
X68661023Y-75318952D01*
X68661023Y-75461809D01*
X68708642Y-75652285D01*
X68756261Y-75747523D01*
X68851500Y-75842761D01*
X68994357Y-75890380D01*
X69089595Y-75890380D01*
X69232452Y-75842761D01*
X69280071Y-75795142D01*
X69280071Y-75461809D01*
X69089595Y-75461809D01*
X69708642Y-75890380D02*
X69708642Y-74890380D01*
X70280071Y-75890380D01*
X70280071Y-74890380D01*
X70756261Y-75890380D02*
X70756261Y-74890380D01*
X70994357Y-74890380D01*
X71137214Y-74938000D01*
X71232452Y-75033238D01*
X71280071Y-75128476D01*
X71327690Y-75318952D01*
X71327690Y-75461809D01*
X71280071Y-75652285D01*
X71232452Y-75747523D01*
X71137214Y-75842761D01*
X70994357Y-75890380D01*
X70756261Y-75890380D01*
X74318761Y-82770023D02*
X74366380Y-82627166D01*
X74366380Y-82389071D01*
X74318761Y-82293833D01*
X74271142Y-82246214D01*
X74175904Y-82198595D01*
X74080666Y-82198595D01*
X73985428Y-82246214D01*
X73937809Y-82293833D01*
X73890190Y-82389071D01*
X73842571Y-82579547D01*
X73794952Y-82674785D01*
X73747333Y-82722404D01*
X73652095Y-82770023D01*
X73556857Y-82770023D01*
X73461619Y-82722404D01*
X73414000Y-82674785D01*
X73366380Y-82579547D01*
X73366380Y-82341452D01*
X73414000Y-82198595D01*
X73890190Y-81579547D02*
X74366380Y-81579547D01*
X73366380Y-81912880D02*
X73890190Y-81579547D01*
X73366380Y-81246214D01*
X74366380Y-80912880D02*
X73366380Y-80912880D01*
X74366380Y-80341452D01*
X73366380Y-80341452D01*
X74271142Y-79293833D02*
X74318761Y-79341452D01*
X74366380Y-79484309D01*
X74366380Y-79579547D01*
X74318761Y-79722404D01*
X74223523Y-79817642D01*
X74128285Y-79865261D01*
X73937809Y-79912880D01*
X73794952Y-79912880D01*
X73604476Y-79865261D01*
X73509238Y-79817642D01*
X73414000Y-79722404D01*
X73366380Y-79579547D01*
X73366380Y-79484309D01*
X73414000Y-79341452D01*
X73461619Y-79293833D01*
X74461619Y-79103357D02*
X74461619Y-78341452D01*
X73366380Y-77912880D02*
X73366380Y-77722404D01*
X73414000Y-77627166D01*
X73509238Y-77531928D01*
X73699714Y-77484309D01*
X74033047Y-77484309D01*
X74223523Y-77531928D01*
X74318761Y-77627166D01*
X74366380Y-77722404D01*
X74366380Y-77912880D01*
X74318761Y-78008119D01*
X74223523Y-78103357D01*
X74033047Y-78150976D01*
X73699714Y-78150976D01*
X73509238Y-78103357D01*
X73414000Y-78008119D01*
X73366380Y-77912880D01*
X73366380Y-77055738D02*
X74175904Y-77055738D01*
X74271142Y-77008119D01*
X74318761Y-76960500D01*
X74366380Y-76865261D01*
X74366380Y-76674785D01*
X74318761Y-76579547D01*
X74271142Y-76531928D01*
X74175904Y-76484309D01*
X73366380Y-76484309D01*
X73366380Y-76150976D02*
X73366380Y-75579547D01*
X74366380Y-75865261D02*
X73366380Y-75865261D01*
X86532690Y-64730380D02*
X87151738Y-64730380D01*
X86818404Y-65111333D01*
X86961261Y-65111333D01*
X87056500Y-65158952D01*
X87104119Y-65206571D01*
X87151738Y-65301809D01*
X87151738Y-65539904D01*
X87104119Y-65635142D01*
X87056500Y-65682761D01*
X86961261Y-65730380D01*
X86675547Y-65730380D01*
X86580309Y-65682761D01*
X86532690Y-65635142D01*
X87485071Y-65063714D02*
X87723166Y-65730380D01*
X87961261Y-65063714D01*
X88246976Y-64730380D02*
X88866023Y-64730380D01*
X88532690Y-65111333D01*
X88675547Y-65111333D01*
X88770785Y-65158952D01*
X88818404Y-65206571D01*
X88866023Y-65301809D01*
X88866023Y-65539904D01*
X88818404Y-65635142D01*
X88770785Y-65682761D01*
X88675547Y-65730380D01*
X88389833Y-65730380D01*
X88294595Y-65682761D01*
X88246976Y-65635142D01*
X81818404Y-74890380D02*
X82008880Y-74890380D01*
X82104119Y-74938000D01*
X82199357Y-75033238D01*
X82246976Y-75223714D01*
X82246976Y-75557047D01*
X82199357Y-75747523D01*
X82104119Y-75842761D01*
X82008880Y-75890380D01*
X81818404Y-75890380D01*
X81723166Y-75842761D01*
X81627928Y-75747523D01*
X81580309Y-75557047D01*
X81580309Y-75223714D01*
X81627928Y-75033238D01*
X81723166Y-74938000D01*
X81818404Y-74890380D01*
X82675547Y-75890380D02*
X82675547Y-74890380D01*
X83056500Y-74890380D01*
X83151738Y-74938000D01*
X83199357Y-74985619D01*
X83246976Y-75080857D01*
X83246976Y-75223714D01*
X83199357Y-75318952D01*
X83151738Y-75366571D01*
X83056500Y-75414190D01*
X82675547Y-75414190D01*
X83532690Y-74890380D02*
X84104119Y-74890380D01*
X83818404Y-75890380D02*
X83818404Y-74890380D01*
X84627928Y-74890380D02*
X84818404Y-74890380D01*
X84913642Y-74938000D01*
X85008880Y-75033238D01*
X85056500Y-75223714D01*
X85056500Y-75557047D01*
X85008880Y-75747523D01*
X84913642Y-75842761D01*
X84818404Y-75890380D01*
X84627928Y-75890380D01*
X84532690Y-75842761D01*
X84437452Y-75747523D01*
X84389833Y-75557047D01*
X84389833Y-75223714D01*
X84437452Y-75033238D01*
X84532690Y-74938000D01*
X84627928Y-74890380D01*
X85246976Y-75985619D02*
X86008880Y-75985619D01*
X86770785Y-74938000D02*
X86675547Y-74890380D01*
X86532690Y-74890380D01*
X86389833Y-74938000D01*
X86294595Y-75033238D01*
X86246976Y-75128476D01*
X86199357Y-75318952D01*
X86199357Y-75461809D01*
X86246976Y-75652285D01*
X86294595Y-75747523D01*
X86389833Y-75842761D01*
X86532690Y-75890380D01*
X86627928Y-75890380D01*
X86770785Y-75842761D01*
X86818404Y-75795142D01*
X86818404Y-75461809D01*
X86627928Y-75461809D01*
X87246976Y-75890380D02*
X87246976Y-74890380D01*
X87818404Y-75890380D01*
X87818404Y-74890380D01*
X88294595Y-75890380D02*
X88294595Y-74890380D01*
X88532690Y-74890380D01*
X88675547Y-74938000D01*
X88770785Y-75033238D01*
X88818404Y-75128476D01*
X88866023Y-75318952D01*
X88866023Y-75461809D01*
X88818404Y-75652285D01*
X88770785Y-75747523D01*
X88675547Y-75842761D01*
X88532690Y-75890380D01*
X88294595Y-75890380D01*
X86733142Y-82748380D02*
X86399809Y-82272190D01*
X86161714Y-82748380D02*
X86161714Y-81748380D01*
X86542666Y-81748380D01*
X86637904Y-81796000D01*
X86685523Y-81843619D01*
X86733142Y-81938857D01*
X86733142Y-82081714D01*
X86685523Y-82176952D01*
X86637904Y-82224571D01*
X86542666Y-82272190D01*
X86161714Y-82272190D01*
X87066476Y-81748380D02*
X87733142Y-82748380D01*
X87733142Y-81748380D02*
X87066476Y-82748380D01*
X88066476Y-81843619D02*
X88114095Y-81796000D01*
X88209333Y-81748380D01*
X88447428Y-81748380D01*
X88542666Y-81796000D01*
X88590285Y-81843619D01*
X88637904Y-81938857D01*
X88637904Y-82034095D01*
X88590285Y-82176952D01*
X88018857Y-82748380D01*
X88637904Y-82748380D01*
X83342214Y-79970380D02*
X83532690Y-79970380D01*
X83627928Y-80018000D01*
X83723166Y-80113238D01*
X83770785Y-80303714D01*
X83770785Y-80637047D01*
X83723166Y-80827523D01*
X83627928Y-80922761D01*
X83532690Y-80970380D01*
X83342214Y-80970380D01*
X83246976Y-80922761D01*
X83151738Y-80827523D01*
X83104119Y-80637047D01*
X83104119Y-80303714D01*
X83151738Y-80113238D01*
X83246976Y-80018000D01*
X83342214Y-79970380D01*
X84199357Y-80970380D02*
X84199357Y-79970380D01*
X84580309Y-79970380D01*
X84675547Y-80018000D01*
X84723166Y-80065619D01*
X84770785Y-80160857D01*
X84770785Y-80303714D01*
X84723166Y-80398952D01*
X84675547Y-80446571D01*
X84580309Y-80494190D01*
X84199357Y-80494190D01*
X85056500Y-79970380D02*
X85627928Y-79970380D01*
X85342214Y-80970380D02*
X85342214Y-79970380D01*
X86151738Y-79970380D02*
X86342214Y-79970380D01*
X86437452Y-80018000D01*
X86532690Y-80113238D01*
X86580309Y-80303714D01*
X86580309Y-80637047D01*
X86532690Y-80827523D01*
X86437452Y-80922761D01*
X86342214Y-80970380D01*
X86151738Y-80970380D01*
X86056500Y-80922761D01*
X85961261Y-80827523D01*
X85913642Y-80637047D01*
X85913642Y-80303714D01*
X85961261Y-80113238D01*
X86056500Y-80018000D01*
X86151738Y-79970380D01*
X86770785Y-81065619D02*
X87532690Y-81065619D01*
X87770785Y-80970380D02*
X87770785Y-79970380D01*
X88246976Y-80970380D02*
X88246976Y-79970380D01*
X88818404Y-80970380D01*
X88818404Y-79970380D01*
X86770785Y-72398000D02*
X86675547Y-72350380D01*
X86532690Y-72350380D01*
X86389833Y-72398000D01*
X86294595Y-72493238D01*
X86246976Y-72588476D01*
X86199357Y-72778952D01*
X86199357Y-72921809D01*
X86246976Y-73112285D01*
X86294595Y-73207523D01*
X86389833Y-73302761D01*
X86532690Y-73350380D01*
X86627928Y-73350380D01*
X86770785Y-73302761D01*
X86818404Y-73255142D01*
X86818404Y-72921809D01*
X86627928Y-72921809D01*
X87246976Y-73350380D02*
X87246976Y-72350380D01*
X87818404Y-73350380D01*
X87818404Y-72350380D01*
X88294595Y-73350380D02*
X88294595Y-72350380D01*
X88532690Y-72350380D01*
X88675547Y-72398000D01*
X88770785Y-72493238D01*
X88818404Y-72588476D01*
X88866023Y-72778952D01*
X88866023Y-72921809D01*
X88818404Y-73112285D01*
X88770785Y-73207523D01*
X88675547Y-73302761D01*
X88532690Y-73350380D01*
X88294595Y-73350380D01*
X64613404Y-62238000D02*
X64518166Y-62190380D01*
X64375309Y-62190380D01*
X64232452Y-62238000D01*
X64137214Y-62333238D01*
X64089595Y-62428476D01*
X64041976Y-62618952D01*
X64041976Y-62761809D01*
X64089595Y-62952285D01*
X64137214Y-63047523D01*
X64232452Y-63142761D01*
X64375309Y-63190380D01*
X64470547Y-63190380D01*
X64613404Y-63142761D01*
X64661023Y-63095142D01*
X64661023Y-62761809D01*
X64470547Y-62761809D01*
X65089595Y-63190380D02*
X65089595Y-62190380D01*
X65661023Y-63190380D01*
X65661023Y-62190380D01*
X66137214Y-63190380D02*
X66137214Y-62190380D01*
X66375309Y-62190380D01*
X66518166Y-62238000D01*
X66613404Y-62333238D01*
X66661023Y-62428476D01*
X66708642Y-62618952D01*
X66708642Y-62761809D01*
X66661023Y-62952285D01*
X66613404Y-63047523D01*
X66518166Y-63142761D01*
X66375309Y-63190380D01*
X66137214Y-63190380D01*
X67595904Y-81748380D02*
X68167333Y-81748380D01*
X67881619Y-82748380D02*
X67881619Y-81748380D01*
X68405428Y-81748380D02*
X69072095Y-82748380D01*
X69072095Y-81748380D02*
X68405428Y-82748380D01*
X69976857Y-82748380D02*
X69405428Y-82748380D01*
X69691142Y-82748380D02*
X69691142Y-81748380D01*
X69595904Y-81891238D01*
X69500666Y-81986476D01*
X69405428Y-82034095D01*
X64280071Y-77430380D02*
X64470547Y-77430380D01*
X64565785Y-77478000D01*
X64661023Y-77573238D01*
X64708642Y-77763714D01*
X64708642Y-78097047D01*
X64661023Y-78287523D01*
X64565785Y-78382761D01*
X64470547Y-78430380D01*
X64280071Y-78430380D01*
X64184833Y-78382761D01*
X64089595Y-78287523D01*
X64041976Y-78097047D01*
X64041976Y-77763714D01*
X64089595Y-77573238D01*
X64184833Y-77478000D01*
X64280071Y-77430380D01*
X65137214Y-78430380D02*
X65137214Y-77430380D01*
X65518166Y-77430380D01*
X65613404Y-77478000D01*
X65661023Y-77525619D01*
X65708642Y-77620857D01*
X65708642Y-77763714D01*
X65661023Y-77858952D01*
X65613404Y-77906571D01*
X65518166Y-77954190D01*
X65137214Y-77954190D01*
X65994357Y-77430380D02*
X66565785Y-77430380D01*
X66280071Y-78430380D02*
X66280071Y-77430380D01*
X67089595Y-77430380D02*
X67280071Y-77430380D01*
X67375309Y-77478000D01*
X67470547Y-77573238D01*
X67518166Y-77763714D01*
X67518166Y-78097047D01*
X67470547Y-78287523D01*
X67375309Y-78382761D01*
X67280071Y-78430380D01*
X67089595Y-78430380D01*
X66994357Y-78382761D01*
X66899119Y-78287523D01*
X66851500Y-78097047D01*
X66851500Y-77763714D01*
X66899119Y-77573238D01*
X66994357Y-77478000D01*
X67089595Y-77430380D01*
X67708642Y-78525619D02*
X68470547Y-78525619D01*
X68899119Y-77430380D02*
X69089595Y-77430380D01*
X69184833Y-77478000D01*
X69280071Y-77573238D01*
X69327690Y-77763714D01*
X69327690Y-78097047D01*
X69280071Y-78287523D01*
X69184833Y-78382761D01*
X69089595Y-78430380D01*
X68899119Y-78430380D01*
X68803880Y-78382761D01*
X68708642Y-78287523D01*
X68661023Y-78097047D01*
X68661023Y-77763714D01*
X68708642Y-77573238D01*
X68803880Y-77478000D01*
X68899119Y-77430380D01*
X69756261Y-77430380D02*
X69756261Y-78239904D01*
X69803880Y-78335142D01*
X69851500Y-78382761D01*
X69946738Y-78430380D01*
X70137214Y-78430380D01*
X70232452Y-78382761D01*
X70280071Y-78335142D01*
X70327690Y-78239904D01*
X70327690Y-77430380D01*
X70661023Y-77430380D02*
X71232452Y-77430380D01*
X70946738Y-78430380D02*
X70946738Y-77430380D01*
X66151142Y-81748380D02*
X65674952Y-81748380D01*
X65627333Y-82224571D01*
X65674952Y-82176952D01*
X65770190Y-82129333D01*
X66008285Y-82129333D01*
X66103523Y-82176952D01*
X66151142Y-82224571D01*
X66198761Y-82319809D01*
X66198761Y-82557904D01*
X66151142Y-82653142D01*
X66103523Y-82700761D01*
X66008285Y-82748380D01*
X65770190Y-82748380D01*
X65674952Y-82700761D01*
X65627333Y-82653142D01*
X66532095Y-82081714D02*
X66770190Y-82748380D01*
X67008285Y-82081714D01*
X81176761Y-82770023D02*
X81224380Y-82627166D01*
X81224380Y-82389071D01*
X81176761Y-82293833D01*
X81129142Y-82246214D01*
X81033904Y-82198595D01*
X80938666Y-82198595D01*
X80843428Y-82246214D01*
X80795809Y-82293833D01*
X80748190Y-82389071D01*
X80700571Y-82579547D01*
X80652952Y-82674785D01*
X80605333Y-82722404D01*
X80510095Y-82770023D01*
X80414857Y-82770023D01*
X80319619Y-82722404D01*
X80272000Y-82674785D01*
X80224380Y-82579547D01*
X80224380Y-82341452D01*
X80272000Y-82198595D01*
X80748190Y-81579547D02*
X81224380Y-81579547D01*
X80224380Y-81912880D02*
X80748190Y-81579547D01*
X80224380Y-81246214D01*
X81224380Y-80912880D02*
X80224380Y-80912880D01*
X81224380Y-80341452D01*
X80224380Y-80341452D01*
X81129142Y-79293833D02*
X81176761Y-79341452D01*
X81224380Y-79484309D01*
X81224380Y-79579547D01*
X81176761Y-79722404D01*
X81081523Y-79817642D01*
X80986285Y-79865261D01*
X80795809Y-79912880D01*
X80652952Y-79912880D01*
X80462476Y-79865261D01*
X80367238Y-79817642D01*
X80272000Y-79722404D01*
X80224380Y-79579547D01*
X80224380Y-79484309D01*
X80272000Y-79341452D01*
X80319619Y-79293833D01*
X81319619Y-79103357D02*
X81319619Y-78341452D01*
X81224380Y-78103357D02*
X80224380Y-78103357D01*
X81224380Y-77627166D02*
X80224380Y-77627166D01*
X81224380Y-77055738D01*
X80224380Y-77055738D01*
X64041976Y-70762761D02*
X64184833Y-70810380D01*
X64422928Y-70810380D01*
X64518166Y-70762761D01*
X64565785Y-70715142D01*
X64613404Y-70619904D01*
X64613404Y-70524666D01*
X64565785Y-70429428D01*
X64518166Y-70381809D01*
X64422928Y-70334190D01*
X64232452Y-70286571D01*
X64137214Y-70238952D01*
X64089595Y-70191333D01*
X64041976Y-70096095D01*
X64041976Y-70000857D01*
X64089595Y-69905619D01*
X64137214Y-69858000D01*
X64232452Y-69810380D01*
X64470547Y-69810380D01*
X64613404Y-69858000D01*
X65232452Y-70334190D02*
X65232452Y-70810380D01*
X64899119Y-69810380D02*
X65232452Y-70334190D01*
X65565785Y-69810380D01*
X65899119Y-70810380D02*
X65899119Y-69810380D01*
X66470547Y-70810380D01*
X66470547Y-69810380D01*
X67518166Y-70715142D02*
X67470547Y-70762761D01*
X67327690Y-70810380D01*
X67232452Y-70810380D01*
X67089595Y-70762761D01*
X66994357Y-70667523D01*
X66946738Y-70572285D01*
X66899119Y-70381809D01*
X66899119Y-70238952D01*
X66946738Y-70048476D01*
X66994357Y-69953238D01*
X67089595Y-69858000D01*
X67232452Y-69810380D01*
X67327690Y-69810380D01*
X67470547Y-69858000D01*
X67518166Y-69905619D01*
X79446380Y-82150976D02*
X78970190Y-82484309D01*
X79446380Y-82722404D02*
X78446380Y-82722404D01*
X78446380Y-82341452D01*
X78494000Y-82246214D01*
X78541619Y-82198595D01*
X78636857Y-82150976D01*
X78779714Y-82150976D01*
X78874952Y-82198595D01*
X78922571Y-82246214D01*
X78970190Y-82341452D01*
X78970190Y-82722404D01*
X78922571Y-81722404D02*
X78922571Y-81389071D01*
X79446380Y-81246214D02*
X79446380Y-81722404D01*
X78446380Y-81722404D01*
X78446380Y-81246214D01*
X79398761Y-80865261D02*
X79446380Y-80722404D01*
X79446380Y-80484309D01*
X79398761Y-80389071D01*
X79351142Y-80341452D01*
X79255904Y-80293833D01*
X79160666Y-80293833D01*
X79065428Y-80341452D01*
X79017809Y-80389071D01*
X78970190Y-80484309D01*
X78922571Y-80674785D01*
X78874952Y-80770023D01*
X78827333Y-80817642D01*
X78732095Y-80865261D01*
X78636857Y-80865261D01*
X78541619Y-80817642D01*
X78494000Y-80770023D01*
X78446380Y-80674785D01*
X78446380Y-80436690D01*
X78494000Y-80293833D01*
X78446380Y-80008119D02*
X78446380Y-79436690D01*
X79446380Y-79722404D02*
X78446380Y-79722404D01*
X78446380Y-78912880D02*
X78446380Y-78722404D01*
X78494000Y-78627166D01*
X78589238Y-78531928D01*
X78779714Y-78484309D01*
X79113047Y-78484309D01*
X79303523Y-78531928D01*
X79398761Y-78627166D01*
X79446380Y-78722404D01*
X79446380Y-78912880D01*
X79398761Y-79008119D01*
X79303523Y-79103357D01*
X79113047Y-79150976D01*
X78779714Y-79150976D01*
X78589238Y-79103357D01*
X78494000Y-79008119D01*
X78446380Y-78912880D01*
X79446380Y-77484309D02*
X78970190Y-77817642D01*
X79446380Y-78055738D02*
X78446380Y-78055738D01*
X78446380Y-77674785D01*
X78494000Y-77579547D01*
X78541619Y-77531928D01*
X78636857Y-77484309D01*
X78779714Y-77484309D01*
X78874952Y-77531928D01*
X78922571Y-77579547D01*
X78970190Y-77674785D01*
X78970190Y-78055738D01*
X78922571Y-77055738D02*
X78922571Y-76722404D01*
X79446380Y-76579547D02*
X79446380Y-77055738D01*
X78446380Y-77055738D01*
X78446380Y-76579547D01*
X87437452Y-67270380D02*
X88008880Y-67270380D01*
X87723166Y-68270380D02*
X87723166Y-67270380D01*
X88246976Y-67270380D02*
X88913642Y-68270380D01*
X88913642Y-67270380D02*
X88246976Y-68270380D01*
X82835904Y-81748380D02*
X83407333Y-81748380D01*
X83121619Y-82748380D02*
X83121619Y-81748380D01*
X83645428Y-81748380D02*
X84312095Y-82748380D01*
X84312095Y-81748380D02*
X83645428Y-82748380D01*
X84645428Y-81843619D02*
X84693047Y-81796000D01*
X84788285Y-81748380D01*
X85026380Y-81748380D01*
X85121619Y-81796000D01*
X85169238Y-81843619D01*
X85216857Y-81938857D01*
X85216857Y-82034095D01*
X85169238Y-82176952D01*
X84597809Y-82748380D01*
X85216857Y-82748380D01*
X87342214Y-59650380D02*
X87675547Y-60650380D01*
X88008880Y-59650380D01*
X88294595Y-60602761D02*
X88437452Y-60650380D01*
X88675547Y-60650380D01*
X88770785Y-60602761D01*
X88818404Y-60555142D01*
X88866023Y-60459904D01*
X88866023Y-60364666D01*
X88818404Y-60269428D01*
X88770785Y-60221809D01*
X88675547Y-60174190D01*
X88485071Y-60126571D01*
X88389833Y-60078952D01*
X88342214Y-60031333D01*
X88294595Y-59936095D01*
X88294595Y-59840857D01*
X88342214Y-59745619D01*
X88389833Y-59698000D01*
X88485071Y-59650380D01*
X88723166Y-59650380D01*
X88866023Y-59698000D01*
X86770785Y-62238000D02*
X86675547Y-62190380D01*
X86532690Y-62190380D01*
X86389833Y-62238000D01*
X86294595Y-62333238D01*
X86246976Y-62428476D01*
X86199357Y-62618952D01*
X86199357Y-62761809D01*
X86246976Y-62952285D01*
X86294595Y-63047523D01*
X86389833Y-63142761D01*
X86532690Y-63190380D01*
X86627928Y-63190380D01*
X86770785Y-63142761D01*
X86818404Y-63095142D01*
X86818404Y-62761809D01*
X86627928Y-62761809D01*
X87246976Y-63190380D02*
X87246976Y-62190380D01*
X87818404Y-63190380D01*
X87818404Y-62190380D01*
X88294595Y-63190380D02*
X88294595Y-62190380D01*
X88532690Y-62190380D01*
X88675547Y-62238000D01*
X88770785Y-62333238D01*
X88818404Y-62428476D01*
X88866023Y-62618952D01*
X88866023Y-62761809D01*
X88818404Y-62952285D01*
X88770785Y-63047523D01*
X88675547Y-63142761D01*
X88532690Y-63190380D01*
X88294595Y-63190380D01*
X63946738Y-59650380D02*
X64280071Y-60650380D01*
X64613404Y-59650380D01*
X64899119Y-60602761D02*
X65041976Y-60650380D01*
X65280071Y-60650380D01*
X65375309Y-60602761D01*
X65422928Y-60555142D01*
X65470547Y-60459904D01*
X65470547Y-60364666D01*
X65422928Y-60269428D01*
X65375309Y-60221809D01*
X65280071Y-60174190D01*
X65089595Y-60126571D01*
X64994357Y-60078952D01*
X64946738Y-60031333D01*
X64899119Y-59936095D01*
X64899119Y-59840857D01*
X64946738Y-59745619D01*
X64994357Y-59698000D01*
X65089595Y-59650380D01*
X65327690Y-59650380D01*
X65470547Y-59698000D01*
X64280071Y-79970380D02*
X64470547Y-79970380D01*
X64565785Y-80018000D01*
X64661023Y-80113238D01*
X64708642Y-80303714D01*
X64708642Y-80637047D01*
X64661023Y-80827523D01*
X64565785Y-80922761D01*
X64470547Y-80970380D01*
X64280071Y-80970380D01*
X64184833Y-80922761D01*
X64089595Y-80827523D01*
X64041976Y-80637047D01*
X64041976Y-80303714D01*
X64089595Y-80113238D01*
X64184833Y-80018000D01*
X64280071Y-79970380D01*
X65137214Y-80970380D02*
X65137214Y-79970380D01*
X65518166Y-79970380D01*
X65613404Y-80018000D01*
X65661023Y-80065619D01*
X65708642Y-80160857D01*
X65708642Y-80303714D01*
X65661023Y-80398952D01*
X65613404Y-80446571D01*
X65518166Y-80494190D01*
X65137214Y-80494190D01*
X65994357Y-79970380D02*
X66565785Y-79970380D01*
X66280071Y-80970380D02*
X66280071Y-79970380D01*
X67089595Y-79970380D02*
X67280071Y-79970380D01*
X67375309Y-80018000D01*
X67470547Y-80113238D01*
X67518166Y-80303714D01*
X67518166Y-80637047D01*
X67470547Y-80827523D01*
X67375309Y-80922761D01*
X67280071Y-80970380D01*
X67089595Y-80970380D01*
X66994357Y-80922761D01*
X66899119Y-80827523D01*
X66851500Y-80637047D01*
X66851500Y-80303714D01*
X66899119Y-80113238D01*
X66994357Y-80018000D01*
X67089595Y-79970380D01*
X67708642Y-81065619D02*
X68470547Y-81065619D01*
X68708642Y-80970380D02*
X68708642Y-79970380D01*
X69184833Y-80970380D02*
X69184833Y-79970380D01*
X69756261Y-80970380D01*
X69756261Y-79970380D01*
X75954000Y-82198595D02*
X75906380Y-82293833D01*
X75906380Y-82436690D01*
X75954000Y-82579547D01*
X76049238Y-82674785D01*
X76144476Y-82722404D01*
X76334952Y-82770023D01*
X76477809Y-82770023D01*
X76668285Y-82722404D01*
X76763523Y-82674785D01*
X76858761Y-82579547D01*
X76906380Y-82436690D01*
X76906380Y-82341452D01*
X76858761Y-82198595D01*
X76811142Y-82150976D01*
X76477809Y-82150976D01*
X76477809Y-82341452D01*
X76906380Y-81722404D02*
X75906380Y-81722404D01*
X76906380Y-81150976D01*
X75906380Y-81150976D01*
X76906380Y-80674785D02*
X75906380Y-80674785D01*
X75906380Y-80436690D01*
X75954000Y-80293833D01*
X76049238Y-80198595D01*
X76144476Y-80150976D01*
X76334952Y-80103357D01*
X76477809Y-80103357D01*
X76668285Y-80150976D01*
X76763523Y-80198595D01*
X76858761Y-80293833D01*
X76906380Y-80436690D01*
X76906380Y-80674785D01*
X71826380Y-82150976D02*
X71350190Y-82484309D01*
X71826380Y-82722404D02*
X70826380Y-82722404D01*
X70826380Y-82341452D01*
X70874000Y-82246214D01*
X70921619Y-82198595D01*
X71016857Y-82150976D01*
X71159714Y-82150976D01*
X71254952Y-82198595D01*
X71302571Y-82246214D01*
X71350190Y-82341452D01*
X71350190Y-82722404D01*
X70826380Y-81817642D02*
X71826380Y-81150976D01*
X70826380Y-81150976D02*
X71826380Y-81817642D01*
X71826380Y-80246214D02*
X71826380Y-80817642D01*
X71826380Y-80531928D02*
X70826380Y-80531928D01*
X70969238Y-80627166D01*
X71064476Y-80722404D01*
X71112095Y-80817642D01*
X82008880Y-77430380D02*
X82199357Y-77430380D01*
X82294595Y-77478000D01*
X82389833Y-77573238D01*
X82437452Y-77763714D01*
X82437452Y-78097047D01*
X82389833Y-78287523D01*
X82294595Y-78382761D01*
X82199357Y-78430380D01*
X82008880Y-78430380D01*
X81913642Y-78382761D01*
X81818404Y-78287523D01*
X81770785Y-78097047D01*
X81770785Y-77763714D01*
X81818404Y-77573238D01*
X81913642Y-77478000D01*
X82008880Y-77430380D01*
X82866023Y-78430380D02*
X82866023Y-77430380D01*
X83246976Y-77430380D01*
X83342214Y-77478000D01*
X83389833Y-77525619D01*
X83437452Y-77620857D01*
X83437452Y-77763714D01*
X83389833Y-77858952D01*
X83342214Y-77906571D01*
X83246976Y-77954190D01*
X82866023Y-77954190D01*
X83723166Y-77430380D02*
X84294595Y-77430380D01*
X84008880Y-78430380D02*
X84008880Y-77430380D01*
X84818404Y-77430380D02*
X85008880Y-77430380D01*
X85104119Y-77478000D01*
X85199357Y-77573238D01*
X85246976Y-77763714D01*
X85246976Y-78097047D01*
X85199357Y-78287523D01*
X85104119Y-78382761D01*
X85008880Y-78430380D01*
X84818404Y-78430380D01*
X84723166Y-78382761D01*
X84627928Y-78287523D01*
X84580309Y-78097047D01*
X84580309Y-77763714D01*
X84627928Y-77573238D01*
X84723166Y-77478000D01*
X84818404Y-77430380D01*
X85437452Y-78525619D02*
X86199357Y-78525619D01*
X86627928Y-77430380D02*
X86818404Y-77430380D01*
X86913642Y-77478000D01*
X87008880Y-77573238D01*
X87056500Y-77763714D01*
X87056500Y-78097047D01*
X87008880Y-78287523D01*
X86913642Y-78382761D01*
X86818404Y-78430380D01*
X86627928Y-78430380D01*
X86532690Y-78382761D01*
X86437452Y-78287523D01*
X86389833Y-78097047D01*
X86389833Y-77763714D01*
X86437452Y-77573238D01*
X86532690Y-77478000D01*
X86627928Y-77430380D01*
X87485071Y-77430380D02*
X87485071Y-78239904D01*
X87532690Y-78335142D01*
X87580309Y-78382761D01*
X87675547Y-78430380D01*
X87866023Y-78430380D01*
X87961261Y-78382761D01*
X88008880Y-78335142D01*
X88056500Y-78239904D01*
X88056500Y-77430380D01*
X88389833Y-77430380D02*
X88961261Y-77430380D01*
X88675547Y-78430380D02*
X88675547Y-77430380D01*
X63946738Y-67270380D02*
X64518166Y-67270380D01*
X64232452Y-68270380D02*
X64232452Y-67270380D01*
X64756261Y-67270380D02*
X65422928Y-68270380D01*
X65422928Y-67270380D02*
X64756261Y-68270380D01*
X64613404Y-72398000D02*
X64518166Y-72350380D01*
X64375309Y-72350380D01*
X64232452Y-72398000D01*
X64137214Y-72493238D01*
X64089595Y-72588476D01*
X64041976Y-72778952D01*
X64041976Y-72921809D01*
X64089595Y-73112285D01*
X64137214Y-73207523D01*
X64232452Y-73302761D01*
X64375309Y-73350380D01*
X64470547Y-73350380D01*
X64613404Y-73302761D01*
X64661023Y-73255142D01*
X64661023Y-72921809D01*
X64470547Y-72921809D01*
X65089595Y-73350380D02*
X65089595Y-72350380D01*
X65661023Y-73350380D01*
X65661023Y-72350380D01*
X66137214Y-73350380D02*
X66137214Y-72350380D01*
X66375309Y-72350380D01*
X66518166Y-72398000D01*
X66613404Y-72493238D01*
X66661023Y-72588476D01*
X66708642Y-72778952D01*
X66708642Y-72921809D01*
X66661023Y-73112285D01*
X66613404Y-73207523D01*
X66518166Y-73302761D01*
X66375309Y-73350380D01*
X66137214Y-73350380D01*
X63994357Y-64730380D02*
X64613404Y-64730380D01*
X64280071Y-65111333D01*
X64422928Y-65111333D01*
X64518166Y-65158952D01*
X64565785Y-65206571D01*
X64613404Y-65301809D01*
X64613404Y-65539904D01*
X64565785Y-65635142D01*
X64518166Y-65682761D01*
X64422928Y-65730380D01*
X64137214Y-65730380D01*
X64041976Y-65682761D01*
X63994357Y-65635142D01*
X64946738Y-65063714D02*
X65184833Y-65730380D01*
X65422928Y-65063714D01*
X65708642Y-64730380D02*
X66327690Y-64730380D01*
X65994357Y-65111333D01*
X66137214Y-65111333D01*
X66232452Y-65158952D01*
X66280071Y-65206571D01*
X66327690Y-65301809D01*
X66327690Y-65539904D01*
X66280071Y-65635142D01*
X66232452Y-65682761D01*
X66137214Y-65730380D01*
X65851500Y-65730380D01*
X65756261Y-65682761D01*
X65708642Y-65635142D01*
X85389833Y-70762761D02*
X85532690Y-70810380D01*
X85770785Y-70810380D01*
X85866023Y-70762761D01*
X85913642Y-70715142D01*
X85961261Y-70619904D01*
X85961261Y-70524666D01*
X85913642Y-70429428D01*
X85866023Y-70381809D01*
X85770785Y-70334190D01*
X85580309Y-70286571D01*
X85485071Y-70238952D01*
X85437452Y-70191333D01*
X85389833Y-70096095D01*
X85389833Y-70000857D01*
X85437452Y-69905619D01*
X85485071Y-69858000D01*
X85580309Y-69810380D01*
X85818404Y-69810380D01*
X85961261Y-69858000D01*
X86580309Y-70334190D02*
X86580309Y-70810380D01*
X86246976Y-69810380D02*
X86580309Y-70334190D01*
X86913642Y-69810380D01*
X87246976Y-70810380D02*
X87246976Y-69810380D01*
X87818404Y-70810380D01*
X87818404Y-69810380D01*
X88866023Y-70715142D02*
X88818404Y-70762761D01*
X88675547Y-70810380D01*
X88580309Y-70810380D01*
X88437452Y-70762761D01*
X88342214Y-70667523D01*
X88294595Y-70572285D01*
X88246976Y-70381809D01*
X88246976Y-70238952D01*
X88294595Y-70048476D01*
X88342214Y-69953238D01*
X88437452Y-69858000D01*
X88580309Y-69810380D01*
X88675547Y-69810380D01*
X88818404Y-69858000D01*
X88866023Y-69905619D01*
%TO.C,C4*%
X70715142Y-70524666D02*
X70762761Y-70572285D01*
X70810380Y-70715142D01*
X70810380Y-70810380D01*
X70762761Y-70953238D01*
X70667523Y-71048476D01*
X70572285Y-71096095D01*
X70381809Y-71143714D01*
X70238952Y-71143714D01*
X70048476Y-71096095D01*
X69953238Y-71048476D01*
X69858000Y-70953238D01*
X69810380Y-70810380D01*
X69810380Y-70715142D01*
X69858000Y-70572285D01*
X69905619Y-70524666D01*
X70143714Y-69667523D02*
X70810380Y-69667523D01*
X69762761Y-69905619D02*
X70477047Y-70143714D01*
X70477047Y-69524666D01*
%TO.C,D1*%
X68176380Y-59900095D02*
X67176380Y-59900095D01*
X67176380Y-59662000D01*
X67224000Y-59519142D01*
X67319238Y-59423904D01*
X67414476Y-59376285D01*
X67604952Y-59328666D01*
X67747809Y-59328666D01*
X67938285Y-59376285D01*
X68033523Y-59423904D01*
X68128761Y-59519142D01*
X68176380Y-59662000D01*
X68176380Y-59900095D01*
X68176380Y-58376285D02*
X68176380Y-58947714D01*
X68176380Y-58662000D02*
X67176380Y-58662000D01*
X67319238Y-58757238D01*
X67414476Y-58852476D01*
X67462095Y-58947714D01*
%TO.C,R2*%
X75890380Y-65698666D02*
X75414190Y-66032000D01*
X75890380Y-66270095D02*
X74890380Y-66270095D01*
X74890380Y-65889142D01*
X74938000Y-65793904D01*
X74985619Y-65746285D01*
X75080857Y-65698666D01*
X75223714Y-65698666D01*
X75318952Y-65746285D01*
X75366571Y-65793904D01*
X75414190Y-65889142D01*
X75414190Y-66270095D01*
X74985619Y-65317714D02*
X74938000Y-65270095D01*
X74890380Y-65174857D01*
X74890380Y-64936761D01*
X74938000Y-64841523D01*
X74985619Y-64793904D01*
X75080857Y-64746285D01*
X75176095Y-64746285D01*
X75318952Y-64793904D01*
X75890380Y-65365333D01*
X75890380Y-64746285D01*
%TO.C,C2*%
X73509142Y-70524666D02*
X73556761Y-70572285D01*
X73604380Y-70715142D01*
X73604380Y-70810380D01*
X73556761Y-70953238D01*
X73461523Y-71048476D01*
X73366285Y-71096095D01*
X73175809Y-71143714D01*
X73032952Y-71143714D01*
X72842476Y-71096095D01*
X72747238Y-71048476D01*
X72652000Y-70953238D01*
X72604380Y-70810380D01*
X72604380Y-70715142D01*
X72652000Y-70572285D01*
X72699619Y-70524666D01*
X72699619Y-70143714D02*
X72652000Y-70096095D01*
X72604380Y-70000857D01*
X72604380Y-69762761D01*
X72652000Y-69667523D01*
X72699619Y-69619904D01*
X72794857Y-69572285D01*
X72890095Y-69572285D01*
X73032952Y-69619904D01*
X73604380Y-70191333D01*
X73604380Y-69572285D01*
%TO.C,U1*%
X66048380Y-65023904D02*
X66857904Y-65023904D01*
X66953142Y-64976285D01*
X67000761Y-64928666D01*
X67048380Y-64833428D01*
X67048380Y-64642952D01*
X67000761Y-64547714D01*
X66953142Y-64500095D01*
X66857904Y-64452476D01*
X66048380Y-64452476D01*
X67048380Y-63452476D02*
X67048380Y-64023904D01*
X67048380Y-63738190D02*
X66048380Y-63738190D01*
X66191238Y-63833428D01*
X66286476Y-63928666D01*
X66334095Y-64023904D01*
%TO.C,R3*%
X77160380Y-65698666D02*
X76684190Y-66032000D01*
X77160380Y-66270095D02*
X76160380Y-66270095D01*
X76160380Y-65889142D01*
X76208000Y-65793904D01*
X76255619Y-65746285D01*
X76350857Y-65698666D01*
X76493714Y-65698666D01*
X76588952Y-65746285D01*
X76636571Y-65793904D01*
X76684190Y-65889142D01*
X76684190Y-66270095D01*
X76160380Y-65365333D02*
X76160380Y-64746285D01*
X76541333Y-65079619D01*
X76541333Y-64936761D01*
X76588952Y-64841523D01*
X76636571Y-64793904D01*
X76731809Y-64746285D01*
X76969904Y-64746285D01*
X77065142Y-64793904D01*
X77112761Y-64841523D01*
X77160380Y-64936761D01*
X77160380Y-65222476D01*
X77112761Y-65317714D01*
X77065142Y-65365333D01*
%TO.C,J1*%
X76494571Y-54209142D02*
X77637428Y-54209142D01*
X89494571Y-54209142D02*
X90637428Y-54209142D01*
X90066000Y-54780571D02*
X90066000Y-53637714D01*
%TO.C,C1*%
X72239142Y-70524666D02*
X72286761Y-70572285D01*
X72334380Y-70715142D01*
X72334380Y-70810380D01*
X72286761Y-70953238D01*
X72191523Y-71048476D01*
X72096285Y-71096095D01*
X71905809Y-71143714D01*
X71762952Y-71143714D01*
X71572476Y-71096095D01*
X71477238Y-71048476D01*
X71382000Y-70953238D01*
X71334380Y-70810380D01*
X71334380Y-70715142D01*
X71382000Y-70572285D01*
X71429619Y-70524666D01*
X72334380Y-69572285D02*
X72334380Y-70143714D01*
X72334380Y-69858000D02*
X71334380Y-69858000D01*
X71477238Y-69953238D01*
X71572476Y-70048476D01*
X71620095Y-70143714D01*
%TO.C,R1*%
X73350380Y-62396666D02*
X72874190Y-62730000D01*
X73350380Y-62968095D02*
X72350380Y-62968095D01*
X72350380Y-62587142D01*
X72398000Y-62491904D01*
X72445619Y-62444285D01*
X72540857Y-62396666D01*
X72683714Y-62396666D01*
X72778952Y-62444285D01*
X72826571Y-62491904D01*
X72874190Y-62587142D01*
X72874190Y-62968095D01*
X73350380Y-61444285D02*
X73350380Y-62015714D01*
X73350380Y-61730000D02*
X72350380Y-61730000D01*
X72493238Y-61825238D01*
X72588476Y-61920476D01*
X72636095Y-62015714D01*
%TO.C,C3*%
X69445142Y-70524666D02*
X69492761Y-70572285D01*
X69540380Y-70715142D01*
X69540380Y-70810380D01*
X69492761Y-70953238D01*
X69397523Y-71048476D01*
X69302285Y-71096095D01*
X69111809Y-71143714D01*
X68968952Y-71143714D01*
X68778476Y-71096095D01*
X68683238Y-71048476D01*
X68588000Y-70953238D01*
X68540380Y-70810380D01*
X68540380Y-70715142D01*
X68588000Y-70572285D01*
X68635619Y-70524666D01*
X68540380Y-70191333D02*
X68540380Y-69572285D01*
X68921333Y-69905619D01*
X68921333Y-69762761D01*
X68968952Y-69667523D01*
X69016571Y-69619904D01*
X69111809Y-69572285D01*
X69349904Y-69572285D01*
X69445142Y-69619904D01*
X69492761Y-69667523D01*
X69540380Y-69762761D01*
X69540380Y-70048476D01*
X69492761Y-70143714D01*
X69445142Y-70191333D01*
D11*
%TO.C,C4*%
X69998000Y-68218164D02*
X69998000Y-68433836D01*
X70718000Y-68218164D02*
X70718000Y-68433836D01*
%TO.C,D1*%
X68544000Y-58532000D02*
X68544000Y-60532000D01*
X71664000Y-59832000D02*
X71664000Y-58532000D01*
%TO.C,J6*%
X57115000Y-61478008D02*
X59775000Y-61478008D01*
X57115000Y-61478008D02*
X57115000Y-81858008D01*
X59775000Y-61478008D02*
X59775000Y-81858008D01*
X58445000Y-58878008D02*
X59775000Y-58878008D01*
X57115000Y-81858008D02*
X59775000Y-81858008D01*
X59775000Y-58878008D02*
X59775000Y-60208008D01*
%TO.C,R2*%
X74548000Y-65685641D02*
X74548000Y-65378359D01*
X73788000Y-65685641D02*
X73788000Y-65378359D01*
%TO.C,J4*%
X89602000Y-61478000D02*
X89602000Y-81858000D01*
X89602000Y-58878000D02*
X90932000Y-58878000D01*
X89602000Y-60208000D02*
X89602000Y-58878000D01*
X89602000Y-81858000D02*
X92262000Y-81858000D01*
X89602000Y-61478000D02*
X92262000Y-61478000D01*
X92262000Y-61478000D02*
X92262000Y-81858000D01*
%TO.C,J5*%
X67574000Y-83506000D02*
X87954000Y-83506000D01*
X66304000Y-86166000D02*
X64974000Y-86166000D01*
X67574000Y-86166000D02*
X67574000Y-83506000D01*
X67574000Y-86166000D02*
X87954000Y-86166000D01*
X87954000Y-86166000D02*
X87954000Y-83506000D01*
X64974000Y-86166000D02*
X64974000Y-84836000D01*
%TO.C,C2*%
X72792000Y-68218164D02*
X72792000Y-68433836D01*
X73512000Y-68218164D02*
X73512000Y-68433836D01*
%TO.C,U1*%
X67936000Y-63102000D02*
X67936000Y-62602000D01*
X71256000Y-62602000D02*
X70756000Y-62602000D01*
X71256000Y-65422000D02*
X71256000Y-65922000D01*
X67936000Y-62602000D02*
X68436000Y-62602000D01*
X67936000Y-65922000D02*
X67936000Y-65422000D01*
X71256000Y-65922000D02*
X70756000Y-65922000D01*
X71256000Y-63102000D02*
X71256000Y-62602000D01*
%TO.C,R3*%
X72518000Y-65378359D02*
X72518000Y-65685641D01*
X73278000Y-65378359D02*
X73278000Y-65685641D01*
%TO.C,J2*%
X66040000Y-51092000D02*
X66040000Y-50832000D01*
X66040000Y-55142000D02*
X66040000Y-53372000D01*
X73660000Y-55142000D02*
X73280000Y-55142000D01*
X73660000Y-53372000D02*
X73660000Y-55142000D01*
X73660000Y-50832000D02*
X73660000Y-51092000D01*
X66040000Y-55142000D02*
X66420000Y-55142000D01*
%TO.C,J1*%
X80056000Y-56812000D02*
X88776000Y-56812000D01*
X80056000Y-51392000D02*
X88776000Y-51392000D01*
X78356000Y-52692000D02*
X80056000Y-51392000D01*
X88776000Y-51392000D02*
X88776000Y-56812000D01*
X78356000Y-52692000D02*
X78356000Y-55512000D01*
X78356000Y-55512000D02*
X80056000Y-56812000D01*
%TO.C,C1*%
X71522000Y-68218164D02*
X71522000Y-68433836D01*
X72242000Y-68218164D02*
X72242000Y-68433836D01*
%TO.C,J7*%
X93182994Y-61478008D02*
X93182994Y-81858008D01*
X95842994Y-58878008D02*
X95842994Y-60208008D01*
X95842994Y-61478008D02*
X95842994Y-81858008D01*
X94512994Y-58878008D02*
X95842994Y-58878008D01*
X93182994Y-61478008D02*
X95842994Y-61478008D01*
X93182994Y-81858008D02*
X95842994Y-81858008D01*
%TO.C,R1*%
X73051641Y-64134000D02*
X72744359Y-64134000D01*
X73051641Y-63374000D02*
X72744359Y-63374000D01*
%TO.C,J8*%
X64974000Y-88367000D02*
X64974000Y-87037000D01*
X87954000Y-89697000D02*
X87954000Y-87037000D01*
X67574000Y-89697000D02*
X87954000Y-89697000D01*
X64974000Y-87037000D02*
X66304000Y-87037000D01*
X67574000Y-89697000D02*
X67574000Y-87037000D01*
X67574000Y-87037000D02*
X87954000Y-87037000D01*
%TO.C,J3*%
X60646000Y-58878008D02*
X61976000Y-58878008D01*
X60646000Y-60208008D02*
X60646000Y-58878008D01*
X60646000Y-61478008D02*
X60646000Y-81858008D01*
X60646000Y-81858008D02*
X63306000Y-81858008D01*
X63306000Y-61478008D02*
X63306000Y-81858008D01*
X60646000Y-61478008D02*
X63306000Y-61478008D01*
%TO.C,C3*%
X69448000Y-68218164D02*
X69448000Y-68433836D01*
X68728000Y-68218164D02*
X68728000Y-68433836D01*
%TD*%
M02*
