%TF.GenerationSoftware,KiCad,Pcbnew,(6.0.6-1)-1*%
%TF.CreationDate,2022-08-24T14:22:51-07:00*%
%TF.ProjectId,VIO-Board-rounded,56494f2d-426f-4617-9264-2d726f756e64,rev?*%
%TF.SameCoordinates,Original*%
%TF.FileFunction,Copper,L3,Inr*%
%TF.FilePolarity,Positive*%
%FSLAX46Y46*%
G04 Gerber Fmt 4.6, Leading zero omitted, Abs format (unit mm)*
G04 Created by KiCad (PCBNEW (6.0.6-1)-1) date 2022-08-24 14:22:51*
%MOMM*%
%LPD*%
G01*
G04 APERTURE LIST*
%TA.AperFunction,ComponentPad*%
%ADD10R,1.700000X1.700000*%
%TD*%
%TA.AperFunction,ComponentPad*%
%ADD11O,1.700000X1.700000*%
%TD*%
%TA.AperFunction,ComponentPad*%
%ADD12R,3.800000X3.800000*%
%TD*%
%TA.AperFunction,ComponentPad*%
%ADD13C,4.000000*%
%TD*%
%TA.AperFunction,ViaPad*%
%ADD14C,0.450000*%
%TD*%
%TA.AperFunction,Conductor*%
%ADD15C,0.254000*%
%TD*%
G04 APERTURE END LIST*
D10*
%TO.N,VS*%
%TO.C,J6*%
X58445000Y-60208008D03*
D11*
%TO.N,GNDREF*%
X58445000Y-62748008D03*
%TO.N,/3V3_CAM1*%
X58445000Y-65288008D03*
%TO.N,/GPIO3{slash}TX_CAM1*%
X58445000Y-67828008D03*
%TO.N,/SYNC*%
X58445000Y-70368008D03*
%TO.N,GNDREF*%
X58445000Y-72908008D03*
%TO.N,/OPTO_GND_CAM1*%
X58445000Y-75448008D03*
%TO.N,/OPTO_OUT_CAM1*%
X58445000Y-77988008D03*
%TO.N,/OPTO_IN_CAM1*%
X58445000Y-80528008D03*
%TD*%
D10*
%TO.N,VS*%
%TO.C,J4*%
X90932000Y-60208000D03*
D11*
%TO.N,GNDREF*%
X90932000Y-62748000D03*
%TO.N,/3V3_CAM2*%
X90932000Y-65288000D03*
%TO.N,/GPIO3{slash}TX_CAM2*%
X90932000Y-67828000D03*
%TO.N,/SYNC*%
X90932000Y-70368000D03*
%TO.N,GNDREF*%
X90932000Y-72908000D03*
%TO.N,/OPTO_GND_CAM2*%
X90932000Y-75448000D03*
%TO.N,/OPTO_OUT_CAM2*%
X90932000Y-77988000D03*
%TO.N,/OPTO_IN_CAM2*%
X90932000Y-80528000D03*
%TD*%
D10*
%TO.N,VBUS*%
%TO.C,J5*%
X66304000Y-84836000D03*
D11*
%TO.N,/TX1*%
X68844000Y-84836000D03*
%TO.N,/RX1*%
X71384000Y-84836000D03*
%TO.N,/SYNC*%
X73924000Y-84836000D03*
%TO.N,GNDREF*%
X76464000Y-84836000D03*
%TO.N,/RESTORE*%
X79004000Y-84836000D03*
%TO.N,/SYNC_IN*%
X81544000Y-84836000D03*
%TO.N,/TX2*%
X84084000Y-84836000D03*
%TO.N,/RX2*%
X86624000Y-84836000D03*
%TD*%
D12*
%TO.N,GNDREF*%
%TO.C,J1*%
X81066000Y-54102000D03*
D13*
%TO.N,VS*%
X86066000Y-54102000D03*
%TD*%
D10*
%TO.N,VS*%
%TO.C,J7*%
X94512994Y-60208008D03*
D11*
%TO.N,GNDREF*%
X94512994Y-62748008D03*
%TO.N,/3V3_CAM2*%
X94512994Y-65288008D03*
%TO.N,/GPIO3{slash}TX_CAM2*%
X94512994Y-67828008D03*
%TO.N,/SYNC*%
X94512994Y-70368008D03*
%TO.N,GNDREF*%
X94512994Y-72908008D03*
%TO.N,/OPTO_GND_CAM2*%
X94512994Y-75448008D03*
%TO.N,/OPTO_OUT_CAM2*%
X94512994Y-77988008D03*
%TO.N,/OPTO_IN_CAM2*%
X94512994Y-80528008D03*
%TD*%
D10*
%TO.N,VBUS*%
%TO.C,J8*%
X66304000Y-88367000D03*
D11*
%TO.N,/TX1*%
X68844000Y-88367000D03*
%TO.N,/RX1*%
X71384000Y-88367000D03*
%TO.N,/SYNC*%
X73924000Y-88367000D03*
%TO.N,GNDREF*%
X76464000Y-88367000D03*
%TO.N,/RESTORE*%
X79004000Y-88367000D03*
%TO.N,/SYNC_IN*%
X81544000Y-88367000D03*
%TO.N,/TX2*%
X84084000Y-88367000D03*
%TO.N,/RX2*%
X86624000Y-88367000D03*
%TD*%
D10*
%TO.N,VS*%
%TO.C,J3*%
X61976000Y-60208008D03*
D11*
%TO.N,GNDREF*%
X61976000Y-62748008D03*
%TO.N,/3V3_CAM1*%
X61976000Y-65288008D03*
%TO.N,/GPIO3{slash}TX_CAM1*%
X61976000Y-67828008D03*
%TO.N,/SYNC*%
X61976000Y-70368008D03*
%TO.N,GNDREF*%
X61976000Y-72908008D03*
%TO.N,/OPTO_GND_CAM1*%
X61976000Y-75448008D03*
%TO.N,/OPTO_OUT_CAM1*%
X61976000Y-77988008D03*
%TO.N,/OPTO_IN_CAM1*%
X61976000Y-80528008D03*
%TD*%
D14*
%TO.N,VBUS*%
X72390000Y-62738000D03*
X74930000Y-65024000D03*
X72136000Y-66802000D03*
X74930000Y-67818000D03*
X74930000Y-62738000D03*
X72136000Y-65786000D03*
X74930000Y-66802000D03*
%TO.N,GNDREF*%
X81026000Y-59944000D03*
X71120000Y-61722000D03*
X68326000Y-60198000D03*
X65786000Y-56134000D03*
X68580000Y-56388000D03*
X65786000Y-54864000D03*
X71882000Y-69596000D03*
X72898000Y-66802000D03*
X68834000Y-67056000D03*
X73914000Y-55118000D03*
X65786000Y-53594000D03*
X70358000Y-69596000D03*
X73914000Y-53594000D03*
X73152000Y-69596000D03*
X81026000Y-61722000D03*
X69088000Y-69596000D03*
%TO.N,+3V3*%
X71120000Y-67818000D03*
X74168000Y-63754000D03*
%TO.N,/D-*%
X70612000Y-67056000D03*
X70454000Y-56408223D03*
%TO.N,/D+*%
X69754000Y-56408223D03*
X69596000Y-67056000D03*
%TO.N,/TX2*%
X66294000Y-64008000D03*
%TO.N,/RX2*%
X66802000Y-64516000D03*
%TO.N,VS*%
X80264000Y-63246000D03*
%TD*%
D15*
%TO.N,GNDREF*%
X58445000Y-72908008D02*
X61976000Y-72908008D01*
%TO.N,/D-*%
X70454000Y-56408223D02*
X70405000Y-56457223D01*
X70356000Y-56575519D02*
X70356000Y-66618980D01*
X70484000Y-66928000D02*
X70612000Y-67056000D01*
X70356015Y-56575519D02*
G75*
G02*
X70405000Y-56457223I167285J19D01*
G01*
X70483994Y-66928006D02*
G75*
G02*
X70356000Y-66618980I309006J309006D01*
G01*
%TO.N,/D+*%
X69852000Y-56575519D02*
X69852000Y-66618980D01*
X69803000Y-56457223D02*
X69754000Y-56408223D01*
X69754000Y-56408223D02*
X69803000Y-56457223D01*
X69724000Y-66928000D02*
X69596000Y-67056000D01*
X69724006Y-66928006D02*
G75*
G03*
X69852000Y-66618980I-309006J309006D01*
G01*
X69851985Y-56575519D02*
G75*
G03*
X69803000Y-56457223I-167285J19D01*
G01*
%TO.N,/SYNC*%
X73924000Y-88367000D02*
X73924000Y-84836000D01*
X58445000Y-70368008D02*
X61976000Y-70368008D01*
X90932013Y-70368008D02*
X94512994Y-70368008D01*
X90932000Y-70368000D02*
G75*
G03*
X90932000Y-70368000I0J0D01*
G01*
%TO.N,/3V3_CAM1*%
X58445000Y-65288008D02*
X61976000Y-65288008D01*
%TO.N,/GPIO3{slash}TX_CAM1*%
X58445000Y-67828008D02*
X61976000Y-67828008D01*
%TO.N,/OPTO_GND_CAM1*%
X58445000Y-75448008D02*
X61976000Y-75448008D01*
%TO.N,/OPTO_OUT_CAM1*%
X58445000Y-77988008D02*
X61976000Y-77988008D01*
%TO.N,/OPTO_IN_CAM1*%
X58445000Y-80528008D02*
X61976000Y-80528008D01*
%TO.N,/3V3_CAM2*%
X90932013Y-65288008D02*
X94512994Y-65288008D01*
X90932000Y-65288000D02*
G75*
G03*
X90932000Y-65288000I0J0D01*
G01*
%TO.N,/GPIO3{slash}TX_CAM2*%
X90932013Y-67828008D02*
X94512994Y-67828008D01*
X90932000Y-67828000D02*
G75*
G03*
X90932000Y-67828000I0J0D01*
G01*
%TO.N,/OPTO_GND_CAM2*%
X90932013Y-75448008D02*
X94512994Y-75448008D01*
X90932000Y-75448000D02*
G75*
G03*
X90932000Y-75448000I0J0D01*
G01*
%TO.N,/OPTO_OUT_CAM2*%
X90932013Y-77988008D02*
X94512994Y-77988008D01*
X90932000Y-77988000D02*
G75*
G03*
X90932000Y-77988000I0J0D01*
G01*
%TO.N,/OPTO_IN_CAM2*%
X90932013Y-80528008D02*
X94512994Y-80528008D01*
X90932000Y-80528000D02*
G75*
G03*
X90932000Y-80528000I0J0D01*
G01*
%TO.N,/TX1*%
X68844000Y-88367000D02*
X68844000Y-84836000D01*
%TO.N,/RX1*%
X71384000Y-88367000D02*
X71384000Y-84836000D01*
%TO.N,/RESTORE*%
X79004000Y-88367000D02*
X79004000Y-84836000D01*
%TO.N,/SYNC_IN*%
X81544000Y-88367000D02*
X81544000Y-84836000D01*
%TO.N,/TX2*%
X84084000Y-86601500D02*
X84084000Y-88367000D01*
X65532000Y-65308815D02*
X65532000Y-66421000D01*
X69725840Y-72265840D02*
X66699433Y-69239433D01*
X65913000Y-64389000D02*
X66294000Y-64008000D01*
X72778158Y-73530158D02*
X82835602Y-83587602D01*
X84083998Y-86601500D02*
G75*
G03*
X82835602Y-83587602I-4262298J0D01*
G01*
X71252000Y-72897998D02*
G75*
G02*
X72778158Y-73530158I0J-2158302D01*
G01*
X65532007Y-65308815D02*
G75*
G02*
X65913000Y-64389000I1300793J15D01*
G01*
X66699426Y-69239440D02*
G75*
G02*
X65532000Y-66421000I2818474J2818440D01*
G01*
X71252000Y-72898002D02*
G75*
G02*
X69725840Y-72265840I0J2158302D01*
G01*
%TO.N,/RX2*%
X66294000Y-65383210D02*
X66294000Y-66421000D01*
X74840968Y-73052968D02*
X85375602Y-83587602D01*
X86624000Y-86601500D02*
X86624000Y-88367000D01*
X66548000Y-64770000D02*
X66802000Y-64516000D01*
X69187031Y-70711031D02*
X67281828Y-68805828D01*
X66294005Y-65383210D02*
G75*
G02*
X66548001Y-64770001I867195J10D01*
G01*
X86623998Y-86601500D02*
G75*
G03*
X85375602Y-83587602I-4262298J0D01*
G01*
X72014000Y-71882011D02*
G75*
G02*
X69187031Y-70711031I0J3997911D01*
G01*
X72014000Y-71881989D02*
G75*
G02*
X74840968Y-73052968I0J-3997911D01*
G01*
X67281819Y-68805837D02*
G75*
G02*
X66294000Y-66421000I2384881J2384837D01*
G01*
%TD*%
M02*
