%TF.GenerationSoftware,KiCad,Pcbnew,(6.0.6-1)-1*%
%TF.CreationDate,2022-08-24T14:22:51-07:00*%
%TF.ProjectId,VIO-Board-rounded,56494f2d-426f-4617-9264-2d726f756e64,rev?*%
%TF.SameCoordinates,Original*%
%TF.FileFunction,Copper,L2,Inr*%
%TF.FilePolarity,Positive*%
%FSLAX46Y46*%
G04 Gerber Fmt 4.6, Leading zero omitted, Abs format (unit mm)*
G04 Created by KiCad (PCBNEW (6.0.6-1)-1) date 2022-08-24 14:22:51*
%MOMM*%
%LPD*%
G01*
G04 APERTURE LIST*
%TA.AperFunction,ComponentPad*%
%ADD10R,1.700000X1.700000*%
%TD*%
%TA.AperFunction,ComponentPad*%
%ADD11O,1.700000X1.700000*%
%TD*%
%TA.AperFunction,ComponentPad*%
%ADD12R,3.800000X3.800000*%
%TD*%
%TA.AperFunction,ComponentPad*%
%ADD13C,4.000000*%
%TD*%
%TA.AperFunction,ViaPad*%
%ADD14C,0.450000*%
%TD*%
G04 APERTURE END LIST*
D10*
%TO.N,VS*%
%TO.C,J6*%
X58445000Y-60208008D03*
D11*
%TO.N,GNDREF*%
X58445000Y-62748008D03*
%TO.N,/3V3_CAM1*%
X58445000Y-65288008D03*
%TO.N,/GPIO3{slash}TX_CAM1*%
X58445000Y-67828008D03*
%TO.N,/SYNC*%
X58445000Y-70368008D03*
%TO.N,GNDREF*%
X58445000Y-72908008D03*
%TO.N,/OPTO_GND_CAM1*%
X58445000Y-75448008D03*
%TO.N,/OPTO_OUT_CAM1*%
X58445000Y-77988008D03*
%TO.N,/OPTO_IN_CAM1*%
X58445000Y-80528008D03*
%TD*%
D10*
%TO.N,VS*%
%TO.C,J4*%
X90932000Y-60208000D03*
D11*
%TO.N,GNDREF*%
X90932000Y-62748000D03*
%TO.N,/3V3_CAM2*%
X90932000Y-65288000D03*
%TO.N,/GPIO3{slash}TX_CAM2*%
X90932000Y-67828000D03*
%TO.N,/SYNC*%
X90932000Y-70368000D03*
%TO.N,GNDREF*%
X90932000Y-72908000D03*
%TO.N,/OPTO_GND_CAM2*%
X90932000Y-75448000D03*
%TO.N,/OPTO_OUT_CAM2*%
X90932000Y-77988000D03*
%TO.N,/OPTO_IN_CAM2*%
X90932000Y-80528000D03*
%TD*%
D10*
%TO.N,VBUS*%
%TO.C,J5*%
X66304000Y-84836000D03*
D11*
%TO.N,/TX1*%
X68844000Y-84836000D03*
%TO.N,/RX1*%
X71384000Y-84836000D03*
%TO.N,/SYNC*%
X73924000Y-84836000D03*
%TO.N,GNDREF*%
X76464000Y-84836000D03*
%TO.N,/RESTORE*%
X79004000Y-84836000D03*
%TO.N,/SYNC_IN*%
X81544000Y-84836000D03*
%TO.N,/TX2*%
X84084000Y-84836000D03*
%TO.N,/RX2*%
X86624000Y-84836000D03*
%TD*%
D12*
%TO.N,GNDREF*%
%TO.C,J1*%
X81066000Y-54102000D03*
D13*
%TO.N,VS*%
X86066000Y-54102000D03*
%TD*%
D10*
%TO.N,VS*%
%TO.C,J7*%
X94512994Y-60208008D03*
D11*
%TO.N,GNDREF*%
X94512994Y-62748008D03*
%TO.N,/3V3_CAM2*%
X94512994Y-65288008D03*
%TO.N,/GPIO3{slash}TX_CAM2*%
X94512994Y-67828008D03*
%TO.N,/SYNC*%
X94512994Y-70368008D03*
%TO.N,GNDREF*%
X94512994Y-72908008D03*
%TO.N,/OPTO_GND_CAM2*%
X94512994Y-75448008D03*
%TO.N,/OPTO_OUT_CAM2*%
X94512994Y-77988008D03*
%TO.N,/OPTO_IN_CAM2*%
X94512994Y-80528008D03*
%TD*%
D10*
%TO.N,VBUS*%
%TO.C,J8*%
X66304000Y-88367000D03*
D11*
%TO.N,/TX1*%
X68844000Y-88367000D03*
%TO.N,/RX1*%
X71384000Y-88367000D03*
%TO.N,/SYNC*%
X73924000Y-88367000D03*
%TO.N,GNDREF*%
X76464000Y-88367000D03*
%TO.N,/RESTORE*%
X79004000Y-88367000D03*
%TO.N,/SYNC_IN*%
X81544000Y-88367000D03*
%TO.N,/TX2*%
X84084000Y-88367000D03*
%TO.N,/RX2*%
X86624000Y-88367000D03*
%TD*%
D10*
%TO.N,VS*%
%TO.C,J3*%
X61976000Y-60208008D03*
D11*
%TO.N,GNDREF*%
X61976000Y-62748008D03*
%TO.N,/3V3_CAM1*%
X61976000Y-65288008D03*
%TO.N,/GPIO3{slash}TX_CAM1*%
X61976000Y-67828008D03*
%TO.N,/SYNC*%
X61976000Y-70368008D03*
%TO.N,GNDREF*%
X61976000Y-72908008D03*
%TO.N,/OPTO_GND_CAM1*%
X61976000Y-75448008D03*
%TO.N,/OPTO_OUT_CAM1*%
X61976000Y-77988008D03*
%TO.N,/OPTO_IN_CAM1*%
X61976000Y-80528008D03*
%TD*%
D14*
%TO.N,VBUS*%
X72390000Y-62738000D03*
X74930000Y-65024000D03*
X72136000Y-66802000D03*
X74930000Y-67818000D03*
X74930000Y-62738000D03*
X72136000Y-65786000D03*
X74930000Y-66802000D03*
%TO.N,GNDREF*%
X81026000Y-59944000D03*
X71120000Y-61722000D03*
X68326000Y-60198000D03*
X65786000Y-56134000D03*
X68580000Y-56388000D03*
X65786000Y-54864000D03*
X71882000Y-69596000D03*
X72898000Y-66802000D03*
X68834000Y-67056000D03*
X73914000Y-55118000D03*
X65786000Y-53594000D03*
X70358000Y-69596000D03*
X73914000Y-53594000D03*
X73152000Y-69596000D03*
X81026000Y-61722000D03*
X69088000Y-69596000D03*
%TO.N,+3V3*%
X71120000Y-67818000D03*
X74168000Y-63754000D03*
%TO.N,/D-*%
X70612000Y-67056000D03*
X70454000Y-56408223D03*
%TO.N,/D+*%
X69754000Y-56408223D03*
X69596000Y-67056000D03*
%TO.N,/TX2*%
X66294000Y-64008000D03*
%TO.N,/RX2*%
X66802000Y-64516000D03*
%TO.N,VS*%
X80264000Y-63246000D03*
%TD*%
%TA.AperFunction,Conductor*%
%TO.N,GNDREF*%
G36*
X93713103Y-51056921D02*
G01*
X93726000Y-51059486D01*
X93738172Y-51057065D01*
X93750580Y-51057065D01*
X93750580Y-51057385D01*
X93761456Y-51056645D01*
X93794145Y-51058622D01*
X93993880Y-51070704D01*
X94008984Y-51072538D01*
X94265458Y-51119538D01*
X94280231Y-51123179D01*
X94529180Y-51200755D01*
X94543398Y-51206147D01*
X94781182Y-51313165D01*
X94794638Y-51320227D01*
X95017788Y-51455126D01*
X95030310Y-51463769D01*
X95235573Y-51624583D01*
X95246961Y-51634673D01*
X95431327Y-51819039D01*
X95441417Y-51830427D01*
X95595102Y-52026590D01*
X95602231Y-52035690D01*
X95610873Y-52048211D01*
X95745773Y-52271362D01*
X95752835Y-52284818D01*
X95859851Y-52522598D01*
X95865245Y-52536820D01*
X95928722Y-52740524D01*
X95942821Y-52785769D01*
X95946462Y-52800542D01*
X95993462Y-53057016D01*
X95995296Y-53072120D01*
X96009355Y-53304544D01*
X96008615Y-53315420D01*
X96008935Y-53315420D01*
X96008935Y-53327828D01*
X96006514Y-53340000D01*
X96008935Y-53352170D01*
X96009079Y-53352894D01*
X96011500Y-53377476D01*
X96011500Y-62182736D01*
X95991498Y-62250857D01*
X95937842Y-62297350D01*
X95867568Y-62307454D01*
X95802988Y-62277960D01*
X95769950Y-62232978D01*
X95715966Y-62108822D01*
X95711099Y-62099747D01*
X95595420Y-61920934D01*
X95589130Y-61912765D01*
X95445800Y-61755248D01*
X95438267Y-61748223D01*
X95271133Y-61616230D01*
X95262546Y-61610525D01*
X95150759Y-61548815D01*
X95100789Y-61498383D01*
X95086017Y-61428940D01*
X95111133Y-61362535D01*
X95168164Y-61320250D01*
X95211652Y-61312507D01*
X95388060Y-61312507D01*
X95423812Y-61305396D01*
X95450120Y-61300164D01*
X95450122Y-61300163D01*
X95462295Y-61297742D01*
X95472615Y-61290847D01*
X95472616Y-61290846D01*
X95536162Y-61248385D01*
X95546478Y-61241492D01*
X95602728Y-61157309D01*
X95617494Y-61083075D01*
X95617493Y-59332942D01*
X95602728Y-59258707D01*
X95595827Y-59248378D01*
X95553371Y-59184840D01*
X95546478Y-59174524D01*
X95462295Y-59118274D01*
X95388061Y-59103508D01*
X94513136Y-59103508D01*
X93637928Y-59103509D01*
X93602176Y-59110620D01*
X93575868Y-59115852D01*
X93575866Y-59115853D01*
X93563693Y-59118274D01*
X93553373Y-59125169D01*
X93553372Y-59125170D01*
X93492979Y-59165524D01*
X93479510Y-59174524D01*
X93423260Y-59258707D01*
X93408494Y-59332941D01*
X93408495Y-61083074D01*
X93415606Y-61118826D01*
X93420837Y-61145126D01*
X93423260Y-61157309D01*
X93479510Y-61241492D01*
X93563693Y-61297742D01*
X93637927Y-61312508D01*
X93814494Y-61312508D01*
X93882615Y-61332510D01*
X93929108Y-61386166D01*
X93939212Y-61456440D01*
X93909718Y-61521020D01*
X93872675Y-61550271D01*
X93791452Y-61592553D01*
X93782732Y-61598044D01*
X93612427Y-61725913D01*
X93604720Y-61732756D01*
X93457584Y-61886725D01*
X93451098Y-61894735D01*
X93331092Y-62070657D01*
X93325994Y-62079631D01*
X93236332Y-62272791D01*
X93232769Y-62282478D01*
X93177383Y-62482191D01*
X93178906Y-62490615D01*
X93191286Y-62494008D01*
X94640994Y-62494008D01*
X94709115Y-62514010D01*
X94755608Y-62567666D01*
X94766994Y-62620008D01*
X94766994Y-62876008D01*
X94746992Y-62944129D01*
X94693336Y-62990622D01*
X94640994Y-63002008D01*
X93196219Y-63002008D01*
X93182688Y-63005981D01*
X93181251Y-63015974D01*
X93211559Y-63150454D01*
X93214639Y-63160283D01*
X93294764Y-63357611D01*
X93299407Y-63366802D01*
X93410688Y-63548396D01*
X93416771Y-63556707D01*
X93556207Y-63717675D01*
X93563574Y-63724891D01*
X93727428Y-63860924D01*
X93735875Y-63866839D01*
X93919750Y-63974287D01*
X93929036Y-63978737D01*
X94078118Y-64035665D01*
X94134621Y-64078652D01*
X94158914Y-64145363D01*
X94143284Y-64214618D01*
X94092693Y-64264429D01*
X94076779Y-64271587D01*
X94035457Y-64286832D01*
X93861004Y-64390620D01*
X93856664Y-64394426D01*
X93856660Y-64394429D01*
X93749834Y-64488114D01*
X93708386Y-64524463D01*
X93582714Y-64683877D01*
X93580028Y-64688983D01*
X93580023Y-64688991D01*
X93540679Y-64763772D01*
X93488197Y-64863523D01*
X93478096Y-64896054D01*
X93429717Y-65051861D01*
X93428001Y-65057386D01*
X93404142Y-65258972D01*
X93417418Y-65461530D01*
X93418839Y-65467126D01*
X93418840Y-65467131D01*
X93439111Y-65546945D01*
X93467386Y-65658277D01*
X93469803Y-65663520D01*
X93507001Y-65744208D01*
X93552371Y-65842624D01*
X93555704Y-65847340D01*
X93666186Y-66003669D01*
X93669527Y-66008397D01*
X93673669Y-66012432D01*
X93711008Y-66048806D01*
X93814932Y-66150043D01*
X93819736Y-66153253D01*
X93869851Y-66186739D01*
X93983714Y-66262820D01*
X93989017Y-66265098D01*
X93989020Y-66265100D01*
X94164915Y-66340670D01*
X94170222Y-66342950D01*
X94233768Y-66357329D01*
X94362573Y-66386475D01*
X94362578Y-66386476D01*
X94368210Y-66387750D01*
X94373981Y-66387977D01*
X94373983Y-66387977D01*
X94433750Y-66390325D01*
X94571047Y-66395720D01*
X94693053Y-66378030D01*
X94766225Y-66367421D01*
X94766230Y-66367420D01*
X94771939Y-66366592D01*
X94777403Y-66364737D01*
X94777408Y-66364736D01*
X94958687Y-66303200D01*
X94958692Y-66303198D01*
X94964159Y-66301342D01*
X95141270Y-66202155D01*
X95145722Y-66198453D01*
X95292907Y-66076039D01*
X95297339Y-66072353D01*
X95420314Y-65924493D01*
X95423447Y-65920726D01*
X95423449Y-65920723D01*
X95427141Y-65916284D01*
X95500104Y-65786000D01*
X95523504Y-65744216D01*
X95523508Y-65744208D01*
X95526328Y-65739173D01*
X95528184Y-65733706D01*
X95528186Y-65733701D01*
X95589722Y-65552422D01*
X95589724Y-65552414D01*
X95591578Y-65546953D01*
X95592406Y-65541244D01*
X95592407Y-65541239D01*
X95614319Y-65390109D01*
X95620706Y-65346061D01*
X95622226Y-65288008D01*
X95603652Y-65085867D01*
X95602082Y-65080299D01*
X95550119Y-64896054D01*
X95550118Y-64896052D01*
X95548551Y-64890495D01*
X95544543Y-64882366D01*
X95461325Y-64713617D01*
X95458770Y-64708436D01*
X95431086Y-64671362D01*
X95405702Y-64637369D01*
X95337314Y-64545787D01*
X95188252Y-64407995D01*
X95183369Y-64404914D01*
X95183365Y-64404911D01*
X95021458Y-64302756D01*
X95016575Y-64299675D01*
X94944608Y-64270963D01*
X94888749Y-64227142D01*
X94865449Y-64160077D01*
X94882105Y-64091062D01*
X94933430Y-64042008D01*
X94955092Y-64033247D01*
X95005246Y-64018200D01*
X95014836Y-64014441D01*
X95206089Y-63920747D01*
X95214939Y-63915472D01*
X95388322Y-63791800D01*
X95396194Y-63785147D01*
X95547046Y-63634820D01*
X95553724Y-63626973D01*
X95677997Y-63454028D01*
X95683307Y-63445191D01*
X95772543Y-63264637D01*
X95820657Y-63212430D01*
X95889358Y-63194523D01*
X95956834Y-63216602D01*
X96001663Y-63271656D01*
X96011500Y-63320464D01*
X96011500Y-72342736D01*
X95991498Y-72410857D01*
X95937842Y-72457350D01*
X95867568Y-72467454D01*
X95802988Y-72437960D01*
X95769950Y-72392978D01*
X95715966Y-72268822D01*
X95711099Y-72259747D01*
X95595420Y-72080934D01*
X95589130Y-72072765D01*
X95445800Y-71915248D01*
X95438267Y-71908223D01*
X95271133Y-71776230D01*
X95262546Y-71770525D01*
X95076111Y-71667607D01*
X95066699Y-71663377D01*
X94952385Y-71622896D01*
X94894849Y-71581302D01*
X94868933Y-71515204D01*
X94882867Y-71445588D01*
X94932226Y-71394557D01*
X94953937Y-71384812D01*
X94964159Y-71381342D01*
X95141270Y-71282155D01*
X95145722Y-71278453D01*
X95292907Y-71156039D01*
X95297339Y-71152353D01*
X95427141Y-70996284D01*
X95526328Y-70819173D01*
X95528184Y-70813706D01*
X95528186Y-70813701D01*
X95589722Y-70632422D01*
X95589724Y-70632414D01*
X95591578Y-70626953D01*
X95592406Y-70621244D01*
X95592407Y-70621239D01*
X95620173Y-70429735D01*
X95620174Y-70429727D01*
X95620706Y-70426061D01*
X95622226Y-70368008D01*
X95603652Y-70165867D01*
X95602082Y-70160299D01*
X95550119Y-69976054D01*
X95550118Y-69976052D01*
X95548551Y-69970495D01*
X95537972Y-69949041D01*
X95461325Y-69793617D01*
X95458770Y-69788436D01*
X95337314Y-69625787D01*
X95188252Y-69487995D01*
X95183369Y-69484914D01*
X95183365Y-69484911D01*
X95021458Y-69382756D01*
X95016575Y-69379675D01*
X94828033Y-69304454D01*
X94822373Y-69303328D01*
X94822369Y-69303327D01*
X94634607Y-69265979D01*
X94634604Y-69265979D01*
X94628940Y-69264852D01*
X94623165Y-69264776D01*
X94623161Y-69264776D01*
X94521787Y-69263449D01*
X94425965Y-69262195D01*
X94420268Y-69263174D01*
X94420267Y-69263174D01*
X94231648Y-69295585D01*
X94225904Y-69296572D01*
X94035457Y-69366832D01*
X93861004Y-69470620D01*
X93856664Y-69474426D01*
X93856660Y-69474429D01*
X93836726Y-69491911D01*
X93708386Y-69604463D01*
X93582714Y-69763877D01*
X93580028Y-69768983D01*
X93580023Y-69768991D01*
X93567071Y-69793609D01*
X93488197Y-69943523D01*
X93478096Y-69976054D01*
X93429717Y-70131861D01*
X93428001Y-70137386D01*
X93404142Y-70338972D01*
X93417418Y-70541530D01*
X93418839Y-70547126D01*
X93418840Y-70547131D01*
X93439111Y-70626945D01*
X93467386Y-70738277D01*
X93469803Y-70743520D01*
X93507001Y-70824208D01*
X93552371Y-70922624D01*
X93555704Y-70927340D01*
X93666186Y-71083669D01*
X93669527Y-71088397D01*
X93814932Y-71230043D01*
X93983714Y-71342820D01*
X93989017Y-71345098D01*
X93989020Y-71345100D01*
X94085948Y-71386743D01*
X94140641Y-71432011D01*
X94162178Y-71499662D01*
X94143721Y-71568218D01*
X94091130Y-71615912D01*
X94075355Y-71622276D01*
X93989862Y-71650220D01*
X93980353Y-71654217D01*
X93791457Y-71752550D01*
X93782732Y-71758044D01*
X93612427Y-71885913D01*
X93604720Y-71892756D01*
X93457584Y-72046725D01*
X93451098Y-72054735D01*
X93331092Y-72230657D01*
X93325994Y-72239631D01*
X93236332Y-72432791D01*
X93232769Y-72442478D01*
X93177383Y-72642191D01*
X93178906Y-72650615D01*
X93191286Y-72654008D01*
X94640994Y-72654008D01*
X94709115Y-72674010D01*
X94755608Y-72727666D01*
X94766994Y-72780008D01*
X94766994Y-73036008D01*
X94746992Y-73104129D01*
X94693336Y-73150622D01*
X94640994Y-73162008D01*
X93196219Y-73162008D01*
X93182688Y-73165981D01*
X93181251Y-73175974D01*
X93211559Y-73310454D01*
X93214639Y-73320283D01*
X93294764Y-73517611D01*
X93299407Y-73526802D01*
X93410688Y-73708396D01*
X93416771Y-73716707D01*
X93556207Y-73877675D01*
X93563574Y-73884891D01*
X93727428Y-74020924D01*
X93735875Y-74026839D01*
X93919750Y-74134287D01*
X93929036Y-74138737D01*
X94078118Y-74195665D01*
X94134621Y-74238652D01*
X94158914Y-74305363D01*
X94143284Y-74374618D01*
X94092693Y-74424429D01*
X94076779Y-74431587D01*
X94035457Y-74446832D01*
X93861004Y-74550620D01*
X93856664Y-74554426D01*
X93856660Y-74554429D01*
X93836726Y-74571911D01*
X93708386Y-74684463D01*
X93582714Y-74843877D01*
X93580028Y-74848983D01*
X93580023Y-74848991D01*
X93567071Y-74873609D01*
X93488197Y-75023523D01*
X93478096Y-75056054D01*
X93429717Y-75211861D01*
X93428001Y-75217386D01*
X93404142Y-75418972D01*
X93417418Y-75621530D01*
X93418839Y-75627126D01*
X93418840Y-75627131D01*
X93439111Y-75706945D01*
X93467386Y-75818277D01*
X93469803Y-75823520D01*
X93507001Y-75904208D01*
X93552371Y-76002624D01*
X93555704Y-76007340D01*
X93666186Y-76163669D01*
X93669527Y-76168397D01*
X93814932Y-76310043D01*
X93983714Y-76422820D01*
X93989017Y-76425098D01*
X93989020Y-76425100D01*
X94164915Y-76500670D01*
X94170222Y-76502950D01*
X94243238Y-76519472D01*
X94362573Y-76546475D01*
X94362578Y-76546476D01*
X94368210Y-76547750D01*
X94373981Y-76547977D01*
X94373983Y-76547977D01*
X94433750Y-76550325D01*
X94571047Y-76555720D01*
X94671493Y-76541156D01*
X94766225Y-76527421D01*
X94766230Y-76527420D01*
X94771939Y-76526592D01*
X94777403Y-76524737D01*
X94777408Y-76524736D01*
X94958687Y-76463200D01*
X94958692Y-76463198D01*
X94964159Y-76461342D01*
X95141270Y-76362155D01*
X95145722Y-76358453D01*
X95292907Y-76236039D01*
X95297339Y-76232353D01*
X95427141Y-76076284D01*
X95526328Y-75899173D01*
X95528184Y-75893706D01*
X95528186Y-75893701D01*
X95589722Y-75712422D01*
X95589724Y-75712414D01*
X95591578Y-75706953D01*
X95592406Y-75701244D01*
X95592407Y-75701239D01*
X95620173Y-75509735D01*
X95620174Y-75509727D01*
X95620706Y-75506061D01*
X95622226Y-75448008D01*
X95603652Y-75245867D01*
X95602082Y-75240299D01*
X95550119Y-75056054D01*
X95550118Y-75056052D01*
X95548551Y-75050495D01*
X95537972Y-75029041D01*
X95461325Y-74873617D01*
X95458770Y-74868436D01*
X95337314Y-74705787D01*
X95188252Y-74567995D01*
X95183369Y-74564914D01*
X95183365Y-74564911D01*
X95021458Y-74462756D01*
X95016575Y-74459675D01*
X94944608Y-74430963D01*
X94888749Y-74387142D01*
X94865449Y-74320077D01*
X94882105Y-74251062D01*
X94933430Y-74202008D01*
X94955092Y-74193247D01*
X95005246Y-74178200D01*
X95014836Y-74174441D01*
X95206089Y-74080747D01*
X95214939Y-74075472D01*
X95388322Y-73951800D01*
X95396194Y-73945147D01*
X95547046Y-73794820D01*
X95553724Y-73786973D01*
X95677997Y-73614028D01*
X95683307Y-73605191D01*
X95772543Y-73424637D01*
X95820657Y-73372430D01*
X95889358Y-73354523D01*
X95956834Y-73376602D01*
X96001663Y-73431656D01*
X96011500Y-73480464D01*
X96011500Y-87846524D01*
X96009079Y-87871103D01*
X96006514Y-87884000D01*
X96008935Y-87896172D01*
X96008935Y-87908580D01*
X96008615Y-87908580D01*
X96009355Y-87919456D01*
X95995296Y-88151880D01*
X95993462Y-88166984D01*
X95946462Y-88423458D01*
X95942821Y-88438231D01*
X95865940Y-88684952D01*
X95865247Y-88687175D01*
X95859853Y-88701398D01*
X95752835Y-88939182D01*
X95745773Y-88952638D01*
X95617988Y-89164020D01*
X95610874Y-89175788D01*
X95602232Y-89188308D01*
X95527284Y-89283972D01*
X95441417Y-89393573D01*
X95431327Y-89404961D01*
X95246961Y-89589327D01*
X95235573Y-89599417D01*
X95110245Y-89697606D01*
X95030310Y-89760231D01*
X95017789Y-89768873D01*
X94794638Y-89903773D01*
X94781182Y-89910835D01*
X94543398Y-90017853D01*
X94529180Y-90023245D01*
X94371854Y-90072270D01*
X94280231Y-90100821D01*
X94265458Y-90104462D01*
X94008984Y-90151462D01*
X93993880Y-90153296D01*
X93808424Y-90164514D01*
X93773690Y-90166615D01*
X93761456Y-90167355D01*
X93750580Y-90166615D01*
X93750580Y-90166935D01*
X93738172Y-90166935D01*
X93726000Y-90164514D01*
X93713103Y-90167079D01*
X93688524Y-90169500D01*
X59219476Y-90169500D01*
X59194897Y-90167079D01*
X59182000Y-90164514D01*
X59169828Y-90166935D01*
X59157420Y-90166935D01*
X59157420Y-90166615D01*
X59146544Y-90167355D01*
X59134311Y-90166615D01*
X59099576Y-90164514D01*
X58914120Y-90153296D01*
X58899016Y-90151462D01*
X58642542Y-90104462D01*
X58627769Y-90100821D01*
X58536146Y-90072270D01*
X58378820Y-90023245D01*
X58364602Y-90017853D01*
X58126818Y-89910835D01*
X58113362Y-89903773D01*
X57890211Y-89768873D01*
X57877690Y-89760231D01*
X57797756Y-89697606D01*
X57672427Y-89599417D01*
X57661039Y-89589327D01*
X57476673Y-89404961D01*
X57466583Y-89393573D01*
X57380716Y-89283972D01*
X57305768Y-89188308D01*
X57297126Y-89175788D01*
X57290012Y-89164020D01*
X57162227Y-88952638D01*
X57155165Y-88939182D01*
X57048147Y-88701398D01*
X57042753Y-88687175D01*
X57042061Y-88684952D01*
X56965179Y-88438231D01*
X56961538Y-88423458D01*
X56914538Y-88166984D01*
X56912704Y-88151880D01*
X56898645Y-87919456D01*
X56899385Y-87908580D01*
X56899065Y-87908580D01*
X56899065Y-87896172D01*
X56901486Y-87884000D01*
X56898921Y-87871103D01*
X56896500Y-87846524D01*
X56896500Y-87819964D01*
X57824112Y-87819964D01*
X57824312Y-87825292D01*
X57824312Y-87825294D01*
X57826464Y-87882599D01*
X57825705Y-87882628D01*
X57826034Y-87884016D01*
X57826340Y-87883989D01*
X57826374Y-87884377D01*
X57826465Y-87885838D01*
X57826523Y-87886085D01*
X57826648Y-87887507D01*
X57832736Y-88049669D01*
X57833831Y-88054888D01*
X57846628Y-88115879D01*
X57845861Y-88116040D01*
X57846841Y-88118316D01*
X57846937Y-88119408D01*
X57848361Y-88124722D01*
X57848464Y-88125307D01*
X57849635Y-88130210D01*
X57879939Y-88274637D01*
X57902683Y-88332229D01*
X57905975Y-88340566D01*
X57906724Y-88342541D01*
X57908097Y-88347663D01*
X57910422Y-88352649D01*
X57910423Y-88352651D01*
X57910947Y-88353775D01*
X57913934Y-88360717D01*
X57964372Y-88488436D01*
X58001273Y-88549246D01*
X58002811Y-88552126D01*
X58002890Y-88552080D01*
X58005639Y-88556841D01*
X58007965Y-88561829D01*
X58011122Y-88566337D01*
X58011124Y-88566341D01*
X58012674Y-88568555D01*
X58017181Y-88575462D01*
X58032279Y-88600342D01*
X58083621Y-88684952D01*
X58087116Y-88688979D01*
X58087117Y-88688981D01*
X58133993Y-88743000D01*
X58137555Y-88747563D01*
X58140347Y-88750890D01*
X58143505Y-88755401D01*
X58149791Y-88761687D01*
X58155861Y-88768201D01*
X58199218Y-88818165D01*
X58234276Y-88858566D01*
X58238407Y-88861953D01*
X58298309Y-88911070D01*
X58305574Y-88917652D01*
X58306706Y-88918602D01*
X58310599Y-88922495D01*
X58315103Y-88925649D01*
X58315108Y-88925653D01*
X58317936Y-88927633D01*
X58325554Y-88933410D01*
X58407901Y-89000931D01*
X58407907Y-89000935D01*
X58412029Y-89004315D01*
X58416668Y-89006955D01*
X58416667Y-89006955D01*
X58489355Y-89048331D01*
X58499296Y-89054622D01*
X58499660Y-89054877D01*
X58499667Y-89054881D01*
X58504171Y-89058035D01*
X58509155Y-89060359D01*
X58509160Y-89060362D01*
X58511875Y-89061628D01*
X58520952Y-89066318D01*
X58549677Y-89082669D01*
X58611798Y-89118030D01*
X58691368Y-89146913D01*
X58701498Y-89150590D01*
X58711753Y-89154833D01*
X58713348Y-89155577D01*
X58713350Y-89155578D01*
X58718337Y-89157903D01*
X58723653Y-89159327D01*
X58723655Y-89159328D01*
X58724719Y-89159613D01*
X58725702Y-89159876D01*
X58736081Y-89163143D01*
X58827871Y-89196461D01*
X58928443Y-89214648D01*
X58938616Y-89216926D01*
X58946592Y-89219063D01*
X58952990Y-89219623D01*
X58964412Y-89221152D01*
X59054069Y-89237364D01*
X59058208Y-89237559D01*
X59058215Y-89237560D01*
X59076670Y-89238430D01*
X59076677Y-89238430D01*
X59078158Y-89238500D01*
X59239712Y-89238500D01*
X59319444Y-89231735D01*
X59405733Y-89224413D01*
X59405737Y-89224412D01*
X59411044Y-89223962D01*
X59416199Y-89222624D01*
X59416205Y-89222623D01*
X59628368Y-89167556D01*
X59628367Y-89167556D01*
X59633539Y-89166214D01*
X59780412Y-89100052D01*
X59838262Y-89073993D01*
X59838265Y-89073992D01*
X59843123Y-89071803D01*
X59854442Y-89064183D01*
X59877987Y-89048331D01*
X60033803Y-88943430D01*
X60038265Y-88939174D01*
X60159828Y-88823208D01*
X60200128Y-88784764D01*
X60337342Y-88600342D01*
X60353504Y-88568555D01*
X60439102Y-88400194D01*
X60439102Y-88400193D01*
X60441520Y-88395438D01*
X60509685Y-88175911D01*
X60532323Y-88005115D01*
X60539188Y-87953319D01*
X60539188Y-87953316D01*
X60539888Y-87948036D01*
X60539511Y-87937980D01*
X60537536Y-87885401D01*
X60538295Y-87885372D01*
X60537966Y-87883984D01*
X60537660Y-87884011D01*
X60537626Y-87883623D01*
X60537535Y-87882162D01*
X60537477Y-87881915D01*
X60537352Y-87880493D01*
X60531264Y-87718331D01*
X60517372Y-87652121D01*
X60518139Y-87651960D01*
X60517159Y-87649684D01*
X60517063Y-87648592D01*
X60515639Y-87643278D01*
X60515536Y-87642693D01*
X60514362Y-87637778D01*
X60510812Y-87620855D01*
X60484061Y-87493363D01*
X60483496Y-87491933D01*
X65199500Y-87491933D01*
X65199501Y-89242066D01*
X65214266Y-89316301D01*
X65221161Y-89326620D01*
X65221162Y-89326622D01*
X65261516Y-89387015D01*
X65270516Y-89400484D01*
X65354699Y-89456734D01*
X65428933Y-89471500D01*
X66303858Y-89471500D01*
X67179066Y-89471499D01*
X67214818Y-89464388D01*
X67241126Y-89459156D01*
X67241128Y-89459155D01*
X67253301Y-89456734D01*
X67263621Y-89449839D01*
X67263622Y-89449838D01*
X67327168Y-89407377D01*
X67337484Y-89400484D01*
X67393734Y-89316301D01*
X67408500Y-89242067D01*
X67408499Y-88337964D01*
X67735148Y-88337964D01*
X67748424Y-88540522D01*
X67749845Y-88546118D01*
X67749846Y-88546123D01*
X67786128Y-88688981D01*
X67798392Y-88737269D01*
X67800809Y-88742512D01*
X67838010Y-88823208D01*
X67883377Y-88921616D01*
X67886710Y-88926332D01*
X67991066Y-89073993D01*
X68000533Y-89087389D01*
X68145938Y-89229035D01*
X68150742Y-89232245D01*
X68160103Y-89238500D01*
X68314720Y-89341812D01*
X68320023Y-89344090D01*
X68320026Y-89344092D01*
X68495921Y-89419662D01*
X68501228Y-89421942D01*
X68574244Y-89438464D01*
X68693579Y-89465467D01*
X68693584Y-89465468D01*
X68699216Y-89466742D01*
X68704987Y-89466969D01*
X68704989Y-89466969D01*
X68764756Y-89469317D01*
X68902053Y-89474712D01*
X69009348Y-89459155D01*
X69097231Y-89446413D01*
X69097236Y-89446412D01*
X69102945Y-89445584D01*
X69108409Y-89443729D01*
X69108414Y-89443728D01*
X69289693Y-89382192D01*
X69289698Y-89382190D01*
X69295165Y-89380334D01*
X69472276Y-89281147D01*
X69511969Y-89248135D01*
X69599696Y-89175172D01*
X69628345Y-89151345D01*
X69685463Y-89082669D01*
X69754453Y-88999718D01*
X69754455Y-88999715D01*
X69758147Y-88995276D01*
X69857334Y-88818165D01*
X69859190Y-88812698D01*
X69859192Y-88812693D01*
X69920728Y-88631414D01*
X69920729Y-88631409D01*
X69922584Y-88625945D01*
X69923412Y-88620236D01*
X69923413Y-88620231D01*
X69951179Y-88428727D01*
X69951712Y-88425053D01*
X69953232Y-88367000D01*
X69950564Y-88337964D01*
X70275148Y-88337964D01*
X70288424Y-88540522D01*
X70289845Y-88546118D01*
X70289846Y-88546123D01*
X70326128Y-88688981D01*
X70338392Y-88737269D01*
X70340809Y-88742512D01*
X70378010Y-88823208D01*
X70423377Y-88921616D01*
X70426710Y-88926332D01*
X70531066Y-89073993D01*
X70540533Y-89087389D01*
X70685938Y-89229035D01*
X70690742Y-89232245D01*
X70700103Y-89238500D01*
X70854720Y-89341812D01*
X70860023Y-89344090D01*
X70860026Y-89344092D01*
X71035921Y-89419662D01*
X71041228Y-89421942D01*
X71114244Y-89438464D01*
X71233579Y-89465467D01*
X71233584Y-89465468D01*
X71239216Y-89466742D01*
X71244987Y-89466969D01*
X71244989Y-89466969D01*
X71304756Y-89469317D01*
X71442053Y-89474712D01*
X71549348Y-89459155D01*
X71637231Y-89446413D01*
X71637236Y-89446412D01*
X71642945Y-89445584D01*
X71648409Y-89443729D01*
X71648414Y-89443728D01*
X71829693Y-89382192D01*
X71829698Y-89382190D01*
X71835165Y-89380334D01*
X72012276Y-89281147D01*
X72051969Y-89248135D01*
X72139696Y-89175172D01*
X72168345Y-89151345D01*
X72225463Y-89082669D01*
X72294453Y-88999718D01*
X72294455Y-88999715D01*
X72298147Y-88995276D01*
X72397334Y-88818165D01*
X72399190Y-88812698D01*
X72399192Y-88812693D01*
X72460728Y-88631414D01*
X72460729Y-88631409D01*
X72462584Y-88625945D01*
X72463412Y-88620236D01*
X72463413Y-88620231D01*
X72491179Y-88428727D01*
X72491712Y-88425053D01*
X72493232Y-88367000D01*
X72490564Y-88337964D01*
X72815148Y-88337964D01*
X72828424Y-88540522D01*
X72829845Y-88546118D01*
X72829846Y-88546123D01*
X72866128Y-88688981D01*
X72878392Y-88737269D01*
X72880809Y-88742512D01*
X72918010Y-88823208D01*
X72963377Y-88921616D01*
X72966710Y-88926332D01*
X73071066Y-89073993D01*
X73080533Y-89087389D01*
X73225938Y-89229035D01*
X73230742Y-89232245D01*
X73240103Y-89238500D01*
X73394720Y-89341812D01*
X73400023Y-89344090D01*
X73400026Y-89344092D01*
X73575921Y-89419662D01*
X73581228Y-89421942D01*
X73654244Y-89438464D01*
X73773579Y-89465467D01*
X73773584Y-89465468D01*
X73779216Y-89466742D01*
X73784987Y-89466969D01*
X73784989Y-89466969D01*
X73844756Y-89469317D01*
X73982053Y-89474712D01*
X74089348Y-89459155D01*
X74177231Y-89446413D01*
X74177236Y-89446412D01*
X74182945Y-89445584D01*
X74188409Y-89443729D01*
X74188414Y-89443728D01*
X74369693Y-89382192D01*
X74369698Y-89382190D01*
X74375165Y-89380334D01*
X74552276Y-89281147D01*
X74591969Y-89248135D01*
X74679696Y-89175172D01*
X74708345Y-89151345D01*
X74765463Y-89082669D01*
X74834453Y-88999718D01*
X74834455Y-88999715D01*
X74838147Y-88995276D01*
X74937334Y-88818165D01*
X74939720Y-88811135D01*
X74940170Y-88810496D01*
X74941541Y-88807416D01*
X74942146Y-88807685D01*
X74980553Y-88753059D01*
X75046305Y-88726278D01*
X75116098Y-88739295D01*
X75167773Y-88787980D01*
X75175777Y-88804229D01*
X75245770Y-88976603D01*
X75250413Y-88985794D01*
X75361694Y-89167388D01*
X75367777Y-89175699D01*
X75507213Y-89336667D01*
X75514580Y-89343883D01*
X75678434Y-89479916D01*
X75686881Y-89485831D01*
X75870756Y-89593279D01*
X75880042Y-89597729D01*
X76079001Y-89673703D01*
X76088899Y-89676579D01*
X76192250Y-89697606D01*
X76206299Y-89696410D01*
X76210000Y-89686065D01*
X76210000Y-89685517D01*
X76718000Y-89685517D01*
X76722064Y-89699359D01*
X76735478Y-89701393D01*
X76742184Y-89700534D01*
X76752262Y-89698392D01*
X76956255Y-89637191D01*
X76965842Y-89633433D01*
X77157095Y-89539739D01*
X77165945Y-89534464D01*
X77339328Y-89410792D01*
X77347200Y-89404139D01*
X77498052Y-89253812D01*
X77504730Y-89245965D01*
X77629003Y-89073020D01*
X77634313Y-89064183D01*
X77728670Y-88873267D01*
X77732469Y-88863672D01*
X77749066Y-88809047D01*
X77788007Y-88749683D01*
X77852862Y-88720796D01*
X77923038Y-88731558D01*
X77976256Y-88778551D01*
X77984048Y-88792922D01*
X78043377Y-88921616D01*
X78046710Y-88926332D01*
X78151066Y-89073993D01*
X78160533Y-89087389D01*
X78305938Y-89229035D01*
X78310742Y-89232245D01*
X78320103Y-89238500D01*
X78474720Y-89341812D01*
X78480023Y-89344090D01*
X78480026Y-89344092D01*
X78655921Y-89419662D01*
X78661228Y-89421942D01*
X78734244Y-89438464D01*
X78853579Y-89465467D01*
X78853584Y-89465468D01*
X78859216Y-89466742D01*
X78864987Y-89466969D01*
X78864989Y-89466969D01*
X78924756Y-89469317D01*
X79062053Y-89474712D01*
X79169348Y-89459155D01*
X79257231Y-89446413D01*
X79257236Y-89446412D01*
X79262945Y-89445584D01*
X79268409Y-89443729D01*
X79268414Y-89443728D01*
X79449693Y-89382192D01*
X79449698Y-89382190D01*
X79455165Y-89380334D01*
X79632276Y-89281147D01*
X79671969Y-89248135D01*
X79759696Y-89175172D01*
X79788345Y-89151345D01*
X79845463Y-89082669D01*
X79914453Y-88999718D01*
X79914455Y-88999715D01*
X79918147Y-88995276D01*
X80017334Y-88818165D01*
X80019190Y-88812698D01*
X80019192Y-88812693D01*
X80080728Y-88631414D01*
X80080729Y-88631409D01*
X80082584Y-88625945D01*
X80083412Y-88620236D01*
X80083413Y-88620231D01*
X80111179Y-88428727D01*
X80111712Y-88425053D01*
X80113232Y-88367000D01*
X80110564Y-88337964D01*
X80435148Y-88337964D01*
X80448424Y-88540522D01*
X80449845Y-88546118D01*
X80449846Y-88546123D01*
X80486128Y-88688981D01*
X80498392Y-88737269D01*
X80500809Y-88742512D01*
X80538010Y-88823208D01*
X80583377Y-88921616D01*
X80586710Y-88926332D01*
X80691066Y-89073993D01*
X80700533Y-89087389D01*
X80845938Y-89229035D01*
X80850742Y-89232245D01*
X80860103Y-89238500D01*
X81014720Y-89341812D01*
X81020023Y-89344090D01*
X81020026Y-89344092D01*
X81195921Y-89419662D01*
X81201228Y-89421942D01*
X81274244Y-89438464D01*
X81393579Y-89465467D01*
X81393584Y-89465468D01*
X81399216Y-89466742D01*
X81404987Y-89466969D01*
X81404989Y-89466969D01*
X81464756Y-89469317D01*
X81602053Y-89474712D01*
X81709348Y-89459155D01*
X81797231Y-89446413D01*
X81797236Y-89446412D01*
X81802945Y-89445584D01*
X81808409Y-89443729D01*
X81808414Y-89443728D01*
X81989693Y-89382192D01*
X81989698Y-89382190D01*
X81995165Y-89380334D01*
X82172276Y-89281147D01*
X82211969Y-89248135D01*
X82299696Y-89175172D01*
X82328345Y-89151345D01*
X82385463Y-89082669D01*
X82454453Y-88999718D01*
X82454455Y-88999715D01*
X82458147Y-88995276D01*
X82557334Y-88818165D01*
X82559190Y-88812698D01*
X82559192Y-88812693D01*
X82620728Y-88631414D01*
X82620729Y-88631409D01*
X82622584Y-88625945D01*
X82623412Y-88620236D01*
X82623413Y-88620231D01*
X82651179Y-88428727D01*
X82651712Y-88425053D01*
X82653232Y-88367000D01*
X82650564Y-88337964D01*
X82975148Y-88337964D01*
X82988424Y-88540522D01*
X82989845Y-88546118D01*
X82989846Y-88546123D01*
X83026128Y-88688981D01*
X83038392Y-88737269D01*
X83040809Y-88742512D01*
X83078010Y-88823208D01*
X83123377Y-88921616D01*
X83126710Y-88926332D01*
X83231066Y-89073993D01*
X83240533Y-89087389D01*
X83385938Y-89229035D01*
X83390742Y-89232245D01*
X83400103Y-89238500D01*
X83554720Y-89341812D01*
X83560023Y-89344090D01*
X83560026Y-89344092D01*
X83735921Y-89419662D01*
X83741228Y-89421942D01*
X83814244Y-89438464D01*
X83933579Y-89465467D01*
X83933584Y-89465468D01*
X83939216Y-89466742D01*
X83944987Y-89466969D01*
X83944989Y-89466969D01*
X84004756Y-89469317D01*
X84142053Y-89474712D01*
X84249348Y-89459155D01*
X84337231Y-89446413D01*
X84337236Y-89446412D01*
X84342945Y-89445584D01*
X84348409Y-89443729D01*
X84348414Y-89443728D01*
X84529693Y-89382192D01*
X84529698Y-89382190D01*
X84535165Y-89380334D01*
X84712276Y-89281147D01*
X84751969Y-89248135D01*
X84839696Y-89175172D01*
X84868345Y-89151345D01*
X84925463Y-89082669D01*
X84994453Y-88999718D01*
X84994455Y-88999715D01*
X84998147Y-88995276D01*
X85097334Y-88818165D01*
X85099190Y-88812698D01*
X85099192Y-88812693D01*
X85160728Y-88631414D01*
X85160729Y-88631409D01*
X85162584Y-88625945D01*
X85163412Y-88620236D01*
X85163413Y-88620231D01*
X85191179Y-88428727D01*
X85191712Y-88425053D01*
X85193232Y-88367000D01*
X85190564Y-88337964D01*
X85515148Y-88337964D01*
X85528424Y-88540522D01*
X85529845Y-88546118D01*
X85529846Y-88546123D01*
X85566128Y-88688981D01*
X85578392Y-88737269D01*
X85580809Y-88742512D01*
X85618010Y-88823208D01*
X85663377Y-88921616D01*
X85666710Y-88926332D01*
X85771066Y-89073993D01*
X85780533Y-89087389D01*
X85925938Y-89229035D01*
X85930742Y-89232245D01*
X85940103Y-89238500D01*
X86094720Y-89341812D01*
X86100023Y-89344090D01*
X86100026Y-89344092D01*
X86275921Y-89419662D01*
X86281228Y-89421942D01*
X86354244Y-89438464D01*
X86473579Y-89465467D01*
X86473584Y-89465468D01*
X86479216Y-89466742D01*
X86484987Y-89466969D01*
X86484989Y-89466969D01*
X86544756Y-89469317D01*
X86682053Y-89474712D01*
X86789348Y-89459155D01*
X86877231Y-89446413D01*
X86877236Y-89446412D01*
X86882945Y-89445584D01*
X86888409Y-89443729D01*
X86888414Y-89443728D01*
X87069693Y-89382192D01*
X87069698Y-89382190D01*
X87075165Y-89380334D01*
X87252276Y-89281147D01*
X87291969Y-89248135D01*
X87379696Y-89175172D01*
X87408345Y-89151345D01*
X87465463Y-89082669D01*
X87534453Y-88999718D01*
X87534455Y-88999715D01*
X87538147Y-88995276D01*
X87637334Y-88818165D01*
X87639190Y-88812698D01*
X87639192Y-88812693D01*
X87700728Y-88631414D01*
X87700729Y-88631409D01*
X87702584Y-88625945D01*
X87703412Y-88620236D01*
X87703413Y-88620231D01*
X87731179Y-88428727D01*
X87731712Y-88425053D01*
X87733232Y-88367000D01*
X87714658Y-88164859D01*
X87710998Y-88151880D01*
X87661125Y-87975046D01*
X87661124Y-87975044D01*
X87659557Y-87969487D01*
X87648978Y-87948033D01*
X87585821Y-87819964D01*
X92368112Y-87819964D01*
X92368312Y-87825292D01*
X92368312Y-87825294D01*
X92370464Y-87882599D01*
X92369705Y-87882628D01*
X92370034Y-87884016D01*
X92370340Y-87883989D01*
X92370374Y-87884377D01*
X92370465Y-87885838D01*
X92370523Y-87886085D01*
X92370648Y-87887507D01*
X92376736Y-88049669D01*
X92377831Y-88054888D01*
X92390628Y-88115879D01*
X92389861Y-88116040D01*
X92390841Y-88118316D01*
X92390937Y-88119408D01*
X92392361Y-88124722D01*
X92392464Y-88125307D01*
X92393635Y-88130210D01*
X92423939Y-88274637D01*
X92446683Y-88332229D01*
X92449975Y-88340566D01*
X92450724Y-88342541D01*
X92452097Y-88347663D01*
X92454422Y-88352649D01*
X92454423Y-88352651D01*
X92454947Y-88353775D01*
X92457934Y-88360717D01*
X92508372Y-88488436D01*
X92545273Y-88549246D01*
X92546811Y-88552126D01*
X92546890Y-88552080D01*
X92549639Y-88556841D01*
X92551965Y-88561829D01*
X92555122Y-88566337D01*
X92555124Y-88566341D01*
X92556674Y-88568555D01*
X92561181Y-88575462D01*
X92576279Y-88600342D01*
X92627621Y-88684952D01*
X92631116Y-88688979D01*
X92631117Y-88688981D01*
X92677993Y-88743000D01*
X92681555Y-88747563D01*
X92684347Y-88750890D01*
X92687505Y-88755401D01*
X92693791Y-88761687D01*
X92699861Y-88768201D01*
X92743218Y-88818165D01*
X92778276Y-88858566D01*
X92782407Y-88861953D01*
X92842309Y-88911070D01*
X92849574Y-88917652D01*
X92850706Y-88918602D01*
X92854599Y-88922495D01*
X92859103Y-88925649D01*
X92859108Y-88925653D01*
X92861936Y-88927633D01*
X92869554Y-88933410D01*
X92951901Y-89000931D01*
X92951907Y-89000935D01*
X92956029Y-89004315D01*
X92960668Y-89006955D01*
X92960667Y-89006955D01*
X93033355Y-89048331D01*
X93043296Y-89054622D01*
X93043660Y-89054877D01*
X93043667Y-89054881D01*
X93048171Y-89058035D01*
X93053155Y-89060359D01*
X93053160Y-89060362D01*
X93055875Y-89061628D01*
X93064952Y-89066318D01*
X93093677Y-89082669D01*
X93155798Y-89118030D01*
X93235368Y-89146913D01*
X93245498Y-89150590D01*
X93255753Y-89154833D01*
X93257348Y-89155577D01*
X93257350Y-89155578D01*
X93262337Y-89157903D01*
X93267653Y-89159327D01*
X93267655Y-89159328D01*
X93268719Y-89159613D01*
X93269702Y-89159876D01*
X93280081Y-89163143D01*
X93371871Y-89196461D01*
X93472443Y-89214648D01*
X93482616Y-89216926D01*
X93490592Y-89219063D01*
X93496990Y-89219623D01*
X93508412Y-89221152D01*
X93598069Y-89237364D01*
X93602208Y-89237559D01*
X93602215Y-89237560D01*
X93620670Y-89238430D01*
X93620677Y-89238430D01*
X93622158Y-89238500D01*
X93783712Y-89238500D01*
X93863444Y-89231735D01*
X93949733Y-89224413D01*
X93949737Y-89224412D01*
X93955044Y-89223962D01*
X93960199Y-89222624D01*
X93960205Y-89222623D01*
X94172368Y-89167556D01*
X94172367Y-89167556D01*
X94177539Y-89166214D01*
X94324412Y-89100052D01*
X94382262Y-89073993D01*
X94382265Y-89073992D01*
X94387123Y-89071803D01*
X94398442Y-89064183D01*
X94421987Y-89048331D01*
X94577803Y-88943430D01*
X94582265Y-88939174D01*
X94703828Y-88823208D01*
X94744128Y-88784764D01*
X94881342Y-88600342D01*
X94897504Y-88568555D01*
X94983102Y-88400194D01*
X94983102Y-88400193D01*
X94985520Y-88395438D01*
X95053685Y-88175911D01*
X95076323Y-88005115D01*
X95083188Y-87953319D01*
X95083188Y-87953316D01*
X95083888Y-87948036D01*
X95083511Y-87937980D01*
X95081536Y-87885401D01*
X95082295Y-87885372D01*
X95081966Y-87883984D01*
X95081660Y-87884011D01*
X95081626Y-87883623D01*
X95081535Y-87882162D01*
X95081477Y-87881915D01*
X95081352Y-87880493D01*
X95075264Y-87718331D01*
X95061372Y-87652121D01*
X95062139Y-87651960D01*
X95061159Y-87649684D01*
X95061063Y-87648592D01*
X95059639Y-87643278D01*
X95059536Y-87642693D01*
X95058362Y-87637778D01*
X95054812Y-87620855D01*
X95028061Y-87493363D01*
X95002025Y-87427434D01*
X95001276Y-87425459D01*
X94999903Y-87420337D01*
X94997053Y-87414225D01*
X94994066Y-87407283D01*
X94943628Y-87279564D01*
X94906727Y-87218754D01*
X94905189Y-87215874D01*
X94905110Y-87215920D01*
X94902361Y-87211159D01*
X94900035Y-87206171D01*
X94896876Y-87201659D01*
X94895326Y-87199445D01*
X94890819Y-87192538D01*
X94827147Y-87087609D01*
X94827145Y-87087606D01*
X94824379Y-87083048D01*
X94796812Y-87051280D01*
X94774007Y-87025000D01*
X94770445Y-87020437D01*
X94767653Y-87017110D01*
X94764495Y-87012599D01*
X94758209Y-87006313D01*
X94752139Y-86999799D01*
X94677224Y-86913467D01*
X94677222Y-86913465D01*
X94673724Y-86909434D01*
X94609692Y-86856930D01*
X94602426Y-86850348D01*
X94601294Y-86849398D01*
X94597401Y-86845505D01*
X94592897Y-86842351D01*
X94592892Y-86842347D01*
X94590064Y-86840367D01*
X94582446Y-86834590D01*
X94500099Y-86767069D01*
X94500093Y-86767065D01*
X94495971Y-86763685D01*
X94418645Y-86719669D01*
X94408704Y-86713378D01*
X94408340Y-86713123D01*
X94408333Y-86713119D01*
X94403829Y-86709965D01*
X94398845Y-86707641D01*
X94398840Y-86707638D01*
X94396125Y-86706372D01*
X94387048Y-86701682D01*
X94342939Y-86676574D01*
X94296202Y-86649970D01*
X94206502Y-86617410D01*
X94196247Y-86613167D01*
X94194652Y-86612423D01*
X94194650Y-86612422D01*
X94189663Y-86610097D01*
X94184347Y-86608673D01*
X94184345Y-86608672D01*
X94183281Y-86608387D01*
X94182298Y-86608124D01*
X94171919Y-86604857D01*
X94080129Y-86571539D01*
X93979557Y-86553352D01*
X93969384Y-86551074D01*
X93961408Y-86548937D01*
X93955010Y-86548377D01*
X93943588Y-86546848D01*
X93853931Y-86530636D01*
X93849792Y-86530441D01*
X93849785Y-86530440D01*
X93831330Y-86529570D01*
X93831323Y-86529570D01*
X93829842Y-86529500D01*
X93668288Y-86529500D01*
X93588556Y-86536265D01*
X93502267Y-86543587D01*
X93502263Y-86543588D01*
X93496956Y-86544038D01*
X93491801Y-86545376D01*
X93491795Y-86545377D01*
X93319058Y-86590211D01*
X93274461Y-86601786D01*
X93167497Y-86649970D01*
X93069738Y-86694007D01*
X93069735Y-86694008D01*
X93064877Y-86696197D01*
X92874197Y-86824570D01*
X92870340Y-86828249D01*
X92870338Y-86828251D01*
X92844404Y-86852991D01*
X92707872Y-86983236D01*
X92570658Y-87167658D01*
X92568242Y-87172409D01*
X92568240Y-87172413D01*
X92468898Y-87367806D01*
X92466480Y-87372562D01*
X92398315Y-87592089D01*
X92397614Y-87597378D01*
X92371738Y-87792609D01*
X92368112Y-87819964D01*
X87585821Y-87819964D01*
X87572331Y-87792609D01*
X87569776Y-87787428D01*
X87448320Y-87624779D01*
X87311302Y-87498120D01*
X87303503Y-87490911D01*
X87299258Y-87486987D01*
X87294375Y-87483906D01*
X87294371Y-87483903D01*
X87132464Y-87381748D01*
X87127581Y-87378667D01*
X86939039Y-87303446D01*
X86933379Y-87302320D01*
X86933375Y-87302319D01*
X86745613Y-87264971D01*
X86745610Y-87264971D01*
X86739946Y-87263844D01*
X86734171Y-87263768D01*
X86734167Y-87263768D01*
X86632793Y-87262441D01*
X86536971Y-87261187D01*
X86531274Y-87262166D01*
X86531273Y-87262166D01*
X86342607Y-87294585D01*
X86336910Y-87295564D01*
X86146463Y-87365824D01*
X85972010Y-87469612D01*
X85967670Y-87473418D01*
X85967666Y-87473421D01*
X85838162Y-87586994D01*
X85819392Y-87603455D01*
X85693720Y-87762869D01*
X85691031Y-87767980D01*
X85691029Y-87767983D01*
X85660876Y-87825294D01*
X85599203Y-87942515D01*
X85539007Y-88136378D01*
X85515148Y-88337964D01*
X85190564Y-88337964D01*
X85174658Y-88164859D01*
X85170998Y-88151880D01*
X85121125Y-87975046D01*
X85121124Y-87975044D01*
X85119557Y-87969487D01*
X85108978Y-87948033D01*
X85032331Y-87792609D01*
X85029776Y-87787428D01*
X84908320Y-87624779D01*
X84771302Y-87498120D01*
X84763503Y-87490911D01*
X84759258Y-87486987D01*
X84754375Y-87483906D01*
X84754371Y-87483903D01*
X84592464Y-87381748D01*
X84587581Y-87378667D01*
X84399039Y-87303446D01*
X84393379Y-87302320D01*
X84393375Y-87302319D01*
X84205613Y-87264971D01*
X84205610Y-87264971D01*
X84199946Y-87263844D01*
X84194171Y-87263768D01*
X84194167Y-87263768D01*
X84092793Y-87262441D01*
X83996971Y-87261187D01*
X83991274Y-87262166D01*
X83991273Y-87262166D01*
X83802607Y-87294585D01*
X83796910Y-87295564D01*
X83606463Y-87365824D01*
X83432010Y-87469612D01*
X83427670Y-87473418D01*
X83427666Y-87473421D01*
X83298162Y-87586994D01*
X83279392Y-87603455D01*
X83153720Y-87762869D01*
X83151031Y-87767980D01*
X83151029Y-87767983D01*
X83120876Y-87825294D01*
X83059203Y-87942515D01*
X82999007Y-88136378D01*
X82975148Y-88337964D01*
X82650564Y-88337964D01*
X82634658Y-88164859D01*
X82630998Y-88151880D01*
X82581125Y-87975046D01*
X82581124Y-87975044D01*
X82579557Y-87969487D01*
X82568978Y-87948033D01*
X82492331Y-87792609D01*
X82489776Y-87787428D01*
X82368320Y-87624779D01*
X82231302Y-87498120D01*
X82223503Y-87490911D01*
X82219258Y-87486987D01*
X82214375Y-87483906D01*
X82214371Y-87483903D01*
X82052464Y-87381748D01*
X82047581Y-87378667D01*
X81859039Y-87303446D01*
X81853379Y-87302320D01*
X81853375Y-87302319D01*
X81665613Y-87264971D01*
X81665610Y-87264971D01*
X81659946Y-87263844D01*
X81654171Y-87263768D01*
X81654167Y-87263768D01*
X81552793Y-87262441D01*
X81456971Y-87261187D01*
X81451274Y-87262166D01*
X81451273Y-87262166D01*
X81262607Y-87294585D01*
X81256910Y-87295564D01*
X81066463Y-87365824D01*
X80892010Y-87469612D01*
X80887670Y-87473418D01*
X80887666Y-87473421D01*
X80758162Y-87586994D01*
X80739392Y-87603455D01*
X80613720Y-87762869D01*
X80611031Y-87767980D01*
X80611029Y-87767983D01*
X80580876Y-87825294D01*
X80519203Y-87942515D01*
X80459007Y-88136378D01*
X80435148Y-88337964D01*
X80110564Y-88337964D01*
X80094658Y-88164859D01*
X80090998Y-88151880D01*
X80041125Y-87975046D01*
X80041124Y-87975044D01*
X80039557Y-87969487D01*
X80028978Y-87948033D01*
X79952331Y-87792609D01*
X79949776Y-87787428D01*
X79828320Y-87624779D01*
X79691302Y-87498120D01*
X79683503Y-87490911D01*
X79679258Y-87486987D01*
X79674375Y-87483906D01*
X79674371Y-87483903D01*
X79512464Y-87381748D01*
X79507581Y-87378667D01*
X79319039Y-87303446D01*
X79313379Y-87302320D01*
X79313375Y-87302319D01*
X79125613Y-87264971D01*
X79125610Y-87264971D01*
X79119946Y-87263844D01*
X79114171Y-87263768D01*
X79114167Y-87263768D01*
X79012793Y-87262441D01*
X78916971Y-87261187D01*
X78911274Y-87262166D01*
X78911273Y-87262166D01*
X78722607Y-87294585D01*
X78716910Y-87295564D01*
X78526463Y-87365824D01*
X78352010Y-87469612D01*
X78347670Y-87473418D01*
X78347666Y-87473421D01*
X78218162Y-87586994D01*
X78199392Y-87603455D01*
X78073720Y-87762869D01*
X78071031Y-87767980D01*
X78071029Y-87767983D01*
X77981589Y-87937980D01*
X77932170Y-87988952D01*
X77863037Y-88005115D01*
X77796141Y-87981336D01*
X77756003Y-87926973D01*
X77753955Y-87927863D01*
X77666972Y-87727814D01*
X77662105Y-87718739D01*
X77546426Y-87539926D01*
X77540136Y-87531757D01*
X77396806Y-87374240D01*
X77389273Y-87367215D01*
X77222139Y-87235222D01*
X77213552Y-87229517D01*
X77027117Y-87126599D01*
X77017705Y-87122369D01*
X76816959Y-87051280D01*
X76806988Y-87048646D01*
X76735837Y-87035972D01*
X76722540Y-87037432D01*
X76718000Y-87051989D01*
X76718000Y-89685517D01*
X76210000Y-89685517D01*
X76210000Y-87050102D01*
X76206082Y-87036758D01*
X76191806Y-87034771D01*
X76153324Y-87040660D01*
X76143288Y-87043051D01*
X75940868Y-87109212D01*
X75931359Y-87113209D01*
X75742463Y-87211542D01*
X75733738Y-87217036D01*
X75563433Y-87344905D01*
X75555726Y-87351748D01*
X75408590Y-87505717D01*
X75402104Y-87513727D01*
X75282098Y-87689649D01*
X75277000Y-87698623D01*
X75187338Y-87891783D01*
X75183777Y-87901464D01*
X75179291Y-87917640D01*
X75141813Y-87977939D01*
X75077684Y-88008403D01*
X75007266Y-87999360D01*
X74952915Y-87953682D01*
X74944867Y-87939698D01*
X74872331Y-87792609D01*
X74869776Y-87787428D01*
X74748320Y-87624779D01*
X74611302Y-87498120D01*
X74603503Y-87490911D01*
X74599258Y-87486987D01*
X74594375Y-87483906D01*
X74594371Y-87483903D01*
X74432464Y-87381748D01*
X74427581Y-87378667D01*
X74239039Y-87303446D01*
X74233379Y-87302320D01*
X74233375Y-87302319D01*
X74045613Y-87264971D01*
X74045610Y-87264971D01*
X74039946Y-87263844D01*
X74034171Y-87263768D01*
X74034167Y-87263768D01*
X73932793Y-87262441D01*
X73836971Y-87261187D01*
X73831274Y-87262166D01*
X73831273Y-87262166D01*
X73642607Y-87294585D01*
X73636910Y-87295564D01*
X73446463Y-87365824D01*
X73272010Y-87469612D01*
X73267670Y-87473418D01*
X73267666Y-87473421D01*
X73138162Y-87586994D01*
X73119392Y-87603455D01*
X72993720Y-87762869D01*
X72991031Y-87767980D01*
X72991029Y-87767983D01*
X72960876Y-87825294D01*
X72899203Y-87942515D01*
X72839007Y-88136378D01*
X72815148Y-88337964D01*
X72490564Y-88337964D01*
X72474658Y-88164859D01*
X72470998Y-88151880D01*
X72421125Y-87975046D01*
X72421124Y-87975044D01*
X72419557Y-87969487D01*
X72408978Y-87948033D01*
X72332331Y-87792609D01*
X72329776Y-87787428D01*
X72208320Y-87624779D01*
X72071302Y-87498120D01*
X72063503Y-87490911D01*
X72059258Y-87486987D01*
X72054375Y-87483906D01*
X72054371Y-87483903D01*
X71892464Y-87381748D01*
X71887581Y-87378667D01*
X71699039Y-87303446D01*
X71693379Y-87302320D01*
X71693375Y-87302319D01*
X71505613Y-87264971D01*
X71505610Y-87264971D01*
X71499946Y-87263844D01*
X71494171Y-87263768D01*
X71494167Y-87263768D01*
X71392793Y-87262441D01*
X71296971Y-87261187D01*
X71291274Y-87262166D01*
X71291273Y-87262166D01*
X71102607Y-87294585D01*
X71096910Y-87295564D01*
X70906463Y-87365824D01*
X70732010Y-87469612D01*
X70727670Y-87473418D01*
X70727666Y-87473421D01*
X70598162Y-87586994D01*
X70579392Y-87603455D01*
X70453720Y-87762869D01*
X70451031Y-87767980D01*
X70451029Y-87767983D01*
X70420876Y-87825294D01*
X70359203Y-87942515D01*
X70299007Y-88136378D01*
X70275148Y-88337964D01*
X69950564Y-88337964D01*
X69934658Y-88164859D01*
X69930998Y-88151880D01*
X69881125Y-87975046D01*
X69881124Y-87975044D01*
X69879557Y-87969487D01*
X69868978Y-87948033D01*
X69792331Y-87792609D01*
X69789776Y-87787428D01*
X69668320Y-87624779D01*
X69531302Y-87498120D01*
X69523503Y-87490911D01*
X69519258Y-87486987D01*
X69514375Y-87483906D01*
X69514371Y-87483903D01*
X69352464Y-87381748D01*
X69347581Y-87378667D01*
X69159039Y-87303446D01*
X69153379Y-87302320D01*
X69153375Y-87302319D01*
X68965613Y-87264971D01*
X68965610Y-87264971D01*
X68959946Y-87263844D01*
X68954171Y-87263768D01*
X68954167Y-87263768D01*
X68852793Y-87262441D01*
X68756971Y-87261187D01*
X68751274Y-87262166D01*
X68751273Y-87262166D01*
X68562607Y-87294585D01*
X68556910Y-87295564D01*
X68366463Y-87365824D01*
X68192010Y-87469612D01*
X68187670Y-87473418D01*
X68187666Y-87473421D01*
X68058162Y-87586994D01*
X68039392Y-87603455D01*
X67913720Y-87762869D01*
X67911031Y-87767980D01*
X67911029Y-87767983D01*
X67880876Y-87825294D01*
X67819203Y-87942515D01*
X67759007Y-88136378D01*
X67735148Y-88337964D01*
X67408499Y-88337964D01*
X67408499Y-87491934D01*
X67393734Y-87417699D01*
X67367654Y-87378667D01*
X67344377Y-87343832D01*
X67337484Y-87333516D01*
X67253301Y-87277266D01*
X67179067Y-87262500D01*
X66304142Y-87262500D01*
X65428934Y-87262501D01*
X65393182Y-87269612D01*
X65366874Y-87274844D01*
X65366872Y-87274845D01*
X65354699Y-87277266D01*
X65344379Y-87284161D01*
X65344378Y-87284162D01*
X65283985Y-87324516D01*
X65270516Y-87333516D01*
X65214266Y-87417699D01*
X65199500Y-87491933D01*
X60483496Y-87491933D01*
X60458025Y-87427434D01*
X60457276Y-87425459D01*
X60455903Y-87420337D01*
X60453053Y-87414225D01*
X60450066Y-87407283D01*
X60399628Y-87279564D01*
X60362727Y-87218754D01*
X60361189Y-87215874D01*
X60361110Y-87215920D01*
X60358361Y-87211159D01*
X60356035Y-87206171D01*
X60352876Y-87201659D01*
X60351326Y-87199445D01*
X60346819Y-87192538D01*
X60283147Y-87087609D01*
X60283145Y-87087606D01*
X60280379Y-87083048D01*
X60252812Y-87051280D01*
X60230007Y-87025000D01*
X60226445Y-87020437D01*
X60223653Y-87017110D01*
X60220495Y-87012599D01*
X60214209Y-87006313D01*
X60208139Y-86999799D01*
X60133224Y-86913467D01*
X60133222Y-86913465D01*
X60129724Y-86909434D01*
X60065692Y-86856930D01*
X60058426Y-86850348D01*
X60057294Y-86849398D01*
X60053401Y-86845505D01*
X60048897Y-86842351D01*
X60048892Y-86842347D01*
X60046064Y-86840367D01*
X60038446Y-86834590D01*
X59956099Y-86767069D01*
X59956093Y-86767065D01*
X59951971Y-86763685D01*
X59874645Y-86719669D01*
X59864704Y-86713378D01*
X59864340Y-86713123D01*
X59864333Y-86713119D01*
X59859829Y-86709965D01*
X59854845Y-86707641D01*
X59854840Y-86707638D01*
X59852125Y-86706372D01*
X59843048Y-86701682D01*
X59798939Y-86676574D01*
X59752202Y-86649970D01*
X59662502Y-86617410D01*
X59652247Y-86613167D01*
X59650652Y-86612423D01*
X59650650Y-86612422D01*
X59645663Y-86610097D01*
X59640347Y-86608673D01*
X59640345Y-86608672D01*
X59639281Y-86608387D01*
X59638298Y-86608124D01*
X59627919Y-86604857D01*
X59536129Y-86571539D01*
X59435557Y-86553352D01*
X59425384Y-86551074D01*
X59417408Y-86548937D01*
X59411010Y-86548377D01*
X59399588Y-86546848D01*
X59309931Y-86530636D01*
X59305792Y-86530441D01*
X59305785Y-86530440D01*
X59287330Y-86529570D01*
X59287323Y-86529570D01*
X59285842Y-86529500D01*
X59124288Y-86529500D01*
X59044556Y-86536265D01*
X58958267Y-86543587D01*
X58958263Y-86543588D01*
X58952956Y-86544038D01*
X58947801Y-86545376D01*
X58947795Y-86545377D01*
X58775058Y-86590211D01*
X58730461Y-86601786D01*
X58623497Y-86649970D01*
X58525738Y-86694007D01*
X58525735Y-86694008D01*
X58520877Y-86696197D01*
X58330197Y-86824570D01*
X58326340Y-86828249D01*
X58326338Y-86828251D01*
X58300404Y-86852991D01*
X58163872Y-86983236D01*
X58026658Y-87167658D01*
X58024242Y-87172409D01*
X58024240Y-87172413D01*
X57924898Y-87367806D01*
X57922480Y-87372562D01*
X57854315Y-87592089D01*
X57853614Y-87597378D01*
X57827738Y-87792609D01*
X57824112Y-87819964D01*
X56896500Y-87819964D01*
X56896500Y-83960933D01*
X65199500Y-83960933D01*
X65199501Y-85711066D01*
X65214266Y-85785301D01*
X65221161Y-85795620D01*
X65221162Y-85795622D01*
X65261516Y-85856015D01*
X65270516Y-85869484D01*
X65354699Y-85925734D01*
X65428933Y-85940500D01*
X66303858Y-85940500D01*
X67179066Y-85940499D01*
X67214818Y-85933388D01*
X67241126Y-85928156D01*
X67241128Y-85928155D01*
X67253301Y-85925734D01*
X67263621Y-85918839D01*
X67263622Y-85918838D01*
X67327168Y-85876377D01*
X67337484Y-85869484D01*
X67393734Y-85785301D01*
X67408500Y-85711067D01*
X67408499Y-84806964D01*
X67735148Y-84806964D01*
X67748424Y-85009522D01*
X67749845Y-85015118D01*
X67749846Y-85015123D01*
X67770119Y-85094945D01*
X67798392Y-85206269D01*
X67800809Y-85211512D01*
X67838010Y-85292208D01*
X67883377Y-85390616D01*
X68000533Y-85556389D01*
X68145938Y-85698035D01*
X68314720Y-85810812D01*
X68320023Y-85813090D01*
X68320026Y-85813092D01*
X68495921Y-85888662D01*
X68501228Y-85890942D01*
X68574244Y-85907464D01*
X68693579Y-85934467D01*
X68693584Y-85934468D01*
X68699216Y-85935742D01*
X68704987Y-85935969D01*
X68704989Y-85935969D01*
X68764756Y-85938317D01*
X68902053Y-85943712D01*
X69009348Y-85928155D01*
X69097231Y-85915413D01*
X69097236Y-85915412D01*
X69102945Y-85914584D01*
X69108409Y-85912729D01*
X69108414Y-85912728D01*
X69289693Y-85851192D01*
X69289698Y-85851190D01*
X69295165Y-85849334D01*
X69472276Y-85750147D01*
X69511969Y-85717135D01*
X69599696Y-85644172D01*
X69628345Y-85620345D01*
X69758147Y-85464276D01*
X69857334Y-85287165D01*
X69859190Y-85281698D01*
X69859192Y-85281693D01*
X69920728Y-85100414D01*
X69920729Y-85100409D01*
X69922584Y-85094945D01*
X69923412Y-85089236D01*
X69923413Y-85089231D01*
X69951179Y-84897727D01*
X69951712Y-84894053D01*
X69953232Y-84836000D01*
X69950564Y-84806964D01*
X70275148Y-84806964D01*
X70288424Y-85009522D01*
X70289845Y-85015118D01*
X70289846Y-85015123D01*
X70310119Y-85094945D01*
X70338392Y-85206269D01*
X70340809Y-85211512D01*
X70378010Y-85292208D01*
X70423377Y-85390616D01*
X70540533Y-85556389D01*
X70685938Y-85698035D01*
X70854720Y-85810812D01*
X70860023Y-85813090D01*
X70860026Y-85813092D01*
X71035921Y-85888662D01*
X71041228Y-85890942D01*
X71114244Y-85907464D01*
X71233579Y-85934467D01*
X71233584Y-85934468D01*
X71239216Y-85935742D01*
X71244987Y-85935969D01*
X71244989Y-85935969D01*
X71304756Y-85938317D01*
X71442053Y-85943712D01*
X71549348Y-85928155D01*
X71637231Y-85915413D01*
X71637236Y-85915412D01*
X71642945Y-85914584D01*
X71648409Y-85912729D01*
X71648414Y-85912728D01*
X71829693Y-85851192D01*
X71829698Y-85851190D01*
X71835165Y-85849334D01*
X72012276Y-85750147D01*
X72051969Y-85717135D01*
X72139696Y-85644172D01*
X72168345Y-85620345D01*
X72298147Y-85464276D01*
X72397334Y-85287165D01*
X72399190Y-85281698D01*
X72399192Y-85281693D01*
X72460728Y-85100414D01*
X72460729Y-85100409D01*
X72462584Y-85094945D01*
X72463412Y-85089236D01*
X72463413Y-85089231D01*
X72491179Y-84897727D01*
X72491712Y-84894053D01*
X72493232Y-84836000D01*
X72490564Y-84806964D01*
X72815148Y-84806964D01*
X72828424Y-85009522D01*
X72829845Y-85015118D01*
X72829846Y-85015123D01*
X72850119Y-85094945D01*
X72878392Y-85206269D01*
X72880809Y-85211512D01*
X72918010Y-85292208D01*
X72963377Y-85390616D01*
X73080533Y-85556389D01*
X73225938Y-85698035D01*
X73394720Y-85810812D01*
X73400023Y-85813090D01*
X73400026Y-85813092D01*
X73575921Y-85888662D01*
X73581228Y-85890942D01*
X73654244Y-85907464D01*
X73773579Y-85934467D01*
X73773584Y-85934468D01*
X73779216Y-85935742D01*
X73784987Y-85935969D01*
X73784989Y-85935969D01*
X73844756Y-85938317D01*
X73982053Y-85943712D01*
X74089348Y-85928155D01*
X74177231Y-85915413D01*
X74177236Y-85915412D01*
X74182945Y-85914584D01*
X74188409Y-85912729D01*
X74188414Y-85912728D01*
X74369693Y-85851192D01*
X74369698Y-85851190D01*
X74375165Y-85849334D01*
X74552276Y-85750147D01*
X74591969Y-85717135D01*
X74679696Y-85644172D01*
X74708345Y-85620345D01*
X74838147Y-85464276D01*
X74937334Y-85287165D01*
X74939720Y-85280135D01*
X74940170Y-85279496D01*
X74941541Y-85276416D01*
X74942146Y-85276685D01*
X74980553Y-85222059D01*
X75046305Y-85195278D01*
X75116098Y-85208295D01*
X75167773Y-85256980D01*
X75175777Y-85273229D01*
X75245770Y-85445603D01*
X75250413Y-85454794D01*
X75361694Y-85636388D01*
X75367777Y-85644699D01*
X75507213Y-85805667D01*
X75514580Y-85812883D01*
X75678434Y-85948916D01*
X75686881Y-85954831D01*
X75870756Y-86062279D01*
X75880042Y-86066729D01*
X76079001Y-86142703D01*
X76088899Y-86145579D01*
X76192250Y-86166606D01*
X76206299Y-86165410D01*
X76210000Y-86155065D01*
X76210000Y-86154517D01*
X76718000Y-86154517D01*
X76722064Y-86168359D01*
X76735478Y-86170393D01*
X76742184Y-86169534D01*
X76752262Y-86167392D01*
X76956255Y-86106191D01*
X76965842Y-86102433D01*
X77157095Y-86008739D01*
X77165945Y-86003464D01*
X77339328Y-85879792D01*
X77347200Y-85873139D01*
X77498052Y-85722812D01*
X77504730Y-85714965D01*
X77629003Y-85542020D01*
X77634313Y-85533183D01*
X77728670Y-85342267D01*
X77732469Y-85332672D01*
X77749066Y-85278047D01*
X77788007Y-85218683D01*
X77852862Y-85189796D01*
X77923038Y-85200558D01*
X77976256Y-85247551D01*
X77984048Y-85261922D01*
X78043377Y-85390616D01*
X78160533Y-85556389D01*
X78305938Y-85698035D01*
X78474720Y-85810812D01*
X78480023Y-85813090D01*
X78480026Y-85813092D01*
X78655921Y-85888662D01*
X78661228Y-85890942D01*
X78734244Y-85907464D01*
X78853579Y-85934467D01*
X78853584Y-85934468D01*
X78859216Y-85935742D01*
X78864987Y-85935969D01*
X78864989Y-85935969D01*
X78924756Y-85938317D01*
X79062053Y-85943712D01*
X79169348Y-85928155D01*
X79257231Y-85915413D01*
X79257236Y-85915412D01*
X79262945Y-85914584D01*
X79268409Y-85912729D01*
X79268414Y-85912728D01*
X79449693Y-85851192D01*
X79449698Y-85851190D01*
X79455165Y-85849334D01*
X79632276Y-85750147D01*
X79671969Y-85717135D01*
X79759696Y-85644172D01*
X79788345Y-85620345D01*
X79918147Y-85464276D01*
X80017334Y-85287165D01*
X80019190Y-85281698D01*
X80019192Y-85281693D01*
X80080728Y-85100414D01*
X80080729Y-85100409D01*
X80082584Y-85094945D01*
X80083412Y-85089236D01*
X80083413Y-85089231D01*
X80111179Y-84897727D01*
X80111712Y-84894053D01*
X80113232Y-84836000D01*
X80110564Y-84806964D01*
X80435148Y-84806964D01*
X80448424Y-85009522D01*
X80449845Y-85015118D01*
X80449846Y-85015123D01*
X80470119Y-85094945D01*
X80498392Y-85206269D01*
X80500809Y-85211512D01*
X80538010Y-85292208D01*
X80583377Y-85390616D01*
X80700533Y-85556389D01*
X80845938Y-85698035D01*
X81014720Y-85810812D01*
X81020023Y-85813090D01*
X81020026Y-85813092D01*
X81195921Y-85888662D01*
X81201228Y-85890942D01*
X81274244Y-85907464D01*
X81393579Y-85934467D01*
X81393584Y-85934468D01*
X81399216Y-85935742D01*
X81404987Y-85935969D01*
X81404989Y-85935969D01*
X81464756Y-85938317D01*
X81602053Y-85943712D01*
X81709348Y-85928155D01*
X81797231Y-85915413D01*
X81797236Y-85915412D01*
X81802945Y-85914584D01*
X81808409Y-85912729D01*
X81808414Y-85912728D01*
X81989693Y-85851192D01*
X81989698Y-85851190D01*
X81995165Y-85849334D01*
X82172276Y-85750147D01*
X82211969Y-85717135D01*
X82299696Y-85644172D01*
X82328345Y-85620345D01*
X82458147Y-85464276D01*
X82557334Y-85287165D01*
X82559190Y-85281698D01*
X82559192Y-85281693D01*
X82620728Y-85100414D01*
X82620729Y-85100409D01*
X82622584Y-85094945D01*
X82623412Y-85089236D01*
X82623413Y-85089231D01*
X82651179Y-84897727D01*
X82651712Y-84894053D01*
X82653232Y-84836000D01*
X82650564Y-84806964D01*
X82975148Y-84806964D01*
X82988424Y-85009522D01*
X82989845Y-85015118D01*
X82989846Y-85015123D01*
X83010119Y-85094945D01*
X83038392Y-85206269D01*
X83040809Y-85211512D01*
X83078010Y-85292208D01*
X83123377Y-85390616D01*
X83240533Y-85556389D01*
X83385938Y-85698035D01*
X83554720Y-85810812D01*
X83560023Y-85813090D01*
X83560026Y-85813092D01*
X83735921Y-85888662D01*
X83741228Y-85890942D01*
X83814244Y-85907464D01*
X83933579Y-85934467D01*
X83933584Y-85934468D01*
X83939216Y-85935742D01*
X83944987Y-85935969D01*
X83944989Y-85935969D01*
X84004756Y-85938317D01*
X84142053Y-85943712D01*
X84249348Y-85928155D01*
X84337231Y-85915413D01*
X84337236Y-85915412D01*
X84342945Y-85914584D01*
X84348409Y-85912729D01*
X84348414Y-85912728D01*
X84529693Y-85851192D01*
X84529698Y-85851190D01*
X84535165Y-85849334D01*
X84712276Y-85750147D01*
X84751969Y-85717135D01*
X84839696Y-85644172D01*
X84868345Y-85620345D01*
X84998147Y-85464276D01*
X85097334Y-85287165D01*
X85099190Y-85281698D01*
X85099192Y-85281693D01*
X85160728Y-85100414D01*
X85160729Y-85100409D01*
X85162584Y-85094945D01*
X85163412Y-85089236D01*
X85163413Y-85089231D01*
X85191179Y-84897727D01*
X85191712Y-84894053D01*
X85193232Y-84836000D01*
X85190564Y-84806964D01*
X85515148Y-84806964D01*
X85528424Y-85009522D01*
X85529845Y-85015118D01*
X85529846Y-85015123D01*
X85550119Y-85094945D01*
X85578392Y-85206269D01*
X85580809Y-85211512D01*
X85618010Y-85292208D01*
X85663377Y-85390616D01*
X85780533Y-85556389D01*
X85925938Y-85698035D01*
X86094720Y-85810812D01*
X86100023Y-85813090D01*
X86100026Y-85813092D01*
X86275921Y-85888662D01*
X86281228Y-85890942D01*
X86354244Y-85907464D01*
X86473579Y-85934467D01*
X86473584Y-85934468D01*
X86479216Y-85935742D01*
X86484987Y-85935969D01*
X86484989Y-85935969D01*
X86544756Y-85938317D01*
X86682053Y-85943712D01*
X86789348Y-85928155D01*
X86877231Y-85915413D01*
X86877236Y-85915412D01*
X86882945Y-85914584D01*
X86888409Y-85912729D01*
X86888414Y-85912728D01*
X87069693Y-85851192D01*
X87069698Y-85851190D01*
X87075165Y-85849334D01*
X87252276Y-85750147D01*
X87291969Y-85717135D01*
X87379696Y-85644172D01*
X87408345Y-85620345D01*
X87538147Y-85464276D01*
X87637334Y-85287165D01*
X87639190Y-85281698D01*
X87639192Y-85281693D01*
X87700728Y-85100414D01*
X87700729Y-85100409D01*
X87702584Y-85094945D01*
X87703412Y-85089236D01*
X87703413Y-85089231D01*
X87731179Y-84897727D01*
X87731712Y-84894053D01*
X87733232Y-84836000D01*
X87714658Y-84633859D01*
X87713090Y-84628299D01*
X87661125Y-84444046D01*
X87661124Y-84444044D01*
X87659557Y-84438487D01*
X87648978Y-84417033D01*
X87572331Y-84261609D01*
X87569776Y-84256428D01*
X87448320Y-84093779D01*
X87299258Y-83955987D01*
X87294375Y-83952906D01*
X87294371Y-83952903D01*
X87132464Y-83850748D01*
X87127581Y-83847667D01*
X86939039Y-83772446D01*
X86933379Y-83771320D01*
X86933375Y-83771319D01*
X86745613Y-83733971D01*
X86745610Y-83733971D01*
X86739946Y-83732844D01*
X86734171Y-83732768D01*
X86734167Y-83732768D01*
X86632793Y-83731441D01*
X86536971Y-83730187D01*
X86531274Y-83731166D01*
X86531273Y-83731166D01*
X86443397Y-83746266D01*
X86336910Y-83764564D01*
X86146463Y-83834824D01*
X85972010Y-83938612D01*
X85967670Y-83942418D01*
X85967666Y-83942421D01*
X85823733Y-84068648D01*
X85819392Y-84072455D01*
X85693720Y-84231869D01*
X85691031Y-84236980D01*
X85691029Y-84236983D01*
X85678073Y-84261609D01*
X85599203Y-84411515D01*
X85539007Y-84605378D01*
X85515148Y-84806964D01*
X85190564Y-84806964D01*
X85174658Y-84633859D01*
X85173090Y-84628299D01*
X85121125Y-84444046D01*
X85121124Y-84444044D01*
X85119557Y-84438487D01*
X85108978Y-84417033D01*
X85032331Y-84261609D01*
X85029776Y-84256428D01*
X84908320Y-84093779D01*
X84759258Y-83955987D01*
X84754375Y-83952906D01*
X84754371Y-83952903D01*
X84592464Y-83850748D01*
X84587581Y-83847667D01*
X84399039Y-83772446D01*
X84393379Y-83771320D01*
X84393375Y-83771319D01*
X84205613Y-83733971D01*
X84205610Y-83733971D01*
X84199946Y-83732844D01*
X84194171Y-83732768D01*
X84194167Y-83732768D01*
X84092793Y-83731441D01*
X83996971Y-83730187D01*
X83991274Y-83731166D01*
X83991273Y-83731166D01*
X83903397Y-83746266D01*
X83796910Y-83764564D01*
X83606463Y-83834824D01*
X83432010Y-83938612D01*
X83427670Y-83942418D01*
X83427666Y-83942421D01*
X83283733Y-84068648D01*
X83279392Y-84072455D01*
X83153720Y-84231869D01*
X83151031Y-84236980D01*
X83151029Y-84236983D01*
X83138073Y-84261609D01*
X83059203Y-84411515D01*
X82999007Y-84605378D01*
X82975148Y-84806964D01*
X82650564Y-84806964D01*
X82634658Y-84633859D01*
X82633090Y-84628299D01*
X82581125Y-84444046D01*
X82581124Y-84444044D01*
X82579557Y-84438487D01*
X82568978Y-84417033D01*
X82492331Y-84261609D01*
X82489776Y-84256428D01*
X82368320Y-84093779D01*
X82219258Y-83955987D01*
X82214375Y-83952906D01*
X82214371Y-83952903D01*
X82052464Y-83850748D01*
X82047581Y-83847667D01*
X81859039Y-83772446D01*
X81853379Y-83771320D01*
X81853375Y-83771319D01*
X81665613Y-83733971D01*
X81665610Y-83733971D01*
X81659946Y-83732844D01*
X81654171Y-83732768D01*
X81654167Y-83732768D01*
X81552793Y-83731441D01*
X81456971Y-83730187D01*
X81451274Y-83731166D01*
X81451273Y-83731166D01*
X81363397Y-83746266D01*
X81256910Y-83764564D01*
X81066463Y-83834824D01*
X80892010Y-83938612D01*
X80887670Y-83942418D01*
X80887666Y-83942421D01*
X80743733Y-84068648D01*
X80739392Y-84072455D01*
X80613720Y-84231869D01*
X80611031Y-84236980D01*
X80611029Y-84236983D01*
X80598073Y-84261609D01*
X80519203Y-84411515D01*
X80459007Y-84605378D01*
X80435148Y-84806964D01*
X80110564Y-84806964D01*
X80094658Y-84633859D01*
X80093090Y-84628299D01*
X80041125Y-84444046D01*
X80041124Y-84444044D01*
X80039557Y-84438487D01*
X80028978Y-84417033D01*
X79952331Y-84261609D01*
X79949776Y-84256428D01*
X79828320Y-84093779D01*
X79679258Y-83955987D01*
X79674375Y-83952906D01*
X79674371Y-83952903D01*
X79512464Y-83850748D01*
X79507581Y-83847667D01*
X79319039Y-83772446D01*
X79313379Y-83771320D01*
X79313375Y-83771319D01*
X79125613Y-83733971D01*
X79125610Y-83733971D01*
X79119946Y-83732844D01*
X79114171Y-83732768D01*
X79114167Y-83732768D01*
X79012793Y-83731441D01*
X78916971Y-83730187D01*
X78911274Y-83731166D01*
X78911273Y-83731166D01*
X78823397Y-83746266D01*
X78716910Y-83764564D01*
X78526463Y-83834824D01*
X78352010Y-83938612D01*
X78347670Y-83942418D01*
X78347666Y-83942421D01*
X78203733Y-84068648D01*
X78199392Y-84072455D01*
X78073720Y-84231869D01*
X78071031Y-84236980D01*
X78071029Y-84236983D01*
X77981589Y-84406980D01*
X77932170Y-84457952D01*
X77863037Y-84474115D01*
X77796141Y-84450336D01*
X77756003Y-84395973D01*
X77753955Y-84396863D01*
X77666972Y-84196814D01*
X77662105Y-84187739D01*
X77546426Y-84008926D01*
X77540136Y-84000757D01*
X77396806Y-83843240D01*
X77389273Y-83836215D01*
X77222139Y-83704222D01*
X77213552Y-83698517D01*
X77027117Y-83595599D01*
X77017705Y-83591369D01*
X76816959Y-83520280D01*
X76806988Y-83517646D01*
X76735837Y-83504972D01*
X76722540Y-83506432D01*
X76718000Y-83520989D01*
X76718000Y-86154517D01*
X76210000Y-86154517D01*
X76210000Y-83519102D01*
X76206082Y-83505758D01*
X76191806Y-83503771D01*
X76153324Y-83509660D01*
X76143288Y-83512051D01*
X75940868Y-83578212D01*
X75931359Y-83582209D01*
X75742463Y-83680542D01*
X75733738Y-83686036D01*
X75563433Y-83813905D01*
X75555726Y-83820748D01*
X75408590Y-83974717D01*
X75402104Y-83982727D01*
X75282098Y-84158649D01*
X75277000Y-84167623D01*
X75187338Y-84360783D01*
X75183777Y-84370464D01*
X75179291Y-84386640D01*
X75141813Y-84446939D01*
X75077684Y-84477403D01*
X75007266Y-84468360D01*
X74952915Y-84422682D01*
X74944867Y-84408698D01*
X74872331Y-84261609D01*
X74869776Y-84256428D01*
X74748320Y-84093779D01*
X74599258Y-83955987D01*
X74594375Y-83952906D01*
X74594371Y-83952903D01*
X74432464Y-83850748D01*
X74427581Y-83847667D01*
X74239039Y-83772446D01*
X74233379Y-83771320D01*
X74233375Y-83771319D01*
X74045613Y-83733971D01*
X74045610Y-83733971D01*
X74039946Y-83732844D01*
X74034171Y-83732768D01*
X74034167Y-83732768D01*
X73932793Y-83731441D01*
X73836971Y-83730187D01*
X73831274Y-83731166D01*
X73831273Y-83731166D01*
X73743397Y-83746266D01*
X73636910Y-83764564D01*
X73446463Y-83834824D01*
X73272010Y-83938612D01*
X73267670Y-83942418D01*
X73267666Y-83942421D01*
X73123733Y-84068648D01*
X73119392Y-84072455D01*
X72993720Y-84231869D01*
X72991031Y-84236980D01*
X72991029Y-84236983D01*
X72978073Y-84261609D01*
X72899203Y-84411515D01*
X72839007Y-84605378D01*
X72815148Y-84806964D01*
X72490564Y-84806964D01*
X72474658Y-84633859D01*
X72473090Y-84628299D01*
X72421125Y-84444046D01*
X72421124Y-84444044D01*
X72419557Y-84438487D01*
X72408978Y-84417033D01*
X72332331Y-84261609D01*
X72329776Y-84256428D01*
X72208320Y-84093779D01*
X72059258Y-83955987D01*
X72054375Y-83952906D01*
X72054371Y-83952903D01*
X71892464Y-83850748D01*
X71887581Y-83847667D01*
X71699039Y-83772446D01*
X71693379Y-83771320D01*
X71693375Y-83771319D01*
X71505613Y-83733971D01*
X71505610Y-83733971D01*
X71499946Y-83732844D01*
X71494171Y-83732768D01*
X71494167Y-83732768D01*
X71392793Y-83731441D01*
X71296971Y-83730187D01*
X71291274Y-83731166D01*
X71291273Y-83731166D01*
X71203397Y-83746266D01*
X71096910Y-83764564D01*
X70906463Y-83834824D01*
X70732010Y-83938612D01*
X70727670Y-83942418D01*
X70727666Y-83942421D01*
X70583733Y-84068648D01*
X70579392Y-84072455D01*
X70453720Y-84231869D01*
X70451031Y-84236980D01*
X70451029Y-84236983D01*
X70438073Y-84261609D01*
X70359203Y-84411515D01*
X70299007Y-84605378D01*
X70275148Y-84806964D01*
X69950564Y-84806964D01*
X69934658Y-84633859D01*
X69933090Y-84628299D01*
X69881125Y-84444046D01*
X69881124Y-84444044D01*
X69879557Y-84438487D01*
X69868978Y-84417033D01*
X69792331Y-84261609D01*
X69789776Y-84256428D01*
X69668320Y-84093779D01*
X69519258Y-83955987D01*
X69514375Y-83952906D01*
X69514371Y-83952903D01*
X69352464Y-83850748D01*
X69347581Y-83847667D01*
X69159039Y-83772446D01*
X69153379Y-83771320D01*
X69153375Y-83771319D01*
X68965613Y-83733971D01*
X68965610Y-83733971D01*
X68959946Y-83732844D01*
X68954171Y-83732768D01*
X68954167Y-83732768D01*
X68852793Y-83731441D01*
X68756971Y-83730187D01*
X68751274Y-83731166D01*
X68751273Y-83731166D01*
X68663397Y-83746266D01*
X68556910Y-83764564D01*
X68366463Y-83834824D01*
X68192010Y-83938612D01*
X68187670Y-83942418D01*
X68187666Y-83942421D01*
X68043733Y-84068648D01*
X68039392Y-84072455D01*
X67913720Y-84231869D01*
X67911031Y-84236980D01*
X67911029Y-84236983D01*
X67898073Y-84261609D01*
X67819203Y-84411515D01*
X67759007Y-84605378D01*
X67735148Y-84806964D01*
X67408499Y-84806964D01*
X67408499Y-83960934D01*
X67393734Y-83886699D01*
X67367654Y-83847667D01*
X67344377Y-83812832D01*
X67337484Y-83802516D01*
X67253301Y-83746266D01*
X67179067Y-83731500D01*
X66304142Y-83731500D01*
X65428934Y-83731501D01*
X65393182Y-83738612D01*
X65366874Y-83743844D01*
X65366872Y-83743845D01*
X65354699Y-83746266D01*
X65344379Y-83753161D01*
X65344378Y-83753162D01*
X65283985Y-83793516D01*
X65270516Y-83802516D01*
X65214266Y-83886699D01*
X65199500Y-83960933D01*
X56896500Y-83960933D01*
X56896500Y-80498972D01*
X57336148Y-80498972D01*
X57349424Y-80701530D01*
X57350845Y-80707126D01*
X57350846Y-80707131D01*
X57371117Y-80786945D01*
X57399392Y-80898277D01*
X57401809Y-80903520D01*
X57439007Y-80984208D01*
X57484377Y-81082624D01*
X57487710Y-81087340D01*
X57598192Y-81243669D01*
X57601533Y-81248397D01*
X57746938Y-81390043D01*
X57915720Y-81502820D01*
X57921023Y-81505098D01*
X57921026Y-81505100D01*
X58096921Y-81580670D01*
X58102228Y-81582950D01*
X58175244Y-81599472D01*
X58294579Y-81626475D01*
X58294584Y-81626476D01*
X58300216Y-81627750D01*
X58305987Y-81627977D01*
X58305989Y-81627977D01*
X58365756Y-81630325D01*
X58503053Y-81635720D01*
X58603499Y-81621156D01*
X58698231Y-81607421D01*
X58698236Y-81607420D01*
X58703945Y-81606592D01*
X58709409Y-81604737D01*
X58709414Y-81604736D01*
X58890693Y-81543200D01*
X58890698Y-81543198D01*
X58896165Y-81541342D01*
X59073276Y-81442155D01*
X59077728Y-81438453D01*
X59224913Y-81316039D01*
X59229345Y-81312353D01*
X59359147Y-81156284D01*
X59458334Y-80979173D01*
X59460190Y-80973706D01*
X59460192Y-80973701D01*
X59521728Y-80792422D01*
X59521730Y-80792414D01*
X59523584Y-80786953D01*
X59524412Y-80781244D01*
X59524413Y-80781239D01*
X59552179Y-80589735D01*
X59552180Y-80589727D01*
X59552712Y-80586061D01*
X59554232Y-80528008D01*
X59551564Y-80498972D01*
X60867148Y-80498972D01*
X60880424Y-80701530D01*
X60881845Y-80707126D01*
X60881846Y-80707131D01*
X60902117Y-80786945D01*
X60930392Y-80898277D01*
X60932809Y-80903520D01*
X60970007Y-80984208D01*
X61015377Y-81082624D01*
X61018710Y-81087340D01*
X61129192Y-81243669D01*
X61132533Y-81248397D01*
X61277938Y-81390043D01*
X61446720Y-81502820D01*
X61452023Y-81505098D01*
X61452026Y-81505100D01*
X61627921Y-81580670D01*
X61633228Y-81582950D01*
X61706244Y-81599472D01*
X61825579Y-81626475D01*
X61825584Y-81626476D01*
X61831216Y-81627750D01*
X61836987Y-81627977D01*
X61836989Y-81627977D01*
X61896756Y-81630325D01*
X62034053Y-81635720D01*
X62134499Y-81621156D01*
X62229231Y-81607421D01*
X62229236Y-81607420D01*
X62234945Y-81606592D01*
X62240409Y-81604737D01*
X62240414Y-81604736D01*
X62421693Y-81543200D01*
X62421698Y-81543198D01*
X62427165Y-81541342D01*
X62604276Y-81442155D01*
X62608728Y-81438453D01*
X62755913Y-81316039D01*
X62760345Y-81312353D01*
X62890147Y-81156284D01*
X62989334Y-80979173D01*
X62991190Y-80973706D01*
X62991192Y-80973701D01*
X63052728Y-80792422D01*
X63052730Y-80792414D01*
X63054584Y-80786953D01*
X63055412Y-80781244D01*
X63055413Y-80781239D01*
X63083179Y-80589735D01*
X63083180Y-80589727D01*
X63083712Y-80586061D01*
X63085232Y-80528008D01*
X63082563Y-80498964D01*
X89823148Y-80498964D01*
X89836424Y-80701522D01*
X89837845Y-80707118D01*
X89837846Y-80707123D01*
X89858119Y-80786945D01*
X89886392Y-80898269D01*
X89888809Y-80903512D01*
X89923689Y-80979173D01*
X89971377Y-81082616D01*
X90088533Y-81248389D01*
X90233938Y-81390035D01*
X90402720Y-81502812D01*
X90408023Y-81505090D01*
X90408026Y-81505092D01*
X90583921Y-81580662D01*
X90589228Y-81582942D01*
X90662244Y-81599464D01*
X90781579Y-81626467D01*
X90781584Y-81626468D01*
X90787216Y-81627742D01*
X90792987Y-81627969D01*
X90792989Y-81627969D01*
X90852756Y-81630317D01*
X90990053Y-81635712D01*
X91090499Y-81621148D01*
X91185231Y-81607413D01*
X91185236Y-81607412D01*
X91190945Y-81606584D01*
X91196409Y-81604729D01*
X91196414Y-81604728D01*
X91377693Y-81543192D01*
X91377698Y-81543190D01*
X91383165Y-81541334D01*
X91560276Y-81442147D01*
X91619065Y-81393253D01*
X91711913Y-81316031D01*
X91716345Y-81312345D01*
X91740172Y-81283696D01*
X91842453Y-81160718D01*
X91842455Y-81160715D01*
X91846147Y-81156276D01*
X91905845Y-81049677D01*
X91942510Y-80984208D01*
X91942511Y-80984206D01*
X91945334Y-80979165D01*
X91947190Y-80973698D01*
X91947192Y-80973693D01*
X92008728Y-80792414D01*
X92008729Y-80792409D01*
X92010584Y-80786945D01*
X92011412Y-80781236D01*
X92011413Y-80781231D01*
X92039179Y-80589727D01*
X92039712Y-80586053D01*
X92041232Y-80528000D01*
X92038565Y-80498972D01*
X93404142Y-80498972D01*
X93417418Y-80701530D01*
X93418839Y-80707126D01*
X93418840Y-80707131D01*
X93439111Y-80786945D01*
X93467386Y-80898277D01*
X93469803Y-80903520D01*
X93507001Y-80984208D01*
X93552371Y-81082624D01*
X93555704Y-81087340D01*
X93666186Y-81243669D01*
X93669527Y-81248397D01*
X93814932Y-81390043D01*
X93983714Y-81502820D01*
X93989017Y-81505098D01*
X93989020Y-81505100D01*
X94164915Y-81580670D01*
X94170222Y-81582950D01*
X94243238Y-81599472D01*
X94362573Y-81626475D01*
X94362578Y-81626476D01*
X94368210Y-81627750D01*
X94373981Y-81627977D01*
X94373983Y-81627977D01*
X94433750Y-81630325D01*
X94571047Y-81635720D01*
X94671493Y-81621156D01*
X94766225Y-81607421D01*
X94766230Y-81607420D01*
X94771939Y-81606592D01*
X94777403Y-81604737D01*
X94777408Y-81604736D01*
X94958687Y-81543200D01*
X94958692Y-81543198D01*
X94964159Y-81541342D01*
X95141270Y-81442155D01*
X95145722Y-81438453D01*
X95292907Y-81316039D01*
X95297339Y-81312353D01*
X95427141Y-81156284D01*
X95526328Y-80979173D01*
X95528184Y-80973706D01*
X95528186Y-80973701D01*
X95589722Y-80792422D01*
X95589724Y-80792414D01*
X95591578Y-80786953D01*
X95592406Y-80781244D01*
X95592407Y-80781239D01*
X95620173Y-80589735D01*
X95620174Y-80589727D01*
X95620706Y-80586061D01*
X95622226Y-80528008D01*
X95603652Y-80325867D01*
X95602082Y-80320299D01*
X95550119Y-80136054D01*
X95550118Y-80136052D01*
X95548551Y-80130495D01*
X95537972Y-80109041D01*
X95461325Y-79953617D01*
X95458770Y-79948436D01*
X95337314Y-79785787D01*
X95188252Y-79647995D01*
X95183369Y-79644914D01*
X95183365Y-79644911D01*
X95021458Y-79542756D01*
X95016575Y-79539675D01*
X94828033Y-79464454D01*
X94822373Y-79463328D01*
X94822369Y-79463327D01*
X94634607Y-79425979D01*
X94634604Y-79425979D01*
X94628940Y-79424852D01*
X94623165Y-79424776D01*
X94623161Y-79424776D01*
X94521787Y-79423449D01*
X94425965Y-79422195D01*
X94420268Y-79423174D01*
X94420267Y-79423174D01*
X94231648Y-79455585D01*
X94225904Y-79456572D01*
X94035457Y-79526832D01*
X93861004Y-79630620D01*
X93856664Y-79634426D01*
X93856660Y-79634429D01*
X93836726Y-79651911D01*
X93708386Y-79764463D01*
X93582714Y-79923877D01*
X93580028Y-79928983D01*
X93580023Y-79928991D01*
X93567071Y-79953609D01*
X93488197Y-80103523D01*
X93478096Y-80136054D01*
X93429717Y-80291861D01*
X93428001Y-80297386D01*
X93404142Y-80498972D01*
X92038565Y-80498972D01*
X92029797Y-80403551D01*
X92023187Y-80331613D01*
X92023186Y-80331610D01*
X92022658Y-80325859D01*
X92016246Y-80303123D01*
X91969125Y-80136046D01*
X91969124Y-80136044D01*
X91967557Y-80130487D01*
X91956982Y-80109041D01*
X91880331Y-79953609D01*
X91877776Y-79948428D01*
X91756320Y-79785779D01*
X91607258Y-79647987D01*
X91602375Y-79644906D01*
X91602371Y-79644903D01*
X91440464Y-79542748D01*
X91435581Y-79539667D01*
X91247039Y-79464446D01*
X91241379Y-79463320D01*
X91241375Y-79463319D01*
X91053613Y-79425971D01*
X91053610Y-79425971D01*
X91047946Y-79424844D01*
X91042171Y-79424768D01*
X91042167Y-79424768D01*
X90940793Y-79423441D01*
X90844971Y-79422187D01*
X90839274Y-79423166D01*
X90839273Y-79423166D01*
X90650607Y-79455585D01*
X90644910Y-79456564D01*
X90454463Y-79526824D01*
X90280010Y-79630612D01*
X90275670Y-79634418D01*
X90275666Y-79634421D01*
X90255723Y-79651911D01*
X90127392Y-79764455D01*
X90001720Y-79923869D01*
X89999031Y-79928980D01*
X89999029Y-79928983D01*
X89951128Y-80020027D01*
X89907203Y-80103515D01*
X89847007Y-80297378D01*
X89823148Y-80498964D01*
X63082563Y-80498964D01*
X63066658Y-80325867D01*
X63065088Y-80320299D01*
X63013125Y-80136054D01*
X63013124Y-80136052D01*
X63011557Y-80130495D01*
X63000978Y-80109041D01*
X62924331Y-79953617D01*
X62921776Y-79948436D01*
X62800320Y-79785787D01*
X62651258Y-79647995D01*
X62646375Y-79644914D01*
X62646371Y-79644911D01*
X62484464Y-79542756D01*
X62479581Y-79539675D01*
X62291039Y-79464454D01*
X62285379Y-79463328D01*
X62285375Y-79463327D01*
X62097613Y-79425979D01*
X62097610Y-79425979D01*
X62091946Y-79424852D01*
X62086171Y-79424776D01*
X62086167Y-79424776D01*
X61984793Y-79423449D01*
X61888971Y-79422195D01*
X61883274Y-79423174D01*
X61883273Y-79423174D01*
X61694654Y-79455585D01*
X61688910Y-79456572D01*
X61498463Y-79526832D01*
X61324010Y-79630620D01*
X61319670Y-79634426D01*
X61319666Y-79634429D01*
X61299732Y-79651911D01*
X61171392Y-79764463D01*
X61045720Y-79923877D01*
X61043034Y-79928983D01*
X61043029Y-79928991D01*
X61030077Y-79953609D01*
X60951203Y-80103523D01*
X60941102Y-80136054D01*
X60892723Y-80291861D01*
X60891007Y-80297386D01*
X60867148Y-80498972D01*
X59551564Y-80498972D01*
X59535658Y-80325867D01*
X59534088Y-80320299D01*
X59482125Y-80136054D01*
X59482124Y-80136052D01*
X59480557Y-80130495D01*
X59469978Y-80109041D01*
X59393331Y-79953617D01*
X59390776Y-79948436D01*
X59269320Y-79785787D01*
X59120258Y-79647995D01*
X59115375Y-79644914D01*
X59115371Y-79644911D01*
X58953464Y-79542756D01*
X58948581Y-79539675D01*
X58760039Y-79464454D01*
X58754379Y-79463328D01*
X58754375Y-79463327D01*
X58566613Y-79425979D01*
X58566610Y-79425979D01*
X58560946Y-79424852D01*
X58555171Y-79424776D01*
X58555167Y-79424776D01*
X58453793Y-79423449D01*
X58357971Y-79422195D01*
X58352274Y-79423174D01*
X58352273Y-79423174D01*
X58163654Y-79455585D01*
X58157910Y-79456572D01*
X57967463Y-79526832D01*
X57793010Y-79630620D01*
X57788670Y-79634426D01*
X57788666Y-79634429D01*
X57768732Y-79651911D01*
X57640392Y-79764463D01*
X57514720Y-79923877D01*
X57512034Y-79928983D01*
X57512029Y-79928991D01*
X57499077Y-79953609D01*
X57420203Y-80103523D01*
X57410102Y-80136054D01*
X57361723Y-80291861D01*
X57360007Y-80297386D01*
X57336148Y-80498972D01*
X56896500Y-80498972D01*
X56896500Y-77958972D01*
X57336148Y-77958972D01*
X57349424Y-78161530D01*
X57350845Y-78167126D01*
X57350846Y-78167131D01*
X57371117Y-78246945D01*
X57399392Y-78358277D01*
X57401809Y-78363520D01*
X57439007Y-78444208D01*
X57484377Y-78542624D01*
X57487710Y-78547340D01*
X57598192Y-78703669D01*
X57601533Y-78708397D01*
X57746938Y-78850043D01*
X57915720Y-78962820D01*
X57921023Y-78965098D01*
X57921026Y-78965100D01*
X58096921Y-79040670D01*
X58102228Y-79042950D01*
X58175244Y-79059472D01*
X58294579Y-79086475D01*
X58294584Y-79086476D01*
X58300216Y-79087750D01*
X58305987Y-79087977D01*
X58305989Y-79087977D01*
X58365756Y-79090325D01*
X58503053Y-79095720D01*
X58603499Y-79081156D01*
X58698231Y-79067421D01*
X58698236Y-79067420D01*
X58703945Y-79066592D01*
X58709409Y-79064737D01*
X58709414Y-79064736D01*
X58890693Y-79003200D01*
X58890698Y-79003198D01*
X58896165Y-79001342D01*
X59073276Y-78902155D01*
X59077728Y-78898453D01*
X59224913Y-78776039D01*
X59229345Y-78772353D01*
X59359147Y-78616284D01*
X59458334Y-78439173D01*
X59460190Y-78433706D01*
X59460192Y-78433701D01*
X59521728Y-78252422D01*
X59521730Y-78252414D01*
X59523584Y-78246953D01*
X59524412Y-78241244D01*
X59524413Y-78241239D01*
X59552179Y-78049735D01*
X59552180Y-78049727D01*
X59552712Y-78046061D01*
X59554232Y-77988008D01*
X59551564Y-77958972D01*
X60867148Y-77958972D01*
X60880424Y-78161530D01*
X60881845Y-78167126D01*
X60881846Y-78167131D01*
X60902117Y-78246945D01*
X60930392Y-78358277D01*
X60932809Y-78363520D01*
X60970007Y-78444208D01*
X61015377Y-78542624D01*
X61018710Y-78547340D01*
X61129192Y-78703669D01*
X61132533Y-78708397D01*
X61277938Y-78850043D01*
X61446720Y-78962820D01*
X61452023Y-78965098D01*
X61452026Y-78965100D01*
X61627921Y-79040670D01*
X61633228Y-79042950D01*
X61706244Y-79059472D01*
X61825579Y-79086475D01*
X61825584Y-79086476D01*
X61831216Y-79087750D01*
X61836987Y-79087977D01*
X61836989Y-79087977D01*
X61896756Y-79090325D01*
X62034053Y-79095720D01*
X62134499Y-79081156D01*
X62229231Y-79067421D01*
X62229236Y-79067420D01*
X62234945Y-79066592D01*
X62240409Y-79064737D01*
X62240414Y-79064736D01*
X62421693Y-79003200D01*
X62421698Y-79003198D01*
X62427165Y-79001342D01*
X62604276Y-78902155D01*
X62608728Y-78898453D01*
X62755913Y-78776039D01*
X62760345Y-78772353D01*
X62890147Y-78616284D01*
X62989334Y-78439173D01*
X62991190Y-78433706D01*
X62991192Y-78433701D01*
X63052728Y-78252422D01*
X63052730Y-78252414D01*
X63054584Y-78246953D01*
X63055412Y-78241244D01*
X63055413Y-78241239D01*
X63083179Y-78049735D01*
X63083180Y-78049727D01*
X63083712Y-78046061D01*
X63085232Y-77988008D01*
X63082563Y-77958964D01*
X89823148Y-77958964D01*
X89836424Y-78161522D01*
X89837845Y-78167118D01*
X89837846Y-78167123D01*
X89858119Y-78246945D01*
X89886392Y-78358269D01*
X89888809Y-78363512D01*
X89923689Y-78439173D01*
X89971377Y-78542616D01*
X90088533Y-78708389D01*
X90233938Y-78850035D01*
X90402720Y-78962812D01*
X90408023Y-78965090D01*
X90408026Y-78965092D01*
X90583921Y-79040662D01*
X90589228Y-79042942D01*
X90662244Y-79059464D01*
X90781579Y-79086467D01*
X90781584Y-79086468D01*
X90787216Y-79087742D01*
X90792987Y-79087969D01*
X90792989Y-79087969D01*
X90852756Y-79090317D01*
X90990053Y-79095712D01*
X91090499Y-79081148D01*
X91185231Y-79067413D01*
X91185236Y-79067412D01*
X91190945Y-79066584D01*
X91196409Y-79064729D01*
X91196414Y-79064728D01*
X91377693Y-79003192D01*
X91377698Y-79003190D01*
X91383165Y-79001334D01*
X91560276Y-78902147D01*
X91619065Y-78853253D01*
X91711913Y-78776031D01*
X91716345Y-78772345D01*
X91740172Y-78743696D01*
X91842453Y-78620718D01*
X91842455Y-78620715D01*
X91846147Y-78616276D01*
X91905845Y-78509677D01*
X91942510Y-78444208D01*
X91942511Y-78444206D01*
X91945334Y-78439165D01*
X91947190Y-78433698D01*
X91947192Y-78433693D01*
X92008728Y-78252414D01*
X92008729Y-78252409D01*
X92010584Y-78246945D01*
X92011412Y-78241236D01*
X92011413Y-78241231D01*
X92039179Y-78049727D01*
X92039712Y-78046053D01*
X92041232Y-77988000D01*
X92038565Y-77958972D01*
X93404142Y-77958972D01*
X93417418Y-78161530D01*
X93418839Y-78167126D01*
X93418840Y-78167131D01*
X93439111Y-78246945D01*
X93467386Y-78358277D01*
X93469803Y-78363520D01*
X93507001Y-78444208D01*
X93552371Y-78542624D01*
X93555704Y-78547340D01*
X93666186Y-78703669D01*
X93669527Y-78708397D01*
X93814932Y-78850043D01*
X93983714Y-78962820D01*
X93989017Y-78965098D01*
X93989020Y-78965100D01*
X94164915Y-79040670D01*
X94170222Y-79042950D01*
X94243238Y-79059472D01*
X94362573Y-79086475D01*
X94362578Y-79086476D01*
X94368210Y-79087750D01*
X94373981Y-79087977D01*
X94373983Y-79087977D01*
X94433750Y-79090325D01*
X94571047Y-79095720D01*
X94671493Y-79081156D01*
X94766225Y-79067421D01*
X94766230Y-79067420D01*
X94771939Y-79066592D01*
X94777403Y-79064737D01*
X94777408Y-79064736D01*
X94958687Y-79003200D01*
X94958692Y-79003198D01*
X94964159Y-79001342D01*
X95141270Y-78902155D01*
X95145722Y-78898453D01*
X95292907Y-78776039D01*
X95297339Y-78772353D01*
X95427141Y-78616284D01*
X95526328Y-78439173D01*
X95528184Y-78433706D01*
X95528186Y-78433701D01*
X95589722Y-78252422D01*
X95589724Y-78252414D01*
X95591578Y-78246953D01*
X95592406Y-78241244D01*
X95592407Y-78241239D01*
X95620173Y-78049735D01*
X95620174Y-78049727D01*
X95620706Y-78046061D01*
X95622226Y-77988008D01*
X95603652Y-77785867D01*
X95602082Y-77780299D01*
X95550119Y-77596054D01*
X95550118Y-77596052D01*
X95548551Y-77590495D01*
X95537972Y-77569041D01*
X95461325Y-77413617D01*
X95458770Y-77408436D01*
X95337314Y-77245787D01*
X95188252Y-77107995D01*
X95183369Y-77104914D01*
X95183365Y-77104911D01*
X95021458Y-77002756D01*
X95016575Y-76999675D01*
X94828033Y-76924454D01*
X94822373Y-76923328D01*
X94822369Y-76923327D01*
X94634607Y-76885979D01*
X94634604Y-76885979D01*
X94628940Y-76884852D01*
X94623165Y-76884776D01*
X94623161Y-76884776D01*
X94521787Y-76883449D01*
X94425965Y-76882195D01*
X94420268Y-76883174D01*
X94420267Y-76883174D01*
X94231648Y-76915585D01*
X94225904Y-76916572D01*
X94035457Y-76986832D01*
X93861004Y-77090620D01*
X93856664Y-77094426D01*
X93856660Y-77094429D01*
X93836726Y-77111911D01*
X93708386Y-77224463D01*
X93582714Y-77383877D01*
X93580028Y-77388983D01*
X93580023Y-77388991D01*
X93567071Y-77413609D01*
X93488197Y-77563523D01*
X93478096Y-77596054D01*
X93429717Y-77751861D01*
X93428001Y-77757386D01*
X93404142Y-77958972D01*
X92038565Y-77958972D01*
X92029797Y-77863551D01*
X92023187Y-77791613D01*
X92023186Y-77791610D01*
X92022658Y-77785859D01*
X92016246Y-77763123D01*
X91969125Y-77596046D01*
X91969124Y-77596044D01*
X91967557Y-77590487D01*
X91956982Y-77569041D01*
X91880331Y-77413609D01*
X91877776Y-77408428D01*
X91756320Y-77245779D01*
X91607258Y-77107987D01*
X91602375Y-77104906D01*
X91602371Y-77104903D01*
X91440464Y-77002748D01*
X91435581Y-76999667D01*
X91247039Y-76924446D01*
X91241379Y-76923320D01*
X91241375Y-76923319D01*
X91053613Y-76885971D01*
X91053610Y-76885971D01*
X91047946Y-76884844D01*
X91042171Y-76884768D01*
X91042167Y-76884768D01*
X90940793Y-76883441D01*
X90844971Y-76882187D01*
X90839274Y-76883166D01*
X90839273Y-76883166D01*
X90650607Y-76915585D01*
X90644910Y-76916564D01*
X90454463Y-76986824D01*
X90280010Y-77090612D01*
X90275670Y-77094418D01*
X90275666Y-77094421D01*
X90255723Y-77111911D01*
X90127392Y-77224455D01*
X90001720Y-77383869D01*
X89999031Y-77388980D01*
X89999029Y-77388983D01*
X89951128Y-77480027D01*
X89907203Y-77563515D01*
X89847007Y-77757378D01*
X89823148Y-77958964D01*
X63082563Y-77958964D01*
X63066658Y-77785867D01*
X63065088Y-77780299D01*
X63013125Y-77596054D01*
X63013124Y-77596052D01*
X63011557Y-77590495D01*
X63000978Y-77569041D01*
X62924331Y-77413617D01*
X62921776Y-77408436D01*
X62800320Y-77245787D01*
X62651258Y-77107995D01*
X62646375Y-77104914D01*
X62646371Y-77104911D01*
X62484464Y-77002756D01*
X62479581Y-76999675D01*
X62291039Y-76924454D01*
X62285379Y-76923328D01*
X62285375Y-76923327D01*
X62097613Y-76885979D01*
X62097610Y-76885979D01*
X62091946Y-76884852D01*
X62086171Y-76884776D01*
X62086167Y-76884776D01*
X61984793Y-76883449D01*
X61888971Y-76882195D01*
X61883274Y-76883174D01*
X61883273Y-76883174D01*
X61694654Y-76915585D01*
X61688910Y-76916572D01*
X61498463Y-76986832D01*
X61324010Y-77090620D01*
X61319670Y-77094426D01*
X61319666Y-77094429D01*
X61299732Y-77111911D01*
X61171392Y-77224463D01*
X61045720Y-77383877D01*
X61043034Y-77388983D01*
X61043029Y-77388991D01*
X61030077Y-77413609D01*
X60951203Y-77563523D01*
X60941102Y-77596054D01*
X60892723Y-77751861D01*
X60891007Y-77757386D01*
X60867148Y-77958972D01*
X59551564Y-77958972D01*
X59535658Y-77785867D01*
X59534088Y-77780299D01*
X59482125Y-77596054D01*
X59482124Y-77596052D01*
X59480557Y-77590495D01*
X59469978Y-77569041D01*
X59393331Y-77413617D01*
X59390776Y-77408436D01*
X59269320Y-77245787D01*
X59120258Y-77107995D01*
X59115375Y-77104914D01*
X59115371Y-77104911D01*
X58953464Y-77002756D01*
X58948581Y-76999675D01*
X58760039Y-76924454D01*
X58754379Y-76923328D01*
X58754375Y-76923327D01*
X58566613Y-76885979D01*
X58566610Y-76885979D01*
X58560946Y-76884852D01*
X58555171Y-76884776D01*
X58555167Y-76884776D01*
X58453793Y-76883449D01*
X58357971Y-76882195D01*
X58352274Y-76883174D01*
X58352273Y-76883174D01*
X58163654Y-76915585D01*
X58157910Y-76916572D01*
X57967463Y-76986832D01*
X57793010Y-77090620D01*
X57788670Y-77094426D01*
X57788666Y-77094429D01*
X57768732Y-77111911D01*
X57640392Y-77224463D01*
X57514720Y-77383877D01*
X57512034Y-77388983D01*
X57512029Y-77388991D01*
X57499077Y-77413609D01*
X57420203Y-77563523D01*
X57410102Y-77596054D01*
X57361723Y-77751861D01*
X57360007Y-77757386D01*
X57336148Y-77958972D01*
X56896500Y-77958972D01*
X56896500Y-73345483D01*
X56916502Y-73277362D01*
X56970158Y-73230869D01*
X57040432Y-73220765D01*
X57105012Y-73250259D01*
X57142735Y-73307807D01*
X57146645Y-73320283D01*
X57226770Y-73517611D01*
X57231413Y-73526802D01*
X57342694Y-73708396D01*
X57348777Y-73716707D01*
X57488213Y-73877675D01*
X57495580Y-73884891D01*
X57659434Y-74020924D01*
X57667881Y-74026839D01*
X57851756Y-74134287D01*
X57861042Y-74138737D01*
X58010124Y-74195665D01*
X58066627Y-74238652D01*
X58090920Y-74305363D01*
X58075290Y-74374618D01*
X58024699Y-74424429D01*
X58008785Y-74431587D01*
X57967463Y-74446832D01*
X57793010Y-74550620D01*
X57788670Y-74554426D01*
X57788666Y-74554429D01*
X57768732Y-74571911D01*
X57640392Y-74684463D01*
X57514720Y-74843877D01*
X57512034Y-74848983D01*
X57512029Y-74848991D01*
X57499077Y-74873609D01*
X57420203Y-75023523D01*
X57410102Y-75056054D01*
X57361723Y-75211861D01*
X57360007Y-75217386D01*
X57336148Y-75418972D01*
X57349424Y-75621530D01*
X57350845Y-75627126D01*
X57350846Y-75627131D01*
X57371117Y-75706945D01*
X57399392Y-75818277D01*
X57401809Y-75823520D01*
X57439007Y-75904208D01*
X57484377Y-76002624D01*
X57487710Y-76007340D01*
X57598192Y-76163669D01*
X57601533Y-76168397D01*
X57746938Y-76310043D01*
X57915720Y-76422820D01*
X57921023Y-76425098D01*
X57921026Y-76425100D01*
X58096921Y-76500670D01*
X58102228Y-76502950D01*
X58175244Y-76519472D01*
X58294579Y-76546475D01*
X58294584Y-76546476D01*
X58300216Y-76547750D01*
X58305987Y-76547977D01*
X58305989Y-76547977D01*
X58365756Y-76550325D01*
X58503053Y-76555720D01*
X58603499Y-76541156D01*
X58698231Y-76527421D01*
X58698236Y-76527420D01*
X58703945Y-76526592D01*
X58709409Y-76524737D01*
X58709414Y-76524736D01*
X58890693Y-76463200D01*
X58890698Y-76463198D01*
X58896165Y-76461342D01*
X59073276Y-76362155D01*
X59077728Y-76358453D01*
X59224913Y-76236039D01*
X59229345Y-76232353D01*
X59359147Y-76076284D01*
X59458334Y-75899173D01*
X59460190Y-75893706D01*
X59460192Y-75893701D01*
X59521728Y-75712422D01*
X59521730Y-75712414D01*
X59523584Y-75706953D01*
X59524412Y-75701244D01*
X59524413Y-75701239D01*
X59552179Y-75509735D01*
X59552180Y-75509727D01*
X59552712Y-75506061D01*
X59554232Y-75448008D01*
X59535658Y-75245867D01*
X59534088Y-75240299D01*
X59482125Y-75056054D01*
X59482124Y-75056052D01*
X59480557Y-75050495D01*
X59469978Y-75029041D01*
X59393331Y-74873617D01*
X59390776Y-74868436D01*
X59269320Y-74705787D01*
X59120258Y-74567995D01*
X59115375Y-74564914D01*
X59115371Y-74564911D01*
X58953464Y-74462756D01*
X58948581Y-74459675D01*
X58876614Y-74430963D01*
X58820755Y-74387142D01*
X58797455Y-74320077D01*
X58814111Y-74251062D01*
X58865436Y-74202008D01*
X58887098Y-74193247D01*
X58937252Y-74178200D01*
X58946842Y-74174441D01*
X59138095Y-74080747D01*
X59146945Y-74075472D01*
X59320328Y-73951800D01*
X59328200Y-73945147D01*
X59479052Y-73794820D01*
X59485730Y-73786973D01*
X59610003Y-73614028D01*
X59615313Y-73605191D01*
X59709670Y-73414275D01*
X59713469Y-73404680D01*
X59775377Y-73200918D01*
X59777555Y-73190845D01*
X59778986Y-73179970D01*
X59778363Y-73175974D01*
X60644257Y-73175974D01*
X60674565Y-73310454D01*
X60677645Y-73320283D01*
X60757770Y-73517611D01*
X60762413Y-73526802D01*
X60873694Y-73708396D01*
X60879777Y-73716707D01*
X61019213Y-73877675D01*
X61026580Y-73884891D01*
X61190434Y-74020924D01*
X61198881Y-74026839D01*
X61382756Y-74134287D01*
X61392042Y-74138737D01*
X61541124Y-74195665D01*
X61597627Y-74238652D01*
X61621920Y-74305363D01*
X61606290Y-74374618D01*
X61555699Y-74424429D01*
X61539785Y-74431587D01*
X61498463Y-74446832D01*
X61324010Y-74550620D01*
X61319670Y-74554426D01*
X61319666Y-74554429D01*
X61299732Y-74571911D01*
X61171392Y-74684463D01*
X61045720Y-74843877D01*
X61043034Y-74848983D01*
X61043029Y-74848991D01*
X61030077Y-74873609D01*
X60951203Y-75023523D01*
X60941102Y-75056054D01*
X60892723Y-75211861D01*
X60891007Y-75217386D01*
X60867148Y-75418972D01*
X60880424Y-75621530D01*
X60881845Y-75627126D01*
X60881846Y-75627131D01*
X60902117Y-75706945D01*
X60930392Y-75818277D01*
X60932809Y-75823520D01*
X60970007Y-75904208D01*
X61015377Y-76002624D01*
X61018710Y-76007340D01*
X61129192Y-76163669D01*
X61132533Y-76168397D01*
X61277938Y-76310043D01*
X61446720Y-76422820D01*
X61452023Y-76425098D01*
X61452026Y-76425100D01*
X61627921Y-76500670D01*
X61633228Y-76502950D01*
X61706244Y-76519472D01*
X61825579Y-76546475D01*
X61825584Y-76546476D01*
X61831216Y-76547750D01*
X61836987Y-76547977D01*
X61836989Y-76547977D01*
X61896756Y-76550325D01*
X62034053Y-76555720D01*
X62134499Y-76541156D01*
X62229231Y-76527421D01*
X62229236Y-76527420D01*
X62234945Y-76526592D01*
X62240409Y-76524737D01*
X62240414Y-76524736D01*
X62421693Y-76463200D01*
X62421698Y-76463198D01*
X62427165Y-76461342D01*
X62604276Y-76362155D01*
X62608728Y-76358453D01*
X62755913Y-76236039D01*
X62760345Y-76232353D01*
X62890147Y-76076284D01*
X62989334Y-75899173D01*
X62991190Y-75893706D01*
X62991192Y-75893701D01*
X63052728Y-75712422D01*
X63052730Y-75712414D01*
X63054584Y-75706953D01*
X63055412Y-75701244D01*
X63055413Y-75701239D01*
X63083179Y-75509735D01*
X63083180Y-75509727D01*
X63083712Y-75506061D01*
X63085232Y-75448008D01*
X63066658Y-75245867D01*
X63065088Y-75240299D01*
X63013125Y-75056054D01*
X63013124Y-75056052D01*
X63011557Y-75050495D01*
X63000978Y-75029041D01*
X62924331Y-74873617D01*
X62921776Y-74868436D01*
X62800320Y-74705787D01*
X62651258Y-74567995D01*
X62646375Y-74564914D01*
X62646371Y-74564911D01*
X62484464Y-74462756D01*
X62479581Y-74459675D01*
X62407614Y-74430963D01*
X62351755Y-74387142D01*
X62328455Y-74320077D01*
X62345111Y-74251062D01*
X62396436Y-74202008D01*
X62418098Y-74193247D01*
X62468252Y-74178200D01*
X62477842Y-74174441D01*
X62669095Y-74080747D01*
X62677945Y-74075472D01*
X62851328Y-73951800D01*
X62859200Y-73945147D01*
X63010052Y-73794820D01*
X63016730Y-73786973D01*
X63141003Y-73614028D01*
X63146313Y-73605191D01*
X63240670Y-73414275D01*
X63244469Y-73404680D01*
X63306377Y-73200918D01*
X63308555Y-73190845D01*
X63309986Y-73179970D01*
X63309362Y-73175966D01*
X89600257Y-73175966D01*
X89630565Y-73310446D01*
X89633645Y-73320275D01*
X89713770Y-73517603D01*
X89718413Y-73526794D01*
X89829694Y-73708388D01*
X89835777Y-73716699D01*
X89975213Y-73877667D01*
X89982580Y-73884883D01*
X90146434Y-74020916D01*
X90154881Y-74026831D01*
X90338756Y-74134279D01*
X90348042Y-74138729D01*
X90497124Y-74195657D01*
X90553627Y-74238644D01*
X90577920Y-74305355D01*
X90562290Y-74374610D01*
X90511699Y-74424421D01*
X90495785Y-74431579D01*
X90454463Y-74446824D01*
X90280010Y-74550612D01*
X90275670Y-74554418D01*
X90275666Y-74554421D01*
X90255723Y-74571911D01*
X90127392Y-74684455D01*
X90001720Y-74843869D01*
X89999031Y-74848980D01*
X89999029Y-74848983D01*
X89951128Y-74940027D01*
X89907203Y-75023515D01*
X89847007Y-75217378D01*
X89823148Y-75418964D01*
X89836424Y-75621522D01*
X89837845Y-75627118D01*
X89837846Y-75627123D01*
X89858119Y-75706945D01*
X89886392Y-75818269D01*
X89888809Y-75823512D01*
X89923689Y-75899173D01*
X89971377Y-76002616D01*
X90088533Y-76168389D01*
X90233938Y-76310035D01*
X90402720Y-76422812D01*
X90408023Y-76425090D01*
X90408026Y-76425092D01*
X90583921Y-76500662D01*
X90589228Y-76502942D01*
X90662244Y-76519464D01*
X90781579Y-76546467D01*
X90781584Y-76546468D01*
X90787216Y-76547742D01*
X90792987Y-76547969D01*
X90792989Y-76547969D01*
X90852756Y-76550317D01*
X90990053Y-76555712D01*
X91090499Y-76541148D01*
X91185231Y-76527413D01*
X91185236Y-76527412D01*
X91190945Y-76526584D01*
X91196409Y-76524729D01*
X91196414Y-76524728D01*
X91377693Y-76463192D01*
X91377698Y-76463190D01*
X91383165Y-76461334D01*
X91560276Y-76362147D01*
X91619065Y-76313253D01*
X91711913Y-76236031D01*
X91716345Y-76232345D01*
X91740172Y-76203696D01*
X91842453Y-76080718D01*
X91842455Y-76080715D01*
X91846147Y-76076276D01*
X91905845Y-75969677D01*
X91942510Y-75904208D01*
X91942511Y-75904206D01*
X91945334Y-75899165D01*
X91947190Y-75893698D01*
X91947192Y-75893693D01*
X92008728Y-75712414D01*
X92008729Y-75712409D01*
X92010584Y-75706945D01*
X92011412Y-75701236D01*
X92011413Y-75701231D01*
X92039179Y-75509727D01*
X92039712Y-75506053D01*
X92041232Y-75448000D01*
X92029797Y-75323551D01*
X92023187Y-75251613D01*
X92023186Y-75251610D01*
X92022658Y-75245859D01*
X92016246Y-75223123D01*
X91969125Y-75056046D01*
X91969124Y-75056044D01*
X91967557Y-75050487D01*
X91956982Y-75029041D01*
X91880331Y-74873609D01*
X91877776Y-74868428D01*
X91756320Y-74705779D01*
X91607258Y-74567987D01*
X91602375Y-74564906D01*
X91602371Y-74564903D01*
X91440464Y-74462748D01*
X91435581Y-74459667D01*
X91363614Y-74430955D01*
X91307755Y-74387134D01*
X91284455Y-74320069D01*
X91301111Y-74251054D01*
X91352436Y-74202000D01*
X91374098Y-74193239D01*
X91424252Y-74178192D01*
X91433842Y-74174433D01*
X91625095Y-74080739D01*
X91633945Y-74075464D01*
X91807328Y-73951792D01*
X91815200Y-73945139D01*
X91966052Y-73794812D01*
X91972730Y-73786965D01*
X92097003Y-73614020D01*
X92102313Y-73605183D01*
X92196670Y-73414267D01*
X92200469Y-73404672D01*
X92262377Y-73200910D01*
X92264555Y-73190837D01*
X92265986Y-73179962D01*
X92263775Y-73165778D01*
X92250617Y-73162000D01*
X89615225Y-73162000D01*
X89601694Y-73165973D01*
X89600257Y-73175966D01*
X63309362Y-73175966D01*
X63307775Y-73165786D01*
X63294617Y-73162008D01*
X60659225Y-73162008D01*
X60645694Y-73165981D01*
X60644257Y-73175974D01*
X59778363Y-73175974D01*
X59776775Y-73165786D01*
X59763617Y-73162008D01*
X58317000Y-73162008D01*
X58248879Y-73142006D01*
X58202386Y-73088350D01*
X58191000Y-73036008D01*
X58191000Y-72780008D01*
X58211002Y-72711887D01*
X58264658Y-72665394D01*
X58317000Y-72654008D01*
X59763344Y-72654008D01*
X59776875Y-72650035D01*
X59778002Y-72642191D01*
X60640389Y-72642191D01*
X60641912Y-72650615D01*
X60654292Y-72654008D01*
X63294344Y-72654008D01*
X63307875Y-72650035D01*
X63309004Y-72642183D01*
X89596389Y-72642183D01*
X89597912Y-72650607D01*
X89610292Y-72654000D01*
X92250344Y-72654000D01*
X92263875Y-72650027D01*
X92265180Y-72640947D01*
X92223214Y-72473875D01*
X92219894Y-72464124D01*
X92134972Y-72268814D01*
X92130105Y-72259739D01*
X92014426Y-72080926D01*
X92008136Y-72072757D01*
X91864806Y-71915240D01*
X91857273Y-71908215D01*
X91690139Y-71776222D01*
X91681552Y-71770517D01*
X91495117Y-71667599D01*
X91485705Y-71663369D01*
X91371391Y-71622888D01*
X91313855Y-71581294D01*
X91287939Y-71515196D01*
X91301873Y-71445580D01*
X91351232Y-71394549D01*
X91372943Y-71384804D01*
X91383165Y-71381334D01*
X91560276Y-71282147D01*
X91619065Y-71233253D01*
X91711913Y-71156031D01*
X91716345Y-71152345D01*
X91740172Y-71123696D01*
X91842453Y-71000718D01*
X91842455Y-71000715D01*
X91846147Y-70996276D01*
X91905845Y-70889677D01*
X91942510Y-70824208D01*
X91942511Y-70824206D01*
X91945334Y-70819165D01*
X91947190Y-70813698D01*
X91947192Y-70813693D01*
X92008728Y-70632414D01*
X92008729Y-70632409D01*
X92010584Y-70626945D01*
X92011412Y-70621236D01*
X92011413Y-70621231D01*
X92039179Y-70429727D01*
X92039712Y-70426053D01*
X92041232Y-70368000D01*
X92029797Y-70243551D01*
X92023187Y-70171613D01*
X92023186Y-70171610D01*
X92022658Y-70165859D01*
X92016246Y-70143123D01*
X91969125Y-69976046D01*
X91969124Y-69976044D01*
X91967557Y-69970487D01*
X91956982Y-69949041D01*
X91880331Y-69793609D01*
X91877776Y-69788428D01*
X91756320Y-69625779D01*
X91607258Y-69487987D01*
X91602375Y-69484906D01*
X91602371Y-69484903D01*
X91440464Y-69382748D01*
X91435581Y-69379667D01*
X91247039Y-69304446D01*
X91241379Y-69303320D01*
X91241375Y-69303319D01*
X91053613Y-69265971D01*
X91053610Y-69265971D01*
X91047946Y-69264844D01*
X91042171Y-69264768D01*
X91042167Y-69264768D01*
X90940793Y-69263441D01*
X90844971Y-69262187D01*
X90839274Y-69263166D01*
X90839273Y-69263166D01*
X90650607Y-69295585D01*
X90644910Y-69296564D01*
X90454463Y-69366824D01*
X90280010Y-69470612D01*
X90275670Y-69474418D01*
X90275666Y-69474421D01*
X90255723Y-69491911D01*
X90127392Y-69604455D01*
X90001720Y-69763869D01*
X89999031Y-69768980D01*
X89999029Y-69768983D01*
X89951128Y-69860027D01*
X89907203Y-69943515D01*
X89847007Y-70137378D01*
X89823148Y-70338964D01*
X89836424Y-70541522D01*
X89837845Y-70547118D01*
X89837846Y-70547123D01*
X89858119Y-70626945D01*
X89886392Y-70738269D01*
X89888809Y-70743512D01*
X89923689Y-70819173D01*
X89971377Y-70922616D01*
X90088533Y-71088389D01*
X90233938Y-71230035D01*
X90402720Y-71342812D01*
X90408023Y-71345090D01*
X90408026Y-71345092D01*
X90504954Y-71386735D01*
X90559647Y-71432003D01*
X90581184Y-71499654D01*
X90562727Y-71568210D01*
X90510136Y-71615904D01*
X90494361Y-71622268D01*
X90408868Y-71650212D01*
X90399359Y-71654209D01*
X90210463Y-71752542D01*
X90201738Y-71758036D01*
X90031433Y-71885905D01*
X90023726Y-71892748D01*
X89876590Y-72046717D01*
X89870104Y-72054727D01*
X89750098Y-72230649D01*
X89745000Y-72239623D01*
X89655338Y-72432783D01*
X89651775Y-72442470D01*
X89596389Y-72642183D01*
X63309004Y-72642183D01*
X63309180Y-72640955D01*
X63267214Y-72473883D01*
X63263894Y-72464132D01*
X63178972Y-72268822D01*
X63174105Y-72259747D01*
X63058426Y-72080934D01*
X63052136Y-72072765D01*
X62908806Y-71915248D01*
X62901273Y-71908223D01*
X62734139Y-71776230D01*
X62725552Y-71770525D01*
X62539117Y-71667607D01*
X62529705Y-71663377D01*
X62415391Y-71622896D01*
X62357855Y-71581302D01*
X62331939Y-71515204D01*
X62345873Y-71445588D01*
X62395232Y-71394557D01*
X62416943Y-71384812D01*
X62427165Y-71381342D01*
X62604276Y-71282155D01*
X62608728Y-71278453D01*
X62755913Y-71156039D01*
X62760345Y-71152353D01*
X62890147Y-70996284D01*
X62989334Y-70819173D01*
X62991190Y-70813706D01*
X62991192Y-70813701D01*
X63052728Y-70632422D01*
X63052730Y-70632414D01*
X63054584Y-70626953D01*
X63055412Y-70621244D01*
X63055413Y-70621239D01*
X63083179Y-70429735D01*
X63083180Y-70429727D01*
X63083712Y-70426061D01*
X63085232Y-70368008D01*
X63066658Y-70165867D01*
X63065088Y-70160299D01*
X63013125Y-69976054D01*
X63013124Y-69976052D01*
X63011557Y-69970495D01*
X63000978Y-69949041D01*
X62924331Y-69793617D01*
X62921776Y-69788436D01*
X62800320Y-69625787D01*
X62651258Y-69487995D01*
X62646375Y-69484914D01*
X62646371Y-69484911D01*
X62484464Y-69382756D01*
X62479581Y-69379675D01*
X62291039Y-69304454D01*
X62285379Y-69303328D01*
X62285375Y-69303327D01*
X62097613Y-69265979D01*
X62097610Y-69265979D01*
X62091946Y-69264852D01*
X62086171Y-69264776D01*
X62086167Y-69264776D01*
X61984793Y-69263449D01*
X61888971Y-69262195D01*
X61883274Y-69263174D01*
X61883273Y-69263174D01*
X61694654Y-69295585D01*
X61688910Y-69296572D01*
X61498463Y-69366832D01*
X61324010Y-69470620D01*
X61319670Y-69474426D01*
X61319666Y-69474429D01*
X61299732Y-69491911D01*
X61171392Y-69604463D01*
X61045720Y-69763877D01*
X61043034Y-69768983D01*
X61043029Y-69768991D01*
X61030077Y-69793609D01*
X60951203Y-69943523D01*
X60941102Y-69976054D01*
X60892723Y-70131861D01*
X60891007Y-70137386D01*
X60867148Y-70338972D01*
X60880424Y-70541530D01*
X60881845Y-70547126D01*
X60881846Y-70547131D01*
X60902117Y-70626945D01*
X60930392Y-70738277D01*
X60932809Y-70743520D01*
X60970007Y-70824208D01*
X61015377Y-70922624D01*
X61018710Y-70927340D01*
X61129192Y-71083669D01*
X61132533Y-71088397D01*
X61277938Y-71230043D01*
X61446720Y-71342820D01*
X61452023Y-71345098D01*
X61452026Y-71345100D01*
X61548954Y-71386743D01*
X61603647Y-71432011D01*
X61625184Y-71499662D01*
X61606727Y-71568218D01*
X61554136Y-71615912D01*
X61538361Y-71622276D01*
X61452868Y-71650220D01*
X61443359Y-71654217D01*
X61254463Y-71752550D01*
X61245738Y-71758044D01*
X61075433Y-71885913D01*
X61067726Y-71892756D01*
X60920590Y-72046725D01*
X60914104Y-72054735D01*
X60794098Y-72230657D01*
X60789000Y-72239631D01*
X60699338Y-72432791D01*
X60695775Y-72442478D01*
X60640389Y-72642191D01*
X59778002Y-72642191D01*
X59778180Y-72640955D01*
X59736214Y-72473883D01*
X59732894Y-72464132D01*
X59647972Y-72268822D01*
X59643105Y-72259747D01*
X59527426Y-72080934D01*
X59521136Y-72072765D01*
X59377806Y-71915248D01*
X59370273Y-71908223D01*
X59203139Y-71776230D01*
X59194552Y-71770525D01*
X59008117Y-71667607D01*
X58998705Y-71663377D01*
X58884391Y-71622896D01*
X58826855Y-71581302D01*
X58800939Y-71515204D01*
X58814873Y-71445588D01*
X58864232Y-71394557D01*
X58885943Y-71384812D01*
X58896165Y-71381342D01*
X59073276Y-71282155D01*
X59077728Y-71278453D01*
X59224913Y-71156039D01*
X59229345Y-71152353D01*
X59359147Y-70996284D01*
X59458334Y-70819173D01*
X59460190Y-70813706D01*
X59460192Y-70813701D01*
X59521728Y-70632422D01*
X59521730Y-70632414D01*
X59523584Y-70626953D01*
X59524412Y-70621244D01*
X59524413Y-70621239D01*
X59552179Y-70429735D01*
X59552180Y-70429727D01*
X59552712Y-70426061D01*
X59554232Y-70368008D01*
X59535658Y-70165867D01*
X59534088Y-70160299D01*
X59482125Y-69976054D01*
X59482124Y-69976052D01*
X59480557Y-69970495D01*
X59469978Y-69949041D01*
X59393331Y-69793617D01*
X59390776Y-69788436D01*
X59269320Y-69625787D01*
X59120258Y-69487995D01*
X59115375Y-69484914D01*
X59115371Y-69484911D01*
X58953464Y-69382756D01*
X58948581Y-69379675D01*
X58760039Y-69304454D01*
X58754379Y-69303328D01*
X58754375Y-69303327D01*
X58566613Y-69265979D01*
X58566610Y-69265979D01*
X58560946Y-69264852D01*
X58555171Y-69264776D01*
X58555167Y-69264776D01*
X58453793Y-69263449D01*
X58357971Y-69262195D01*
X58352274Y-69263174D01*
X58352273Y-69263174D01*
X58163654Y-69295585D01*
X58157910Y-69296572D01*
X57967463Y-69366832D01*
X57793010Y-69470620D01*
X57788670Y-69474426D01*
X57788666Y-69474429D01*
X57768732Y-69491911D01*
X57640392Y-69604463D01*
X57514720Y-69763877D01*
X57512034Y-69768983D01*
X57512029Y-69768991D01*
X57499077Y-69793609D01*
X57420203Y-69943523D01*
X57410102Y-69976054D01*
X57361723Y-70131861D01*
X57360007Y-70137386D01*
X57336148Y-70338972D01*
X57349424Y-70541530D01*
X57350845Y-70547126D01*
X57350846Y-70547131D01*
X57371117Y-70626945D01*
X57399392Y-70738277D01*
X57401809Y-70743520D01*
X57439007Y-70824208D01*
X57484377Y-70922624D01*
X57487710Y-70927340D01*
X57598192Y-71083669D01*
X57601533Y-71088397D01*
X57746938Y-71230043D01*
X57915720Y-71342820D01*
X57921023Y-71345098D01*
X57921026Y-71345100D01*
X58017954Y-71386743D01*
X58072647Y-71432011D01*
X58094184Y-71499662D01*
X58075727Y-71568218D01*
X58023136Y-71615912D01*
X58007361Y-71622276D01*
X57921868Y-71650220D01*
X57912359Y-71654217D01*
X57723463Y-71752550D01*
X57714738Y-71758044D01*
X57544433Y-71885913D01*
X57536726Y-71892756D01*
X57389590Y-72046725D01*
X57383104Y-72054735D01*
X57263098Y-72230657D01*
X57258000Y-72239631D01*
X57168338Y-72432791D01*
X57164775Y-72442478D01*
X57143917Y-72517687D01*
X57106438Y-72577985D01*
X57042309Y-72608448D01*
X56971891Y-72599404D01*
X56917541Y-72553725D01*
X56896500Y-72484015D01*
X56896500Y-67798972D01*
X57336148Y-67798972D01*
X57349424Y-68001530D01*
X57350845Y-68007126D01*
X57350846Y-68007131D01*
X57371117Y-68086945D01*
X57399392Y-68198277D01*
X57401809Y-68203520D01*
X57439007Y-68284208D01*
X57484377Y-68382624D01*
X57487710Y-68387340D01*
X57598192Y-68543669D01*
X57601533Y-68548397D01*
X57746938Y-68690043D01*
X57915720Y-68802820D01*
X57921023Y-68805098D01*
X57921026Y-68805100D01*
X58096921Y-68880670D01*
X58102228Y-68882950D01*
X58175244Y-68899472D01*
X58294579Y-68926475D01*
X58294584Y-68926476D01*
X58300216Y-68927750D01*
X58305987Y-68927977D01*
X58305989Y-68927977D01*
X58365756Y-68930325D01*
X58503053Y-68935720D01*
X58603499Y-68921156D01*
X58698231Y-68907421D01*
X58698236Y-68907420D01*
X58703945Y-68906592D01*
X58709409Y-68904737D01*
X58709414Y-68904736D01*
X58890693Y-68843200D01*
X58890698Y-68843198D01*
X58896165Y-68841342D01*
X59073276Y-68742155D01*
X59077728Y-68738453D01*
X59224913Y-68616039D01*
X59229345Y-68612353D01*
X59359147Y-68456284D01*
X59418845Y-68349685D01*
X59455510Y-68284216D01*
X59455514Y-68284208D01*
X59458334Y-68279173D01*
X59460190Y-68273706D01*
X59460192Y-68273701D01*
X59521728Y-68092422D01*
X59521730Y-68092414D01*
X59523584Y-68086953D01*
X59524412Y-68081244D01*
X59524413Y-68081239D01*
X59552179Y-67889735D01*
X59552180Y-67889727D01*
X59552712Y-67886061D01*
X59554232Y-67828008D01*
X59551564Y-67798972D01*
X60867148Y-67798972D01*
X60880424Y-68001530D01*
X60881845Y-68007126D01*
X60881846Y-68007131D01*
X60902117Y-68086945D01*
X60930392Y-68198277D01*
X60932809Y-68203520D01*
X60970007Y-68284208D01*
X61015377Y-68382624D01*
X61018710Y-68387340D01*
X61129192Y-68543669D01*
X61132533Y-68548397D01*
X61277938Y-68690043D01*
X61446720Y-68802820D01*
X61452023Y-68805098D01*
X61452026Y-68805100D01*
X61627921Y-68880670D01*
X61633228Y-68882950D01*
X61706244Y-68899472D01*
X61825579Y-68926475D01*
X61825584Y-68926476D01*
X61831216Y-68927750D01*
X61836987Y-68927977D01*
X61836989Y-68927977D01*
X61896756Y-68930325D01*
X62034053Y-68935720D01*
X62134499Y-68921156D01*
X62229231Y-68907421D01*
X62229236Y-68907420D01*
X62234945Y-68906592D01*
X62240409Y-68904737D01*
X62240414Y-68904736D01*
X62421693Y-68843200D01*
X62421698Y-68843198D01*
X62427165Y-68841342D01*
X62604276Y-68742155D01*
X62608728Y-68738453D01*
X62755913Y-68616039D01*
X62760345Y-68612353D01*
X62890147Y-68456284D01*
X62949845Y-68349685D01*
X62986510Y-68284216D01*
X62986514Y-68284208D01*
X62989334Y-68279173D01*
X62991190Y-68273706D01*
X62991192Y-68273701D01*
X63052728Y-68092422D01*
X63052730Y-68092414D01*
X63054584Y-68086953D01*
X63055412Y-68081244D01*
X63055413Y-68081239D01*
X63083179Y-67889735D01*
X63083180Y-67889727D01*
X63083712Y-67886061D01*
X63085232Y-67828008D01*
X63066658Y-67625867D01*
X63065088Y-67620299D01*
X63013125Y-67436054D01*
X63013124Y-67436052D01*
X63011557Y-67430495D01*
X63007401Y-67422066D01*
X62924331Y-67253617D01*
X62921776Y-67248436D01*
X62905942Y-67227231D01*
X62803777Y-67090417D01*
X62800320Y-67085787D01*
X62761695Y-67050082D01*
X69111605Y-67050082D01*
X69112769Y-67058984D01*
X69112769Y-67058987D01*
X69114554Y-67072634D01*
X69129414Y-67186273D01*
X69184732Y-67311992D01*
X69273111Y-67417132D01*
X69387447Y-67493240D01*
X69518549Y-67534199D01*
X69655876Y-67536716D01*
X69665109Y-67534199D01*
X69722133Y-67518653D01*
X69788391Y-67500589D01*
X69905439Y-67428721D01*
X69923253Y-67409041D01*
X69937846Y-67392918D01*
X69997612Y-67326890D01*
X70000406Y-67321123D01*
X70054085Y-67276658D01*
X70124567Y-67268118D01*
X70188476Y-67299038D01*
X70199890Y-67312700D01*
X70200732Y-67311992D01*
X70289111Y-67417132D01*
X70403447Y-67493240D01*
X70534549Y-67534199D01*
X70543523Y-67534363D01*
X70551898Y-67535720D01*
X70615944Y-67566357D01*
X70653259Y-67626756D01*
X70656251Y-67679482D01*
X70645462Y-67748774D01*
X70636987Y-67803209D01*
X70635605Y-67812082D01*
X70636769Y-67820984D01*
X70636769Y-67820987D01*
X70638172Y-67831712D01*
X70653414Y-67948273D01*
X70708732Y-68073992D01*
X70797111Y-68179132D01*
X70911447Y-68255240D01*
X71042549Y-68296199D01*
X71179876Y-68298716D01*
X71189109Y-68296199D01*
X71303727Y-68264951D01*
X71312391Y-68262589D01*
X71429439Y-68190721D01*
X71521612Y-68088890D01*
X71563942Y-68001522D01*
X71577585Y-67973362D01*
X71577585Y-67973361D01*
X71581499Y-67965283D01*
X71604286Y-67829836D01*
X71604431Y-67818000D01*
X71603584Y-67812082D01*
X74445605Y-67812082D01*
X74446769Y-67820984D01*
X74446769Y-67820987D01*
X74448172Y-67831712D01*
X74463414Y-67948273D01*
X74518732Y-68073992D01*
X74607111Y-68179132D01*
X74721447Y-68255240D01*
X74852549Y-68296199D01*
X74989876Y-68298716D01*
X74999109Y-68296199D01*
X75113727Y-68264951D01*
X75122391Y-68262589D01*
X75239439Y-68190721D01*
X75331612Y-68088890D01*
X75373942Y-68001522D01*
X75387585Y-67973362D01*
X75387585Y-67973361D01*
X75391499Y-67965283D01*
X75414286Y-67829836D01*
X75414431Y-67818000D01*
X75413584Y-67812082D01*
X75411705Y-67798964D01*
X89823148Y-67798964D01*
X89836424Y-68001522D01*
X89837845Y-68007118D01*
X89837846Y-68007123D01*
X89858119Y-68086945D01*
X89886392Y-68198269D01*
X89888809Y-68203512D01*
X89923689Y-68279173D01*
X89971377Y-68382616D01*
X90088533Y-68548389D01*
X90233938Y-68690035D01*
X90402720Y-68802812D01*
X90408023Y-68805090D01*
X90408026Y-68805092D01*
X90583921Y-68880662D01*
X90589228Y-68882942D01*
X90662244Y-68899464D01*
X90781579Y-68926467D01*
X90781584Y-68926468D01*
X90787216Y-68927742D01*
X90792987Y-68927969D01*
X90792989Y-68927969D01*
X90852756Y-68930317D01*
X90990053Y-68935712D01*
X91090499Y-68921148D01*
X91185231Y-68907413D01*
X91185236Y-68907412D01*
X91190945Y-68906584D01*
X91196409Y-68904729D01*
X91196414Y-68904728D01*
X91377693Y-68843192D01*
X91377698Y-68843190D01*
X91383165Y-68841334D01*
X91560276Y-68742147D01*
X91619065Y-68693253D01*
X91711913Y-68616031D01*
X91716345Y-68612345D01*
X91740172Y-68583696D01*
X91842453Y-68460718D01*
X91842455Y-68460715D01*
X91846147Y-68456276D01*
X91935708Y-68296354D01*
X91942510Y-68284208D01*
X91942511Y-68284206D01*
X91945334Y-68279165D01*
X91947190Y-68273698D01*
X91947192Y-68273693D01*
X92008728Y-68092414D01*
X92008729Y-68092409D01*
X92010584Y-68086945D01*
X92011412Y-68081236D01*
X92011413Y-68081231D01*
X92029499Y-67956493D01*
X92039712Y-67886053D01*
X92041232Y-67828000D01*
X92038565Y-67798972D01*
X93404142Y-67798972D01*
X93417418Y-68001530D01*
X93418839Y-68007126D01*
X93418840Y-68007131D01*
X93439111Y-68086945D01*
X93467386Y-68198277D01*
X93469803Y-68203520D01*
X93507001Y-68284208D01*
X93552371Y-68382624D01*
X93555704Y-68387340D01*
X93666186Y-68543669D01*
X93669527Y-68548397D01*
X93814932Y-68690043D01*
X93983714Y-68802820D01*
X93989017Y-68805098D01*
X93989020Y-68805100D01*
X94164915Y-68880670D01*
X94170222Y-68882950D01*
X94243238Y-68899472D01*
X94362573Y-68926475D01*
X94362578Y-68926476D01*
X94368210Y-68927750D01*
X94373981Y-68927977D01*
X94373983Y-68927977D01*
X94433750Y-68930325D01*
X94571047Y-68935720D01*
X94671493Y-68921156D01*
X94766225Y-68907421D01*
X94766230Y-68907420D01*
X94771939Y-68906592D01*
X94777403Y-68904737D01*
X94777408Y-68904736D01*
X94958687Y-68843200D01*
X94958692Y-68843198D01*
X94964159Y-68841342D01*
X95141270Y-68742155D01*
X95145722Y-68738453D01*
X95292907Y-68616039D01*
X95297339Y-68612353D01*
X95427141Y-68456284D01*
X95486839Y-68349685D01*
X95523504Y-68284216D01*
X95523508Y-68284208D01*
X95526328Y-68279173D01*
X95528184Y-68273706D01*
X95528186Y-68273701D01*
X95589722Y-68092422D01*
X95589724Y-68092414D01*
X95591578Y-68086953D01*
X95592406Y-68081244D01*
X95592407Y-68081239D01*
X95620173Y-67889735D01*
X95620174Y-67889727D01*
X95620706Y-67886061D01*
X95622226Y-67828008D01*
X95603652Y-67625867D01*
X95602082Y-67620299D01*
X95550119Y-67436054D01*
X95550118Y-67436052D01*
X95548551Y-67430495D01*
X95544395Y-67422066D01*
X95461325Y-67253617D01*
X95458770Y-67248436D01*
X95442936Y-67227231D01*
X95340771Y-67090417D01*
X95337314Y-67085787D01*
X95188252Y-66947995D01*
X95183369Y-66944914D01*
X95183365Y-66944911D01*
X95021458Y-66842756D01*
X95016575Y-66839675D01*
X94828033Y-66764454D01*
X94822373Y-66763328D01*
X94822369Y-66763327D01*
X94634607Y-66725979D01*
X94634604Y-66725979D01*
X94628940Y-66724852D01*
X94623165Y-66724776D01*
X94623161Y-66724776D01*
X94521787Y-66723449D01*
X94425965Y-66722195D01*
X94420268Y-66723174D01*
X94420267Y-66723174D01*
X94231648Y-66755585D01*
X94225904Y-66756572D01*
X94035457Y-66826832D01*
X93861004Y-66930620D01*
X93856664Y-66934426D01*
X93856660Y-66934429D01*
X93734902Y-67041209D01*
X93708386Y-67064463D01*
X93582714Y-67223877D01*
X93580028Y-67228983D01*
X93580023Y-67228991D01*
X93554944Y-67276658D01*
X93488197Y-67403523D01*
X93478096Y-67436054D01*
X93429717Y-67591861D01*
X93428001Y-67597386D01*
X93404142Y-67798972D01*
X92038565Y-67798972D01*
X92029797Y-67703551D01*
X92023187Y-67631613D01*
X92023186Y-67631610D01*
X92022658Y-67625859D01*
X92016246Y-67603123D01*
X91969125Y-67436046D01*
X91969124Y-67436044D01*
X91967557Y-67430487D01*
X91963426Y-67422109D01*
X91880331Y-67253609D01*
X91877776Y-67248428D01*
X91861948Y-67227231D01*
X91759777Y-67090409D01*
X91756320Y-67085779D01*
X91607258Y-66947987D01*
X91602375Y-66944906D01*
X91602371Y-66944903D01*
X91440464Y-66842748D01*
X91435581Y-66839667D01*
X91247039Y-66764446D01*
X91241379Y-66763320D01*
X91241375Y-66763319D01*
X91053613Y-66725971D01*
X91053610Y-66725971D01*
X91047946Y-66724844D01*
X91042171Y-66724768D01*
X91042167Y-66724768D01*
X90940793Y-66723441D01*
X90844971Y-66722187D01*
X90839274Y-66723166D01*
X90839273Y-66723166D01*
X90650607Y-66755585D01*
X90644910Y-66756564D01*
X90454463Y-66826824D01*
X90280010Y-66930612D01*
X90275670Y-66934418D01*
X90275666Y-66934421D01*
X90153899Y-67041209D01*
X90127392Y-67064455D01*
X90001720Y-67223869D01*
X89999031Y-67228980D01*
X89999029Y-67228983D01*
X89971997Y-67280363D01*
X89907203Y-67403515D01*
X89847007Y-67597378D01*
X89823148Y-67798964D01*
X75411705Y-67798964D01*
X75396232Y-67690923D01*
X75396232Y-67690921D01*
X75394959Y-67682036D01*
X75338110Y-67557003D01*
X75248453Y-67452951D01*
X75191206Y-67415845D01*
X75144923Y-67362009D01*
X75135092Y-67291696D01*
X75164836Y-67227231D01*
X75193809Y-67202739D01*
X75231789Y-67179419D01*
X75231793Y-67179416D01*
X75239439Y-67174721D01*
X75256153Y-67156256D01*
X75325584Y-67079550D01*
X75325585Y-67079549D01*
X75331612Y-67072890D01*
X75337540Y-67060656D01*
X75387585Y-66957362D01*
X75387585Y-66957361D01*
X75391499Y-66949283D01*
X75414286Y-66813836D01*
X75414431Y-66802000D01*
X75413584Y-66796082D01*
X75396232Y-66674923D01*
X75396232Y-66674921D01*
X75394959Y-66666036D01*
X75338110Y-66541003D01*
X75248453Y-66436951D01*
X75133196Y-66362244D01*
X75001603Y-66322890D01*
X74992627Y-66322835D01*
X74992626Y-66322835D01*
X74935080Y-66322484D01*
X74864255Y-66322051D01*
X74732192Y-66359795D01*
X74724605Y-66364582D01*
X74724603Y-66364583D01*
X74687886Y-66387750D01*
X74616031Y-66433087D01*
X74525109Y-66536036D01*
X74466736Y-66660366D01*
X74462576Y-66687087D01*
X74446986Y-66787209D01*
X74446986Y-66787213D01*
X74445605Y-66796082D01*
X74446769Y-66804984D01*
X74446769Y-66804987D01*
X74451304Y-66839667D01*
X74463414Y-66932273D01*
X74518732Y-67057992D01*
X74524510Y-67064865D01*
X74524510Y-67064866D01*
X74542089Y-67085779D01*
X74607111Y-67163132D01*
X74614588Y-67168109D01*
X74670171Y-67205108D01*
X74715794Y-67259505D01*
X74724765Y-67329932D01*
X74694236Y-67394030D01*
X74667588Y-67416556D01*
X74623625Y-67444295D01*
X74623622Y-67444297D01*
X74616031Y-67449087D01*
X74525109Y-67552036D01*
X74466736Y-67676366D01*
X74457027Y-67738724D01*
X74446986Y-67803209D01*
X74446986Y-67803210D01*
X74445605Y-67812082D01*
X71603584Y-67812082D01*
X71586232Y-67690923D01*
X71586232Y-67690921D01*
X71584959Y-67682036D01*
X71528110Y-67557003D01*
X71438453Y-67452951D01*
X71323196Y-67378244D01*
X71191603Y-67338890D01*
X71182635Y-67338835D01*
X71180847Y-67338568D01*
X71116432Y-67308715D01*
X71078382Y-67248775D01*
X71075221Y-67193049D01*
X71095479Y-67072634D01*
X71095479Y-67072632D01*
X71096286Y-67067836D01*
X71096431Y-67056000D01*
X71095584Y-67050082D01*
X71078232Y-66928923D01*
X71078232Y-66928921D01*
X71076959Y-66920036D01*
X71020601Y-66796082D01*
X71651605Y-66796082D01*
X71652769Y-66804984D01*
X71652769Y-66804987D01*
X71657304Y-66839667D01*
X71669414Y-66932273D01*
X71724732Y-67057992D01*
X71730510Y-67064865D01*
X71730510Y-67064866D01*
X71748089Y-67085779D01*
X71813111Y-67163132D01*
X71820588Y-67168109D01*
X71897552Y-67219340D01*
X71927447Y-67239240D01*
X72058549Y-67280199D01*
X72195876Y-67282716D01*
X72205109Y-67280199D01*
X72319727Y-67248951D01*
X72328391Y-67246589D01*
X72445439Y-67174721D01*
X72462153Y-67156256D01*
X72531584Y-67079550D01*
X72531585Y-67079549D01*
X72537612Y-67072890D01*
X72543540Y-67060656D01*
X72593585Y-66957362D01*
X72593585Y-66957361D01*
X72597499Y-66949283D01*
X72620286Y-66813836D01*
X72620431Y-66802000D01*
X72619584Y-66796082D01*
X72602232Y-66674923D01*
X72602232Y-66674921D01*
X72600959Y-66666036D01*
X72544110Y-66541003D01*
X72454453Y-66436951D01*
X72397206Y-66399845D01*
X72350923Y-66346009D01*
X72341092Y-66275696D01*
X72370836Y-66211231D01*
X72399809Y-66186739D01*
X72437789Y-66163419D01*
X72437793Y-66163416D01*
X72445439Y-66158721D01*
X72455929Y-66147132D01*
X72531584Y-66063550D01*
X72531585Y-66063549D01*
X72537612Y-66056890D01*
X72563394Y-66003677D01*
X72593585Y-65941362D01*
X72593585Y-65941361D01*
X72597499Y-65933283D01*
X72620286Y-65797836D01*
X72620431Y-65786000D01*
X72619584Y-65780082D01*
X72602232Y-65658923D01*
X72602232Y-65658921D01*
X72600959Y-65650036D01*
X72544110Y-65525003D01*
X72454453Y-65420951D01*
X72339196Y-65346244D01*
X72207603Y-65306890D01*
X72198627Y-65306835D01*
X72198626Y-65306835D01*
X72141080Y-65306484D01*
X72070255Y-65306051D01*
X71938192Y-65343795D01*
X71930605Y-65348582D01*
X71930603Y-65348583D01*
X71872677Y-65385132D01*
X71822031Y-65417087D01*
X71731109Y-65520036D01*
X71727295Y-65528159D01*
X71727294Y-65528161D01*
X71715904Y-65552422D01*
X71672736Y-65644366D01*
X71669755Y-65663512D01*
X71652986Y-65771209D01*
X71652986Y-65771213D01*
X71651605Y-65780082D01*
X71652769Y-65788984D01*
X71652769Y-65788987D01*
X71654554Y-65802633D01*
X71669414Y-65916273D01*
X71724732Y-66041992D01*
X71730510Y-66048865D01*
X71730510Y-66048866D01*
X71753351Y-66076039D01*
X71813111Y-66147132D01*
X71830521Y-66158721D01*
X71876171Y-66189108D01*
X71921794Y-66243505D01*
X71930765Y-66313932D01*
X71900236Y-66378030D01*
X71873588Y-66400556D01*
X71829625Y-66428295D01*
X71829622Y-66428297D01*
X71822031Y-66433087D01*
X71731109Y-66536036D01*
X71672736Y-66660366D01*
X71668576Y-66687087D01*
X71652986Y-66787209D01*
X71652986Y-66787213D01*
X71651605Y-66796082D01*
X71020601Y-66796082D01*
X71020110Y-66795003D01*
X70930453Y-66690951D01*
X70815196Y-66616244D01*
X70683603Y-66576890D01*
X70674627Y-66576835D01*
X70674626Y-66576835D01*
X70617080Y-66576484D01*
X70546255Y-66576051D01*
X70414192Y-66613795D01*
X70406605Y-66618582D01*
X70406603Y-66618583D01*
X70353255Y-66652243D01*
X70298031Y-66687087D01*
X70292088Y-66693816D01*
X70237535Y-66755585D01*
X70207109Y-66790036D01*
X70206478Y-66791379D01*
X70155233Y-66834892D01*
X70084861Y-66844290D01*
X70020579Y-66814151D01*
X70004157Y-66794963D01*
X70004110Y-66795003D01*
X69920314Y-66697753D01*
X69914453Y-66690951D01*
X69799196Y-66616244D01*
X69667603Y-66576890D01*
X69658627Y-66576835D01*
X69658626Y-66576835D01*
X69601080Y-66576484D01*
X69530255Y-66576051D01*
X69398192Y-66613795D01*
X69390605Y-66618582D01*
X69390603Y-66618583D01*
X69337255Y-66652243D01*
X69282031Y-66687087D01*
X69276088Y-66693816D01*
X69221535Y-66755585D01*
X69191109Y-66790036D01*
X69187295Y-66798159D01*
X69187294Y-66798161D01*
X69174775Y-66824826D01*
X69132736Y-66914366D01*
X69126890Y-66951911D01*
X69112986Y-67041209D01*
X69112986Y-67041213D01*
X69111605Y-67050082D01*
X62761695Y-67050082D01*
X62651258Y-66947995D01*
X62646375Y-66944914D01*
X62646371Y-66944911D01*
X62484464Y-66842756D01*
X62479581Y-66839675D01*
X62291039Y-66764454D01*
X62285379Y-66763328D01*
X62285375Y-66763327D01*
X62097613Y-66725979D01*
X62097610Y-66725979D01*
X62091946Y-66724852D01*
X62086171Y-66724776D01*
X62086167Y-66724776D01*
X61984793Y-66723449D01*
X61888971Y-66722195D01*
X61883274Y-66723174D01*
X61883273Y-66723174D01*
X61694654Y-66755585D01*
X61688910Y-66756572D01*
X61498463Y-66826832D01*
X61324010Y-66930620D01*
X61319670Y-66934426D01*
X61319666Y-66934429D01*
X61197908Y-67041209D01*
X61171392Y-67064463D01*
X61045720Y-67223877D01*
X61043034Y-67228983D01*
X61043029Y-67228991D01*
X61017950Y-67276658D01*
X60951203Y-67403523D01*
X60941102Y-67436054D01*
X60892723Y-67591861D01*
X60891007Y-67597386D01*
X60867148Y-67798972D01*
X59551564Y-67798972D01*
X59535658Y-67625867D01*
X59534088Y-67620299D01*
X59482125Y-67436054D01*
X59482124Y-67436052D01*
X59480557Y-67430495D01*
X59476401Y-67422066D01*
X59393331Y-67253617D01*
X59390776Y-67248436D01*
X59374942Y-67227231D01*
X59272777Y-67090417D01*
X59269320Y-67085787D01*
X59120258Y-66947995D01*
X59115375Y-66944914D01*
X59115371Y-66944911D01*
X58953464Y-66842756D01*
X58948581Y-66839675D01*
X58760039Y-66764454D01*
X58754379Y-66763328D01*
X58754375Y-66763327D01*
X58566613Y-66725979D01*
X58566610Y-66725979D01*
X58560946Y-66724852D01*
X58555171Y-66724776D01*
X58555167Y-66724776D01*
X58453793Y-66723449D01*
X58357971Y-66722195D01*
X58352274Y-66723174D01*
X58352273Y-66723174D01*
X58163654Y-66755585D01*
X58157910Y-66756572D01*
X57967463Y-66826832D01*
X57793010Y-66930620D01*
X57788670Y-66934426D01*
X57788666Y-66934429D01*
X57666908Y-67041209D01*
X57640392Y-67064463D01*
X57514720Y-67223877D01*
X57512034Y-67228983D01*
X57512029Y-67228991D01*
X57486950Y-67276658D01*
X57420203Y-67403523D01*
X57410102Y-67436054D01*
X57361723Y-67591861D01*
X57360007Y-67597386D01*
X57336148Y-67798972D01*
X56896500Y-67798972D01*
X56896500Y-63185483D01*
X56916502Y-63117362D01*
X56970158Y-63070869D01*
X57040432Y-63060765D01*
X57105012Y-63090259D01*
X57142735Y-63147807D01*
X57146645Y-63160283D01*
X57226770Y-63357611D01*
X57231413Y-63366802D01*
X57342694Y-63548396D01*
X57348777Y-63556707D01*
X57488213Y-63717675D01*
X57495580Y-63724891D01*
X57659434Y-63860924D01*
X57667881Y-63866839D01*
X57851756Y-63974287D01*
X57861042Y-63978737D01*
X58010124Y-64035665D01*
X58066627Y-64078652D01*
X58090920Y-64145363D01*
X58075290Y-64214618D01*
X58024699Y-64264429D01*
X58008785Y-64271587D01*
X57967463Y-64286832D01*
X57793010Y-64390620D01*
X57788670Y-64394426D01*
X57788666Y-64394429D01*
X57681840Y-64488114D01*
X57640392Y-64524463D01*
X57514720Y-64683877D01*
X57512034Y-64688983D01*
X57512029Y-64688991D01*
X57472685Y-64763772D01*
X57420203Y-64863523D01*
X57410102Y-64896054D01*
X57361723Y-65051861D01*
X57360007Y-65057386D01*
X57336148Y-65258972D01*
X57349424Y-65461530D01*
X57350845Y-65467126D01*
X57350846Y-65467131D01*
X57371117Y-65546945D01*
X57399392Y-65658277D01*
X57401809Y-65663520D01*
X57439007Y-65744208D01*
X57484377Y-65842624D01*
X57487710Y-65847340D01*
X57598192Y-66003669D01*
X57601533Y-66008397D01*
X57605675Y-66012432D01*
X57643014Y-66048806D01*
X57746938Y-66150043D01*
X57751742Y-66153253D01*
X57801857Y-66186739D01*
X57915720Y-66262820D01*
X57921023Y-66265098D01*
X57921026Y-66265100D01*
X58096921Y-66340670D01*
X58102228Y-66342950D01*
X58165774Y-66357329D01*
X58294579Y-66386475D01*
X58294584Y-66386476D01*
X58300216Y-66387750D01*
X58305987Y-66387977D01*
X58305989Y-66387977D01*
X58365756Y-66390325D01*
X58503053Y-66395720D01*
X58625059Y-66378030D01*
X58698231Y-66367421D01*
X58698236Y-66367420D01*
X58703945Y-66366592D01*
X58709409Y-66364737D01*
X58709414Y-66364736D01*
X58890693Y-66303200D01*
X58890698Y-66303198D01*
X58896165Y-66301342D01*
X59073276Y-66202155D01*
X59077728Y-66198453D01*
X59224913Y-66076039D01*
X59229345Y-66072353D01*
X59352320Y-65924493D01*
X59355453Y-65920726D01*
X59355455Y-65920723D01*
X59359147Y-65916284D01*
X59432110Y-65786000D01*
X59455510Y-65744216D01*
X59455514Y-65744208D01*
X59458334Y-65739173D01*
X59460190Y-65733706D01*
X59460192Y-65733701D01*
X59521728Y-65552422D01*
X59521730Y-65552414D01*
X59523584Y-65546953D01*
X59524412Y-65541244D01*
X59524413Y-65541239D01*
X59546325Y-65390109D01*
X59552712Y-65346061D01*
X59554232Y-65288008D01*
X59535658Y-65085867D01*
X59534088Y-65080299D01*
X59482125Y-64896054D01*
X59482124Y-64896052D01*
X59480557Y-64890495D01*
X59476549Y-64882366D01*
X59393331Y-64713617D01*
X59390776Y-64708436D01*
X59363092Y-64671362D01*
X59337708Y-64637369D01*
X59269320Y-64545787D01*
X59120258Y-64407995D01*
X59115375Y-64404914D01*
X59115371Y-64404911D01*
X58953464Y-64302756D01*
X58948581Y-64299675D01*
X58876614Y-64270963D01*
X58820755Y-64227142D01*
X58797455Y-64160077D01*
X58814111Y-64091062D01*
X58865436Y-64042008D01*
X58887098Y-64033247D01*
X58937252Y-64018200D01*
X58946842Y-64014441D01*
X59138095Y-63920747D01*
X59146945Y-63915472D01*
X59320328Y-63791800D01*
X59328200Y-63785147D01*
X59479052Y-63634820D01*
X59485730Y-63626973D01*
X59610003Y-63454028D01*
X59615313Y-63445191D01*
X59709670Y-63254275D01*
X59713469Y-63244680D01*
X59775377Y-63040918D01*
X59777555Y-63030845D01*
X59778986Y-63019970D01*
X59778363Y-63015974D01*
X60644257Y-63015974D01*
X60674565Y-63150454D01*
X60677645Y-63160283D01*
X60757770Y-63357611D01*
X60762413Y-63366802D01*
X60873694Y-63548396D01*
X60879777Y-63556707D01*
X61019213Y-63717675D01*
X61026580Y-63724891D01*
X61190434Y-63860924D01*
X61198881Y-63866839D01*
X61382756Y-63974287D01*
X61392042Y-63978737D01*
X61541124Y-64035665D01*
X61597627Y-64078652D01*
X61621920Y-64145363D01*
X61606290Y-64214618D01*
X61555699Y-64264429D01*
X61539785Y-64271587D01*
X61498463Y-64286832D01*
X61324010Y-64390620D01*
X61319670Y-64394426D01*
X61319666Y-64394429D01*
X61212840Y-64488114D01*
X61171392Y-64524463D01*
X61045720Y-64683877D01*
X61043034Y-64688983D01*
X61043029Y-64688991D01*
X61003685Y-64763772D01*
X60951203Y-64863523D01*
X60941102Y-64896054D01*
X60892723Y-65051861D01*
X60891007Y-65057386D01*
X60867148Y-65258972D01*
X60880424Y-65461530D01*
X60881845Y-65467126D01*
X60881846Y-65467131D01*
X60902117Y-65546945D01*
X60930392Y-65658277D01*
X60932809Y-65663520D01*
X60970007Y-65744208D01*
X61015377Y-65842624D01*
X61018710Y-65847340D01*
X61129192Y-66003669D01*
X61132533Y-66008397D01*
X61136675Y-66012432D01*
X61174014Y-66048806D01*
X61277938Y-66150043D01*
X61282742Y-66153253D01*
X61332857Y-66186739D01*
X61446720Y-66262820D01*
X61452023Y-66265098D01*
X61452026Y-66265100D01*
X61627921Y-66340670D01*
X61633228Y-66342950D01*
X61696774Y-66357329D01*
X61825579Y-66386475D01*
X61825584Y-66386476D01*
X61831216Y-66387750D01*
X61836987Y-66387977D01*
X61836989Y-66387977D01*
X61896756Y-66390325D01*
X62034053Y-66395720D01*
X62156059Y-66378030D01*
X62229231Y-66367421D01*
X62229236Y-66367420D01*
X62234945Y-66366592D01*
X62240409Y-66364737D01*
X62240414Y-66364736D01*
X62421693Y-66303200D01*
X62421698Y-66303198D01*
X62427165Y-66301342D01*
X62604276Y-66202155D01*
X62608728Y-66198453D01*
X62755913Y-66076039D01*
X62760345Y-66072353D01*
X62883320Y-65924493D01*
X62886453Y-65920726D01*
X62886455Y-65920723D01*
X62890147Y-65916284D01*
X62963110Y-65786000D01*
X62986510Y-65744216D01*
X62986514Y-65744208D01*
X62989334Y-65739173D01*
X62991190Y-65733706D01*
X62991192Y-65733701D01*
X63052728Y-65552422D01*
X63052730Y-65552414D01*
X63054584Y-65546953D01*
X63055412Y-65541244D01*
X63055413Y-65541239D01*
X63077325Y-65390109D01*
X63083712Y-65346061D01*
X63085232Y-65288008D01*
X63066658Y-65085867D01*
X63065088Y-65080299D01*
X63047541Y-65018082D01*
X74445605Y-65018082D01*
X74446769Y-65026984D01*
X74446769Y-65026987D01*
X74451494Y-65063115D01*
X74463414Y-65154273D01*
X74491073Y-65217133D01*
X74512017Y-65264730D01*
X74518732Y-65279992D01*
X74524510Y-65286865D01*
X74524510Y-65286866D01*
X74574422Y-65346244D01*
X74607111Y-65385132D01*
X74721447Y-65461240D01*
X74852549Y-65502199D01*
X74989876Y-65504716D01*
X74999109Y-65502199D01*
X75113727Y-65470951D01*
X75122391Y-65468589D01*
X75239439Y-65396721D01*
X75281976Y-65349727D01*
X75325584Y-65301550D01*
X75325585Y-65301549D01*
X75331612Y-65294890D01*
X75336741Y-65284305D01*
X75387585Y-65179362D01*
X75387585Y-65179361D01*
X75391499Y-65171283D01*
X75414286Y-65035836D01*
X75414431Y-65024000D01*
X75413584Y-65018082D01*
X75396232Y-64896923D01*
X75396232Y-64896921D01*
X75394959Y-64888036D01*
X75338110Y-64763003D01*
X75248453Y-64658951D01*
X75133196Y-64584244D01*
X75001603Y-64544890D01*
X74992627Y-64544835D01*
X74992626Y-64544835D01*
X74935080Y-64544484D01*
X74864255Y-64544051D01*
X74732192Y-64581795D01*
X74724605Y-64586582D01*
X74724603Y-64586583D01*
X74662850Y-64625546D01*
X74616031Y-64655087D01*
X74610088Y-64661816D01*
X74568914Y-64708436D01*
X74525109Y-64758036D01*
X74521295Y-64766159D01*
X74521294Y-64766161D01*
X74515357Y-64778806D01*
X74466736Y-64882366D01*
X74457027Y-64944724D01*
X74446986Y-65009209D01*
X74446986Y-65009213D01*
X74445605Y-65018082D01*
X63047541Y-65018082D01*
X63013125Y-64896054D01*
X63013124Y-64896052D01*
X63011557Y-64890495D01*
X63007549Y-64882366D01*
X62924331Y-64713617D01*
X62921776Y-64708436D01*
X62894092Y-64671362D01*
X62868708Y-64637369D01*
X62800320Y-64545787D01*
X62651258Y-64407995D01*
X62646375Y-64404914D01*
X62646371Y-64404911D01*
X62484464Y-64302756D01*
X62479581Y-64299675D01*
X62407614Y-64270963D01*
X62351755Y-64227142D01*
X62328455Y-64160077D01*
X62345111Y-64091062D01*
X62396436Y-64042008D01*
X62418098Y-64033247D01*
X62468252Y-64018200D01*
X62477842Y-64014441D01*
X62503070Y-64002082D01*
X65809605Y-64002082D01*
X65810769Y-64010984D01*
X65810769Y-64010987D01*
X65814324Y-64038171D01*
X65827414Y-64138273D01*
X65837005Y-64160069D01*
X65866518Y-64227142D01*
X65882732Y-64263992D01*
X65888510Y-64270865D01*
X65888510Y-64270866D01*
X65915310Y-64302748D01*
X65971111Y-64369132D01*
X66085447Y-64445240D01*
X66216549Y-64486199D01*
X66224341Y-64486342D01*
X66287851Y-64516721D01*
X66325167Y-64577120D01*
X66328595Y-64594126D01*
X66335414Y-64646273D01*
X66390732Y-64771992D01*
X66479111Y-64877132D01*
X66593447Y-64953240D01*
X66724549Y-64994199D01*
X66861876Y-64996716D01*
X66871109Y-64994199D01*
X66985727Y-64962951D01*
X66994391Y-64960589D01*
X67111439Y-64888721D01*
X67128153Y-64870256D01*
X67197584Y-64793550D01*
X67197585Y-64793549D01*
X67203612Y-64786890D01*
X67220852Y-64751308D01*
X67259585Y-64671362D01*
X67259585Y-64671361D01*
X67263499Y-64663283D01*
X67286286Y-64527836D01*
X67286431Y-64516000D01*
X67285584Y-64510082D01*
X67268232Y-64388923D01*
X67268232Y-64388921D01*
X67266959Y-64380036D01*
X67210110Y-64255003D01*
X67120453Y-64150951D01*
X67005196Y-64076244D01*
X66873603Y-64036890D01*
X66870761Y-64036873D01*
X66809148Y-64008318D01*
X66771098Y-63948379D01*
X66767463Y-63931417D01*
X66765179Y-63915464D01*
X66758959Y-63872036D01*
X66702601Y-63748082D01*
X73683605Y-63748082D01*
X73684769Y-63756984D01*
X73684769Y-63756987D01*
X73686554Y-63770633D01*
X73701414Y-63884273D01*
X73756732Y-64009992D01*
X73762510Y-64016865D01*
X73762510Y-64016866D01*
X73779342Y-64036890D01*
X73845111Y-64115132D01*
X73959447Y-64191240D01*
X74040530Y-64216572D01*
X74074363Y-64227142D01*
X74090549Y-64232199D01*
X74227876Y-64234716D01*
X74237109Y-64232199D01*
X74351727Y-64200951D01*
X74360391Y-64198589D01*
X74477439Y-64126721D01*
X74558750Y-64036890D01*
X74563584Y-64031550D01*
X74563585Y-64031549D01*
X74569612Y-64024890D01*
X74574675Y-64014441D01*
X74625585Y-63909362D01*
X74625585Y-63909361D01*
X74629499Y-63901283D01*
X74652286Y-63765836D01*
X74652431Y-63754000D01*
X74651584Y-63748082D01*
X74634232Y-63626923D01*
X74634232Y-63626921D01*
X74632959Y-63618036D01*
X74576110Y-63493003D01*
X74486453Y-63388951D01*
X74371196Y-63314244D01*
X74239603Y-63274890D01*
X74230627Y-63274835D01*
X74230626Y-63274835D01*
X74173080Y-63274484D01*
X74102255Y-63274051D01*
X73970192Y-63311795D01*
X73962605Y-63316582D01*
X73962603Y-63316583D01*
X73956452Y-63320464D01*
X73854031Y-63385087D01*
X73763109Y-63488036D01*
X73759295Y-63496159D01*
X73759294Y-63496161D01*
X73753357Y-63508806D01*
X73704736Y-63612366D01*
X73700576Y-63639087D01*
X73684986Y-63739209D01*
X73684986Y-63739213D01*
X73683605Y-63748082D01*
X66702601Y-63748082D01*
X66702110Y-63747003D01*
X66612453Y-63642951D01*
X66497196Y-63568244D01*
X66365603Y-63528890D01*
X66356627Y-63528835D01*
X66356626Y-63528835D01*
X66299080Y-63528484D01*
X66228255Y-63528051D01*
X66096192Y-63565795D01*
X66088605Y-63570582D01*
X66088603Y-63570583D01*
X66035255Y-63604243D01*
X65980031Y-63639087D01*
X65889109Y-63742036D01*
X65885295Y-63750159D01*
X65885294Y-63750161D01*
X65865745Y-63791800D01*
X65830736Y-63866366D01*
X65823090Y-63915472D01*
X65810986Y-63993209D01*
X65810986Y-63993213D01*
X65809605Y-64002082D01*
X62503070Y-64002082D01*
X62669095Y-63920747D01*
X62677945Y-63915472D01*
X62851328Y-63791800D01*
X62859200Y-63785147D01*
X63010052Y-63634820D01*
X63016730Y-63626973D01*
X63141003Y-63454028D01*
X63146313Y-63445191D01*
X63240670Y-63254275D01*
X63244469Y-63244680D01*
X63245866Y-63240082D01*
X79779605Y-63240082D01*
X79780769Y-63248984D01*
X79780769Y-63248987D01*
X79784493Y-63277463D01*
X79797414Y-63376273D01*
X79852732Y-63501992D01*
X79858510Y-63508865D01*
X79858510Y-63508866D01*
X79904291Y-63563329D01*
X79941111Y-63607132D01*
X80055447Y-63683240D01*
X80186549Y-63724199D01*
X80323876Y-63726716D01*
X80333109Y-63724199D01*
X80447727Y-63692951D01*
X80456391Y-63690589D01*
X80559999Y-63626973D01*
X80565791Y-63623417D01*
X80573439Y-63618721D01*
X80614711Y-63573125D01*
X80659584Y-63523550D01*
X80659585Y-63523549D01*
X80665612Y-63516890D01*
X80682852Y-63481308D01*
X80721585Y-63401362D01*
X80721585Y-63401361D01*
X80725499Y-63393283D01*
X80748286Y-63257836D01*
X80748431Y-63246000D01*
X80747584Y-63240082D01*
X80730232Y-63118923D01*
X80730232Y-63118921D01*
X80728959Y-63110036D01*
X80686188Y-63015966D01*
X89600257Y-63015966D01*
X89630565Y-63150446D01*
X89633645Y-63160275D01*
X89713770Y-63357603D01*
X89718413Y-63366794D01*
X89829694Y-63548388D01*
X89835777Y-63556699D01*
X89975213Y-63717667D01*
X89982580Y-63724883D01*
X90146434Y-63860916D01*
X90154881Y-63866831D01*
X90338756Y-63974279D01*
X90348042Y-63978729D01*
X90497124Y-64035657D01*
X90553627Y-64078644D01*
X90577920Y-64145355D01*
X90562290Y-64214610D01*
X90511699Y-64264421D01*
X90495785Y-64271579D01*
X90454463Y-64286824D01*
X90280010Y-64390612D01*
X90275670Y-64394418D01*
X90275666Y-64394421D01*
X90217719Y-64445240D01*
X90127392Y-64524455D01*
X90001720Y-64683869D01*
X89999031Y-64688980D01*
X89999029Y-64688983D01*
X89960085Y-64763003D01*
X89907203Y-64863515D01*
X89847007Y-65057378D01*
X89823148Y-65258964D01*
X89836424Y-65461522D01*
X89837845Y-65467118D01*
X89837846Y-65467123D01*
X89858119Y-65546945D01*
X89886392Y-65658269D01*
X89888809Y-65663512D01*
X89923689Y-65739173D01*
X89971377Y-65842616D01*
X89974710Y-65847332D01*
X90029242Y-65924493D01*
X90088533Y-66008389D01*
X90233938Y-66150035D01*
X90402720Y-66262812D01*
X90408023Y-66265090D01*
X90408026Y-66265092D01*
X90546345Y-66324518D01*
X90589228Y-66342942D01*
X90652810Y-66357329D01*
X90781579Y-66386467D01*
X90781584Y-66386468D01*
X90787216Y-66387742D01*
X90792987Y-66387969D01*
X90792989Y-66387969D01*
X90852756Y-66390317D01*
X90990053Y-66395712D01*
X91090499Y-66381148D01*
X91185231Y-66367413D01*
X91185236Y-66367412D01*
X91190945Y-66366584D01*
X91196409Y-66364729D01*
X91196414Y-66364728D01*
X91377693Y-66303192D01*
X91377698Y-66303190D01*
X91383165Y-66301334D01*
X91560276Y-66202147D01*
X91619065Y-66153253D01*
X91711913Y-66076031D01*
X91716345Y-66072345D01*
X91748426Y-66033772D01*
X91842453Y-65920718D01*
X91842455Y-65920715D01*
X91846147Y-65916276D01*
X91922419Y-65780082D01*
X91942510Y-65744208D01*
X91942511Y-65744206D01*
X91945334Y-65739165D01*
X91947190Y-65733698D01*
X91947192Y-65733693D01*
X92008728Y-65552414D01*
X92008729Y-65552409D01*
X92010584Y-65546945D01*
X92011412Y-65541236D01*
X92011413Y-65541231D01*
X92035043Y-65378256D01*
X92039712Y-65346053D01*
X92041232Y-65288000D01*
X92028126Y-65145368D01*
X92023187Y-65091613D01*
X92023186Y-65091610D01*
X92022658Y-65085859D01*
X92016246Y-65063123D01*
X91969125Y-64896046D01*
X91969124Y-64896044D01*
X91967557Y-64890487D01*
X91963553Y-64882366D01*
X91880331Y-64713609D01*
X91877776Y-64708428D01*
X91756320Y-64545779D01*
X91607258Y-64407987D01*
X91602375Y-64404906D01*
X91602371Y-64404903D01*
X91440464Y-64302748D01*
X91435581Y-64299667D01*
X91363614Y-64270955D01*
X91307755Y-64227134D01*
X91284455Y-64160069D01*
X91301111Y-64091054D01*
X91352436Y-64042000D01*
X91374098Y-64033239D01*
X91424252Y-64018192D01*
X91433842Y-64014433D01*
X91625095Y-63920739D01*
X91633945Y-63915464D01*
X91807328Y-63791792D01*
X91815200Y-63785139D01*
X91966052Y-63634812D01*
X91972730Y-63626965D01*
X92097003Y-63454020D01*
X92102313Y-63445183D01*
X92196670Y-63254267D01*
X92200469Y-63244672D01*
X92262377Y-63040910D01*
X92264555Y-63030837D01*
X92265986Y-63019962D01*
X92263775Y-63005778D01*
X92250617Y-63002000D01*
X89615225Y-63002000D01*
X89601694Y-63005973D01*
X89600257Y-63015966D01*
X80686188Y-63015966D01*
X80672110Y-62985003D01*
X80582453Y-62880951D01*
X80467196Y-62806244D01*
X80335603Y-62766890D01*
X80326627Y-62766835D01*
X80326626Y-62766835D01*
X80269080Y-62766484D01*
X80198255Y-62766051D01*
X80066192Y-62803795D01*
X80058605Y-62808582D01*
X80058603Y-62808583D01*
X79996850Y-62847546D01*
X79950031Y-62877087D01*
X79859109Y-62980036D01*
X79855295Y-62988159D01*
X79855294Y-62988161D01*
X79846928Y-63005981D01*
X79800736Y-63104366D01*
X79793972Y-63147807D01*
X79780986Y-63231209D01*
X79780986Y-63231213D01*
X79779605Y-63240082D01*
X63245866Y-63240082D01*
X63306377Y-63040918D01*
X63308555Y-63030845D01*
X63309986Y-63019970D01*
X63307775Y-63005786D01*
X63294617Y-63002008D01*
X60659225Y-63002008D01*
X60645694Y-63005981D01*
X60644257Y-63015974D01*
X59778363Y-63015974D01*
X59776775Y-63005786D01*
X59763617Y-63002008D01*
X58317000Y-63002008D01*
X58248879Y-62982006D01*
X58202386Y-62928350D01*
X58191000Y-62876008D01*
X58191000Y-62732082D01*
X71905605Y-62732082D01*
X71906769Y-62740984D01*
X71906769Y-62740987D01*
X71910493Y-62769463D01*
X71923414Y-62868273D01*
X71978732Y-62993992D01*
X71984510Y-63000865D01*
X71984510Y-63000866D01*
X72059652Y-63090259D01*
X72067111Y-63099132D01*
X72181447Y-63175240D01*
X72312549Y-63216199D01*
X72449876Y-63218716D01*
X72459109Y-63216199D01*
X72573727Y-63184951D01*
X72582391Y-63182589D01*
X72699439Y-63110721D01*
X72716153Y-63092256D01*
X72785584Y-63015550D01*
X72785585Y-63015549D01*
X72791612Y-63008890D01*
X72808852Y-62973308D01*
X72847585Y-62893362D01*
X72847585Y-62893361D01*
X72851499Y-62885283D01*
X72874286Y-62749836D01*
X72874431Y-62738000D01*
X72873584Y-62732082D01*
X74445605Y-62732082D01*
X74446769Y-62740984D01*
X74446769Y-62740987D01*
X74450493Y-62769463D01*
X74463414Y-62868273D01*
X74518732Y-62993992D01*
X74524510Y-63000865D01*
X74524510Y-63000866D01*
X74599652Y-63090259D01*
X74607111Y-63099132D01*
X74721447Y-63175240D01*
X74852549Y-63216199D01*
X74989876Y-63218716D01*
X74999109Y-63216199D01*
X75113727Y-63184951D01*
X75122391Y-63182589D01*
X75239439Y-63110721D01*
X75256153Y-63092256D01*
X75325584Y-63015550D01*
X75325585Y-63015549D01*
X75331612Y-63008890D01*
X75348852Y-62973308D01*
X75387585Y-62893362D01*
X75387585Y-62893361D01*
X75391499Y-62885283D01*
X75414286Y-62749836D01*
X75414431Y-62738000D01*
X75413584Y-62732082D01*
X75396232Y-62610923D01*
X75396232Y-62610921D01*
X75394959Y-62602036D01*
X75340465Y-62482183D01*
X89596389Y-62482183D01*
X89597912Y-62490607D01*
X89610292Y-62494000D01*
X92250344Y-62494000D01*
X92263875Y-62490027D01*
X92265180Y-62480947D01*
X92223214Y-62313875D01*
X92219894Y-62304124D01*
X92134972Y-62108814D01*
X92130105Y-62099739D01*
X92014426Y-61920926D01*
X92008136Y-61912757D01*
X91864806Y-61755240D01*
X91857273Y-61748215D01*
X91690139Y-61616222D01*
X91681552Y-61610517D01*
X91569765Y-61548807D01*
X91519795Y-61498375D01*
X91505023Y-61428932D01*
X91530139Y-61362527D01*
X91587170Y-61320242D01*
X91630658Y-61312499D01*
X91807066Y-61312499D01*
X91842818Y-61305388D01*
X91869126Y-61300156D01*
X91869128Y-61300155D01*
X91881301Y-61297734D01*
X91891621Y-61290839D01*
X91891622Y-61290838D01*
X91955168Y-61248377D01*
X91965484Y-61241484D01*
X92021734Y-61157301D01*
X92036500Y-61083067D01*
X92036499Y-59332934D01*
X92029388Y-59297182D01*
X92024156Y-59270874D01*
X92024155Y-59270872D01*
X92021734Y-59258699D01*
X91965484Y-59174516D01*
X91881301Y-59118266D01*
X91807067Y-59103500D01*
X90932142Y-59103500D01*
X90056934Y-59103501D01*
X90021182Y-59110612D01*
X89994874Y-59115844D01*
X89994872Y-59115845D01*
X89982699Y-59118266D01*
X89972379Y-59125161D01*
X89972378Y-59125162D01*
X89911985Y-59165516D01*
X89898516Y-59174516D01*
X89842266Y-59258699D01*
X89827500Y-59332933D01*
X89827501Y-61083066D01*
X89842266Y-61157301D01*
X89849161Y-61167620D01*
X89849162Y-61167622D01*
X89889516Y-61228015D01*
X89898516Y-61241484D01*
X89982699Y-61297734D01*
X90056933Y-61312500D01*
X90233500Y-61312500D01*
X90301621Y-61332502D01*
X90348114Y-61386158D01*
X90358218Y-61456432D01*
X90328724Y-61521012D01*
X90291681Y-61550263D01*
X90210458Y-61592545D01*
X90201738Y-61598036D01*
X90031433Y-61725905D01*
X90023726Y-61732748D01*
X89876590Y-61886717D01*
X89870104Y-61894727D01*
X89750098Y-62070649D01*
X89745000Y-62079623D01*
X89655338Y-62272783D01*
X89651775Y-62282470D01*
X89596389Y-62482183D01*
X75340465Y-62482183D01*
X75338110Y-62477003D01*
X75248453Y-62372951D01*
X75133196Y-62298244D01*
X75001603Y-62258890D01*
X74992627Y-62258835D01*
X74992626Y-62258835D01*
X74935080Y-62258484D01*
X74864255Y-62258051D01*
X74732192Y-62295795D01*
X74724605Y-62300582D01*
X74724603Y-62300583D01*
X74703537Y-62313875D01*
X74616031Y-62369087D01*
X74610088Y-62375816D01*
X74553929Y-62439404D01*
X74525109Y-62472036D01*
X74521295Y-62480159D01*
X74521294Y-62480161D01*
X74520345Y-62482183D01*
X74466736Y-62596366D01*
X74463055Y-62620008D01*
X74446986Y-62723209D01*
X74446986Y-62723213D01*
X74445605Y-62732082D01*
X72873584Y-62732082D01*
X72856232Y-62610923D01*
X72856232Y-62610921D01*
X72854959Y-62602036D01*
X72798110Y-62477003D01*
X72708453Y-62372951D01*
X72593196Y-62298244D01*
X72461603Y-62258890D01*
X72452627Y-62258835D01*
X72452626Y-62258835D01*
X72395080Y-62258484D01*
X72324255Y-62258051D01*
X72192192Y-62295795D01*
X72184605Y-62300582D01*
X72184603Y-62300583D01*
X72163537Y-62313875D01*
X72076031Y-62369087D01*
X72070088Y-62375816D01*
X72013929Y-62439404D01*
X71985109Y-62472036D01*
X71981295Y-62480159D01*
X71981294Y-62480161D01*
X71980345Y-62482183D01*
X71926736Y-62596366D01*
X71923055Y-62620008D01*
X71906986Y-62723209D01*
X71906986Y-62723213D01*
X71905605Y-62732082D01*
X58191000Y-62732082D01*
X58191000Y-62620008D01*
X58211002Y-62551887D01*
X58264658Y-62505394D01*
X58317000Y-62494008D01*
X59763344Y-62494008D01*
X59776875Y-62490035D01*
X59778002Y-62482191D01*
X60640389Y-62482191D01*
X60641912Y-62490615D01*
X60654292Y-62494008D01*
X63294344Y-62494008D01*
X63307875Y-62490035D01*
X63309180Y-62480955D01*
X63267214Y-62313883D01*
X63263894Y-62304132D01*
X63178972Y-62108822D01*
X63174105Y-62099747D01*
X63058426Y-61920934D01*
X63052136Y-61912765D01*
X62908806Y-61755248D01*
X62901273Y-61748223D01*
X62734139Y-61616230D01*
X62725552Y-61610525D01*
X62613765Y-61548815D01*
X62563795Y-61498383D01*
X62549023Y-61428940D01*
X62574139Y-61362535D01*
X62631170Y-61320250D01*
X62674658Y-61312507D01*
X62851066Y-61312507D01*
X62886818Y-61305396D01*
X62913126Y-61300164D01*
X62913128Y-61300163D01*
X62925301Y-61297742D01*
X62935621Y-61290847D01*
X62935622Y-61290846D01*
X62999168Y-61248385D01*
X63009484Y-61241492D01*
X63065734Y-61157309D01*
X63080500Y-61083075D01*
X63080499Y-59332942D01*
X63065734Y-59258707D01*
X63058833Y-59248378D01*
X63016377Y-59184840D01*
X63009484Y-59174524D01*
X62925301Y-59118274D01*
X62851067Y-59103508D01*
X61976142Y-59103508D01*
X61100934Y-59103509D01*
X61065182Y-59110620D01*
X61038874Y-59115852D01*
X61038872Y-59115853D01*
X61026699Y-59118274D01*
X61016379Y-59125169D01*
X61016378Y-59125170D01*
X60955985Y-59165524D01*
X60942516Y-59174524D01*
X60886266Y-59258707D01*
X60871500Y-59332941D01*
X60871501Y-61083074D01*
X60878612Y-61118826D01*
X60883843Y-61145126D01*
X60886266Y-61157309D01*
X60942516Y-61241492D01*
X61026699Y-61297742D01*
X61100933Y-61312508D01*
X61277500Y-61312508D01*
X61345621Y-61332510D01*
X61392114Y-61386166D01*
X61402218Y-61456440D01*
X61372724Y-61521020D01*
X61335681Y-61550271D01*
X61254458Y-61592553D01*
X61245738Y-61598044D01*
X61075433Y-61725913D01*
X61067726Y-61732756D01*
X60920590Y-61886725D01*
X60914104Y-61894735D01*
X60794098Y-62070657D01*
X60789000Y-62079631D01*
X60699338Y-62272791D01*
X60695775Y-62282478D01*
X60640389Y-62482191D01*
X59778002Y-62482191D01*
X59778180Y-62480955D01*
X59736214Y-62313883D01*
X59732894Y-62304132D01*
X59647972Y-62108822D01*
X59643105Y-62099747D01*
X59527426Y-61920934D01*
X59521136Y-61912765D01*
X59377806Y-61755248D01*
X59370273Y-61748223D01*
X59203139Y-61616230D01*
X59194552Y-61610525D01*
X59082765Y-61548815D01*
X59032795Y-61498383D01*
X59018023Y-61428940D01*
X59043139Y-61362535D01*
X59100170Y-61320250D01*
X59143658Y-61312507D01*
X59320066Y-61312507D01*
X59355818Y-61305396D01*
X59382126Y-61300164D01*
X59382128Y-61300163D01*
X59394301Y-61297742D01*
X59404621Y-61290847D01*
X59404622Y-61290846D01*
X59468168Y-61248385D01*
X59478484Y-61241492D01*
X59534734Y-61157309D01*
X59549500Y-61083075D01*
X59549499Y-59332942D01*
X59534734Y-59258707D01*
X59527833Y-59248378D01*
X59485377Y-59184840D01*
X59478484Y-59174524D01*
X59394301Y-59118274D01*
X59320067Y-59103508D01*
X58445142Y-59103508D01*
X57569934Y-59103509D01*
X57534182Y-59110620D01*
X57507874Y-59115852D01*
X57507872Y-59115853D01*
X57495699Y-59118274D01*
X57485379Y-59125169D01*
X57485378Y-59125170D01*
X57424985Y-59165524D01*
X57411516Y-59174524D01*
X57355266Y-59258707D01*
X57340500Y-59332941D01*
X57340501Y-61083074D01*
X57347612Y-61118826D01*
X57352843Y-61145126D01*
X57355266Y-61157309D01*
X57411516Y-61241492D01*
X57495699Y-61297742D01*
X57569933Y-61312508D01*
X57746500Y-61312508D01*
X57814621Y-61332510D01*
X57861114Y-61386166D01*
X57871218Y-61456440D01*
X57841724Y-61521020D01*
X57804681Y-61550271D01*
X57723458Y-61592553D01*
X57714738Y-61598044D01*
X57544433Y-61725913D01*
X57536726Y-61732756D01*
X57389590Y-61886725D01*
X57383104Y-61894735D01*
X57263098Y-62070657D01*
X57258000Y-62079631D01*
X57168338Y-62272791D01*
X57164775Y-62282478D01*
X57143917Y-62357687D01*
X57106438Y-62417985D01*
X57042309Y-62448448D01*
X56971891Y-62439404D01*
X56917541Y-62393725D01*
X56896500Y-62324015D01*
X56896500Y-56402305D01*
X69269605Y-56402305D01*
X69270769Y-56411207D01*
X69270769Y-56411210D01*
X69276538Y-56455324D01*
X69287414Y-56538496D01*
X69342732Y-56664215D01*
X69431111Y-56769355D01*
X69545447Y-56845463D01*
X69676549Y-56886422D01*
X69813876Y-56888939D01*
X69823109Y-56886422D01*
X69937727Y-56855174D01*
X69946391Y-56852812D01*
X69966463Y-56840488D01*
X70039029Y-56795933D01*
X70107546Y-56777335D01*
X70174775Y-56798420D01*
X70245447Y-56845463D01*
X70376549Y-56886422D01*
X70513876Y-56888939D01*
X70523109Y-56886422D01*
X70637727Y-56855174D01*
X70646391Y-56852812D01*
X70763439Y-56780944D01*
X70780153Y-56762479D01*
X70849584Y-56685773D01*
X70849585Y-56685772D01*
X70855612Y-56679113D01*
X70915499Y-56555506D01*
X70938286Y-56420059D01*
X70938431Y-56408223D01*
X70937584Y-56402305D01*
X70920232Y-56281146D01*
X70920232Y-56281144D01*
X70918959Y-56272259D01*
X70862110Y-56147226D01*
X70775464Y-56046669D01*
X78658001Y-56046669D01*
X78658371Y-56053490D01*
X78663895Y-56104352D01*
X78667521Y-56119604D01*
X78712676Y-56240054D01*
X78721214Y-56255649D01*
X78797715Y-56357724D01*
X78810276Y-56370285D01*
X78912351Y-56446786D01*
X78927946Y-56455324D01*
X79048394Y-56500478D01*
X79063649Y-56504105D01*
X79114514Y-56509631D01*
X79121328Y-56510000D01*
X80793885Y-56510000D01*
X80809124Y-56505525D01*
X80810329Y-56504135D01*
X80812000Y-56496452D01*
X80812000Y-56491884D01*
X81320000Y-56491884D01*
X81324475Y-56507123D01*
X81325865Y-56508328D01*
X81333548Y-56509999D01*
X83010669Y-56509999D01*
X83017490Y-56509629D01*
X83068352Y-56504105D01*
X83083604Y-56500479D01*
X83204054Y-56455324D01*
X83219649Y-56446786D01*
X83321724Y-56370285D01*
X83334285Y-56357724D01*
X83410786Y-56255649D01*
X83419324Y-56240054D01*
X83464478Y-56119606D01*
X83468105Y-56104351D01*
X83473631Y-56053486D01*
X83474000Y-56046672D01*
X83474000Y-54374115D01*
X83469525Y-54358876D01*
X83468135Y-54357671D01*
X83460452Y-54356000D01*
X81338115Y-54356000D01*
X81322876Y-54360475D01*
X81321671Y-54361865D01*
X81320000Y-54369548D01*
X81320000Y-56491884D01*
X80812000Y-56491884D01*
X80812000Y-54374115D01*
X80807525Y-54358876D01*
X80806135Y-54357671D01*
X80798452Y-54356000D01*
X78676116Y-54356000D01*
X78660877Y-54360475D01*
X78659672Y-54361865D01*
X78658001Y-54369548D01*
X78658001Y-56046669D01*
X70775464Y-56046669D01*
X70772453Y-56043174D01*
X70657196Y-55968467D01*
X70525603Y-55929113D01*
X70516627Y-55929058D01*
X70516626Y-55929058D01*
X70459080Y-55928707D01*
X70388255Y-55928274D01*
X70256192Y-55966018D01*
X70248602Y-55970807D01*
X70170915Y-56019823D01*
X70102630Y-56039257D01*
X70035147Y-56018993D01*
X69964726Y-55973348D01*
X69957196Y-55968467D01*
X69825603Y-55929113D01*
X69816627Y-55929058D01*
X69816626Y-55929058D01*
X69759080Y-55928707D01*
X69688255Y-55928274D01*
X69556192Y-55966018D01*
X69548605Y-55970805D01*
X69548603Y-55970806D01*
X69486850Y-56009769D01*
X69440031Y-56039310D01*
X69434088Y-56046039D01*
X69369117Y-56119604D01*
X69349109Y-56142259D01*
X69290736Y-56266589D01*
X69287845Y-56285157D01*
X69270986Y-56393432D01*
X69270986Y-56393436D01*
X69269605Y-56402305D01*
X56896500Y-56402305D01*
X56896500Y-53377476D01*
X56898921Y-53352894D01*
X56899065Y-53352170D01*
X56901486Y-53340000D01*
X56899065Y-53327828D01*
X56899065Y-53315420D01*
X56899385Y-53315420D01*
X56898645Y-53304544D01*
X56900374Y-53275964D01*
X57824112Y-53275964D01*
X57824312Y-53281292D01*
X57824312Y-53281294D01*
X57826464Y-53338599D01*
X57825705Y-53338628D01*
X57826034Y-53340016D01*
X57826340Y-53339989D01*
X57826374Y-53340377D01*
X57826465Y-53341838D01*
X57826523Y-53342085D01*
X57826648Y-53343507D01*
X57832736Y-53505669D01*
X57833831Y-53510888D01*
X57846628Y-53571879D01*
X57845861Y-53572040D01*
X57846841Y-53574316D01*
X57846937Y-53575408D01*
X57848361Y-53580722D01*
X57848464Y-53581307D01*
X57849635Y-53586210D01*
X57879939Y-53730637D01*
X57905365Y-53795021D01*
X57905975Y-53796566D01*
X57906724Y-53798541D01*
X57908097Y-53803663D01*
X57910422Y-53808649D01*
X57910423Y-53808651D01*
X57910947Y-53809775D01*
X57913934Y-53816717D01*
X57964372Y-53944436D01*
X58001273Y-54005246D01*
X58002811Y-54008126D01*
X58002890Y-54008080D01*
X58005639Y-54012841D01*
X58007965Y-54017829D01*
X58011122Y-54022337D01*
X58011124Y-54022341D01*
X58012674Y-54024555D01*
X58017181Y-54031462D01*
X58032279Y-54056342D01*
X58083621Y-54140952D01*
X58087116Y-54144979D01*
X58087117Y-54144981D01*
X58133993Y-54199000D01*
X58137555Y-54203563D01*
X58140347Y-54206890D01*
X58143505Y-54211401D01*
X58149791Y-54217687D01*
X58155861Y-54224201D01*
X58234276Y-54314566D01*
X58238407Y-54317953D01*
X58298309Y-54367070D01*
X58305574Y-54373652D01*
X58306706Y-54374602D01*
X58310599Y-54378495D01*
X58315103Y-54381649D01*
X58315108Y-54381653D01*
X58317936Y-54383633D01*
X58325554Y-54389410D01*
X58407901Y-54456931D01*
X58407907Y-54456935D01*
X58412029Y-54460315D01*
X58416668Y-54462955D01*
X58416667Y-54462955D01*
X58489355Y-54504331D01*
X58499296Y-54510622D01*
X58499660Y-54510877D01*
X58499667Y-54510881D01*
X58504171Y-54514035D01*
X58509155Y-54516359D01*
X58509160Y-54516362D01*
X58511875Y-54517628D01*
X58520952Y-54522318D01*
X58565061Y-54547426D01*
X58611798Y-54574030D01*
X58701498Y-54606590D01*
X58711753Y-54610833D01*
X58713348Y-54611577D01*
X58713350Y-54611578D01*
X58718337Y-54613903D01*
X58723653Y-54615327D01*
X58723655Y-54615328D01*
X58724719Y-54615613D01*
X58725702Y-54615876D01*
X58736081Y-54619143D01*
X58827871Y-54652461D01*
X58928443Y-54670648D01*
X58938616Y-54672926D01*
X58946592Y-54675063D01*
X58952990Y-54675623D01*
X58964412Y-54677152D01*
X59054069Y-54693364D01*
X59058208Y-54693559D01*
X59058215Y-54693560D01*
X59076670Y-54694430D01*
X59076677Y-54694430D01*
X59078158Y-54694500D01*
X59239712Y-54694500D01*
X59330941Y-54686759D01*
X59405733Y-54680413D01*
X59405737Y-54680412D01*
X59411044Y-54679962D01*
X59416199Y-54678624D01*
X59416205Y-54678623D01*
X59628368Y-54623556D01*
X59628367Y-54623556D01*
X59633539Y-54622214D01*
X59780412Y-54556052D01*
X59838262Y-54529993D01*
X59838265Y-54529992D01*
X59843123Y-54527803D01*
X60033803Y-54399430D01*
X60060826Y-54373652D01*
X60196271Y-54244443D01*
X60200128Y-54240764D01*
X60303371Y-54102000D01*
X83806663Y-54102000D01*
X83806933Y-54106119D01*
X83824037Y-54367070D01*
X83825992Y-54396903D01*
X83826796Y-54400943D01*
X83826796Y-54400946D01*
X83882386Y-54680413D01*
X83883648Y-54686759D01*
X83884973Y-54690663D01*
X83884974Y-54690666D01*
X83977319Y-54962705D01*
X83978645Y-54966611D01*
X84109357Y-55231668D01*
X84273547Y-55477397D01*
X84468407Y-55699593D01*
X84690603Y-55894453D01*
X84936331Y-56058643D01*
X84940030Y-56060467D01*
X84940035Y-56060470D01*
X85029020Y-56104352D01*
X85201389Y-56189355D01*
X85205294Y-56190680D01*
X85205295Y-56190681D01*
X85477334Y-56283026D01*
X85477337Y-56283027D01*
X85481241Y-56284352D01*
X85485280Y-56285155D01*
X85485286Y-56285157D01*
X85767054Y-56341204D01*
X85767057Y-56341204D01*
X85771097Y-56342008D01*
X85775208Y-56342277D01*
X85775212Y-56342278D01*
X86061881Y-56361067D01*
X86066000Y-56361337D01*
X86070119Y-56361067D01*
X86356788Y-56342278D01*
X86356792Y-56342277D01*
X86360903Y-56342008D01*
X86364943Y-56341204D01*
X86364946Y-56341204D01*
X86646714Y-56285157D01*
X86646720Y-56285155D01*
X86650759Y-56284352D01*
X86654663Y-56283027D01*
X86654666Y-56283026D01*
X86926705Y-56190681D01*
X86926706Y-56190680D01*
X86930611Y-56189355D01*
X87102980Y-56104352D01*
X87191965Y-56060470D01*
X87191970Y-56060467D01*
X87195669Y-56058643D01*
X87441397Y-55894453D01*
X87663593Y-55699593D01*
X87858453Y-55477397D01*
X88022643Y-55231668D01*
X88153355Y-54966611D01*
X88154681Y-54962705D01*
X88247026Y-54690666D01*
X88247027Y-54690663D01*
X88248352Y-54686759D01*
X88249615Y-54680413D01*
X88305204Y-54400946D01*
X88305204Y-54400943D01*
X88306008Y-54396903D01*
X88307964Y-54367070D01*
X88325067Y-54106119D01*
X88325337Y-54102000D01*
X88309226Y-53856194D01*
X88306278Y-53811212D01*
X88306277Y-53811208D01*
X88306008Y-53807097D01*
X88272175Y-53637006D01*
X88249157Y-53521286D01*
X88249155Y-53521280D01*
X88248352Y-53517241D01*
X88246196Y-53510888D01*
X88166450Y-53275964D01*
X92368112Y-53275964D01*
X92368312Y-53281292D01*
X92368312Y-53281294D01*
X92370464Y-53338599D01*
X92369705Y-53338628D01*
X92370034Y-53340016D01*
X92370340Y-53339989D01*
X92370374Y-53340377D01*
X92370465Y-53341838D01*
X92370523Y-53342085D01*
X92370648Y-53343507D01*
X92376736Y-53505669D01*
X92377831Y-53510888D01*
X92390628Y-53571879D01*
X92389861Y-53572040D01*
X92390841Y-53574316D01*
X92390937Y-53575408D01*
X92392361Y-53580722D01*
X92392464Y-53581307D01*
X92393635Y-53586210D01*
X92423939Y-53730637D01*
X92449365Y-53795021D01*
X92449975Y-53796566D01*
X92450724Y-53798541D01*
X92452097Y-53803663D01*
X92454422Y-53808649D01*
X92454423Y-53808651D01*
X92454947Y-53809775D01*
X92457934Y-53816717D01*
X92508372Y-53944436D01*
X92545273Y-54005246D01*
X92546811Y-54008126D01*
X92546890Y-54008080D01*
X92549639Y-54012841D01*
X92551965Y-54017829D01*
X92555122Y-54022337D01*
X92555124Y-54022341D01*
X92556674Y-54024555D01*
X92561181Y-54031462D01*
X92576279Y-54056342D01*
X92627621Y-54140952D01*
X92631116Y-54144979D01*
X92631117Y-54144981D01*
X92677993Y-54199000D01*
X92681555Y-54203563D01*
X92684346Y-54206888D01*
X92687505Y-54211401D01*
X92693791Y-54217687D01*
X92699861Y-54224201D01*
X92778276Y-54314566D01*
X92782407Y-54317953D01*
X92842309Y-54367070D01*
X92849574Y-54373652D01*
X92850706Y-54374602D01*
X92854599Y-54378495D01*
X92859103Y-54381649D01*
X92859108Y-54381653D01*
X92861936Y-54383633D01*
X92869554Y-54389410D01*
X92951901Y-54456931D01*
X92951907Y-54456935D01*
X92956029Y-54460315D01*
X92960668Y-54462955D01*
X92960667Y-54462955D01*
X93033355Y-54504331D01*
X93043296Y-54510622D01*
X93043660Y-54510877D01*
X93043667Y-54510881D01*
X93048171Y-54514035D01*
X93053155Y-54516359D01*
X93053160Y-54516362D01*
X93055875Y-54517628D01*
X93064952Y-54522318D01*
X93109061Y-54547426D01*
X93155798Y-54574030D01*
X93245498Y-54606590D01*
X93255753Y-54610833D01*
X93257348Y-54611577D01*
X93257350Y-54611578D01*
X93262337Y-54613903D01*
X93267653Y-54615327D01*
X93267655Y-54615328D01*
X93268719Y-54615613D01*
X93269702Y-54615876D01*
X93280081Y-54619143D01*
X93371871Y-54652461D01*
X93472443Y-54670648D01*
X93482616Y-54672926D01*
X93490592Y-54675063D01*
X93496990Y-54675623D01*
X93508412Y-54677152D01*
X93598069Y-54693364D01*
X93602208Y-54693559D01*
X93602215Y-54693560D01*
X93620670Y-54694430D01*
X93620677Y-54694430D01*
X93622158Y-54694500D01*
X93783712Y-54694500D01*
X93874941Y-54686759D01*
X93949733Y-54680413D01*
X93949737Y-54680412D01*
X93955044Y-54679962D01*
X93960199Y-54678624D01*
X93960205Y-54678623D01*
X94172368Y-54623556D01*
X94172367Y-54623556D01*
X94177539Y-54622214D01*
X94324412Y-54556052D01*
X94382262Y-54529993D01*
X94382265Y-54529992D01*
X94387123Y-54527803D01*
X94577803Y-54399430D01*
X94604826Y-54373652D01*
X94740271Y-54244443D01*
X94744128Y-54240764D01*
X94881342Y-54056342D01*
X94897504Y-54024555D01*
X94983102Y-53856194D01*
X94983102Y-53856193D01*
X94985520Y-53851438D01*
X95053685Y-53631911D01*
X95061642Y-53571879D01*
X95083188Y-53409319D01*
X95083188Y-53409316D01*
X95083888Y-53404036D01*
X95081536Y-53341401D01*
X95082295Y-53341372D01*
X95081966Y-53339984D01*
X95081660Y-53340011D01*
X95081626Y-53339623D01*
X95081535Y-53338162D01*
X95081477Y-53337915D01*
X95081352Y-53336493D01*
X95075264Y-53174331D01*
X95061372Y-53108121D01*
X95062139Y-53107960D01*
X95061159Y-53105684D01*
X95061063Y-53104592D01*
X95059639Y-53099278D01*
X95059536Y-53098693D01*
X95058362Y-53093778D01*
X95049886Y-53053378D01*
X95028061Y-52949363D01*
X95002025Y-52883434D01*
X95001276Y-52881459D01*
X94999903Y-52876337D01*
X94997053Y-52870225D01*
X94994066Y-52863283D01*
X94943628Y-52735564D01*
X94906727Y-52674754D01*
X94905189Y-52671874D01*
X94905110Y-52671920D01*
X94902361Y-52667159D01*
X94900035Y-52662171D01*
X94896876Y-52657659D01*
X94895326Y-52655445D01*
X94890819Y-52648538D01*
X94827147Y-52543609D01*
X94827145Y-52543606D01*
X94824379Y-52539048D01*
X94774007Y-52481000D01*
X94770445Y-52476437D01*
X94767652Y-52473108D01*
X94764495Y-52468599D01*
X94760604Y-52464708D01*
X94760599Y-52464702D01*
X94758209Y-52462313D01*
X94752139Y-52455799D01*
X94677224Y-52369467D01*
X94677222Y-52369465D01*
X94673724Y-52365434D01*
X94609692Y-52312930D01*
X94602426Y-52306348D01*
X94601294Y-52305398D01*
X94597401Y-52301505D01*
X94592897Y-52298351D01*
X94592892Y-52298347D01*
X94590064Y-52296367D01*
X94582446Y-52290590D01*
X94500099Y-52223069D01*
X94500093Y-52223065D01*
X94495971Y-52219685D01*
X94418645Y-52175669D01*
X94408704Y-52169378D01*
X94408340Y-52169123D01*
X94408333Y-52169119D01*
X94403829Y-52165965D01*
X94398845Y-52163641D01*
X94398840Y-52163638D01*
X94396125Y-52162372D01*
X94387048Y-52157682D01*
X94342939Y-52132574D01*
X94296202Y-52105970D01*
X94206502Y-52073410D01*
X94196247Y-52069167D01*
X94194652Y-52068423D01*
X94194650Y-52068422D01*
X94189663Y-52066097D01*
X94184347Y-52064673D01*
X94184345Y-52064672D01*
X94183281Y-52064387D01*
X94182298Y-52064124D01*
X94171919Y-52060857D01*
X94080129Y-52027539D01*
X93979557Y-52009352D01*
X93969384Y-52007074D01*
X93961408Y-52004937D01*
X93955010Y-52004377D01*
X93943588Y-52002848D01*
X93853931Y-51986636D01*
X93849792Y-51986441D01*
X93849785Y-51986440D01*
X93831330Y-51985570D01*
X93831323Y-51985570D01*
X93829842Y-51985500D01*
X93668288Y-51985500D01*
X93588556Y-51992265D01*
X93502267Y-51999587D01*
X93502263Y-51999588D01*
X93496956Y-52000038D01*
X93491801Y-52001376D01*
X93491795Y-52001377D01*
X93336484Y-52041688D01*
X93274461Y-52057786D01*
X93167497Y-52105970D01*
X93069738Y-52150007D01*
X93069735Y-52150008D01*
X93064877Y-52152197D01*
X92874197Y-52280570D01*
X92870340Y-52284249D01*
X92870338Y-52284251D01*
X92846226Y-52307253D01*
X92707872Y-52439236D01*
X92570658Y-52623658D01*
X92568242Y-52628409D01*
X92568240Y-52628413D01*
X92488237Y-52785769D01*
X92466480Y-52828562D01*
X92398315Y-53048089D01*
X92368112Y-53275964D01*
X88166450Y-53275964D01*
X88154681Y-53241295D01*
X88154680Y-53241294D01*
X88153355Y-53237389D01*
X88022643Y-52972332D01*
X87858453Y-52726603D01*
X87663593Y-52504407D01*
X87441397Y-52309547D01*
X87195669Y-52145357D01*
X87191970Y-52143533D01*
X87191965Y-52143530D01*
X87032056Y-52064672D01*
X86930611Y-52014645D01*
X86926705Y-52013319D01*
X86654666Y-51920974D01*
X86654663Y-51920973D01*
X86650759Y-51919648D01*
X86646720Y-51918845D01*
X86646714Y-51918843D01*
X86364946Y-51862796D01*
X86364943Y-51862796D01*
X86360903Y-51861992D01*
X86356792Y-51861723D01*
X86356788Y-51861722D01*
X86070119Y-51842933D01*
X86066000Y-51842663D01*
X86061881Y-51842933D01*
X85775212Y-51861722D01*
X85775208Y-51861723D01*
X85771097Y-51861992D01*
X85767057Y-51862796D01*
X85767054Y-51862796D01*
X85485286Y-51918843D01*
X85485280Y-51918845D01*
X85481241Y-51919648D01*
X85477337Y-51920973D01*
X85477334Y-51920974D01*
X85205295Y-52013319D01*
X85201389Y-52014645D01*
X85133322Y-52048212D01*
X84940036Y-52143530D01*
X84940031Y-52143533D01*
X84936332Y-52145357D01*
X84690603Y-52309547D01*
X84468407Y-52504407D01*
X84273547Y-52726603D01*
X84109357Y-52972332D01*
X83978645Y-53237389D01*
X83977320Y-53241294D01*
X83977319Y-53241295D01*
X83885805Y-53510888D01*
X83883648Y-53517241D01*
X83882845Y-53521280D01*
X83882843Y-53521286D01*
X83859825Y-53637006D01*
X83825992Y-53807097D01*
X83825723Y-53811208D01*
X83825722Y-53811212D01*
X83822774Y-53856194D01*
X83806663Y-54102000D01*
X60303371Y-54102000D01*
X60337342Y-54056342D01*
X60353504Y-54024555D01*
X60439102Y-53856194D01*
X60439102Y-53856193D01*
X60441520Y-53851438D01*
X60448212Y-53829885D01*
X78658000Y-53829885D01*
X78662475Y-53845124D01*
X78663865Y-53846329D01*
X78671548Y-53848000D01*
X80793885Y-53848000D01*
X80809124Y-53843525D01*
X80810329Y-53842135D01*
X80812000Y-53834452D01*
X80812000Y-53829885D01*
X81320000Y-53829885D01*
X81324475Y-53845124D01*
X81325865Y-53846329D01*
X81333548Y-53848000D01*
X83455884Y-53848000D01*
X83471123Y-53843525D01*
X83472328Y-53842135D01*
X83473999Y-53834452D01*
X83473999Y-52157331D01*
X83473629Y-52150510D01*
X83468105Y-52099648D01*
X83464479Y-52084396D01*
X83419324Y-51963946D01*
X83410786Y-51948351D01*
X83334285Y-51846276D01*
X83321724Y-51833715D01*
X83219649Y-51757214D01*
X83204054Y-51748676D01*
X83083606Y-51703522D01*
X83068351Y-51699895D01*
X83017486Y-51694369D01*
X83010672Y-51694000D01*
X81338115Y-51694000D01*
X81322876Y-51698475D01*
X81321671Y-51699865D01*
X81320000Y-51707548D01*
X81320000Y-53829885D01*
X80812000Y-53829885D01*
X80812000Y-51712116D01*
X80807525Y-51696877D01*
X80806135Y-51695672D01*
X80798452Y-51694001D01*
X79121331Y-51694001D01*
X79114510Y-51694371D01*
X79063648Y-51699895D01*
X79048396Y-51703521D01*
X78927946Y-51748676D01*
X78912351Y-51757214D01*
X78810276Y-51833715D01*
X78797715Y-51846276D01*
X78721214Y-51948351D01*
X78712676Y-51963946D01*
X78667522Y-52084394D01*
X78663895Y-52099649D01*
X78658369Y-52150514D01*
X78658000Y-52157328D01*
X78658000Y-53829885D01*
X60448212Y-53829885D01*
X60509685Y-53631911D01*
X60517642Y-53571879D01*
X60539188Y-53409319D01*
X60539188Y-53409316D01*
X60539888Y-53404036D01*
X60537536Y-53341401D01*
X60538295Y-53341372D01*
X60537966Y-53339984D01*
X60537660Y-53340011D01*
X60537626Y-53339623D01*
X60537535Y-53338162D01*
X60537477Y-53337915D01*
X60537352Y-53336493D01*
X60531264Y-53174331D01*
X60517372Y-53108121D01*
X60518139Y-53107960D01*
X60517159Y-53105684D01*
X60517063Y-53104592D01*
X60515639Y-53099278D01*
X60515536Y-53098693D01*
X60514362Y-53093778D01*
X60505886Y-53053378D01*
X60484061Y-52949363D01*
X60458025Y-52883434D01*
X60457276Y-52881459D01*
X60455903Y-52876337D01*
X60453053Y-52870225D01*
X60450066Y-52863283D01*
X60399628Y-52735564D01*
X60362727Y-52674754D01*
X60361189Y-52671874D01*
X60361110Y-52671920D01*
X60358361Y-52667159D01*
X60356035Y-52662171D01*
X60352876Y-52657659D01*
X60351326Y-52655445D01*
X60346819Y-52648538D01*
X60283147Y-52543609D01*
X60283145Y-52543606D01*
X60280379Y-52539048D01*
X60230007Y-52481000D01*
X60226445Y-52476437D01*
X60223653Y-52473110D01*
X60220495Y-52468599D01*
X60214209Y-52462313D01*
X60208139Y-52455799D01*
X60133224Y-52369467D01*
X60133222Y-52369465D01*
X60129724Y-52365434D01*
X60065692Y-52312930D01*
X60058426Y-52306348D01*
X60057294Y-52305398D01*
X60053401Y-52301505D01*
X60048897Y-52298351D01*
X60048892Y-52298347D01*
X60046064Y-52296367D01*
X60038446Y-52290590D01*
X59956099Y-52223069D01*
X59956093Y-52223065D01*
X59951971Y-52219685D01*
X59874645Y-52175669D01*
X59864704Y-52169378D01*
X59864340Y-52169123D01*
X59864333Y-52169119D01*
X59859829Y-52165965D01*
X59854845Y-52163641D01*
X59854840Y-52163638D01*
X59852125Y-52162372D01*
X59843048Y-52157682D01*
X59798939Y-52132574D01*
X59752202Y-52105970D01*
X59662502Y-52073410D01*
X59652247Y-52069167D01*
X59650652Y-52068423D01*
X59650650Y-52068422D01*
X59645663Y-52066097D01*
X59640347Y-52064673D01*
X59640345Y-52064672D01*
X59639281Y-52064387D01*
X59638298Y-52064124D01*
X59627919Y-52060857D01*
X59536129Y-52027539D01*
X59435557Y-52009352D01*
X59425384Y-52007074D01*
X59417408Y-52004937D01*
X59411010Y-52004377D01*
X59399588Y-52002848D01*
X59309931Y-51986636D01*
X59305792Y-51986441D01*
X59305785Y-51986440D01*
X59287330Y-51985570D01*
X59287323Y-51985570D01*
X59285842Y-51985500D01*
X59124288Y-51985500D01*
X59044556Y-51992265D01*
X58958267Y-51999587D01*
X58958263Y-51999588D01*
X58952956Y-52000038D01*
X58947801Y-52001376D01*
X58947795Y-52001377D01*
X58792484Y-52041688D01*
X58730461Y-52057786D01*
X58623497Y-52105970D01*
X58525738Y-52150007D01*
X58525735Y-52150008D01*
X58520877Y-52152197D01*
X58330197Y-52280570D01*
X58326340Y-52284249D01*
X58326338Y-52284251D01*
X58302226Y-52307253D01*
X58163872Y-52439236D01*
X58026658Y-52623658D01*
X58024242Y-52628409D01*
X58024240Y-52628413D01*
X57944237Y-52785769D01*
X57922480Y-52828562D01*
X57854315Y-53048089D01*
X57824112Y-53275964D01*
X56900374Y-53275964D01*
X56912704Y-53072120D01*
X56914538Y-53057016D01*
X56961538Y-52800542D01*
X56965179Y-52785769D01*
X56979278Y-52740524D01*
X57042755Y-52536820D01*
X57048149Y-52522598D01*
X57155165Y-52284818D01*
X57162227Y-52271362D01*
X57297127Y-52048211D01*
X57305769Y-52035690D01*
X57312899Y-52026590D01*
X57466583Y-51830427D01*
X57476673Y-51819039D01*
X57661039Y-51634673D01*
X57672427Y-51624583D01*
X57877690Y-51463769D01*
X57890212Y-51455126D01*
X58113362Y-51320227D01*
X58126818Y-51313165D01*
X58364602Y-51206147D01*
X58378820Y-51200755D01*
X58627769Y-51123179D01*
X58642542Y-51119538D01*
X58899016Y-51072538D01*
X58914120Y-51070704D01*
X59113855Y-51058622D01*
X59146544Y-51056645D01*
X59157420Y-51057385D01*
X59157420Y-51057065D01*
X59169828Y-51057065D01*
X59182000Y-51059486D01*
X59194897Y-51056921D01*
X59219476Y-51054500D01*
X93688524Y-51054500D01*
X93713103Y-51056921D01*
G37*
%TD.AperFunction*%
%TD*%
M02*
