%TF.GenerationSoftware,KiCad,Pcbnew,(6.0.4-0)*%
%TF.CreationDate,2022-06-17T12:44:20-07:00*%
%TF.ProjectId,VIO-Board-rounded,56494f2d-426f-4617-9264-2d726f756e64,rev?*%
%TF.SameCoordinates,Original*%
%TF.FileFunction,Paste,Top*%
%TF.FilePolarity,Positive*%
%FSLAX46Y46*%
G04 Gerber Fmt 4.6, Leading zero omitted, Abs format (unit mm)*
G04 Created by KiCad (PCBNEW (6.0.4-0)) date 2022-06-17 12:44:20*
%MOMM*%
%LPD*%
G01*
G04 APERTURE LIST*
G04 Aperture macros list*
%AMRoundRect*
0 Rectangle with rounded corners*
0 $1 Rounding radius*
0 $2 $3 $4 $5 $6 $7 $8 $9 X,Y pos of 4 corners*
0 Add a 4 corners polygon primitive as box body*
4,1,4,$2,$3,$4,$5,$6,$7,$8,$9,$2,$3,0*
0 Add four circle primitives for the rounded corners*
1,1,$1+$1,$2,$3*
1,1,$1+$1,$4,$5*
1,1,$1+$1,$6,$7*
1,1,$1+$1,$8,$9*
0 Add four rect primitives between the rounded corners*
20,1,$1+$1,$2,$3,$4,$5,0*
20,1,$1+$1,$4,$5,$6,$7,0*
20,1,$1+$1,$6,$7,$8,$9,0*
20,1,$1+$1,$8,$9,$2,$3,0*%
G04 Aperture macros list end*
%ADD10RoundRect,0.140000X-0.170000X0.140000X-0.170000X-0.140000X0.170000X-0.140000X0.170000X0.140000X0*%
%ADD11R,1.000000X0.700000*%
%ADD12R,0.600000X0.700000*%
%ADD13RoundRect,0.135000X0.185000X-0.135000X0.185000X0.135000X-0.185000X0.135000X-0.185000X-0.135000X0*%
%ADD14R,0.540000X0.540000*%
%ADD15R,0.300000X0.300000*%
%ADD16R,0.300000X0.900000*%
%ADD17R,0.900000X0.300000*%
%ADD18RoundRect,0.135000X-0.185000X0.135000X-0.185000X-0.135000X0.185000X-0.135000X0.185000X0.135000X0*%
%ADD19R,0.450000X1.380000*%
%ADD20R,1.425000X1.550000*%
%ADD21R,1.800000X1.900000*%
%ADD22R,1.000000X1.900000*%
%ADD23R,1.650000X1.300000*%
%ADD24RoundRect,0.135000X0.135000X0.185000X-0.135000X0.185000X-0.135000X-0.185000X0.135000X-0.185000X0*%
G04 APERTURE END LIST*
D10*
%TO.C,C4*%
X70358000Y-67846000D03*
X70358000Y-68806000D03*
%TD*%
D11*
%TO.C,D1*%
X69354000Y-60182000D03*
D12*
X71054000Y-60182000D03*
X71054000Y-58182000D03*
X69154000Y-58182000D03*
%TD*%
D13*
%TO.C,R2*%
X74168000Y-66042000D03*
X74168000Y-65022000D03*
%TD*%
D10*
%TO.C,C2*%
X73152000Y-67846000D03*
X73152000Y-68806000D03*
%TD*%
D14*
%TO.C,U1*%
X70046000Y-64712000D03*
X69146000Y-64712000D03*
X69146000Y-63812000D03*
X70046000Y-63812000D03*
D15*
X68346000Y-65512000D03*
D16*
X68846000Y-65812000D03*
X69346000Y-65812000D03*
X69846000Y-65812000D03*
X70346000Y-65812000D03*
D15*
X70846000Y-65512000D03*
D17*
X71146000Y-65012000D03*
X71146000Y-64512000D03*
X71146000Y-64012000D03*
X71146000Y-63512000D03*
D15*
X70846000Y-63012000D03*
D16*
X70346000Y-62712000D03*
X69846000Y-62712000D03*
X69346000Y-62712000D03*
X68846000Y-62712000D03*
D15*
X68346000Y-63012000D03*
D17*
X68046000Y-63512000D03*
X68046000Y-64012000D03*
X68046000Y-64512000D03*
X68046000Y-65012000D03*
%TD*%
D18*
%TO.C,R3*%
X72898000Y-65022000D03*
X72898000Y-66042000D03*
%TD*%
D19*
%TO.C,J2*%
X71150000Y-54892000D03*
X70500000Y-54892000D03*
X69850000Y-54892000D03*
X69200000Y-54892000D03*
X68550000Y-54892000D03*
D20*
X67362500Y-54807000D03*
X72337500Y-54807000D03*
D21*
X71000000Y-52232000D03*
D22*
X68300000Y-52232000D03*
D23*
X66475000Y-52232000D03*
X73225000Y-52232000D03*
%TD*%
D10*
%TO.C,C1*%
X71882000Y-67846000D03*
X71882000Y-68806000D03*
%TD*%
D24*
%TO.C,R1*%
X73408000Y-63754000D03*
X72388000Y-63754000D03*
%TD*%
D10*
%TO.C,C3*%
X69088000Y-67846000D03*
X69088000Y-68806000D03*
%TD*%
M02*
