M48
; DRILL file {KiCad (6.0.6-1)-1} date Wednesday, August 24, 2022 at 02:22:57 PM
; FORMAT={-:-/ absolute / inch / decimal}
; #@! TF.CreationDate,2022-08-24T14:22:57-07:00
; #@! TF.GenerationSoftware,Kicad,Pcbnew,(6.0.6-1)-1
; #@! TF.FileFunction,Plated,1,4,PTH
FMAT,2
INCH
; #@! TA.AperFunction,Plated,PTH,ViaDrill
T1C0.0079
; #@! TA.AperFunction,Plated,PTH,ComponentDrill
T2C0.0394
; #@! TA.AperFunction,Plated,PTH,ComponentDrill
T3C0.1063
%
G90
G05
T1
X2.59Y-2.11
X2.59Y-2.16
X2.59Y-2.21
X2.61Y-2.52
X2.63Y-2.54
X2.69Y-2.37
X2.7Y-2.22
X2.71Y-2.64
X2.72Y-2.74
X2.74Y-2.64
X2.7462Y-2.2208
X2.77Y-2.74
X2.7738Y-2.2208
X2.78Y-2.64
X2.8Y-2.43
X2.8Y-2.67
X2.83Y-2.74
X2.84Y-2.59
X2.84Y-2.63
X2.85Y-2.47
X2.87Y-2.63
X2.88Y-2.74
X2.91Y-2.11
X2.91Y-2.17
X2.92Y-2.51
X2.95Y-2.47
X2.95Y-2.56
X2.95Y-2.63
X2.95Y-2.67
X3.16Y-2.49
X3.19Y-2.36
X3.19Y-2.43
T2
X2.301Y-2.3704
X2.301Y-2.4704
X2.301Y-2.5704
X2.301Y-2.6704
X2.301Y-2.7704
X2.301Y-2.8704
X2.301Y-2.9704
X2.301Y-3.0704
X2.301Y-3.1704
X2.44Y-2.3704
X2.44Y-2.4704
X2.44Y-2.5704
X2.44Y-2.6704
X2.44Y-2.7704
X2.44Y-2.8704
X2.44Y-2.9704
X2.44Y-3.0704
X2.44Y-3.1704
X2.6104Y-3.34
X2.6104Y-3.479
X2.7104Y-3.34
X2.7104Y-3.479
X2.8104Y-3.34
X2.8104Y-3.479
X2.9104Y-3.34
X2.9104Y-3.479
X3.0104Y-3.34
X3.0104Y-3.479
X3.1104Y-3.34
X3.1104Y-3.479
X3.2104Y-3.34
X3.2104Y-3.479
X3.3104Y-3.34
X3.3104Y-3.479
X3.4104Y-3.34
X3.4104Y-3.479
X3.58Y-2.3704
X3.58Y-2.4704
X3.58Y-2.5704
X3.58Y-2.6704
X3.58Y-2.7704
X3.58Y-2.8704
X3.58Y-2.9704
X3.58Y-3.0704
X3.58Y-3.1704
X3.721Y-2.3704
X3.721Y-2.4704
X3.721Y-2.5704
X3.721Y-2.6704
X3.721Y-2.7704
X3.721Y-2.8704
X3.721Y-2.9704
X3.721Y-3.0704
X3.721Y-3.1704
T3
X3.1916Y-2.13
X3.3884Y-2.13
T0
M30
