%TF.GenerationSoftware,KiCad,Pcbnew,(6.0.6-1)-1*%
%TF.CreationDate,2022-08-24T14:22:51-07:00*%
%TF.ProjectId,VIO-Board-rounded,56494f2d-426f-4617-9264-2d726f756e64,rev?*%
%TF.SameCoordinates,Original*%
%TF.FileFunction,Soldermask,Bot*%
%TF.FilePolarity,Negative*%
%FSLAX46Y46*%
G04 Gerber Fmt 4.6, Leading zero omitted, Abs format (unit mm)*
G04 Created by KiCad (PCBNEW (6.0.6-1)-1) date 2022-08-24 14:22:51*
%MOMM*%
%LPD*%
G01*
G04 APERTURE LIST*
G04 Aperture macros list*
%AMFreePoly0*
4,1,22,0.500000,-0.750000,0.000000,-0.750000,0.000000,-0.745033,-0.079941,-0.743568,-0.215256,-0.701293,-0.333266,-0.622738,-0.424486,-0.514219,-0.481581,-0.384460,-0.499164,-0.250000,-0.500000,-0.250000,-0.500000,0.250000,-0.499164,0.250000,-0.499963,0.256109,-0.478152,0.396186,-0.417904,0.524511,-0.324060,0.630769,-0.204165,0.706417,-0.067858,0.745374,0.000000,0.744959,0.000000,0.750000,
0.500000,0.750000,0.500000,-0.750000,0.500000,-0.750000,$1*%
%AMFreePoly1*
4,1,20,0.000000,0.744959,0.073905,0.744508,0.209726,0.703889,0.328688,0.626782,0.421226,0.519385,0.479903,0.390333,0.500000,0.250000,0.500000,-0.250000,0.499851,-0.262216,0.476331,-0.402017,0.414519,-0.529596,0.319384,-0.634700,0.198574,-0.708877,0.061801,-0.746166,0.000000,-0.745033,0.000000,-0.750000,-0.500000,-0.750000,-0.500000,0.750000,0.000000,0.750000,0.000000,0.744959,
0.000000,0.744959,$1*%
G04 Aperture macros list end*
%ADD10C,2.200000*%
%ADD11R,1.700000X1.700000*%
%ADD12O,1.700000X1.700000*%
%ADD13R,3.800000X3.800000*%
%ADD14C,4.000000*%
%ADD15FreePoly0,180.000000*%
%ADD16FreePoly1,180.000000*%
G04 APERTURE END LIST*
D10*
%TO.C,REF\u002A\u002A*%
X59182000Y-87884000D03*
%TD*%
D11*
%TO.C,J6*%
X58445000Y-60208008D03*
D12*
X58445000Y-62748008D03*
X58445000Y-65288008D03*
X58445000Y-67828008D03*
X58445000Y-70368008D03*
X58445000Y-72908008D03*
X58445000Y-75448008D03*
X58445000Y-77988008D03*
X58445000Y-80528008D03*
%TD*%
D11*
%TO.C,J4*%
X90932000Y-60208000D03*
D12*
X90932000Y-62748000D03*
X90932000Y-65288000D03*
X90932000Y-67828000D03*
X90932000Y-70368000D03*
X90932000Y-72908000D03*
X90932000Y-75448000D03*
X90932000Y-77988000D03*
X90932000Y-80528000D03*
%TD*%
D11*
%TO.C,J5*%
X66304000Y-84836000D03*
D12*
X68844000Y-84836000D03*
X71384000Y-84836000D03*
X73924000Y-84836000D03*
X76464000Y-84836000D03*
X79004000Y-84836000D03*
X81544000Y-84836000D03*
X84084000Y-84836000D03*
X86624000Y-84836000D03*
%TD*%
D10*
%TO.C,REF\u002A\u002A*%
X59182000Y-53340000D03*
%TD*%
%TO.C,REF\u002A\u002A*%
X93726000Y-87884000D03*
%TD*%
D13*
%TO.C,J1*%
X81066000Y-54102000D03*
D14*
X86066000Y-54102000D03*
%TD*%
D10*
%TO.C,REF\u002A\u002A*%
X93726000Y-53340000D03*
%TD*%
D11*
%TO.C,J7*%
X94512994Y-60208008D03*
D12*
X94512994Y-62748008D03*
X94512994Y-65288008D03*
X94512994Y-67828008D03*
X94512994Y-70368008D03*
X94512994Y-72908008D03*
X94512994Y-75448008D03*
X94512994Y-77988008D03*
X94512994Y-80528008D03*
%TD*%
D11*
%TO.C,J8*%
X66304000Y-88367000D03*
D12*
X68844000Y-88367000D03*
X71384000Y-88367000D03*
X73924000Y-88367000D03*
X76464000Y-88367000D03*
X79004000Y-88367000D03*
X81544000Y-88367000D03*
X84084000Y-88367000D03*
X86624000Y-88367000D03*
%TD*%
D11*
%TO.C,J3*%
X61976000Y-60208008D03*
D12*
X61976000Y-62748008D03*
X61976000Y-65288008D03*
X61976000Y-67828008D03*
X61976000Y-70368008D03*
X61976000Y-72908008D03*
X61976000Y-75448008D03*
X61976000Y-77988008D03*
X61976000Y-80528008D03*
%TD*%
D15*
%TO.C,JP1*%
X78374000Y-81280000D03*
D16*
X77074000Y-81280000D03*
%TD*%
D15*
%TO.C,JP2*%
X78374000Y-78232000D03*
D16*
X77074000Y-78232000D03*
%TD*%
M02*
