%TF.GenerationSoftware,KiCad,Pcbnew,(6.0.4-0)*%
%TF.CreationDate,2022-06-17T12:44:20-07:00*%
%TF.ProjectId,VIO-Board-rounded,56494f2d-426f-4617-9264-2d726f756e64,rev?*%
%TF.SameCoordinates,Original*%
%TF.FileFunction,Copper,L4,Bot*%
%TF.FilePolarity,Positive*%
%FSLAX46Y46*%
G04 Gerber Fmt 4.6, Leading zero omitted, Abs format (unit mm)*
G04 Created by KiCad (PCBNEW (6.0.4-0)) date 2022-06-17 12:44:20*
%MOMM*%
%LPD*%
G01*
G04 APERTURE LIST*
%TA.AperFunction,ComponentPad*%
%ADD10R,1.700000X1.700000*%
%TD*%
%TA.AperFunction,ComponentPad*%
%ADD11O,1.700000X1.700000*%
%TD*%
%TA.AperFunction,ComponentPad*%
%ADD12R,3.800000X3.800000*%
%TD*%
%TA.AperFunction,ComponentPad*%
%ADD13C,4.000000*%
%TD*%
%TA.AperFunction,ViaPad*%
%ADD14C,0.450000*%
%TD*%
G04 APERTURE END LIST*
D10*
%TO.P,J6,1,Pin_1*%
%TO.N,/VS*%
X58445000Y-60208008D03*
D11*
%TO.P,J6,2,Pin_2*%
%TO.N,GNDREF*%
X58445000Y-62748008D03*
%TO.P,J6,3,Pin_3*%
%TO.N,/3V3_CAM1*%
X58445000Y-65288008D03*
%TO.P,J6,4,Pin_4*%
%TO.N,/GPIO3{slash}TX_CAM1*%
X58445000Y-67828008D03*
%TO.P,J6,5,Pin_5*%
%TO.N,/SYNC*%
X58445000Y-70368008D03*
%TO.P,J6,6,Pin_6*%
%TO.N,GNDREF*%
X58445000Y-72908008D03*
%TO.P,J6,7,Pin_7*%
%TO.N,/OPTO_GND_CAM1*%
X58445000Y-75448008D03*
%TO.P,J6,8,Pin_8*%
%TO.N,/OPTO_OUT_CAM1*%
X58445000Y-77988008D03*
%TO.P,J6,9,Pin_9*%
%TO.N,/OPTO_IN_CAM1*%
X58445000Y-80528008D03*
%TD*%
D10*
%TO.P,J4,1,Pin_1*%
%TO.N,/VS*%
X90932000Y-60208000D03*
D11*
%TO.P,J4,2,Pin_2*%
%TO.N,GNDREF*%
X90932000Y-62748000D03*
%TO.P,J4,3,Pin_3*%
%TO.N,/3V3_CAM2*%
X90932000Y-65288000D03*
%TO.P,J4,4,Pin_4*%
%TO.N,/GPIO3{slash}TX_CAM2*%
X90932000Y-67828000D03*
%TO.P,J4,5,Pin_5*%
%TO.N,/SYNC*%
X90932000Y-70368000D03*
%TO.P,J4,6,Pin_6*%
%TO.N,GNDREF*%
X90932000Y-72908000D03*
%TO.P,J4,7,Pin_7*%
%TO.N,/OPTO_GND_CAM2*%
X90932000Y-75448000D03*
%TO.P,J4,8,Pin_8*%
%TO.N,/OPTO_OUT_CAM2*%
X90932000Y-77988000D03*
%TO.P,J4,9,Pin_9*%
%TO.N,/OPTO_IN_CAM2*%
X90932000Y-80528000D03*
%TD*%
D10*
%TO.P,J5,1,Pin_1*%
%TO.N,VBUS*%
X66304000Y-84836000D03*
D11*
%TO.P,J5,2,Pin_2*%
%TO.N,/TX1*%
X68844000Y-84836000D03*
%TO.P,J5,3,Pin_3*%
%TO.N,/RX1*%
X71384000Y-84836000D03*
%TO.P,J5,4,Pin_4*%
%TO.N,/SYNC*%
X73924000Y-84836000D03*
%TO.P,J5,5,Pin_5*%
%TO.N,GNDREF*%
X76464000Y-84836000D03*
%TO.P,J5,6,Pin_6*%
%TO.N,/RESTORE*%
X79004000Y-84836000D03*
%TO.P,J5,7,Pin_7*%
%TO.N,/SYNC_IN*%
X81544000Y-84836000D03*
%TO.P,J5,8,Pin_8*%
%TO.N,/TX2*%
X84084000Y-84836000D03*
%TO.P,J5,9,Pin_9*%
%TO.N,/RX2*%
X86624000Y-84836000D03*
%TD*%
D12*
%TO.P,J1,1,Pin_1*%
%TO.N,/VS*%
X81066000Y-54102000D03*
D13*
%TO.P,J1,2,Pin_2*%
%TO.N,GNDREF*%
X86066000Y-54102000D03*
%TD*%
D10*
%TO.P,J7,1,Pin_1*%
%TO.N,/VS*%
X94512994Y-60208008D03*
D11*
%TO.P,J7,2,Pin_2*%
%TO.N,GNDREF*%
X94512994Y-62748008D03*
%TO.P,J7,3,Pin_3*%
%TO.N,/3V3_CAM2*%
X94512994Y-65288008D03*
%TO.P,J7,4,Pin_4*%
%TO.N,/GPIO3{slash}TX_CAM2*%
X94512994Y-67828008D03*
%TO.P,J7,5,Pin_5*%
%TO.N,/SYNC*%
X94512994Y-70368008D03*
%TO.P,J7,6,Pin_6*%
%TO.N,GNDREF*%
X94512994Y-72908008D03*
%TO.P,J7,7,Pin_7*%
%TO.N,/OPTO_GND_CAM2*%
X94512994Y-75448008D03*
%TO.P,J7,8,Pin_8*%
%TO.N,/OPTO_OUT_CAM2*%
X94512994Y-77988008D03*
%TO.P,J7,9,Pin_9*%
%TO.N,/OPTO_IN_CAM2*%
X94512994Y-80528008D03*
%TD*%
D10*
%TO.P,J8,1,Pin_1*%
%TO.N,VBUS*%
X66304000Y-88367000D03*
D11*
%TO.P,J8,2,Pin_2*%
%TO.N,/TX1*%
X68844000Y-88367000D03*
%TO.P,J8,3,Pin_3*%
%TO.N,/RX1*%
X71384000Y-88367000D03*
%TO.P,J8,4,Pin_4*%
%TO.N,/SYNC*%
X73924000Y-88367000D03*
%TO.P,J8,5,Pin_5*%
%TO.N,GNDREF*%
X76464000Y-88367000D03*
%TO.P,J8,6,Pin_6*%
%TO.N,/RESTORE*%
X79004000Y-88367000D03*
%TO.P,J8,7,Pin_7*%
%TO.N,/SYNC_IN*%
X81544000Y-88367000D03*
%TO.P,J8,8,Pin_8*%
%TO.N,/TX2*%
X84084000Y-88367000D03*
%TO.P,J8,9,Pin_9*%
%TO.N,/RX2*%
X86624000Y-88367000D03*
%TD*%
D10*
%TO.P,J3,1,Pin_1*%
%TO.N,/VS*%
X61976000Y-60208008D03*
D11*
%TO.P,J3,2,Pin_2*%
%TO.N,GNDREF*%
X61976000Y-62748008D03*
%TO.P,J3,3,Pin_3*%
%TO.N,/3V3_CAM1*%
X61976000Y-65288008D03*
%TO.P,J3,4,Pin_4*%
%TO.N,/GPIO3{slash}TX_CAM1*%
X61976000Y-67828008D03*
%TO.P,J3,5,Pin_5*%
%TO.N,/SYNC*%
X61976000Y-70368008D03*
%TO.P,J3,6,Pin_6*%
%TO.N,GNDREF*%
X61976000Y-72908008D03*
%TO.P,J3,7,Pin_7*%
%TO.N,/OPTO_GND_CAM1*%
X61976000Y-75448008D03*
%TO.P,J3,8,Pin_8*%
%TO.N,/OPTO_OUT_CAM1*%
X61976000Y-77988008D03*
%TO.P,J3,9,Pin_9*%
%TO.N,/OPTO_IN_CAM1*%
X61976000Y-80528008D03*
%TD*%
D14*
%TO.N,VBUS*%
X72390000Y-62738000D03*
X74930000Y-65024000D03*
X72136000Y-66802000D03*
X74930000Y-67818000D03*
X74930000Y-62738000D03*
X72136000Y-65786000D03*
X74930000Y-66802000D03*
%TO.N,GNDREF*%
X71120000Y-61722000D03*
X68326000Y-60198000D03*
X65786000Y-56134000D03*
X68580000Y-56388000D03*
X65786000Y-54864000D03*
X71882000Y-69596000D03*
X72898000Y-66802000D03*
X68834000Y-67056000D03*
X73914000Y-55118000D03*
X65786000Y-53594000D03*
X70358000Y-69596000D03*
X73914000Y-53594000D03*
X73152000Y-69596000D03*
X69088000Y-69596000D03*
%TO.N,+3V3*%
X71120000Y-67818000D03*
X74168000Y-63754000D03*
%TO.N,/D-*%
X70612000Y-67056000D03*
X70454000Y-56408223D03*
%TO.N,/D+*%
X69754000Y-56408223D03*
X69596000Y-67056000D03*
%TO.N,/TX2*%
X65532000Y-64262000D03*
%TO.N,/RX2*%
X66294000Y-63246000D03*
%TD*%
%TA.AperFunction,Conductor*%
%TO.N,+3V3*%
G36*
X74176188Y-63247078D02*
G01*
X74283034Y-63261145D01*
X74314805Y-63269658D01*
X74406676Y-63307712D01*
X74435162Y-63324159D01*
X74514050Y-63384692D01*
X74537308Y-63407950D01*
X74597841Y-63486838D01*
X74614288Y-63515324D01*
X74652342Y-63607195D01*
X74660855Y-63638966D01*
X74674922Y-63745812D01*
X74676000Y-63762259D01*
X74676000Y-63995589D01*
X74673579Y-64020171D01*
X74661554Y-64080622D01*
X74642740Y-64126042D01*
X74615529Y-64166766D01*
X74580766Y-64201529D01*
X74540042Y-64228740D01*
X74494622Y-64247554D01*
X74421998Y-64262000D01*
X74168000Y-64262000D01*
X74168000Y-67555741D01*
X74166922Y-67572188D01*
X74152855Y-67679034D01*
X74144342Y-67710805D01*
X74106288Y-67802676D01*
X74089841Y-67831162D01*
X74029308Y-67910050D01*
X74006050Y-67933308D01*
X73927162Y-67993841D01*
X73898676Y-68010288D01*
X73806805Y-68048342D01*
X73775034Y-68056855D01*
X73668188Y-68070922D01*
X73651741Y-68072000D01*
X71132411Y-68072000D01*
X71107829Y-68069579D01*
X71047378Y-68057554D01*
X71001958Y-68038740D01*
X70961234Y-68011529D01*
X70926471Y-67976766D01*
X70899260Y-67936042D01*
X70880446Y-67890622D01*
X70870890Y-67842582D01*
X70870890Y-67793418D01*
X70880446Y-67745378D01*
X70899260Y-67699958D01*
X70926471Y-67659234D01*
X70961234Y-67624471D01*
X71001958Y-67597260D01*
X71047378Y-67578446D01*
X71107829Y-67566421D01*
X71132411Y-67564000D01*
X73152000Y-67564000D01*
X73152000Y-67208761D01*
X73207439Y-67174721D01*
X73299612Y-67072890D01*
X73310663Y-67050082D01*
X73355585Y-66957362D01*
X73355585Y-66957361D01*
X73359499Y-66949283D01*
X73382286Y-66813836D01*
X73382431Y-66802000D01*
X73381584Y-66796082D01*
X73364232Y-66674923D01*
X73364232Y-66674921D01*
X73362959Y-66666036D01*
X73306110Y-66541003D01*
X73216453Y-66436951D01*
X73208918Y-66432067D01*
X73202156Y-66426168D01*
X73203130Y-66425051D01*
X73163184Y-66378589D01*
X73152000Y-66326691D01*
X73152000Y-63762259D01*
X73153078Y-63745812D01*
X73167145Y-63638966D01*
X73175658Y-63607195D01*
X73213712Y-63515324D01*
X73230159Y-63486838D01*
X73290692Y-63407950D01*
X73313950Y-63384692D01*
X73392838Y-63324159D01*
X73421324Y-63307712D01*
X73513195Y-63269658D01*
X73544966Y-63261145D01*
X73651812Y-63247078D01*
X73668259Y-63246000D01*
X74159741Y-63246000D01*
X74176188Y-63247078D01*
G37*
%TD.AperFunction*%
%TD*%
%TA.AperFunction,Conductor*%
%TO.N,/VS*%
G36*
X93713103Y-51056921D02*
G01*
X93726000Y-51059486D01*
X93738172Y-51057065D01*
X93750580Y-51057065D01*
X93750580Y-51057385D01*
X93761456Y-51056645D01*
X93794145Y-51058622D01*
X93993880Y-51070704D01*
X94008984Y-51072538D01*
X94265458Y-51119538D01*
X94280231Y-51123179D01*
X94529180Y-51200755D01*
X94543398Y-51206147D01*
X94781182Y-51313165D01*
X94794638Y-51320227D01*
X95017788Y-51455126D01*
X95030310Y-51463769D01*
X95235573Y-51624583D01*
X95246961Y-51634673D01*
X95431327Y-51819039D01*
X95441417Y-51830427D01*
X95595102Y-52026590D01*
X95602231Y-52035690D01*
X95610873Y-52048211D01*
X95745773Y-52271362D01*
X95752835Y-52284818D01*
X95859851Y-52522598D01*
X95865245Y-52536820D01*
X95928722Y-52740524D01*
X95942821Y-52785769D01*
X95946462Y-52800542D01*
X95993462Y-53057016D01*
X95995296Y-53072120D01*
X96009355Y-53304544D01*
X96008615Y-53315420D01*
X96008935Y-53315420D01*
X96008935Y-53327828D01*
X96006514Y-53340000D01*
X96008935Y-53352170D01*
X96009079Y-53352894D01*
X96011500Y-53377476D01*
X96011500Y-58997964D01*
X95991498Y-59066085D01*
X95937842Y-59112578D01*
X95867568Y-59122682D01*
X95802988Y-59093188D01*
X95784674Y-59073529D01*
X95731279Y-59002284D01*
X95718718Y-58989723D01*
X95616643Y-58913222D01*
X95601048Y-58904684D01*
X95480600Y-58859530D01*
X95465345Y-58855903D01*
X95414480Y-58850377D01*
X95407666Y-58850008D01*
X94785109Y-58850008D01*
X94769870Y-58854483D01*
X94768665Y-58855873D01*
X94766994Y-58863556D01*
X94766994Y-60336008D01*
X94746992Y-60404129D01*
X94693336Y-60450622D01*
X94640994Y-60462008D01*
X93173110Y-60462008D01*
X93157871Y-60466483D01*
X93156666Y-60467873D01*
X93154995Y-60475556D01*
X93154995Y-61102677D01*
X93155365Y-61109498D01*
X93160889Y-61160360D01*
X93164516Y-61175614D01*
X93210310Y-61297771D01*
X93215493Y-61368578D01*
X93181572Y-61430947D01*
X93119317Y-61465076D01*
X93092328Y-61468000D01*
X92352663Y-61468000D01*
X92284542Y-61447998D01*
X92238049Y-61394342D01*
X92227945Y-61324068D01*
X92234681Y-61297771D01*
X92280478Y-61175609D01*
X92284105Y-61160351D01*
X92289631Y-61109486D01*
X92290000Y-61102672D01*
X92290000Y-60480115D01*
X92285525Y-60464876D01*
X92284135Y-60463671D01*
X92276452Y-60462000D01*
X89592116Y-60462000D01*
X89576877Y-60466475D01*
X89575672Y-60467865D01*
X89574001Y-60475548D01*
X89574001Y-61102669D01*
X89574371Y-61109490D01*
X89579895Y-61160352D01*
X89583522Y-61175606D01*
X89629319Y-61297771D01*
X89634502Y-61368578D01*
X89600581Y-61430947D01*
X89538326Y-61465076D01*
X89511337Y-61468000D01*
X89280000Y-61468000D01*
X89211879Y-61447998D01*
X89165386Y-61394342D01*
X89154000Y-61342000D01*
X89154000Y-59935885D01*
X89574000Y-59935885D01*
X89578475Y-59951124D01*
X89579865Y-59952329D01*
X89587548Y-59954000D01*
X90659885Y-59954000D01*
X90675124Y-59949525D01*
X90676329Y-59948135D01*
X90678000Y-59940452D01*
X90678000Y-59935885D01*
X91186000Y-59935885D01*
X91190475Y-59951124D01*
X91191865Y-59952329D01*
X91199548Y-59954000D01*
X92271884Y-59954000D01*
X92287123Y-59949525D01*
X92288328Y-59948135D01*
X92289999Y-59940452D01*
X92289999Y-59935893D01*
X93154994Y-59935893D01*
X93159469Y-59951132D01*
X93160859Y-59952337D01*
X93168542Y-59954008D01*
X94240879Y-59954008D01*
X94256118Y-59949533D01*
X94257323Y-59948143D01*
X94258994Y-59940460D01*
X94258994Y-58868124D01*
X94254519Y-58852885D01*
X94253129Y-58851680D01*
X94245446Y-58850009D01*
X93618325Y-58850009D01*
X93611504Y-58850379D01*
X93560642Y-58855903D01*
X93545390Y-58859529D01*
X93424940Y-58904684D01*
X93409345Y-58913222D01*
X93307270Y-58989723D01*
X93294709Y-59002284D01*
X93218208Y-59104359D01*
X93209670Y-59119954D01*
X93164516Y-59240402D01*
X93160889Y-59255657D01*
X93155363Y-59306522D01*
X93154994Y-59313336D01*
X93154994Y-59935893D01*
X92289999Y-59935893D01*
X92289999Y-59313331D01*
X92289629Y-59306510D01*
X92284105Y-59255648D01*
X92280479Y-59240396D01*
X92235324Y-59119946D01*
X92226786Y-59104351D01*
X92150285Y-59002276D01*
X92137724Y-58989715D01*
X92035649Y-58913214D01*
X92020054Y-58904676D01*
X91899606Y-58859522D01*
X91884351Y-58855895D01*
X91833486Y-58850369D01*
X91826672Y-58850000D01*
X91204115Y-58850000D01*
X91188876Y-58854475D01*
X91187671Y-58855865D01*
X91186000Y-58863548D01*
X91186000Y-59935885D01*
X90678000Y-59935885D01*
X90678000Y-58868116D01*
X90673525Y-58852877D01*
X90672135Y-58851672D01*
X90664452Y-58850001D01*
X90037331Y-58850001D01*
X90030510Y-58850371D01*
X89979648Y-58855895D01*
X89964396Y-58859521D01*
X89843946Y-58904676D01*
X89828351Y-58913214D01*
X89726276Y-58989715D01*
X89713715Y-59002276D01*
X89637214Y-59104351D01*
X89628676Y-59119946D01*
X89583522Y-59240394D01*
X89579895Y-59255649D01*
X89574369Y-59306514D01*
X89574000Y-59313328D01*
X89574000Y-59935885D01*
X89154000Y-59935885D01*
X89154000Y-57150000D01*
X76326000Y-57150000D01*
X76257879Y-57129998D01*
X76211386Y-57076342D01*
X76200000Y-57024000D01*
X76200000Y-56046669D01*
X78658001Y-56046669D01*
X78658371Y-56053490D01*
X78663895Y-56104352D01*
X78667521Y-56119604D01*
X78712676Y-56240054D01*
X78721214Y-56255649D01*
X78797715Y-56357724D01*
X78810276Y-56370285D01*
X78912351Y-56446786D01*
X78927946Y-56455324D01*
X79048394Y-56500478D01*
X79063649Y-56504105D01*
X79114514Y-56509631D01*
X79121328Y-56510000D01*
X80793885Y-56510000D01*
X80809124Y-56505525D01*
X80810329Y-56504135D01*
X80812000Y-56496452D01*
X80812000Y-56491884D01*
X81320000Y-56491884D01*
X81324475Y-56507123D01*
X81325865Y-56508328D01*
X81333548Y-56509999D01*
X83010669Y-56509999D01*
X83017490Y-56509629D01*
X83068352Y-56504105D01*
X83083604Y-56500479D01*
X83204054Y-56455324D01*
X83219649Y-56446786D01*
X83321724Y-56370285D01*
X83334285Y-56357724D01*
X83410786Y-56255649D01*
X83419324Y-56240054D01*
X83464478Y-56119606D01*
X83468105Y-56104351D01*
X83473631Y-56053486D01*
X83474000Y-56046672D01*
X83474000Y-54374115D01*
X83469525Y-54358876D01*
X83468135Y-54357671D01*
X83460452Y-54356000D01*
X81338115Y-54356000D01*
X81322876Y-54360475D01*
X81321671Y-54361865D01*
X81320000Y-54369548D01*
X81320000Y-56491884D01*
X80812000Y-56491884D01*
X80812000Y-54374115D01*
X80807525Y-54358876D01*
X80806135Y-54357671D01*
X80798452Y-54356000D01*
X78676116Y-54356000D01*
X78660877Y-54360475D01*
X78659672Y-54361865D01*
X78658001Y-54369548D01*
X78658001Y-56046669D01*
X76200000Y-56046669D01*
X76200000Y-55372000D01*
X74506514Y-55372000D01*
X74438393Y-55351998D01*
X74391900Y-55298342D01*
X74382260Y-55225096D01*
X74397479Y-55134633D01*
X74398286Y-55129836D01*
X74398431Y-55118000D01*
X74397584Y-55112082D01*
X74380232Y-54990923D01*
X74380232Y-54990921D01*
X74378959Y-54982036D01*
X74322110Y-54857003D01*
X74232453Y-54752951D01*
X74117196Y-54678244D01*
X73985603Y-54638890D01*
X73976627Y-54638835D01*
X73976626Y-54638835D01*
X73919080Y-54638484D01*
X73848255Y-54638051D01*
X73716192Y-54675795D01*
X73708605Y-54680582D01*
X73708603Y-54680583D01*
X73688036Y-54693560D01*
X73600031Y-54749087D01*
X73509109Y-54852036D01*
X73505295Y-54860159D01*
X73505294Y-54860161D01*
X73477136Y-54920136D01*
X73450736Y-54976366D01*
X73444042Y-55019362D01*
X73430986Y-55103209D01*
X73430986Y-55103213D01*
X73429605Y-55112082D01*
X73430769Y-55120984D01*
X73430769Y-55120987D01*
X73444980Y-55229663D01*
X73433980Y-55299802D01*
X73386805Y-55352860D01*
X73320044Y-55372000D01*
X66256991Y-55372000D01*
X66188870Y-55351998D01*
X66142377Y-55298342D01*
X66132273Y-55228068D01*
X66163574Y-55161446D01*
X66187612Y-55134890D01*
X66198135Y-55113172D01*
X66243585Y-55019362D01*
X66243585Y-55019361D01*
X66247499Y-55011283D01*
X66270286Y-54875836D01*
X66270431Y-54864000D01*
X66269584Y-54858082D01*
X66252232Y-54736923D01*
X66252232Y-54736921D01*
X66250959Y-54728036D01*
X66194110Y-54603003D01*
X66104453Y-54498951D01*
X65989196Y-54424244D01*
X65857603Y-54384890D01*
X65848627Y-54384835D01*
X65848626Y-54384835D01*
X65791080Y-54384484D01*
X65720255Y-54384051D01*
X65588192Y-54421795D01*
X65580605Y-54426582D01*
X65580603Y-54426583D01*
X65532505Y-54456931D01*
X65472031Y-54495087D01*
X65466088Y-54501816D01*
X65400706Y-54575847D01*
X65381109Y-54598036D01*
X65377295Y-54606159D01*
X65377294Y-54606161D01*
X65369757Y-54622214D01*
X65322736Y-54722366D01*
X65318576Y-54749087D01*
X65302986Y-54849209D01*
X65302986Y-54849213D01*
X65301605Y-54858082D01*
X65302769Y-54866984D01*
X65302769Y-54866987D01*
X65304554Y-54880633D01*
X65319414Y-54994273D01*
X65374732Y-55119992D01*
X65380510Y-55126865D01*
X65380510Y-55126866D01*
X65412502Y-55164925D01*
X65441023Y-55229941D01*
X65429867Y-55300055D01*
X65382575Y-55353008D01*
X65316051Y-55372000D01*
X63754000Y-55372000D01*
X63754000Y-61342000D01*
X63733998Y-61410121D01*
X63680342Y-61456614D01*
X63628000Y-61468000D01*
X63396666Y-61468000D01*
X63328545Y-61447998D01*
X63282052Y-61394342D01*
X63271948Y-61324068D01*
X63278684Y-61297771D01*
X63324478Y-61175617D01*
X63328105Y-61160359D01*
X63333631Y-61109494D01*
X63334000Y-61102680D01*
X63334000Y-60480123D01*
X63329525Y-60464884D01*
X63328135Y-60463679D01*
X63320452Y-60462008D01*
X60636116Y-60462008D01*
X60620877Y-60466483D01*
X60619672Y-60467873D01*
X60618001Y-60475556D01*
X60618001Y-61102677D01*
X60618371Y-61109498D01*
X60623895Y-61160360D01*
X60627522Y-61175614D01*
X60673316Y-61297771D01*
X60678499Y-61368578D01*
X60644578Y-61430947D01*
X60582323Y-61465076D01*
X60555334Y-61468000D01*
X59865666Y-61468000D01*
X59797545Y-61447998D01*
X59751052Y-61394342D01*
X59740948Y-61324068D01*
X59747684Y-61297771D01*
X59793478Y-61175617D01*
X59797105Y-61160359D01*
X59802631Y-61109494D01*
X59803000Y-61102680D01*
X59803000Y-60480123D01*
X59798525Y-60464884D01*
X59797135Y-60463679D01*
X59789452Y-60462008D01*
X58317000Y-60462008D01*
X58248879Y-60442006D01*
X58202386Y-60388350D01*
X58191000Y-60336008D01*
X58191000Y-59935893D01*
X58699000Y-59935893D01*
X58703475Y-59951132D01*
X58704865Y-59952337D01*
X58712548Y-59954008D01*
X59784884Y-59954008D01*
X59800123Y-59949533D01*
X59801328Y-59948143D01*
X59802999Y-59940460D01*
X59802999Y-59935893D01*
X60618000Y-59935893D01*
X60622475Y-59951132D01*
X60623865Y-59952337D01*
X60631548Y-59954008D01*
X61703885Y-59954008D01*
X61719124Y-59949533D01*
X61720329Y-59948143D01*
X61722000Y-59940460D01*
X61722000Y-59935893D01*
X62230000Y-59935893D01*
X62234475Y-59951132D01*
X62235865Y-59952337D01*
X62243548Y-59954008D01*
X63315884Y-59954008D01*
X63331123Y-59949533D01*
X63332328Y-59948143D01*
X63333999Y-59940460D01*
X63333999Y-59313339D01*
X63333629Y-59306518D01*
X63328105Y-59255656D01*
X63324479Y-59240404D01*
X63279324Y-59119954D01*
X63270786Y-59104359D01*
X63194285Y-59002284D01*
X63181724Y-58989723D01*
X63079649Y-58913222D01*
X63064054Y-58904684D01*
X62943606Y-58859530D01*
X62928351Y-58855903D01*
X62877486Y-58850377D01*
X62870672Y-58850008D01*
X62248115Y-58850008D01*
X62232876Y-58854483D01*
X62231671Y-58855873D01*
X62230000Y-58863556D01*
X62230000Y-59935893D01*
X61722000Y-59935893D01*
X61722000Y-58868124D01*
X61717525Y-58852885D01*
X61716135Y-58851680D01*
X61708452Y-58850009D01*
X61081331Y-58850009D01*
X61074510Y-58850379D01*
X61023648Y-58855903D01*
X61008396Y-58859529D01*
X60887946Y-58904684D01*
X60872351Y-58913222D01*
X60770276Y-58989723D01*
X60757715Y-59002284D01*
X60681214Y-59104359D01*
X60672676Y-59119954D01*
X60627522Y-59240402D01*
X60623895Y-59255657D01*
X60618369Y-59306522D01*
X60618000Y-59313336D01*
X60618000Y-59935893D01*
X59802999Y-59935893D01*
X59802999Y-59313339D01*
X59802629Y-59306518D01*
X59797105Y-59255656D01*
X59793479Y-59240404D01*
X59748324Y-59119954D01*
X59739786Y-59104359D01*
X59663285Y-59002284D01*
X59650724Y-58989723D01*
X59548649Y-58913222D01*
X59533054Y-58904684D01*
X59412606Y-58859530D01*
X59397351Y-58855903D01*
X59346486Y-58850377D01*
X59339672Y-58850008D01*
X58717115Y-58850008D01*
X58701876Y-58854483D01*
X58700671Y-58855873D01*
X58699000Y-58863556D01*
X58699000Y-59935893D01*
X58191000Y-59935893D01*
X58191000Y-58868124D01*
X58186525Y-58852885D01*
X58185135Y-58851680D01*
X58177452Y-58850009D01*
X57550331Y-58850009D01*
X57543510Y-58850379D01*
X57492648Y-58855903D01*
X57477396Y-58859529D01*
X57356946Y-58904684D01*
X57341351Y-58913222D01*
X57239276Y-58989723D01*
X57226715Y-59002284D01*
X57150214Y-59104359D01*
X57141675Y-59119956D01*
X57140482Y-59123138D01*
X57138456Y-59125835D01*
X57137366Y-59127826D01*
X57137079Y-59127669D01*
X57097841Y-59179903D01*
X57031279Y-59204603D01*
X56961930Y-59189396D01*
X56911812Y-59139110D01*
X56896500Y-59078909D01*
X56896500Y-53377476D01*
X56898921Y-53352894D01*
X56899065Y-53352170D01*
X56901486Y-53340000D01*
X56899065Y-53327828D01*
X56899065Y-53315420D01*
X56899385Y-53315420D01*
X56898645Y-53304544D01*
X56900374Y-53275964D01*
X57824112Y-53275964D01*
X57824312Y-53281292D01*
X57824312Y-53281294D01*
X57826464Y-53338599D01*
X57825705Y-53338628D01*
X57826034Y-53340016D01*
X57826340Y-53339989D01*
X57826374Y-53340377D01*
X57826465Y-53341838D01*
X57826523Y-53342085D01*
X57826648Y-53343507D01*
X57832736Y-53505669D01*
X57833831Y-53510888D01*
X57846628Y-53571879D01*
X57845861Y-53572040D01*
X57846841Y-53574316D01*
X57846937Y-53575408D01*
X57848361Y-53580722D01*
X57848464Y-53581307D01*
X57849635Y-53586210D01*
X57879939Y-53730637D01*
X57887334Y-53749362D01*
X57905975Y-53796566D01*
X57906724Y-53798541D01*
X57908097Y-53803663D01*
X57910422Y-53808649D01*
X57910423Y-53808651D01*
X57910947Y-53809775D01*
X57913934Y-53816717D01*
X57964372Y-53944436D01*
X58001273Y-54005246D01*
X58002811Y-54008126D01*
X58002890Y-54008080D01*
X58005639Y-54012841D01*
X58007965Y-54017829D01*
X58011122Y-54022337D01*
X58011124Y-54022341D01*
X58012674Y-54024555D01*
X58017181Y-54031462D01*
X58032279Y-54056342D01*
X58083621Y-54140952D01*
X58087116Y-54144979D01*
X58087117Y-54144981D01*
X58133993Y-54199000D01*
X58137555Y-54203563D01*
X58140347Y-54206890D01*
X58143505Y-54211401D01*
X58149791Y-54217687D01*
X58155861Y-54224201D01*
X58234276Y-54314566D01*
X58238407Y-54317953D01*
X58298309Y-54367070D01*
X58305574Y-54373652D01*
X58306706Y-54374602D01*
X58310599Y-54378495D01*
X58315103Y-54381649D01*
X58315108Y-54381653D01*
X58317936Y-54383633D01*
X58325554Y-54389410D01*
X58407901Y-54456931D01*
X58407907Y-54456935D01*
X58412029Y-54460315D01*
X58471324Y-54494067D01*
X58489355Y-54504331D01*
X58499296Y-54510622D01*
X58499660Y-54510877D01*
X58499667Y-54510881D01*
X58504171Y-54514035D01*
X58509155Y-54516359D01*
X58509160Y-54516362D01*
X58511875Y-54517628D01*
X58520952Y-54522318D01*
X58565061Y-54547426D01*
X58611798Y-54574030D01*
X58691616Y-54603003D01*
X58701498Y-54606590D01*
X58711753Y-54610833D01*
X58713348Y-54611577D01*
X58713350Y-54611578D01*
X58718337Y-54613903D01*
X58723653Y-54615327D01*
X58723655Y-54615328D01*
X58724719Y-54615613D01*
X58725702Y-54615876D01*
X58736081Y-54619143D01*
X58827871Y-54652461D01*
X58928443Y-54670648D01*
X58938616Y-54672926D01*
X58946592Y-54675063D01*
X58952990Y-54675623D01*
X58964412Y-54677152D01*
X59054069Y-54693364D01*
X59058208Y-54693559D01*
X59058215Y-54693560D01*
X59076670Y-54694430D01*
X59076677Y-54694430D01*
X59078158Y-54694500D01*
X59239712Y-54694500D01*
X59330941Y-54686759D01*
X59405733Y-54680413D01*
X59405737Y-54680412D01*
X59411044Y-54679962D01*
X59416199Y-54678624D01*
X59416205Y-54678623D01*
X59628368Y-54623556D01*
X59628367Y-54623556D01*
X59633539Y-54622214D01*
X59780412Y-54556052D01*
X59838262Y-54529993D01*
X59838265Y-54529992D01*
X59843123Y-54527803D01*
X60033803Y-54399430D01*
X60047339Y-54386518D01*
X60196271Y-54244443D01*
X60200128Y-54240764D01*
X60303371Y-54102000D01*
X83806663Y-54102000D01*
X83806933Y-54106119D01*
X83825205Y-54384890D01*
X83825992Y-54396903D01*
X83826796Y-54400943D01*
X83826796Y-54400946D01*
X83882420Y-54680583D01*
X83883648Y-54686759D01*
X83884973Y-54690663D01*
X83884974Y-54690666D01*
X83908426Y-54759753D01*
X83978645Y-54966611D01*
X83996310Y-55002432D01*
X84106134Y-55225132D01*
X84109357Y-55231668D01*
X84273547Y-55477397D01*
X84468407Y-55699593D01*
X84690603Y-55894453D01*
X84936331Y-56058643D01*
X84940030Y-56060467D01*
X84940035Y-56060470D01*
X85029020Y-56104352D01*
X85201389Y-56189355D01*
X85205294Y-56190680D01*
X85205295Y-56190681D01*
X85477334Y-56283026D01*
X85477337Y-56283027D01*
X85481241Y-56284352D01*
X85485280Y-56285155D01*
X85485286Y-56285157D01*
X85767054Y-56341204D01*
X85767057Y-56341204D01*
X85771097Y-56342008D01*
X85775208Y-56342277D01*
X85775212Y-56342278D01*
X86061881Y-56361067D01*
X86066000Y-56361337D01*
X86070119Y-56361067D01*
X86356788Y-56342278D01*
X86356792Y-56342277D01*
X86360903Y-56342008D01*
X86364943Y-56341204D01*
X86364946Y-56341204D01*
X86646714Y-56285157D01*
X86646720Y-56285155D01*
X86650759Y-56284352D01*
X86654663Y-56283027D01*
X86654666Y-56283026D01*
X86926705Y-56190681D01*
X86926706Y-56190680D01*
X86930611Y-56189355D01*
X87102980Y-56104352D01*
X87191965Y-56060470D01*
X87191970Y-56060467D01*
X87195669Y-56058643D01*
X87441397Y-55894453D01*
X87663593Y-55699593D01*
X87858453Y-55477397D01*
X88022643Y-55231668D01*
X88025867Y-55225132D01*
X88135690Y-55002432D01*
X88153355Y-54966611D01*
X88223574Y-54759753D01*
X88247026Y-54690666D01*
X88247027Y-54690663D01*
X88248352Y-54686759D01*
X88249581Y-54680583D01*
X88305204Y-54400946D01*
X88305204Y-54400943D01*
X88306008Y-54396903D01*
X88306796Y-54384890D01*
X88325067Y-54106119D01*
X88325337Y-54102000D01*
X88314685Y-53939476D01*
X88306278Y-53811212D01*
X88306277Y-53811208D01*
X88306008Y-53807097D01*
X88291785Y-53735591D01*
X88249157Y-53521286D01*
X88249155Y-53521280D01*
X88248352Y-53517241D01*
X88246196Y-53510888D01*
X88166450Y-53275964D01*
X92368112Y-53275964D01*
X92368312Y-53281292D01*
X92368312Y-53281294D01*
X92370464Y-53338599D01*
X92369705Y-53338628D01*
X92370034Y-53340016D01*
X92370340Y-53339989D01*
X92370374Y-53340377D01*
X92370465Y-53341838D01*
X92370523Y-53342085D01*
X92370648Y-53343507D01*
X92376736Y-53505669D01*
X92377831Y-53510888D01*
X92390628Y-53571879D01*
X92389861Y-53572040D01*
X92390841Y-53574316D01*
X92390937Y-53575408D01*
X92392361Y-53580722D01*
X92392464Y-53581307D01*
X92393635Y-53586210D01*
X92423939Y-53730637D01*
X92431334Y-53749362D01*
X92449975Y-53796566D01*
X92450724Y-53798541D01*
X92452097Y-53803663D01*
X92454422Y-53808649D01*
X92454423Y-53808651D01*
X92454947Y-53809775D01*
X92457934Y-53816717D01*
X92508372Y-53944436D01*
X92545273Y-54005246D01*
X92546811Y-54008126D01*
X92546890Y-54008080D01*
X92549639Y-54012841D01*
X92551965Y-54017829D01*
X92555122Y-54022337D01*
X92555124Y-54022341D01*
X92556674Y-54024555D01*
X92561181Y-54031462D01*
X92576279Y-54056342D01*
X92627621Y-54140952D01*
X92631116Y-54144979D01*
X92631117Y-54144981D01*
X92677993Y-54199000D01*
X92681555Y-54203563D01*
X92684346Y-54206888D01*
X92687505Y-54211401D01*
X92693791Y-54217687D01*
X92699861Y-54224201D01*
X92778276Y-54314566D01*
X92782407Y-54317953D01*
X92842309Y-54367070D01*
X92849574Y-54373652D01*
X92850706Y-54374602D01*
X92854599Y-54378495D01*
X92859103Y-54381649D01*
X92859108Y-54381653D01*
X92861936Y-54383633D01*
X92869554Y-54389410D01*
X92951901Y-54456931D01*
X92951907Y-54456935D01*
X92956029Y-54460315D01*
X93015324Y-54494067D01*
X93033355Y-54504331D01*
X93043296Y-54510622D01*
X93043660Y-54510877D01*
X93043667Y-54510881D01*
X93048171Y-54514035D01*
X93053155Y-54516359D01*
X93053160Y-54516362D01*
X93055875Y-54517628D01*
X93064952Y-54522318D01*
X93109061Y-54547426D01*
X93155798Y-54574030D01*
X93235616Y-54603003D01*
X93245498Y-54606590D01*
X93255753Y-54610833D01*
X93257348Y-54611577D01*
X93257350Y-54611578D01*
X93262337Y-54613903D01*
X93267653Y-54615327D01*
X93267655Y-54615328D01*
X93268719Y-54615613D01*
X93269702Y-54615876D01*
X93280081Y-54619143D01*
X93371871Y-54652461D01*
X93472443Y-54670648D01*
X93482616Y-54672926D01*
X93490592Y-54675063D01*
X93496990Y-54675623D01*
X93508412Y-54677152D01*
X93598069Y-54693364D01*
X93602208Y-54693559D01*
X93602215Y-54693560D01*
X93620670Y-54694430D01*
X93620677Y-54694430D01*
X93622158Y-54694500D01*
X93783712Y-54694500D01*
X93874941Y-54686759D01*
X93949733Y-54680413D01*
X93949737Y-54680412D01*
X93955044Y-54679962D01*
X93960199Y-54678624D01*
X93960205Y-54678623D01*
X94172368Y-54623556D01*
X94172367Y-54623556D01*
X94177539Y-54622214D01*
X94324412Y-54556052D01*
X94382262Y-54529993D01*
X94382265Y-54529992D01*
X94387123Y-54527803D01*
X94577803Y-54399430D01*
X94591339Y-54386518D01*
X94740271Y-54244443D01*
X94744128Y-54240764D01*
X94881342Y-54056342D01*
X94889168Y-54040951D01*
X94983102Y-53856194D01*
X94983102Y-53856193D01*
X94985520Y-53851438D01*
X95053685Y-53631911D01*
X95061642Y-53571879D01*
X95083188Y-53409319D01*
X95083188Y-53409316D01*
X95083888Y-53404036D01*
X95081536Y-53341401D01*
X95082295Y-53341372D01*
X95081966Y-53339984D01*
X95081660Y-53340011D01*
X95081626Y-53339623D01*
X95081535Y-53338162D01*
X95081477Y-53337915D01*
X95081352Y-53336493D01*
X95075264Y-53174331D01*
X95061372Y-53108121D01*
X95062139Y-53107960D01*
X95061159Y-53105684D01*
X95061063Y-53104592D01*
X95059639Y-53099278D01*
X95059536Y-53098693D01*
X95058362Y-53093778D01*
X95049886Y-53053378D01*
X95028061Y-52949363D01*
X95002025Y-52883434D01*
X95001276Y-52881459D01*
X94999903Y-52876337D01*
X94997053Y-52870225D01*
X94994066Y-52863283D01*
X94943628Y-52735564D01*
X94906727Y-52674754D01*
X94905189Y-52671874D01*
X94905110Y-52671920D01*
X94902361Y-52667159D01*
X94900035Y-52662171D01*
X94896876Y-52657659D01*
X94895326Y-52655445D01*
X94890819Y-52648538D01*
X94827147Y-52543609D01*
X94827145Y-52543606D01*
X94824379Y-52539048D01*
X94774007Y-52481000D01*
X94770445Y-52476437D01*
X94767652Y-52473108D01*
X94764495Y-52468599D01*
X94760604Y-52464708D01*
X94760599Y-52464702D01*
X94758209Y-52462313D01*
X94752139Y-52455799D01*
X94677224Y-52369467D01*
X94677222Y-52369465D01*
X94673724Y-52365434D01*
X94609692Y-52312930D01*
X94602426Y-52306348D01*
X94601294Y-52305398D01*
X94597401Y-52301505D01*
X94592897Y-52298351D01*
X94592892Y-52298347D01*
X94590064Y-52296367D01*
X94582446Y-52290590D01*
X94500099Y-52223069D01*
X94500093Y-52223065D01*
X94495971Y-52219685D01*
X94418645Y-52175669D01*
X94408704Y-52169378D01*
X94408340Y-52169123D01*
X94408333Y-52169119D01*
X94403829Y-52165965D01*
X94398845Y-52163641D01*
X94398840Y-52163638D01*
X94396125Y-52162372D01*
X94387048Y-52157682D01*
X94342939Y-52132574D01*
X94296202Y-52105970D01*
X94206502Y-52073410D01*
X94196247Y-52069167D01*
X94194652Y-52068423D01*
X94194650Y-52068422D01*
X94189663Y-52066097D01*
X94184347Y-52064673D01*
X94184345Y-52064672D01*
X94183281Y-52064387D01*
X94182298Y-52064124D01*
X94171919Y-52060857D01*
X94080129Y-52027539D01*
X93979557Y-52009352D01*
X93969384Y-52007074D01*
X93961408Y-52004937D01*
X93955010Y-52004377D01*
X93943588Y-52002848D01*
X93853931Y-51986636D01*
X93849792Y-51986441D01*
X93849785Y-51986440D01*
X93831330Y-51985570D01*
X93831323Y-51985570D01*
X93829842Y-51985500D01*
X93668288Y-51985500D01*
X93588556Y-51992265D01*
X93502267Y-51999587D01*
X93502263Y-51999588D01*
X93496956Y-52000038D01*
X93491801Y-52001376D01*
X93491795Y-52001377D01*
X93336484Y-52041688D01*
X93274461Y-52057786D01*
X93167497Y-52105970D01*
X93069738Y-52150007D01*
X93069735Y-52150008D01*
X93064877Y-52152197D01*
X92874197Y-52280570D01*
X92870340Y-52284249D01*
X92870338Y-52284251D01*
X92846226Y-52307253D01*
X92707872Y-52439236D01*
X92570658Y-52623658D01*
X92568242Y-52628409D01*
X92568240Y-52628413D01*
X92488237Y-52785769D01*
X92466480Y-52828562D01*
X92398315Y-53048089D01*
X92397614Y-53053378D01*
X92373442Y-53235753D01*
X92368112Y-53275964D01*
X88166450Y-53275964D01*
X88154681Y-53241295D01*
X88154680Y-53241294D01*
X88153355Y-53237389D01*
X88022643Y-52972332D01*
X87858453Y-52726603D01*
X87663593Y-52504407D01*
X87441397Y-52309547D01*
X87195669Y-52145357D01*
X87191970Y-52143533D01*
X87191965Y-52143530D01*
X87032056Y-52064672D01*
X86930611Y-52014645D01*
X86926705Y-52013319D01*
X86654666Y-51920974D01*
X86654663Y-51920973D01*
X86650759Y-51919648D01*
X86646720Y-51918845D01*
X86646714Y-51918843D01*
X86364946Y-51862796D01*
X86364943Y-51862796D01*
X86360903Y-51861992D01*
X86356792Y-51861723D01*
X86356788Y-51861722D01*
X86070119Y-51842933D01*
X86066000Y-51842663D01*
X86061881Y-51842933D01*
X85775212Y-51861722D01*
X85775208Y-51861723D01*
X85771097Y-51861992D01*
X85767057Y-51862796D01*
X85767054Y-51862796D01*
X85485286Y-51918843D01*
X85485280Y-51918845D01*
X85481241Y-51919648D01*
X85477337Y-51920973D01*
X85477334Y-51920974D01*
X85205295Y-52013319D01*
X85201389Y-52014645D01*
X85133322Y-52048212D01*
X84940036Y-52143530D01*
X84940031Y-52143533D01*
X84936332Y-52145357D01*
X84690603Y-52309547D01*
X84468407Y-52504407D01*
X84273547Y-52726603D01*
X84109357Y-52972332D01*
X83978645Y-53237389D01*
X83977320Y-53241294D01*
X83977319Y-53241295D01*
X83885805Y-53510888D01*
X83883648Y-53517241D01*
X83882845Y-53521280D01*
X83882843Y-53521286D01*
X83840215Y-53735591D01*
X83825992Y-53807097D01*
X83825723Y-53811208D01*
X83825722Y-53811212D01*
X83817315Y-53939476D01*
X83806663Y-54102000D01*
X60303371Y-54102000D01*
X60337342Y-54056342D01*
X60345168Y-54040951D01*
X60439102Y-53856194D01*
X60439102Y-53856193D01*
X60441520Y-53851438D01*
X60509685Y-53631911D01*
X60515494Y-53588082D01*
X65301605Y-53588082D01*
X65302769Y-53596984D01*
X65302769Y-53596987D01*
X65310510Y-53656178D01*
X65319414Y-53724273D01*
X65374732Y-53849992D01*
X65463111Y-53955132D01*
X65470588Y-53960109D01*
X65538379Y-54005234D01*
X65577447Y-54031240D01*
X65708549Y-54072199D01*
X65845876Y-54074716D01*
X65855109Y-54072199D01*
X65969727Y-54040951D01*
X65978391Y-54038589D01*
X66095439Y-53966721D01*
X66112153Y-53948256D01*
X66181584Y-53871550D01*
X66181585Y-53871549D01*
X66187612Y-53864890D01*
X66191826Y-53856194D01*
X66243585Y-53749362D01*
X66243585Y-53749361D01*
X66247499Y-53741283D01*
X66270286Y-53605836D01*
X66270431Y-53594000D01*
X66269584Y-53588082D01*
X73429605Y-53588082D01*
X73430769Y-53596984D01*
X73430769Y-53596987D01*
X73438510Y-53656178D01*
X73447414Y-53724273D01*
X73502732Y-53849992D01*
X73591111Y-53955132D01*
X73598588Y-53960109D01*
X73666379Y-54005234D01*
X73705447Y-54031240D01*
X73836549Y-54072199D01*
X73973876Y-54074716D01*
X73983109Y-54072199D01*
X74097727Y-54040951D01*
X74106391Y-54038589D01*
X74223439Y-53966721D01*
X74240153Y-53948256D01*
X74309584Y-53871550D01*
X74309585Y-53871549D01*
X74315612Y-53864890D01*
X74319826Y-53856194D01*
X74332572Y-53829885D01*
X78658000Y-53829885D01*
X78662475Y-53845124D01*
X78663865Y-53846329D01*
X78671548Y-53848000D01*
X80793885Y-53848000D01*
X80809124Y-53843525D01*
X80810329Y-53842135D01*
X80812000Y-53834452D01*
X80812000Y-53829885D01*
X81320000Y-53829885D01*
X81324475Y-53845124D01*
X81325865Y-53846329D01*
X81333548Y-53848000D01*
X83455884Y-53848000D01*
X83471123Y-53843525D01*
X83472328Y-53842135D01*
X83473999Y-53834452D01*
X83473999Y-52157331D01*
X83473629Y-52150510D01*
X83468105Y-52099648D01*
X83464479Y-52084396D01*
X83419324Y-51963946D01*
X83410786Y-51948351D01*
X83334285Y-51846276D01*
X83321724Y-51833715D01*
X83219649Y-51757214D01*
X83204054Y-51748676D01*
X83083606Y-51703522D01*
X83068351Y-51699895D01*
X83017486Y-51694369D01*
X83010672Y-51694000D01*
X81338115Y-51694000D01*
X81322876Y-51698475D01*
X81321671Y-51699865D01*
X81320000Y-51707548D01*
X81320000Y-53829885D01*
X80812000Y-53829885D01*
X80812000Y-51712116D01*
X80807525Y-51696877D01*
X80806135Y-51695672D01*
X80798452Y-51694001D01*
X79121331Y-51694001D01*
X79114510Y-51694371D01*
X79063648Y-51699895D01*
X79048396Y-51703521D01*
X78927946Y-51748676D01*
X78912351Y-51757214D01*
X78810276Y-51833715D01*
X78797715Y-51846276D01*
X78721214Y-51948351D01*
X78712676Y-51963946D01*
X78667522Y-52084394D01*
X78663895Y-52099649D01*
X78658369Y-52150514D01*
X78658000Y-52157328D01*
X78658000Y-53829885D01*
X74332572Y-53829885D01*
X74371585Y-53749362D01*
X74371585Y-53749361D01*
X74375499Y-53741283D01*
X74398286Y-53605836D01*
X74398431Y-53594000D01*
X74397584Y-53588082D01*
X74380232Y-53466923D01*
X74380232Y-53466921D01*
X74378959Y-53458036D01*
X74322110Y-53333003D01*
X74232453Y-53228951D01*
X74117196Y-53154244D01*
X73985603Y-53114890D01*
X73976627Y-53114835D01*
X73976626Y-53114835D01*
X73919080Y-53114484D01*
X73848255Y-53114051D01*
X73716192Y-53151795D01*
X73708605Y-53156582D01*
X73708603Y-53156583D01*
X73672025Y-53179662D01*
X73600031Y-53225087D01*
X73594088Y-53231816D01*
X73555098Y-53275964D01*
X73509109Y-53328036D01*
X73505295Y-53336159D01*
X73505294Y-53336161D01*
X73502834Y-53341401D01*
X73450736Y-53452366D01*
X73443267Y-53500338D01*
X73430986Y-53579209D01*
X73430986Y-53579213D01*
X73429605Y-53588082D01*
X66269584Y-53588082D01*
X66252232Y-53466923D01*
X66252232Y-53466921D01*
X66250959Y-53458036D01*
X66194110Y-53333003D01*
X66104453Y-53228951D01*
X65989196Y-53154244D01*
X65857603Y-53114890D01*
X65848627Y-53114835D01*
X65848626Y-53114835D01*
X65791080Y-53114484D01*
X65720255Y-53114051D01*
X65588192Y-53151795D01*
X65580605Y-53156582D01*
X65580603Y-53156583D01*
X65544025Y-53179662D01*
X65472031Y-53225087D01*
X65466088Y-53231816D01*
X65427098Y-53275964D01*
X65381109Y-53328036D01*
X65377295Y-53336159D01*
X65377294Y-53336161D01*
X65374834Y-53341401D01*
X65322736Y-53452366D01*
X65315267Y-53500338D01*
X65302986Y-53579209D01*
X65302986Y-53579213D01*
X65301605Y-53588082D01*
X60515494Y-53588082D01*
X60517642Y-53571879D01*
X60539188Y-53409319D01*
X60539188Y-53409316D01*
X60539888Y-53404036D01*
X60537536Y-53341401D01*
X60538295Y-53341372D01*
X60537966Y-53339984D01*
X60537660Y-53340011D01*
X60537626Y-53339623D01*
X60537535Y-53338162D01*
X60537477Y-53337915D01*
X60537352Y-53336493D01*
X60531264Y-53174331D01*
X60517372Y-53108121D01*
X60518139Y-53107960D01*
X60517159Y-53105684D01*
X60517063Y-53104592D01*
X60515639Y-53099278D01*
X60515536Y-53098693D01*
X60514362Y-53093778D01*
X60505886Y-53053378D01*
X60484061Y-52949363D01*
X60458025Y-52883434D01*
X60457276Y-52881459D01*
X60455903Y-52876337D01*
X60453053Y-52870225D01*
X60450066Y-52863283D01*
X60399628Y-52735564D01*
X60362727Y-52674754D01*
X60361189Y-52671874D01*
X60361110Y-52671920D01*
X60358361Y-52667159D01*
X60356035Y-52662171D01*
X60352876Y-52657659D01*
X60351326Y-52655445D01*
X60346819Y-52648538D01*
X60283147Y-52543609D01*
X60283145Y-52543606D01*
X60280379Y-52539048D01*
X60230007Y-52481000D01*
X60226445Y-52476437D01*
X60223653Y-52473110D01*
X60220495Y-52468599D01*
X60214209Y-52462313D01*
X60208139Y-52455799D01*
X60133224Y-52369467D01*
X60133222Y-52369465D01*
X60129724Y-52365434D01*
X60065692Y-52312930D01*
X60058426Y-52306348D01*
X60057294Y-52305398D01*
X60053401Y-52301505D01*
X60048897Y-52298351D01*
X60048892Y-52298347D01*
X60046064Y-52296367D01*
X60038446Y-52290590D01*
X59956099Y-52223069D01*
X59956093Y-52223065D01*
X59951971Y-52219685D01*
X59874645Y-52175669D01*
X59864704Y-52169378D01*
X59864340Y-52169123D01*
X59864333Y-52169119D01*
X59859829Y-52165965D01*
X59854845Y-52163641D01*
X59854840Y-52163638D01*
X59852125Y-52162372D01*
X59843048Y-52157682D01*
X59798939Y-52132574D01*
X59752202Y-52105970D01*
X59662502Y-52073410D01*
X59652247Y-52069167D01*
X59650652Y-52068423D01*
X59650650Y-52068422D01*
X59645663Y-52066097D01*
X59640347Y-52064673D01*
X59640345Y-52064672D01*
X59639281Y-52064387D01*
X59638298Y-52064124D01*
X59627919Y-52060857D01*
X59536129Y-52027539D01*
X59435557Y-52009352D01*
X59425384Y-52007074D01*
X59417408Y-52004937D01*
X59411010Y-52004377D01*
X59399588Y-52002848D01*
X59309931Y-51986636D01*
X59305792Y-51986441D01*
X59305785Y-51986440D01*
X59287330Y-51985570D01*
X59287323Y-51985570D01*
X59285842Y-51985500D01*
X59124288Y-51985500D01*
X59044556Y-51992265D01*
X58958267Y-51999587D01*
X58958263Y-51999588D01*
X58952956Y-52000038D01*
X58947801Y-52001376D01*
X58947795Y-52001377D01*
X58792484Y-52041688D01*
X58730461Y-52057786D01*
X58623497Y-52105970D01*
X58525738Y-52150007D01*
X58525735Y-52150008D01*
X58520877Y-52152197D01*
X58330197Y-52280570D01*
X58326340Y-52284249D01*
X58326338Y-52284251D01*
X58302226Y-52307253D01*
X58163872Y-52439236D01*
X58026658Y-52623658D01*
X58024242Y-52628409D01*
X58024240Y-52628413D01*
X57944237Y-52785769D01*
X57922480Y-52828562D01*
X57854315Y-53048089D01*
X57853614Y-53053378D01*
X57829442Y-53235753D01*
X57824112Y-53275964D01*
X56900374Y-53275964D01*
X56912704Y-53072120D01*
X56914538Y-53057016D01*
X56961538Y-52800542D01*
X56965179Y-52785769D01*
X56979278Y-52740524D01*
X57042755Y-52536820D01*
X57048149Y-52522598D01*
X57155165Y-52284818D01*
X57162227Y-52271362D01*
X57297127Y-52048211D01*
X57305769Y-52035690D01*
X57312899Y-52026590D01*
X57466583Y-51830427D01*
X57476673Y-51819039D01*
X57661039Y-51634673D01*
X57672427Y-51624583D01*
X57877690Y-51463769D01*
X57890212Y-51455126D01*
X58113362Y-51320227D01*
X58126818Y-51313165D01*
X58364602Y-51206147D01*
X58378820Y-51200755D01*
X58627769Y-51123179D01*
X58642542Y-51119538D01*
X58899016Y-51072538D01*
X58914120Y-51070704D01*
X59113855Y-51058622D01*
X59146544Y-51056645D01*
X59157420Y-51057385D01*
X59157420Y-51057065D01*
X59169828Y-51057065D01*
X59182000Y-51059486D01*
X59194897Y-51056921D01*
X59219476Y-51054500D01*
X93688524Y-51054500D01*
X93713103Y-51056921D01*
G37*
%TD.AperFunction*%
%TD*%
%TA.AperFunction,Conductor*%
%TO.N,VBUS*%
G36*
X74938188Y-62231078D02*
G01*
X75045034Y-62245145D01*
X75076805Y-62253658D01*
X75168676Y-62291712D01*
X75197162Y-62308159D01*
X75276050Y-62368692D01*
X75299308Y-62391950D01*
X75359841Y-62470838D01*
X75376288Y-62499324D01*
X75414342Y-62591195D01*
X75422855Y-62622966D01*
X75436922Y-62729812D01*
X75438000Y-62746259D01*
X75438000Y-70095741D01*
X75436922Y-70112188D01*
X75422855Y-70219034D01*
X75414342Y-70250805D01*
X75376288Y-70342676D01*
X75359841Y-70371162D01*
X75299308Y-70450050D01*
X75276050Y-70473308D01*
X75197162Y-70533841D01*
X75168676Y-70550288D01*
X75076805Y-70588342D01*
X75045034Y-70596855D01*
X74938188Y-70610922D01*
X74921741Y-70612000D01*
X70104000Y-70612000D01*
X70104000Y-84353228D01*
X70083998Y-84421349D01*
X70030342Y-84467842D01*
X69960068Y-84477946D01*
X69895488Y-84448452D01*
X69864994Y-84408956D01*
X69792331Y-84261609D01*
X69789776Y-84256428D01*
X69668320Y-84093779D01*
X69519258Y-83955987D01*
X69514375Y-83952906D01*
X69514371Y-83952903D01*
X69352464Y-83850748D01*
X69347581Y-83847667D01*
X69159039Y-83772446D01*
X69153379Y-83771320D01*
X69153375Y-83771319D01*
X68965613Y-83733971D01*
X68965610Y-83733971D01*
X68959946Y-83732844D01*
X68954171Y-83732768D01*
X68954167Y-83732768D01*
X68852793Y-83731441D01*
X68756971Y-83730187D01*
X68751274Y-83731166D01*
X68751273Y-83731166D01*
X68653620Y-83747946D01*
X68556910Y-83764564D01*
X68366463Y-83834824D01*
X68192010Y-83938612D01*
X68187670Y-83942418D01*
X68187666Y-83942421D01*
X68167723Y-83959911D01*
X68039392Y-84072455D01*
X67913720Y-84231869D01*
X67911031Y-84236980D01*
X67911029Y-84236983D01*
X67899507Y-84258883D01*
X67850087Y-84309856D01*
X67780955Y-84326018D01*
X67714059Y-84302239D01*
X67670638Y-84246068D01*
X67661999Y-84200215D01*
X67661999Y-83941331D01*
X67661629Y-83934510D01*
X67656105Y-83883648D01*
X67652479Y-83868396D01*
X67607324Y-83747946D01*
X67598786Y-83732351D01*
X67522285Y-83630276D01*
X67509724Y-83617715D01*
X67407649Y-83541214D01*
X67392054Y-83532676D01*
X67271606Y-83487522D01*
X67256351Y-83483895D01*
X67205486Y-83478369D01*
X67198672Y-83478000D01*
X66576115Y-83478000D01*
X66560876Y-83482475D01*
X66559671Y-83483865D01*
X66558000Y-83491548D01*
X66558000Y-86175884D01*
X66562475Y-86191123D01*
X66563865Y-86192328D01*
X66571548Y-86193999D01*
X67198669Y-86193999D01*
X67205490Y-86193629D01*
X67256352Y-86188105D01*
X67271604Y-86184479D01*
X67392054Y-86139324D01*
X67407649Y-86130786D01*
X67509724Y-86054285D01*
X67522285Y-86041724D01*
X67598786Y-85939649D01*
X67607324Y-85924054D01*
X67652478Y-85803606D01*
X67656105Y-85788351D01*
X67661631Y-85737486D01*
X67662000Y-85730672D01*
X67662000Y-85473976D01*
X67682002Y-85405855D01*
X67735658Y-85359362D01*
X67805932Y-85349258D01*
X67870512Y-85378752D01*
X67890895Y-85401254D01*
X68000533Y-85556389D01*
X68145938Y-85698035D01*
X68150742Y-85701245D01*
X68204980Y-85737486D01*
X68314720Y-85810812D01*
X68320023Y-85813090D01*
X68320026Y-85813092D01*
X68408707Y-85851192D01*
X68501228Y-85890942D01*
X68574244Y-85907464D01*
X68693579Y-85934467D01*
X68693584Y-85934468D01*
X68699216Y-85935742D01*
X68704987Y-85935969D01*
X68704989Y-85935969D01*
X68764756Y-85938317D01*
X68902053Y-85943712D01*
X69002499Y-85929148D01*
X69097231Y-85915413D01*
X69097236Y-85915412D01*
X69102945Y-85914584D01*
X69108409Y-85912729D01*
X69108414Y-85912728D01*
X69289693Y-85851192D01*
X69289698Y-85851190D01*
X69295165Y-85849334D01*
X69472276Y-85750147D01*
X69487495Y-85737490D01*
X69623913Y-85624031D01*
X69628345Y-85620345D01*
X69758147Y-85464276D01*
X69857334Y-85287165D01*
X69859191Y-85281693D01*
X69861541Y-85276416D01*
X69862989Y-85277061D01*
X69899523Y-85225104D01*
X69965275Y-85198324D01*
X70035068Y-85211344D01*
X70086741Y-85260030D01*
X70104000Y-85323680D01*
X70104000Y-87884228D01*
X70083998Y-87952349D01*
X70030342Y-87998842D01*
X69960068Y-88008946D01*
X69895488Y-87979452D01*
X69864994Y-87939956D01*
X69792331Y-87792609D01*
X69789776Y-87787428D01*
X69668320Y-87624779D01*
X69519258Y-87486987D01*
X69514375Y-87483906D01*
X69514371Y-87483903D01*
X69352464Y-87381748D01*
X69347581Y-87378667D01*
X69159039Y-87303446D01*
X69153379Y-87302320D01*
X69153375Y-87302319D01*
X68965613Y-87264971D01*
X68965610Y-87264971D01*
X68959946Y-87263844D01*
X68954171Y-87263768D01*
X68954167Y-87263768D01*
X68852793Y-87262441D01*
X68756971Y-87261187D01*
X68751274Y-87262166D01*
X68751273Y-87262166D01*
X68653620Y-87278946D01*
X68556910Y-87295564D01*
X68366463Y-87365824D01*
X68192010Y-87469612D01*
X68187670Y-87473418D01*
X68187666Y-87473421D01*
X68167723Y-87490911D01*
X68039392Y-87603455D01*
X67913720Y-87762869D01*
X67911031Y-87767980D01*
X67911029Y-87767983D01*
X67899507Y-87789883D01*
X67850087Y-87840856D01*
X67780955Y-87857018D01*
X67714059Y-87833239D01*
X67670638Y-87777068D01*
X67661999Y-87731215D01*
X67661999Y-87472331D01*
X67661629Y-87465510D01*
X67656105Y-87414648D01*
X67652479Y-87399396D01*
X67607324Y-87278946D01*
X67598786Y-87263351D01*
X67522285Y-87161276D01*
X67509724Y-87148715D01*
X67407649Y-87072214D01*
X67392054Y-87063676D01*
X67271606Y-87018522D01*
X67256351Y-87014895D01*
X67205486Y-87009369D01*
X67198672Y-87009000D01*
X66576115Y-87009000D01*
X66560876Y-87013475D01*
X66559671Y-87014865D01*
X66558000Y-87022548D01*
X66558000Y-89706884D01*
X66562475Y-89722123D01*
X66563865Y-89723328D01*
X66571548Y-89724999D01*
X67198669Y-89724999D01*
X67205490Y-89724629D01*
X67256352Y-89719105D01*
X67271604Y-89715479D01*
X67392054Y-89670324D01*
X67407649Y-89661786D01*
X67509724Y-89585285D01*
X67522285Y-89572724D01*
X67598786Y-89470649D01*
X67607324Y-89455054D01*
X67652478Y-89334606D01*
X67656105Y-89319351D01*
X67661631Y-89268486D01*
X67662000Y-89261672D01*
X67662000Y-89004976D01*
X67682002Y-88936855D01*
X67735658Y-88890362D01*
X67805932Y-88880258D01*
X67870512Y-88909752D01*
X67890895Y-88932254D01*
X68000533Y-89087389D01*
X68145938Y-89229035D01*
X68150742Y-89232245D01*
X68204980Y-89268486D01*
X68314720Y-89341812D01*
X68320023Y-89344090D01*
X68320026Y-89344092D01*
X68408707Y-89382192D01*
X68501228Y-89421942D01*
X68574244Y-89438464D01*
X68693579Y-89465467D01*
X68693584Y-89465468D01*
X68699216Y-89466742D01*
X68704987Y-89466969D01*
X68704989Y-89466969D01*
X68764756Y-89469317D01*
X68902053Y-89474712D01*
X69002499Y-89460148D01*
X69097231Y-89446413D01*
X69097236Y-89446412D01*
X69102945Y-89445584D01*
X69108409Y-89443729D01*
X69108414Y-89443728D01*
X69289693Y-89382192D01*
X69289698Y-89382190D01*
X69295165Y-89380334D01*
X69472276Y-89281147D01*
X69487495Y-89268490D01*
X69623913Y-89155031D01*
X69628345Y-89151345D01*
X69758147Y-88995276D01*
X69857334Y-88818165D01*
X69859191Y-88812693D01*
X69861541Y-88807416D01*
X69862989Y-88808061D01*
X69899523Y-88756104D01*
X69965275Y-88729324D01*
X70035068Y-88742344D01*
X70086741Y-88791030D01*
X70104000Y-88854680D01*
X70104000Y-89907741D01*
X70102922Y-89924188D01*
X70088855Y-90031034D01*
X70080342Y-90062805D01*
X70068366Y-90091718D01*
X70023818Y-90146999D01*
X69951957Y-90169500D01*
X64668043Y-90169500D01*
X64599922Y-90149498D01*
X64551634Y-90091718D01*
X64539658Y-90062805D01*
X64531145Y-90031034D01*
X64517078Y-89924188D01*
X64516000Y-89907741D01*
X64516000Y-89261669D01*
X64946001Y-89261669D01*
X64946371Y-89268490D01*
X64951895Y-89319352D01*
X64955521Y-89334604D01*
X65000676Y-89455054D01*
X65009214Y-89470649D01*
X65085715Y-89572724D01*
X65098276Y-89585285D01*
X65200351Y-89661786D01*
X65215946Y-89670324D01*
X65336394Y-89715478D01*
X65351649Y-89719105D01*
X65402514Y-89724631D01*
X65409328Y-89725000D01*
X66031885Y-89725000D01*
X66047124Y-89720525D01*
X66048329Y-89719135D01*
X66050000Y-89711452D01*
X66050000Y-88639115D01*
X66045525Y-88623876D01*
X66044135Y-88622671D01*
X66036452Y-88621000D01*
X64964116Y-88621000D01*
X64948877Y-88625475D01*
X64947672Y-88626865D01*
X64946001Y-88634548D01*
X64946001Y-89261669D01*
X64516000Y-89261669D01*
X64516000Y-88094885D01*
X64946000Y-88094885D01*
X64950475Y-88110124D01*
X64951865Y-88111329D01*
X64959548Y-88113000D01*
X66031885Y-88113000D01*
X66047124Y-88108525D01*
X66048329Y-88107135D01*
X66050000Y-88099452D01*
X66050000Y-87027116D01*
X66045525Y-87011877D01*
X66044135Y-87010672D01*
X66036452Y-87009001D01*
X65409331Y-87009001D01*
X65402510Y-87009371D01*
X65351648Y-87014895D01*
X65336396Y-87018521D01*
X65215946Y-87063676D01*
X65200351Y-87072214D01*
X65098276Y-87148715D01*
X65085715Y-87161276D01*
X65009214Y-87263351D01*
X65000676Y-87278946D01*
X64955522Y-87399394D01*
X64951895Y-87414649D01*
X64946369Y-87465514D01*
X64946000Y-87472328D01*
X64946000Y-88094885D01*
X64516000Y-88094885D01*
X64516000Y-85730669D01*
X64946001Y-85730669D01*
X64946371Y-85737490D01*
X64951895Y-85788352D01*
X64955521Y-85803604D01*
X65000676Y-85924054D01*
X65009214Y-85939649D01*
X65085715Y-86041724D01*
X65098276Y-86054285D01*
X65200351Y-86130786D01*
X65215946Y-86139324D01*
X65336394Y-86184478D01*
X65351649Y-86188105D01*
X65402514Y-86193631D01*
X65409328Y-86194000D01*
X66031885Y-86194000D01*
X66047124Y-86189525D01*
X66048329Y-86188135D01*
X66050000Y-86180452D01*
X66050000Y-85108115D01*
X66045525Y-85092876D01*
X66044135Y-85091671D01*
X66036452Y-85090000D01*
X64964116Y-85090000D01*
X64948877Y-85094475D01*
X64947672Y-85095865D01*
X64946001Y-85103548D01*
X64946001Y-85730669D01*
X64516000Y-85730669D01*
X64516000Y-84563885D01*
X64946000Y-84563885D01*
X64950475Y-84579124D01*
X64951865Y-84580329D01*
X64959548Y-84582000D01*
X66031885Y-84582000D01*
X66047124Y-84577525D01*
X66048329Y-84576135D01*
X66050000Y-84568452D01*
X66050000Y-83496116D01*
X66045525Y-83480877D01*
X66044135Y-83479672D01*
X66036452Y-83478001D01*
X65409331Y-83478001D01*
X65402510Y-83478371D01*
X65351648Y-83483895D01*
X65336396Y-83487521D01*
X65215946Y-83532676D01*
X65200351Y-83541214D01*
X65098276Y-83617715D01*
X65085715Y-83630276D01*
X65009214Y-83732351D01*
X65000676Y-83747946D01*
X64955522Y-83868394D01*
X64951895Y-83883649D01*
X64946369Y-83934514D01*
X64946000Y-83941328D01*
X64946000Y-84563885D01*
X64516000Y-84563885D01*
X64516000Y-69590082D01*
X68603605Y-69590082D01*
X68604769Y-69598984D01*
X68604769Y-69598987D01*
X68606554Y-69612633D01*
X68621414Y-69726273D01*
X68676732Y-69851992D01*
X68765111Y-69957132D01*
X68879447Y-70033240D01*
X69010549Y-70074199D01*
X69147876Y-70076716D01*
X69157109Y-70074199D01*
X69271727Y-70042951D01*
X69280391Y-70040589D01*
X69397439Y-69968721D01*
X69489612Y-69866890D01*
X69549499Y-69743283D01*
X69572286Y-69607836D01*
X69572431Y-69596000D01*
X69571584Y-69590082D01*
X69873605Y-69590082D01*
X69874769Y-69598984D01*
X69874769Y-69598987D01*
X69876554Y-69612633D01*
X69891414Y-69726273D01*
X69946732Y-69851992D01*
X70035111Y-69957132D01*
X70149447Y-70033240D01*
X70280549Y-70074199D01*
X70417876Y-70076716D01*
X70427109Y-70074199D01*
X70541727Y-70042951D01*
X70550391Y-70040589D01*
X70667439Y-69968721D01*
X70759612Y-69866890D01*
X70819499Y-69743283D01*
X70842286Y-69607836D01*
X70842431Y-69596000D01*
X70841584Y-69590082D01*
X71397605Y-69590082D01*
X71398769Y-69598984D01*
X71398769Y-69598987D01*
X71400554Y-69612633D01*
X71415414Y-69726273D01*
X71470732Y-69851992D01*
X71559111Y-69957132D01*
X71673447Y-70033240D01*
X71804549Y-70074199D01*
X71941876Y-70076716D01*
X71951109Y-70074199D01*
X72065727Y-70042951D01*
X72074391Y-70040589D01*
X72191439Y-69968721D01*
X72283612Y-69866890D01*
X72343499Y-69743283D01*
X72366286Y-69607836D01*
X72366431Y-69596000D01*
X72365584Y-69590082D01*
X72667605Y-69590082D01*
X72668769Y-69598984D01*
X72668769Y-69598987D01*
X72670554Y-69612633D01*
X72685414Y-69726273D01*
X72740732Y-69851992D01*
X72829111Y-69957132D01*
X72943447Y-70033240D01*
X73074549Y-70074199D01*
X73211876Y-70076716D01*
X73221109Y-70074199D01*
X73335727Y-70042951D01*
X73344391Y-70040589D01*
X73461439Y-69968721D01*
X73553612Y-69866890D01*
X73613499Y-69743283D01*
X73636286Y-69607836D01*
X73636431Y-69596000D01*
X73635584Y-69590082D01*
X73618232Y-69468923D01*
X73618232Y-69468921D01*
X73616959Y-69460036D01*
X73560110Y-69335003D01*
X73470453Y-69230951D01*
X73355196Y-69156244D01*
X73223603Y-69116890D01*
X73214627Y-69116835D01*
X73214626Y-69116835D01*
X73157080Y-69116484D01*
X73086255Y-69116051D01*
X72954192Y-69153795D01*
X72946605Y-69158582D01*
X72946603Y-69158583D01*
X72884850Y-69197546D01*
X72838031Y-69227087D01*
X72747109Y-69330036D01*
X72688736Y-69454366D01*
X72679027Y-69516724D01*
X72668986Y-69581209D01*
X72668986Y-69581213D01*
X72667605Y-69590082D01*
X72365584Y-69590082D01*
X72348232Y-69468923D01*
X72348232Y-69468921D01*
X72346959Y-69460036D01*
X72290110Y-69335003D01*
X72200453Y-69230951D01*
X72085196Y-69156244D01*
X71953603Y-69116890D01*
X71944627Y-69116835D01*
X71944626Y-69116835D01*
X71887080Y-69116484D01*
X71816255Y-69116051D01*
X71684192Y-69153795D01*
X71676605Y-69158582D01*
X71676603Y-69158583D01*
X71614850Y-69197546D01*
X71568031Y-69227087D01*
X71477109Y-69330036D01*
X71418736Y-69454366D01*
X71409027Y-69516724D01*
X71398986Y-69581209D01*
X71398986Y-69581213D01*
X71397605Y-69590082D01*
X70841584Y-69590082D01*
X70824232Y-69468923D01*
X70824232Y-69468921D01*
X70822959Y-69460036D01*
X70766110Y-69335003D01*
X70676453Y-69230951D01*
X70561196Y-69156244D01*
X70429603Y-69116890D01*
X70420627Y-69116835D01*
X70420626Y-69116835D01*
X70363080Y-69116484D01*
X70292255Y-69116051D01*
X70160192Y-69153795D01*
X70152605Y-69158582D01*
X70152603Y-69158583D01*
X70090850Y-69197546D01*
X70044031Y-69227087D01*
X69953109Y-69330036D01*
X69894736Y-69454366D01*
X69885027Y-69516724D01*
X69874986Y-69581209D01*
X69874986Y-69581213D01*
X69873605Y-69590082D01*
X69571584Y-69590082D01*
X69554232Y-69468923D01*
X69554232Y-69468921D01*
X69552959Y-69460036D01*
X69496110Y-69335003D01*
X69406453Y-69230951D01*
X69291196Y-69156244D01*
X69159603Y-69116890D01*
X69150627Y-69116835D01*
X69150626Y-69116835D01*
X69093080Y-69116484D01*
X69022255Y-69116051D01*
X68890192Y-69153795D01*
X68882605Y-69158582D01*
X68882603Y-69158583D01*
X68820850Y-69197546D01*
X68774031Y-69227087D01*
X68683109Y-69330036D01*
X68624736Y-69454366D01*
X68615027Y-69516724D01*
X68604986Y-69581209D01*
X68604986Y-69581213D01*
X68603605Y-69590082D01*
X64516000Y-69590082D01*
X64516000Y-67050082D01*
X68349605Y-67050082D01*
X68350769Y-67058984D01*
X68350769Y-67058987D01*
X68352554Y-67072633D01*
X68367414Y-67186273D01*
X68422732Y-67311992D01*
X68511111Y-67417132D01*
X68625447Y-67493240D01*
X68721630Y-67523290D01*
X68738612Y-67528595D01*
X68756549Y-67534199D01*
X68893876Y-67536716D01*
X68903109Y-67534199D01*
X69017727Y-67502951D01*
X69026391Y-67500589D01*
X69143439Y-67428721D01*
X69144155Y-67429888D01*
X69200782Y-67405460D01*
X69270827Y-67417046D01*
X69285894Y-67425641D01*
X69387447Y-67493240D01*
X69483630Y-67523290D01*
X69500612Y-67528595D01*
X69518549Y-67534199D01*
X69655876Y-67536716D01*
X69665109Y-67534199D01*
X69779727Y-67502951D01*
X69788391Y-67500589D01*
X69905439Y-67428721D01*
X69997612Y-67326890D01*
X70000406Y-67321123D01*
X70054085Y-67276658D01*
X70124567Y-67268118D01*
X70188476Y-67299038D01*
X70199890Y-67312700D01*
X70200732Y-67311992D01*
X70289111Y-67417132D01*
X70403447Y-67493240D01*
X70526374Y-67531645D01*
X70534549Y-67534199D01*
X70534180Y-67535379D01*
X70590231Y-67562193D01*
X70627546Y-67622593D01*
X70626667Y-67688561D01*
X70627582Y-67688790D01*
X70626831Y-67691789D01*
X70625932Y-67694751D01*
X70616376Y-67742791D01*
X70611390Y-67793418D01*
X70611390Y-67842582D01*
X70616376Y-67893209D01*
X70616979Y-67896240D01*
X70624178Y-67932430D01*
X70625932Y-67941249D01*
X70640700Y-67989930D01*
X70659514Y-68035350D01*
X70683494Y-68080213D01*
X70685213Y-68082786D01*
X70685215Y-68082789D01*
X70707942Y-68116802D01*
X70710705Y-68120937D01*
X70742977Y-68160260D01*
X70777740Y-68195023D01*
X70817063Y-68227295D01*
X70819645Y-68229020D01*
X70819646Y-68229021D01*
X70852268Y-68250818D01*
X70857787Y-68254506D01*
X70902650Y-68278486D01*
X70905512Y-68279671D01*
X70905513Y-68279672D01*
X70945208Y-68296115D01*
X70945217Y-68296118D01*
X70948070Y-68297300D01*
X70996750Y-68312067D01*
X71057201Y-68324092D01*
X71066079Y-68325409D01*
X71080862Y-68327603D01*
X71080880Y-68327605D01*
X71082395Y-68327830D01*
X71106977Y-68330251D01*
X71132411Y-68331500D01*
X73651741Y-68331500D01*
X73659790Y-68331236D01*
X73667688Y-68330978D01*
X73667713Y-68330977D01*
X73668713Y-68330944D01*
X73676155Y-68330456D01*
X73684129Y-68329934D01*
X73684154Y-68329932D01*
X73685160Y-68329866D01*
X73694688Y-68328928D01*
X73701027Y-68328304D01*
X73701039Y-68328303D01*
X73702061Y-68328202D01*
X73808907Y-68314135D01*
X73810907Y-68313737D01*
X73810914Y-68313736D01*
X73840177Y-68307915D01*
X73840182Y-68307914D01*
X73842197Y-68307513D01*
X73873968Y-68299000D01*
X73875917Y-68298339D01*
X73875925Y-68298336D01*
X73888528Y-68294058D01*
X73906111Y-68288089D01*
X73908020Y-68287298D01*
X73908026Y-68287296D01*
X73996092Y-68250818D01*
X73996096Y-68250816D01*
X73997982Y-68250035D01*
X74028430Y-68235020D01*
X74056916Y-68218573D01*
X74085136Y-68199716D01*
X74164024Y-68139183D01*
X74165569Y-68137828D01*
X74165580Y-68137819D01*
X74188000Y-68118156D01*
X74189544Y-68116802D01*
X74212802Y-68093544D01*
X74222234Y-68082789D01*
X74233819Y-68069580D01*
X74233828Y-68069569D01*
X74235183Y-68068024D01*
X74295716Y-67989136D01*
X74314573Y-67960916D01*
X74331020Y-67932430D01*
X74346035Y-67901982D01*
X74346818Y-67900092D01*
X74383296Y-67812026D01*
X74383298Y-67812020D01*
X74384089Y-67810111D01*
X74395000Y-67777968D01*
X74403513Y-67746197D01*
X74404191Y-67742791D01*
X74409736Y-67714914D01*
X74409737Y-67714907D01*
X74410135Y-67712907D01*
X74424202Y-67606061D01*
X74425866Y-67589160D01*
X74426944Y-67572713D01*
X74427500Y-67555741D01*
X74427500Y-64628895D01*
X74447502Y-64560774D01*
X74501158Y-64514281D01*
X74528916Y-64505317D01*
X74545249Y-64502068D01*
X74593930Y-64487300D01*
X74639350Y-64468486D01*
X74684213Y-64444506D01*
X74724937Y-64417295D01*
X74764260Y-64385023D01*
X74799023Y-64350260D01*
X74831295Y-64310937D01*
X74858506Y-64270213D01*
X74859967Y-64267480D01*
X74881027Y-64228080D01*
X74881029Y-64228076D01*
X74882486Y-64225350D01*
X74883672Y-64222487D01*
X74900115Y-64182792D01*
X74900118Y-64182783D01*
X74901300Y-64179930D01*
X74916067Y-64131250D01*
X74928092Y-64070799D01*
X74931830Y-64045605D01*
X74934251Y-64021023D01*
X74935500Y-63995589D01*
X74935500Y-63762259D01*
X74934944Y-63745287D01*
X74933866Y-63728840D01*
X74932202Y-63711939D01*
X74918135Y-63605093D01*
X74911513Y-63571803D01*
X74903000Y-63540032D01*
X74892089Y-63507889D01*
X74889647Y-63501992D01*
X74854818Y-63417908D01*
X74854816Y-63417904D01*
X74854035Y-63416018D01*
X74839020Y-63385570D01*
X74822573Y-63357084D01*
X74803716Y-63328864D01*
X74743183Y-63249976D01*
X74741828Y-63248431D01*
X74741819Y-63248420D01*
X74722156Y-63226000D01*
X74720802Y-63224456D01*
X74697544Y-63201198D01*
X74693240Y-63197423D01*
X74673580Y-63180181D01*
X74673569Y-63180172D01*
X74672024Y-63178817D01*
X74593136Y-63118284D01*
X74564916Y-63099427D01*
X74536430Y-63082980D01*
X74505982Y-63067965D01*
X74504092Y-63067182D01*
X74416026Y-63030704D01*
X74416020Y-63030702D01*
X74414111Y-63029911D01*
X74396528Y-63023942D01*
X74383925Y-63019664D01*
X74383917Y-63019661D01*
X74381968Y-63019000D01*
X74350197Y-63010487D01*
X74348182Y-63010086D01*
X74348177Y-63010085D01*
X74318914Y-63004264D01*
X74318907Y-63004263D01*
X74316907Y-63003865D01*
X74210061Y-62989798D01*
X74209039Y-62989697D01*
X74209027Y-62989696D01*
X74202688Y-62989072D01*
X74193160Y-62988134D01*
X74192154Y-62988068D01*
X74192129Y-62988066D01*
X74184155Y-62987544D01*
X74176713Y-62987056D01*
X74175713Y-62987023D01*
X74175688Y-62987022D01*
X74167790Y-62986764D01*
X74159741Y-62986500D01*
X73668259Y-62986500D01*
X73660210Y-62986764D01*
X73652312Y-62987022D01*
X73652287Y-62987023D01*
X73651287Y-62987056D01*
X73643845Y-62987544D01*
X73635871Y-62988066D01*
X73635846Y-62988068D01*
X73634840Y-62988134D01*
X73625312Y-62989072D01*
X73618973Y-62989696D01*
X73618961Y-62989697D01*
X73617939Y-62989798D01*
X73511093Y-63003865D01*
X73509093Y-63004263D01*
X73509086Y-63004264D01*
X73479823Y-63010085D01*
X73479818Y-63010086D01*
X73477803Y-63010487D01*
X73446032Y-63019000D01*
X73444083Y-63019661D01*
X73444075Y-63019664D01*
X73431472Y-63023942D01*
X73413889Y-63029911D01*
X73411980Y-63030702D01*
X73411974Y-63030704D01*
X73323908Y-63067182D01*
X73322018Y-63067965D01*
X73291570Y-63082980D01*
X73263084Y-63099427D01*
X73234864Y-63118284D01*
X73155976Y-63178817D01*
X73154431Y-63180172D01*
X73154420Y-63180181D01*
X73134760Y-63197423D01*
X73130456Y-63201198D01*
X73107198Y-63224456D01*
X73105844Y-63226000D01*
X73086181Y-63248420D01*
X73086172Y-63248431D01*
X73084817Y-63249976D01*
X73024284Y-63328864D01*
X73005427Y-63357084D01*
X72988980Y-63385570D01*
X72973965Y-63416018D01*
X72973184Y-63417904D01*
X72973182Y-63417908D01*
X72938354Y-63501992D01*
X72935911Y-63507889D01*
X72925000Y-63540032D01*
X72916487Y-63571803D01*
X72909865Y-63605093D01*
X72895798Y-63711939D01*
X72894134Y-63728840D01*
X72893056Y-63745287D01*
X72892500Y-63762259D01*
X72892500Y-66209799D01*
X72872498Y-66277920D01*
X72818842Y-66324413D01*
X72801124Y-66330948D01*
X72700192Y-66359795D01*
X72584031Y-66433087D01*
X72493109Y-66536036D01*
X72434736Y-66660366D01*
X72430645Y-66686644D01*
X72414986Y-66787209D01*
X72414986Y-66787213D01*
X72413605Y-66796082D01*
X72414769Y-66804984D01*
X72414769Y-66804987D01*
X72418680Y-66834892D01*
X72431414Y-66932273D01*
X72486732Y-67057992D01*
X72519880Y-67097427D01*
X72548400Y-67162440D01*
X72537244Y-67232555D01*
X72489952Y-67285507D01*
X72423428Y-67304500D01*
X71205439Y-67304500D01*
X71137318Y-67284498D01*
X71090825Y-67230842D01*
X71081185Y-67157596D01*
X71095479Y-67072633D01*
X71096286Y-67067836D01*
X71096431Y-67056000D01*
X71095584Y-67050082D01*
X71078232Y-66928923D01*
X71078232Y-66928921D01*
X71076959Y-66920036D01*
X71020110Y-66795003D01*
X70930453Y-66690951D01*
X70815196Y-66616244D01*
X70683603Y-66576890D01*
X70674627Y-66576835D01*
X70674626Y-66576835D01*
X70617080Y-66576484D01*
X70546255Y-66576051D01*
X70414192Y-66613795D01*
X70406605Y-66618582D01*
X70406603Y-66618583D01*
X70353255Y-66652243D01*
X70298031Y-66687087D01*
X70207109Y-66790036D01*
X70206478Y-66791379D01*
X70155233Y-66834892D01*
X70084861Y-66844290D01*
X70020579Y-66814151D01*
X70004157Y-66794963D01*
X70004110Y-66795003D01*
X69920314Y-66697753D01*
X69914453Y-66690951D01*
X69799196Y-66616244D01*
X69667603Y-66576890D01*
X69658627Y-66576835D01*
X69658626Y-66576835D01*
X69601080Y-66576484D01*
X69530255Y-66576051D01*
X69398192Y-66613795D01*
X69390605Y-66618582D01*
X69390603Y-66618583D01*
X69289623Y-66682297D01*
X69282031Y-66687087D01*
X69280069Y-66683978D01*
X69231126Y-66705789D01*
X69160948Y-66695040D01*
X69145808Y-66686644D01*
X69141695Y-66683978D01*
X69037196Y-66616244D01*
X68905603Y-66576890D01*
X68896627Y-66576835D01*
X68896626Y-66576835D01*
X68839080Y-66576484D01*
X68768255Y-66576051D01*
X68636192Y-66613795D01*
X68628605Y-66618582D01*
X68628603Y-66618583D01*
X68575255Y-66652243D01*
X68520031Y-66687087D01*
X68429109Y-66790036D01*
X68370736Y-66914366D01*
X68367948Y-66932273D01*
X68350986Y-67041209D01*
X68350986Y-67041213D01*
X68349605Y-67050082D01*
X64516000Y-67050082D01*
X64516000Y-64256082D01*
X65047605Y-64256082D01*
X65048769Y-64264984D01*
X65048769Y-64264987D01*
X65050554Y-64278633D01*
X65065414Y-64392273D01*
X65087640Y-64442785D01*
X65113991Y-64502671D01*
X65120732Y-64517992D01*
X65209111Y-64623132D01*
X65323447Y-64699240D01*
X65454549Y-64740199D01*
X65591876Y-64742716D01*
X65601109Y-64740199D01*
X65715727Y-64708951D01*
X65724391Y-64706589D01*
X65841439Y-64634721D01*
X65933612Y-64532890D01*
X65956275Y-64486115D01*
X65989585Y-64417362D01*
X65989585Y-64417361D01*
X65993499Y-64409283D01*
X66016286Y-64273836D01*
X66016431Y-64262000D01*
X66015584Y-64256082D01*
X65998232Y-64134923D01*
X65998232Y-64134921D01*
X65996959Y-64126036D01*
X65940110Y-64001003D01*
X65850453Y-63896951D01*
X65735196Y-63822244D01*
X65603603Y-63782890D01*
X65594627Y-63782835D01*
X65594626Y-63782835D01*
X65537080Y-63782484D01*
X65466255Y-63782051D01*
X65334192Y-63819795D01*
X65326605Y-63824582D01*
X65326603Y-63824583D01*
X65264850Y-63863546D01*
X65218031Y-63893087D01*
X65127109Y-63996036D01*
X65123295Y-64004159D01*
X65123294Y-64004161D01*
X65095136Y-64064136D01*
X65068736Y-64120366D01*
X65059923Y-64176966D01*
X65048986Y-64247209D01*
X65048986Y-64247213D01*
X65047605Y-64256082D01*
X64516000Y-64256082D01*
X64516000Y-63240082D01*
X65809605Y-63240082D01*
X65810769Y-63248984D01*
X65810769Y-63248987D01*
X65812554Y-63262633D01*
X65827414Y-63376273D01*
X65882732Y-63501992D01*
X65971111Y-63607132D01*
X66085447Y-63683240D01*
X66216549Y-63724199D01*
X66353876Y-63726716D01*
X66363109Y-63724199D01*
X66477727Y-63692951D01*
X66486391Y-63690589D01*
X66603439Y-63618721D01*
X66613936Y-63607124D01*
X66689584Y-63523550D01*
X66689585Y-63523549D01*
X66695612Y-63516890D01*
X66743569Y-63417908D01*
X66751585Y-63401362D01*
X66751585Y-63401361D01*
X66755499Y-63393283D01*
X66778286Y-63257836D01*
X66778431Y-63246000D01*
X66777584Y-63240082D01*
X66760232Y-63118923D01*
X66760232Y-63118921D01*
X66758959Y-63110036D01*
X66702110Y-62985003D01*
X66612453Y-62880951D01*
X66497196Y-62806244D01*
X66365603Y-62766890D01*
X66356627Y-62766835D01*
X66356626Y-62766835D01*
X66299080Y-62766484D01*
X66228255Y-62766051D01*
X66096192Y-62803795D01*
X66088605Y-62808582D01*
X66088603Y-62808583D01*
X66026850Y-62847546D01*
X65980031Y-62877087D01*
X65889109Y-62980036D01*
X65885295Y-62988159D01*
X65885294Y-62988161D01*
X65866006Y-63029243D01*
X65830736Y-63104366D01*
X65821027Y-63166724D01*
X65810986Y-63231209D01*
X65810986Y-63231213D01*
X65809605Y-63240082D01*
X64516000Y-63240082D01*
X64516000Y-62746259D01*
X64517078Y-62729812D01*
X64531145Y-62622966D01*
X64539658Y-62591195D01*
X64577712Y-62499324D01*
X64594159Y-62470838D01*
X64654692Y-62391950D01*
X64677950Y-62368692D01*
X64756838Y-62308159D01*
X64785324Y-62291712D01*
X64877195Y-62253658D01*
X64908966Y-62245145D01*
X65015812Y-62231078D01*
X65032259Y-62230000D01*
X74921741Y-62230000D01*
X74938188Y-62231078D01*
G37*
%TD.AperFunction*%
%TD*%
M02*
