%TF.GenerationSoftware,KiCad,Pcbnew,(6.0.4-0)*%
%TF.CreationDate,2022-06-17T12:44:20-07:00*%
%TF.ProjectId,VIO-Board-rounded,56494f2d-426f-4617-9264-2d726f756e64,rev?*%
%TF.SameCoordinates,Original*%
%TF.FileFunction,Copper,L1,Top*%
%TF.FilePolarity,Positive*%
%FSLAX46Y46*%
G04 Gerber Fmt 4.6, Leading zero omitted, Abs format (unit mm)*
G04 Created by KiCad (PCBNEW (6.0.4-0)) date 2022-06-17 12:44:20*
%MOMM*%
%LPD*%
G01*
G04 APERTURE LIST*
G04 Aperture macros list*
%AMRoundRect*
0 Rectangle with rounded corners*
0 $1 Rounding radius*
0 $2 $3 $4 $5 $6 $7 $8 $9 X,Y pos of 4 corners*
0 Add a 4 corners polygon primitive as box body*
4,1,4,$2,$3,$4,$5,$6,$7,$8,$9,$2,$3,0*
0 Add four circle primitives for the rounded corners*
1,1,$1+$1,$2,$3*
1,1,$1+$1,$4,$5*
1,1,$1+$1,$6,$7*
1,1,$1+$1,$8,$9*
0 Add four rect primitives between the rounded corners*
20,1,$1+$1,$2,$3,$4,$5,0*
20,1,$1+$1,$4,$5,$6,$7,0*
20,1,$1+$1,$6,$7,$8,$9,0*
20,1,$1+$1,$8,$9,$2,$3,0*%
G04 Aperture macros list end*
%TA.AperFunction,SMDPad,CuDef*%
%ADD10RoundRect,0.140000X-0.170000X0.140000X-0.170000X-0.140000X0.170000X-0.140000X0.170000X0.140000X0*%
%TD*%
%TA.AperFunction,SMDPad,CuDef*%
%ADD11R,1.000000X0.700000*%
%TD*%
%TA.AperFunction,SMDPad,CuDef*%
%ADD12R,0.600000X0.700000*%
%TD*%
%TA.AperFunction,ComponentPad*%
%ADD13R,1.700000X1.700000*%
%TD*%
%TA.AperFunction,ComponentPad*%
%ADD14O,1.700000X1.700000*%
%TD*%
%TA.AperFunction,SMDPad,CuDef*%
%ADD15RoundRect,0.135000X0.185000X-0.135000X0.185000X0.135000X-0.185000X0.135000X-0.185000X-0.135000X0*%
%TD*%
%TA.AperFunction,SMDPad,CuDef*%
%ADD16R,0.300000X0.300000*%
%TD*%
%TA.AperFunction,SMDPad,CuDef*%
%ADD17R,0.300000X0.900000*%
%TD*%
%TA.AperFunction,SMDPad,CuDef*%
%ADD18R,0.900000X0.300000*%
%TD*%
%TA.AperFunction,SMDPad,CuDef*%
%ADD19R,1.800000X1.800000*%
%TD*%
%TA.AperFunction,SMDPad,CuDef*%
%ADD20RoundRect,0.135000X-0.185000X0.135000X-0.185000X-0.135000X0.185000X-0.135000X0.185000X0.135000X0*%
%TD*%
%TA.AperFunction,SMDPad,CuDef*%
%ADD21R,0.450000X1.380000*%
%TD*%
%TA.AperFunction,SMDPad,CuDef*%
%ADD22R,1.425000X1.550000*%
%TD*%
%TA.AperFunction,SMDPad,CuDef*%
%ADD23R,1.800000X1.900000*%
%TD*%
%TA.AperFunction,SMDPad,CuDef*%
%ADD24R,1.000000X1.900000*%
%TD*%
%TA.AperFunction,SMDPad,CuDef*%
%ADD25R,1.650000X1.300000*%
%TD*%
%TA.AperFunction,ComponentPad*%
%ADD26R,3.800000X3.800000*%
%TD*%
%TA.AperFunction,ComponentPad*%
%ADD27C,4.000000*%
%TD*%
%TA.AperFunction,SMDPad,CuDef*%
%ADD28RoundRect,0.135000X0.135000X0.185000X-0.135000X0.185000X-0.135000X-0.185000X0.135000X-0.185000X0*%
%TD*%
%TA.AperFunction,ViaPad*%
%ADD29C,0.450000*%
%TD*%
%TA.AperFunction,Conductor*%
%ADD30C,0.254000*%
%TD*%
%TA.AperFunction,Conductor*%
%ADD31C,0.406400*%
%TD*%
G04 APERTURE END LIST*
D10*
%TO.P,C4,1*%
%TO.N,+3V3*%
X70358000Y-67846000D03*
%TO.P,C4,2*%
%TO.N,GNDREF*%
X70358000Y-68806000D03*
%TD*%
D11*
%TO.P,D1,1,A*%
%TO.N,GNDREF*%
X69354000Y-60182000D03*
D12*
%TO.P,D1,2,K*%
%TO.N,VBUS*%
X71054000Y-60182000D03*
%TO.P,D1,3,K*%
%TO.N,/D-*%
X71054000Y-58182000D03*
%TO.P,D1,4,K*%
%TO.N,/D+*%
X69154000Y-58182000D03*
%TD*%
D13*
%TO.P,J6,1,Pin_1*%
%TO.N,/VS*%
X58445000Y-60208008D03*
D14*
%TO.P,J6,2,Pin_2*%
%TO.N,GNDREF*%
X58445000Y-62748008D03*
%TO.P,J6,3,Pin_3*%
%TO.N,/3V3_CAM1*%
X58445000Y-65288008D03*
%TO.P,J6,4,Pin_4*%
%TO.N,/GPIO3{slash}TX_CAM1*%
X58445000Y-67828008D03*
%TO.P,J6,5,Pin_5*%
%TO.N,/SYNC*%
X58445000Y-70368008D03*
%TO.P,J6,6,Pin_6*%
%TO.N,GNDREF*%
X58445000Y-72908008D03*
%TO.P,J6,7,Pin_7*%
%TO.N,/OPTO_GND_CAM1*%
X58445000Y-75448008D03*
%TO.P,J6,8,Pin_8*%
%TO.N,/OPTO_OUT_CAM1*%
X58445000Y-77988008D03*
%TO.P,J6,9,Pin_9*%
%TO.N,/OPTO_IN_CAM1*%
X58445000Y-80528008D03*
%TD*%
D15*
%TO.P,R2,1*%
%TO.N,VBUS*%
X74168000Y-66042000D03*
%TO.P,R2,2*%
%TO.N,Net-(R2-Pad2)*%
X74168000Y-65022000D03*
%TD*%
D13*
%TO.P,J4,1,Pin_1*%
%TO.N,/VS*%
X90932000Y-60208000D03*
D14*
%TO.P,J4,2,Pin_2*%
%TO.N,GNDREF*%
X90932000Y-62748000D03*
%TO.P,J4,3,Pin_3*%
%TO.N,/3V3_CAM2*%
X90932000Y-65288000D03*
%TO.P,J4,4,Pin_4*%
%TO.N,/GPIO3{slash}TX_CAM2*%
X90932000Y-67828000D03*
%TO.P,J4,5,Pin_5*%
%TO.N,/SYNC*%
X90932000Y-70368000D03*
%TO.P,J4,6,Pin_6*%
%TO.N,GNDREF*%
X90932000Y-72908000D03*
%TO.P,J4,7,Pin_7*%
%TO.N,/OPTO_GND_CAM2*%
X90932000Y-75448000D03*
%TO.P,J4,8,Pin_8*%
%TO.N,/OPTO_OUT_CAM2*%
X90932000Y-77988000D03*
%TO.P,J4,9,Pin_9*%
%TO.N,/OPTO_IN_CAM2*%
X90932000Y-80528000D03*
%TD*%
D13*
%TO.P,J5,1,Pin_1*%
%TO.N,VBUS*%
X66304000Y-84836000D03*
D14*
%TO.P,J5,2,Pin_2*%
%TO.N,/TX1*%
X68844000Y-84836000D03*
%TO.P,J5,3,Pin_3*%
%TO.N,/RX1*%
X71384000Y-84836000D03*
%TO.P,J5,4,Pin_4*%
%TO.N,/SYNC*%
X73924000Y-84836000D03*
%TO.P,J5,5,Pin_5*%
%TO.N,GNDREF*%
X76464000Y-84836000D03*
%TO.P,J5,6,Pin_6*%
%TO.N,/RESTORE*%
X79004000Y-84836000D03*
%TO.P,J5,7,Pin_7*%
%TO.N,/SYNC_IN*%
X81544000Y-84836000D03*
%TO.P,J5,8,Pin_8*%
%TO.N,/TX2*%
X84084000Y-84836000D03*
%TO.P,J5,9,Pin_9*%
%TO.N,/RX2*%
X86624000Y-84836000D03*
%TD*%
D10*
%TO.P,C2,1*%
%TO.N,VBUS*%
X73152000Y-67846000D03*
%TO.P,C2,2*%
%TO.N,GNDREF*%
X73152000Y-68806000D03*
%TD*%
D16*
%TO.P,U1,1,RS485/GPIO.1*%
%TO.N,unconnected-(U1-Pad1)*%
X68346000Y-65512000D03*
D17*
%TO.P,U1,2,CLK/GPIO.0*%
%TO.N,unconnected-(U1-Pad2)*%
X68846000Y-65812000D03*
%TO.P,U1,3,GND*%
%TO.N,GNDREF*%
X69346000Y-65812000D03*
%TO.P,U1,4,D+*%
%TO.N,/D+*%
X69846000Y-65812000D03*
%TO.P,U1,5,D-*%
%TO.N,/D-*%
X70346000Y-65812000D03*
D16*
%TO.P,U1,6,VDD*%
%TO.N,+3V3*%
X70846000Y-65512000D03*
D18*
%TO.P,U1,7,VREGIN*%
%TO.N,VBUS*%
X71146000Y-65012000D03*
%TO.P,U1,8,VBUS*%
%TO.N,Net-(R2-Pad2)*%
X71146000Y-64512000D03*
%TO.P,U1,9,~{RST}*%
%TO.N,Net-(R1-Pad2)*%
X71146000Y-64012000D03*
%TO.P,U1,10,NC*%
%TO.N,unconnected-(U1-Pad10)*%
X71146000Y-63512000D03*
D16*
%TO.P,U1,11,~{SUSPEND}*%
%TO.N,unconnected-(U1-Pad11)*%
X70846000Y-63012000D03*
D17*
%TO.P,U1,12,GND*%
%TO.N,GNDREF*%
X70346000Y-62712000D03*
%TO.P,U1,13,~{WAKEUP}*%
%TO.N,unconnected-(U1-Pad13)*%
X69846000Y-62712000D03*
%TO.P,U1,14,SUSPEND*%
%TO.N,unconnected-(U1-Pad14)*%
X69346000Y-62712000D03*
%TO.P,U1,15,~{CTS}*%
%TO.N,unconnected-(U1-Pad15)*%
X68846000Y-62712000D03*
D16*
%TO.P,U1,16,~{RTS}*%
%TO.N,unconnected-(U1-Pad16)*%
X68346000Y-63012000D03*
D18*
%TO.P,U1,17,RXD*%
%TO.N,/RX2*%
X68046000Y-63512000D03*
%TO.P,U1,18,TXD*%
%TO.N,/TX2*%
X68046000Y-64012000D03*
%TO.P,U1,19,~{RXT}/GPIO.3*%
%TO.N,unconnected-(U1-Pad19)*%
X68046000Y-64512000D03*
%TO.P,U1,20,~{TXT}/GPIO.2*%
%TO.N,unconnected-(U1-Pad20)*%
X68046000Y-65012000D03*
D19*
%TO.P,U1,21,GND*%
%TO.N,GNDREF*%
X69596000Y-64262000D03*
%TD*%
D20*
%TO.P,R3,1*%
%TO.N,Net-(R2-Pad2)*%
X72898000Y-65022000D03*
%TO.P,R3,2*%
%TO.N,GNDREF*%
X72898000Y-66042000D03*
%TD*%
D21*
%TO.P,J2,1,VBUS*%
%TO.N,VBUS*%
X71150000Y-54892000D03*
%TO.P,J2,2,D-*%
%TO.N,/D-*%
X70500000Y-54892000D03*
%TO.P,J2,3,D+*%
%TO.N,/D+*%
X69850000Y-54892000D03*
%TO.P,J2,4,ID*%
%TO.N,unconnected-(J2-Pad4)*%
X69200000Y-54892000D03*
%TO.P,J2,5,GND*%
%TO.N,GNDREF*%
X68550000Y-54892000D03*
D22*
%TO.P,J2,6,Shield*%
X67362500Y-54807000D03*
X72337500Y-54807000D03*
D23*
X71000000Y-52232000D03*
D24*
X68300000Y-52232000D03*
D25*
X66475000Y-52232000D03*
X73225000Y-52232000D03*
%TD*%
D26*
%TO.P,J1,1,Pin_1*%
%TO.N,/VS*%
X81066000Y-54102000D03*
D27*
%TO.P,J1,2,Pin_2*%
%TO.N,GNDREF*%
X86066000Y-54102000D03*
%TD*%
D10*
%TO.P,C1,1*%
%TO.N,VBUS*%
X71882000Y-67846000D03*
%TO.P,C1,2*%
%TO.N,GNDREF*%
X71882000Y-68806000D03*
%TD*%
D13*
%TO.P,J7,1,Pin_1*%
%TO.N,/VS*%
X94512994Y-60208008D03*
D14*
%TO.P,J7,2,Pin_2*%
%TO.N,GNDREF*%
X94512994Y-62748008D03*
%TO.P,J7,3,Pin_3*%
%TO.N,/3V3_CAM2*%
X94512994Y-65288008D03*
%TO.P,J7,4,Pin_4*%
%TO.N,/GPIO3{slash}TX_CAM2*%
X94512994Y-67828008D03*
%TO.P,J7,5,Pin_5*%
%TO.N,/SYNC*%
X94512994Y-70368008D03*
%TO.P,J7,6,Pin_6*%
%TO.N,GNDREF*%
X94512994Y-72908008D03*
%TO.P,J7,7,Pin_7*%
%TO.N,/OPTO_GND_CAM2*%
X94512994Y-75448008D03*
%TO.P,J7,8,Pin_8*%
%TO.N,/OPTO_OUT_CAM2*%
X94512994Y-77988008D03*
%TO.P,J7,9,Pin_9*%
%TO.N,/OPTO_IN_CAM2*%
X94512994Y-80528008D03*
%TD*%
D28*
%TO.P,R1,1*%
%TO.N,+3V3*%
X73408000Y-63754000D03*
%TO.P,R1,2*%
%TO.N,Net-(R1-Pad2)*%
X72388000Y-63754000D03*
%TD*%
D13*
%TO.P,J8,1,Pin_1*%
%TO.N,VBUS*%
X66304000Y-88367000D03*
D14*
%TO.P,J8,2,Pin_2*%
%TO.N,/TX1*%
X68844000Y-88367000D03*
%TO.P,J8,3,Pin_3*%
%TO.N,/RX1*%
X71384000Y-88367000D03*
%TO.P,J8,4,Pin_4*%
%TO.N,/SYNC*%
X73924000Y-88367000D03*
%TO.P,J8,5,Pin_5*%
%TO.N,GNDREF*%
X76464000Y-88367000D03*
%TO.P,J8,6,Pin_6*%
%TO.N,/RESTORE*%
X79004000Y-88367000D03*
%TO.P,J8,7,Pin_7*%
%TO.N,/SYNC_IN*%
X81544000Y-88367000D03*
%TO.P,J8,8,Pin_8*%
%TO.N,/TX2*%
X84084000Y-88367000D03*
%TO.P,J8,9,Pin_9*%
%TO.N,/RX2*%
X86624000Y-88367000D03*
%TD*%
D13*
%TO.P,J3,1,Pin_1*%
%TO.N,/VS*%
X61976000Y-60208008D03*
D14*
%TO.P,J3,2,Pin_2*%
%TO.N,GNDREF*%
X61976000Y-62748008D03*
%TO.P,J3,3,Pin_3*%
%TO.N,/3V3_CAM1*%
X61976000Y-65288008D03*
%TO.P,J3,4,Pin_4*%
%TO.N,/GPIO3{slash}TX_CAM1*%
X61976000Y-67828008D03*
%TO.P,J3,5,Pin_5*%
%TO.N,/SYNC*%
X61976000Y-70368008D03*
%TO.P,J3,6,Pin_6*%
%TO.N,GNDREF*%
X61976000Y-72908008D03*
%TO.P,J3,7,Pin_7*%
%TO.N,/OPTO_GND_CAM1*%
X61976000Y-75448008D03*
%TO.P,J3,8,Pin_8*%
%TO.N,/OPTO_OUT_CAM1*%
X61976000Y-77988008D03*
%TO.P,J3,9,Pin_9*%
%TO.N,/OPTO_IN_CAM1*%
X61976000Y-80528008D03*
%TD*%
D10*
%TO.P,C3,1*%
%TO.N,+3V3*%
X69088000Y-67846000D03*
%TO.P,C3,2*%
%TO.N,GNDREF*%
X69088000Y-68806000D03*
%TD*%
D29*
%TO.N,VBUS*%
X72390000Y-62738000D03*
X74930000Y-65024000D03*
X72136000Y-66802000D03*
X74930000Y-67818000D03*
X74930000Y-62738000D03*
X72136000Y-65786000D03*
X74930000Y-66802000D03*
%TO.N,GNDREF*%
X71120000Y-61722000D03*
X68326000Y-60198000D03*
X65786000Y-56134000D03*
X68580000Y-56388000D03*
X65786000Y-54864000D03*
X71882000Y-69596000D03*
X72898000Y-66802000D03*
X68834000Y-67056000D03*
X73914000Y-55118000D03*
X65786000Y-53594000D03*
X70358000Y-69596000D03*
X73914000Y-53594000D03*
X73152000Y-69596000D03*
X69088000Y-69596000D03*
%TO.N,+3V3*%
X71120000Y-67818000D03*
X74168000Y-63754000D03*
%TO.N,/D-*%
X70612000Y-67056000D03*
X70454000Y-56408223D03*
%TO.N,/D+*%
X69754000Y-56408223D03*
X69596000Y-67056000D03*
%TO.N,/TX2*%
X65532000Y-64262000D03*
%TO.N,/RX2*%
X66294000Y-63246000D03*
%TD*%
D30*
%TO.N,/SYNC*%
X68972618Y-75296568D02*
G75*
G03*
X68972628Y-75720842I212182J-212132D01*
G01*
X69679734Y-75437999D02*
X69396892Y-75720842D01*
X68972627Y-75296577D02*
X68972627Y-75296576D01*
X68972629Y-75720841D02*
G75*
G03*
X69396891Y-75720841I212131J212131D01*
G01*
X69679769Y-75438032D02*
G75*
G02*
X70104000Y-75438000I212131J-212068D01*
G01*
X69538268Y-73882319D02*
G75*
G02*
X69962576Y-73882363I212132J-212181D01*
G01*
X68972627Y-75296576D02*
X69467602Y-74801602D01*
X69962571Y-73882368D02*
G75*
G02*
X69962576Y-74306627I-212171J-212132D01*
G01*
X61981008Y-70363008D02*
G75*
G02*
X61993084Y-70358000I12092J-12092D01*
G01*
X68406907Y-73740968D02*
G75*
G02*
X68406938Y-74165201I-212107J-212132D01*
G01*
X68124097Y-74872308D02*
G75*
G03*
X68548359Y-74872308I212131J212131D01*
G01*
X63505004Y-70358003D02*
G75*
G02*
X66098092Y-71432092I-4J-3667197D01*
G01*
X72509787Y-77843787D02*
X70104000Y-75438000D01*
X69679735Y-75437999D02*
X69679734Y-75437999D01*
X68831202Y-74589467D02*
X68548360Y-74872309D01*
X67992823Y-73326823D02*
X66098092Y-71432092D01*
X69538311Y-73882362D02*
X69538311Y-73882363D01*
X69538311Y-73882363D02*
X69043336Y-74377336D01*
X68124120Y-74448069D02*
G75*
G03*
X68124097Y-74872308I212080J-212131D01*
G01*
X69043336Y-74377336D02*
X68831202Y-74589467D01*
X69467602Y-74801602D02*
X69962576Y-74306627D01*
X68124095Y-74448044D02*
X68124097Y-74448045D01*
X68406938Y-73740937D02*
X67992823Y-73326823D01*
X68124097Y-74448045D02*
X68406938Y-74165201D01*
X63505004Y-70358000D02*
X61993084Y-70358000D01*
X61981004Y-70363004D02*
X61976000Y-70368008D01*
%TO.N,Net-(R2-Pad2)*%
X72748624Y-65021989D02*
G75*
G02*
X72133001Y-64766999I-24J870589D01*
G01*
X71517375Y-64512011D02*
G75*
G02*
X72132999Y-64767001I25J-870589D01*
G01*
%TO.N,/RX2*%
X66748090Y-63512003D02*
G75*
G02*
X66427001Y-63378999I10J454103D01*
G01*
%TO.N,/TX2*%
X65657007Y-64137007D02*
G75*
G02*
X65958776Y-64012000I301793J-301793D01*
G01*
%TO.N,Net-(R1-Pad2)*%
X71695566Y-64011984D02*
G75*
G03*
X72006999Y-63882999I34J440384D01*
G01*
X72046903Y-63843094D02*
G75*
G02*
X72262000Y-63754000I215097J-215106D01*
G01*
%TO.N,/SYNC*%
X81220236Y-71961821D02*
G75*
G02*
X85067963Y-70368000I3847764J-3847679D01*
G01*
X72509783Y-77843791D02*
G75*
G02*
X73924000Y-81511963I-3735583J-3546909D01*
G01*
X73923960Y-81511963D02*
G75*
G02*
X75517793Y-77664208I5441540J-37D01*
G01*
X75517839Y-77664249D02*
G75*
G02*
X72509787Y-77843787I-1594439J1425049D01*
G01*
%TO.N,/D+*%
X69801983Y-56360206D02*
G75*
G03*
X69850000Y-56244340I-115883J115906D01*
G01*
X69720993Y-66930993D02*
G75*
G03*
X69846000Y-66629223I-301793J301793D01*
G01*
X69456963Y-58181984D02*
G75*
G03*
X69666999Y-58094999I37J296984D01*
G01*
X69667011Y-58095011D02*
G75*
G03*
X69754000Y-57884963I-210011J210011D01*
G01*
%TO.N,/D-*%
X70751036Y-58181984D02*
G75*
G02*
X70541001Y-58094999I-36J296984D01*
G01*
X70479003Y-66922997D02*
G75*
G02*
X70346000Y-66601909I321097J321097D01*
G01*
X70540989Y-58095011D02*
G75*
G02*
X70454000Y-57884963I210011J210011D01*
G01*
X70476996Y-56385219D02*
G75*
G03*
X70500000Y-56329696I-55496J55519D01*
G01*
%TO.N,GNDREF*%
X70479003Y-61855003D02*
G75*
G02*
X70800090Y-61722000I321097J-321097D01*
G01*
X70345997Y-62176090D02*
G75*
G02*
X70479001Y-61855001I454103J-10D01*
G01*
X69097098Y-66764901D02*
G75*
G03*
X69346000Y-66164000I-600898J600901D01*
G01*
X70063161Y-63794846D02*
G75*
G03*
X70346000Y-63112000I-682861J682846D01*
G01*
X69345991Y-64688776D02*
G75*
G02*
X69471000Y-64387000I426809J-24D01*
G01*
D31*
X68333996Y-60189996D02*
G75*
G02*
X68353313Y-60182000I19304J-19304D01*
G01*
D30*
X68834000Y-67042000D02*
G75*
G02*
X68843899Y-67018100I33800J0D01*
G01*
X70346000Y-62350000D02*
X70346000Y-63074000D01*
X69346000Y-65460000D02*
X69346000Y-66164000D01*
X69721000Y-64137000D02*
X69471000Y-64387000D01*
%TO.N,VBUS*%
X71381000Y-65011989D02*
G75*
G02*
X71782169Y-65178171I0J-567311D01*
G01*
X72136001Y-65659000D02*
G75*
G03*
X72046197Y-65442197I-306601J0D01*
G01*
X71782170Y-65178170D02*
X72046197Y-65442197D01*
X71381000Y-65012000D02*
X71146000Y-65012000D01*
X72136000Y-65659000D02*
X72136000Y-65786000D01*
%TO.N,GNDREF*%
X70346000Y-63112000D02*
X70346000Y-63074000D01*
X70063157Y-63794842D02*
X69721000Y-64137000D01*
X71120000Y-61722000D02*
X70800090Y-61722000D01*
X70346000Y-62176090D02*
X70346000Y-62350000D01*
D31*
X70358000Y-69596000D02*
X70358000Y-68806000D01*
X69088000Y-69596000D02*
X69088000Y-68806000D01*
X68326000Y-60198000D02*
X68334000Y-60190000D01*
D30*
X68834000Y-67056000D02*
X68834000Y-67042000D01*
D31*
X68353313Y-60182000D02*
X69354000Y-60182000D01*
D30*
X69097098Y-66764901D02*
X68843899Y-67018100D01*
D31*
X71882000Y-69596000D02*
X71882000Y-68806000D01*
D30*
X69346000Y-64688776D02*
X69346000Y-65460000D01*
D31*
X72898000Y-66802000D02*
X72898000Y-66042000D01*
X73152000Y-69596000D02*
X73152000Y-68806000D01*
%TO.N,+3V3*%
X74168000Y-63754000D02*
X73408000Y-63754000D01*
D30*
%TO.N,/D-*%
X70500000Y-56329696D02*
X70500000Y-54892000D01*
X70346000Y-66601909D02*
X70346000Y-65812000D01*
X70479000Y-66923000D02*
X70612000Y-67056000D01*
X70751036Y-58182000D02*
X71054000Y-58182000D01*
X70454000Y-56408223D02*
X70477000Y-56385223D01*
X70454000Y-57884963D02*
X70454000Y-56408223D01*
%TO.N,/D+*%
X69846000Y-66629223D02*
X69846000Y-65812000D01*
X69456963Y-58182000D02*
X69154000Y-58182000D01*
X69754000Y-56408223D02*
X69754000Y-57884963D01*
X69850000Y-56244340D02*
X69850000Y-54892000D01*
X69721000Y-66931000D02*
X69596000Y-67056000D01*
X69754000Y-56408223D02*
X69802000Y-56360223D01*
%TO.N,/SYNC*%
X81220207Y-71961792D02*
X75517792Y-77664207D01*
X73924000Y-81511963D02*
X73924000Y-84836000D01*
X85067963Y-70368000D02*
X90932000Y-70368000D01*
%TO.N,Net-(R1-Pad2)*%
X72262000Y-63754000D02*
X72388000Y-63754000D01*
X71695566Y-64012000D02*
X71146000Y-64012000D01*
X72006999Y-63882999D02*
X72046904Y-63843095D01*
%TO.N,/TX2*%
X65532000Y-64262000D02*
X65657000Y-64137000D01*
X65958776Y-64012000D02*
X68046000Y-64012000D01*
%TO.N,/RX2*%
X66748090Y-63512000D02*
X68046000Y-63512000D01*
X66294000Y-63246000D02*
X66427000Y-63379000D01*
%TO.N,Net-(R2-Pad2)*%
X71517375Y-64512000D02*
X71146000Y-64512000D01*
X72748624Y-65022000D02*
X74168000Y-65022000D01*
%TD*%
%TA.AperFunction,Conductor*%
%TO.N,+3V3*%
G36*
X70977694Y-65434806D02*
G01*
X70996000Y-65479000D01*
X70996000Y-65903568D01*
X70999641Y-65912358D01*
X71008431Y-65915999D01*
X71017945Y-65915999D01*
X71024030Y-65915400D01*
X71089068Y-65902464D01*
X71100224Y-65897843D01*
X71174007Y-65848543D01*
X71182543Y-65840007D01*
X71231843Y-65766225D01*
X71236464Y-65755067D01*
X71250000Y-65687017D01*
X71251314Y-65687278D01*
X71271850Y-65648856D01*
X71317625Y-65634970D01*
X71359813Y-65657519D01*
X71374000Y-65697169D01*
X71374000Y-67485397D01*
X71367188Y-67513771D01*
X71334365Y-67578189D01*
X71334364Y-67578193D01*
X71332132Y-67582573D01*
X71325923Y-67621775D01*
X71323170Y-67639159D01*
X71317500Y-67674955D01*
X71317500Y-67677415D01*
X71317501Y-67951863D01*
X71306957Y-67986602D01*
X71306501Y-67987284D01*
X71289268Y-68004512D01*
X71227538Y-68045759D01*
X71205010Y-68055090D01*
X71143905Y-68067245D01*
X71126038Y-68070799D01*
X71113845Y-68072000D01*
X70962629Y-68072000D01*
X70929973Y-68062790D01*
X70907796Y-68049200D01*
X69811530Y-68049200D01*
X69783313Y-68060888D01*
X69776955Y-68067245D01*
X69753043Y-68072000D01*
X69692629Y-68072000D01*
X69659973Y-68062790D01*
X69637796Y-68049200D01*
X68985612Y-68049200D01*
X68908395Y-67997605D01*
X68884800Y-67962293D01*
X68884800Y-67705300D01*
X68903106Y-67661106D01*
X68947300Y-67642800D01*
X69634469Y-67642800D01*
X69643259Y-67639159D01*
X69647816Y-67628157D01*
X69657036Y-67589761D01*
X69697824Y-67564769D01*
X69707598Y-67564000D01*
X69738401Y-67564000D01*
X69782595Y-67582306D01*
X69797611Y-67618558D01*
X69798141Y-67618431D01*
X69798944Y-67621775D01*
X69800901Y-67626500D01*
X69800698Y-67629081D01*
X69803265Y-67639774D01*
X69808204Y-67642800D01*
X70904469Y-67642800D01*
X70913259Y-67639159D01*
X70915476Y-67633807D01*
X70908156Y-67587588D01*
X70905154Y-67578346D01*
X70877170Y-67523425D01*
X70873417Y-67475737D01*
X70900154Y-67441790D01*
X70917644Y-67431051D01*
X70921439Y-67428721D01*
X71013612Y-67326890D01*
X71073499Y-67203283D01*
X71096286Y-67067836D01*
X71096431Y-67056000D01*
X71076959Y-66920036D01*
X71058464Y-66879359D01*
X71021953Y-66799055D01*
X71021951Y-66799051D01*
X71020110Y-66795003D01*
X70930453Y-66690951D01*
X70926719Y-66688531D01*
X70926716Y-66688528D01*
X70818936Y-66618668D01*
X70818935Y-66618668D01*
X70815196Y-66616244D01*
X70810929Y-66614968D01*
X70810927Y-66614967D01*
X70772093Y-66603354D01*
X70734996Y-66573153D01*
X70727500Y-66543474D01*
X70727500Y-66390474D01*
X70732257Y-66366557D01*
X70732314Y-66366419D01*
X70735734Y-66361301D01*
X70750500Y-66287067D01*
X70750499Y-65479000D01*
X70768805Y-65434806D01*
X70812999Y-65416500D01*
X70933500Y-65416500D01*
X70977694Y-65434806D01*
G37*
%TD.AperFunction*%
%TD*%
%TA.AperFunction,Conductor*%
%TO.N,VBUS*%
G36*
X71334894Y-54707106D02*
G01*
X71353200Y-54751300D01*
X71353200Y-55823568D01*
X71356841Y-55832358D01*
X71365631Y-55835999D01*
X71396945Y-55835999D01*
X71403030Y-55835400D01*
X71468066Y-55822464D01*
X71475419Y-55819419D01*
X71522236Y-55819420D01*
X71525699Y-55821734D01*
X71558753Y-55828309D01*
X71596920Y-55835901D01*
X71596923Y-55835901D01*
X71599933Y-55836500D01*
X71819500Y-55836500D01*
X71863694Y-55854806D01*
X71882000Y-55899000D01*
X71882000Y-57150000D01*
X74925906Y-57150000D01*
X74934064Y-57150535D01*
X75053319Y-57166236D01*
X75069078Y-57170458D01*
X75176400Y-57214911D01*
X75190523Y-57223065D01*
X75282690Y-57293787D01*
X75294213Y-57305310D01*
X75364935Y-57397477D01*
X75373089Y-57411600D01*
X75417542Y-57518922D01*
X75421764Y-57534681D01*
X75437465Y-57653936D01*
X75438000Y-57662094D01*
X75438000Y-67813906D01*
X75437465Y-67822064D01*
X75421764Y-67941319D01*
X75417542Y-67957078D01*
X75373089Y-68064400D01*
X75364935Y-68078523D01*
X75294213Y-68170690D01*
X75282690Y-68182213D01*
X75190523Y-68252935D01*
X75176400Y-68261089D01*
X75069078Y-68305542D01*
X75053319Y-68309764D01*
X74934064Y-68325465D01*
X74925906Y-68326000D01*
X73689769Y-68326000D01*
X73645575Y-68307694D01*
X73627269Y-68263500D01*
X73639205Y-68226764D01*
X73646959Y-68216091D01*
X73699153Y-68113655D01*
X73702157Y-68104411D01*
X73708956Y-68061479D01*
X73706735Y-68052226D01*
X73701796Y-68049200D01*
X72605531Y-68049200D01*
X72596741Y-68052841D01*
X72594524Y-68058193D01*
X72601844Y-68104412D01*
X72604846Y-68113653D01*
X72657041Y-68216091D01*
X72664795Y-68226764D01*
X72675961Y-68273278D01*
X72650967Y-68314064D01*
X72614231Y-68326000D01*
X72419769Y-68326000D01*
X72375575Y-68307694D01*
X72357269Y-68263500D01*
X72369205Y-68226764D01*
X72376959Y-68216091D01*
X72429153Y-68113655D01*
X72432157Y-68104411D01*
X72438956Y-68061479D01*
X72436735Y-68052226D01*
X72431796Y-68049200D01*
X71741300Y-68049200D01*
X71697106Y-68030894D01*
X71678800Y-67986700D01*
X71678800Y-67630369D01*
X72085200Y-67630369D01*
X72088841Y-67639159D01*
X72097631Y-67642800D01*
X72428469Y-67642800D01*
X72437259Y-67639159D01*
X72439476Y-67633807D01*
X72432156Y-67587588D01*
X72429154Y-67578347D01*
X72376959Y-67475909D01*
X72371248Y-67468048D01*
X72289952Y-67386752D01*
X72282091Y-67381041D01*
X72179656Y-67328848D01*
X72170406Y-67325843D01*
X72097478Y-67314292D01*
X72088227Y-67316513D01*
X72085200Y-67321453D01*
X72085200Y-67630369D01*
X71678800Y-67630369D01*
X71678800Y-67324779D01*
X71675159Y-67315990D01*
X71672083Y-67314716D01*
X71638258Y-67280891D01*
X71633500Y-67256973D01*
X71633500Y-65697169D01*
X71618331Y-65609746D01*
X71604144Y-65570096D01*
X71582562Y-65532000D01*
X71569544Y-65509020D01*
X71563688Y-65461544D01*
X71593117Y-65423833D01*
X71617794Y-65416014D01*
X71624031Y-65415399D01*
X71689068Y-65402464D01*
X71700224Y-65397843D01*
X71774007Y-65348543D01*
X71782543Y-65340007D01*
X71831843Y-65266225D01*
X71836464Y-65255067D01*
X71849401Y-65190030D01*
X71850000Y-65183946D01*
X71850000Y-65166103D01*
X71868306Y-65121909D01*
X71912500Y-65103603D01*
X71953090Y-65118577D01*
X72010370Y-65167498D01*
X72012461Y-65168779D01*
X72012466Y-65168783D01*
X72047221Y-65190080D01*
X72178418Y-65270476D01*
X72180679Y-65271413D01*
X72180684Y-65271415D01*
X72198664Y-65278862D01*
X72353901Y-65343160D01*
X72385671Y-65372528D01*
X72393960Y-65388796D01*
X72481204Y-65476040D01*
X72485586Y-65478273D01*
X72489567Y-65481165D01*
X72487873Y-65483497D01*
X72512803Y-65512679D01*
X72509056Y-65560367D01*
X72488313Y-65581110D01*
X72489567Y-65582835D01*
X72485586Y-65585727D01*
X72481204Y-65587960D01*
X72393960Y-65675204D01*
X72387916Y-65687066D01*
X72350092Y-65761301D01*
X72337946Y-65785138D01*
X72337177Y-65789995D01*
X72337176Y-65789997D01*
X72324477Y-65870176D01*
X72323500Y-65876347D01*
X72323501Y-66207652D01*
X72337946Y-66298862D01*
X72393960Y-66408796D01*
X72421994Y-66436830D01*
X72440300Y-66481024D01*
X72440300Y-66634985D01*
X72437569Y-66653258D01*
X72436628Y-66656337D01*
X72434736Y-66660366D01*
X72413605Y-66796082D01*
X72414182Y-66800495D01*
X72414182Y-66800497D01*
X72416237Y-66816212D01*
X72431414Y-66932273D01*
X72486732Y-67057992D01*
X72575111Y-67163132D01*
X72578816Y-67165598D01*
X72578818Y-67165600D01*
X72596024Y-67177053D01*
X72689447Y-67239240D01*
X72727811Y-67251226D01*
X72754320Y-67259508D01*
X72791045Y-67290160D01*
X72795338Y-67337802D01*
X72764055Y-67374853D01*
X72751906Y-67381043D01*
X72744048Y-67386752D01*
X72662752Y-67468048D01*
X72657041Y-67475909D01*
X72604847Y-67578345D01*
X72601843Y-67587589D01*
X72595044Y-67630521D01*
X72597265Y-67639774D01*
X72602204Y-67642800D01*
X72936369Y-67642800D01*
X72945159Y-67639159D01*
X72948800Y-67630369D01*
X73355200Y-67630369D01*
X73358841Y-67639159D01*
X73367631Y-67642800D01*
X73698469Y-67642800D01*
X73707259Y-67639159D01*
X73709476Y-67633807D01*
X73702156Y-67587588D01*
X73699154Y-67578347D01*
X73646959Y-67475909D01*
X73641248Y-67468048D01*
X73559952Y-67386752D01*
X73552091Y-67381041D01*
X73449656Y-67328848D01*
X73440406Y-67325843D01*
X73367478Y-67314292D01*
X73358227Y-67316513D01*
X73355200Y-67321453D01*
X73355200Y-67630369D01*
X72948800Y-67630369D01*
X72948800Y-67332932D01*
X72967106Y-67288738D01*
X72994861Y-67272633D01*
X73086090Y-67247762D01*
X73086093Y-67247761D01*
X73090391Y-67246589D01*
X73207439Y-67174721D01*
X73299612Y-67072890D01*
X73359499Y-66949283D01*
X73361676Y-66936348D01*
X73381886Y-66816212D01*
X73382286Y-66813836D01*
X73382431Y-66802000D01*
X73362959Y-66666036D01*
X73361115Y-66661980D01*
X73359866Y-66657709D01*
X73360263Y-66657593D01*
X73355700Y-66636529D01*
X73355700Y-66481024D01*
X73374006Y-66436830D01*
X73402040Y-66408796D01*
X73458054Y-66298862D01*
X73458823Y-66294005D01*
X73458824Y-66294003D01*
X73471522Y-66213828D01*
X73496516Y-66173041D01*
X73543030Y-66161874D01*
X73583817Y-66186868D01*
X73594984Y-66213828D01*
X73607657Y-66293847D01*
X73610661Y-66303091D01*
X73662136Y-66404116D01*
X73667847Y-66411977D01*
X73748023Y-66492153D01*
X73755884Y-66497864D01*
X73856909Y-66549339D01*
X73866153Y-66552343D01*
X73949957Y-66565616D01*
X73952764Y-66565836D01*
X73961159Y-66562359D01*
X73964800Y-66553569D01*
X74371200Y-66553569D01*
X74374841Y-66562359D01*
X74383236Y-66565836D01*
X74386043Y-66565616D01*
X74469847Y-66552343D01*
X74479091Y-66549339D01*
X74580116Y-66497864D01*
X74587977Y-66492153D01*
X74668153Y-66411977D01*
X74673864Y-66404116D01*
X74725339Y-66303091D01*
X74728343Y-66293847D01*
X74734102Y-66257479D01*
X74731881Y-66248226D01*
X74726942Y-66245200D01*
X74383631Y-66245200D01*
X74374841Y-66248841D01*
X74371200Y-66257631D01*
X74371200Y-66553569D01*
X73964800Y-66553569D01*
X73964800Y-65901300D01*
X73983106Y-65857106D01*
X74027300Y-65838800D01*
X74723616Y-65838800D01*
X74732406Y-65835159D01*
X74734623Y-65829807D01*
X74728343Y-65790153D01*
X74725339Y-65780909D01*
X74673864Y-65679884D01*
X74668153Y-65672023D01*
X74587977Y-65591847D01*
X74576136Y-65583244D01*
X74577763Y-65581004D01*
X74552645Y-65551593D01*
X74556398Y-65503905D01*
X74577574Y-65482735D01*
X74576433Y-65481165D01*
X74580414Y-65478273D01*
X74584796Y-65476040D01*
X74672040Y-65388796D01*
X74728054Y-65278862D01*
X74729234Y-65271415D01*
X74742116Y-65190080D01*
X74742116Y-65190075D01*
X74742500Y-65187653D01*
X74742499Y-64856348D01*
X74728054Y-64765138D01*
X74672040Y-64655204D01*
X74584796Y-64567960D01*
X74529128Y-64539596D01*
X74479247Y-64514180D01*
X74479246Y-64514180D01*
X74474862Y-64511946D01*
X74470005Y-64511177D01*
X74470003Y-64511176D01*
X74386080Y-64497884D01*
X74386075Y-64497884D01*
X74383653Y-64497500D01*
X74381193Y-64497500D01*
X74168001Y-64497501D01*
X73952348Y-64497501D01*
X73861138Y-64511946D01*
X73856756Y-64514179D01*
X73856755Y-64514179D01*
X73806872Y-64539596D01*
X73751204Y-64567960D01*
X73696970Y-64622194D01*
X73652776Y-64640500D01*
X73413224Y-64640500D01*
X73369030Y-64622194D01*
X73314796Y-64567960D01*
X73259128Y-64539596D01*
X73209247Y-64514180D01*
X73209246Y-64514180D01*
X73204862Y-64511946D01*
X73200005Y-64511177D01*
X73200003Y-64511176D01*
X73116080Y-64497884D01*
X73116075Y-64497884D01*
X73113653Y-64497500D01*
X73111193Y-64497500D01*
X72898001Y-64497501D01*
X72682348Y-64497501D01*
X72591138Y-64511946D01*
X72586756Y-64514179D01*
X72586755Y-64514179D01*
X72522399Y-64546970D01*
X72474711Y-64550723D01*
X72454377Y-64539596D01*
X72423339Y-64514125D01*
X72412421Y-64502544D01*
X72409016Y-64497857D01*
X72406124Y-64493876D01*
X72402145Y-64490985D01*
X72402141Y-64490981D01*
X72399021Y-64488714D01*
X72395171Y-64485679D01*
X72339960Y-64438526D01*
X72318243Y-64395905D01*
X72333024Y-64350410D01*
X72375645Y-64328693D01*
X72380550Y-64328500D01*
X72548579Y-64328499D01*
X72553652Y-64328499D01*
X72644862Y-64314054D01*
X72649247Y-64311820D01*
X72747024Y-64262000D01*
X72754796Y-64258040D01*
X72842040Y-64170796D01*
X72844273Y-64166414D01*
X72847165Y-64162433D01*
X72849497Y-64164127D01*
X72878679Y-64139197D01*
X72926367Y-64142944D01*
X72947110Y-64163687D01*
X72948835Y-64162433D01*
X72951727Y-64166414D01*
X72953960Y-64170796D01*
X73041204Y-64258040D01*
X73048976Y-64262000D01*
X73146753Y-64311820D01*
X73146754Y-64311820D01*
X73151138Y-64314054D01*
X73155995Y-64314823D01*
X73155997Y-64314824D01*
X73239920Y-64328116D01*
X73239925Y-64328116D01*
X73242347Y-64328500D01*
X73408000Y-64328500D01*
X73573652Y-64328499D01*
X73664862Y-64314054D01*
X73669247Y-64311820D01*
X73767024Y-64262000D01*
X73774796Y-64258040D01*
X73802830Y-64230006D01*
X73847024Y-64211700D01*
X74015401Y-64211700D01*
X74034039Y-64214544D01*
X74090549Y-64232199D01*
X74094999Y-64232281D01*
X74095002Y-64232281D01*
X74151156Y-64233310D01*
X74227876Y-64234716D01*
X74301868Y-64214544D01*
X74356090Y-64199762D01*
X74356093Y-64199761D01*
X74360391Y-64198589D01*
X74477439Y-64126721D01*
X74569612Y-64024890D01*
X74629499Y-63901283D01*
X74652286Y-63765836D01*
X74652325Y-63762699D01*
X74652401Y-63756414D01*
X74652431Y-63754000D01*
X74632959Y-63618036D01*
X74583319Y-63508858D01*
X74577953Y-63497055D01*
X74577951Y-63497051D01*
X74576110Y-63493003D01*
X74486453Y-63388951D01*
X74482719Y-63386531D01*
X74482716Y-63386528D01*
X74406200Y-63336933D01*
X74371196Y-63314244D01*
X74239603Y-63274890D01*
X74170929Y-63274470D01*
X74106708Y-63274078D01*
X74106707Y-63274078D01*
X74102255Y-63274051D01*
X74094855Y-63276166D01*
X74032826Y-63293894D01*
X74015651Y-63296300D01*
X73847024Y-63296300D01*
X73802830Y-63277994D01*
X73774796Y-63249960D01*
X73721736Y-63222925D01*
X73669247Y-63196180D01*
X73669246Y-63196180D01*
X73664862Y-63193946D01*
X73660005Y-63193177D01*
X73660003Y-63193176D01*
X73576080Y-63179884D01*
X73576075Y-63179884D01*
X73573653Y-63179500D01*
X73571193Y-63179500D01*
X73408001Y-63179501D01*
X73242348Y-63179501D01*
X73151138Y-63193946D01*
X73146756Y-63196179D01*
X73146755Y-63196179D01*
X73096171Y-63221953D01*
X73041204Y-63249960D01*
X72953960Y-63337204D01*
X72951727Y-63341586D01*
X72948835Y-63345567D01*
X72946503Y-63343873D01*
X72917321Y-63368803D01*
X72869633Y-63365056D01*
X72848890Y-63344313D01*
X72847165Y-63345567D01*
X72844273Y-63341586D01*
X72842040Y-63337204D01*
X72754796Y-63249960D01*
X72701736Y-63222925D01*
X72649247Y-63196180D01*
X72649246Y-63196180D01*
X72644862Y-63193946D01*
X72640005Y-63193177D01*
X72640003Y-63193176D01*
X72556080Y-63179884D01*
X72556075Y-63179884D01*
X72553653Y-63179500D01*
X72551193Y-63179500D01*
X72388001Y-63179501D01*
X72222348Y-63179501D01*
X72131138Y-63193946D01*
X72126756Y-63196179D01*
X72126755Y-63196179D01*
X72076171Y-63221953D01*
X72021204Y-63249960D01*
X71947073Y-63324091D01*
X71902879Y-63342397D01*
X71858685Y-63324091D01*
X71841580Y-63292090D01*
X71836935Y-63268736D01*
X71836934Y-63268735D01*
X71835734Y-63262699D01*
X71779484Y-63178516D01*
X71759452Y-63165131D01*
X71700420Y-63125686D01*
X71700418Y-63125685D01*
X71695301Y-63122266D01*
X71662247Y-63115691D01*
X71624080Y-63108099D01*
X71624077Y-63108099D01*
X71621067Y-63107500D01*
X71313000Y-63107500D01*
X71268806Y-63089194D01*
X71250500Y-63045000D01*
X71250499Y-62840006D01*
X71250499Y-62836934D01*
X71235734Y-62762699D01*
X71179484Y-62678516D01*
X71159452Y-62665131D01*
X71100420Y-62625686D01*
X71100418Y-62625685D01*
X71095301Y-62622266D01*
X71062247Y-62615691D01*
X71024080Y-62608099D01*
X71024077Y-62608099D01*
X71021067Y-62607500D01*
X70928500Y-62607500D01*
X70884306Y-62589194D01*
X70866000Y-62545000D01*
X70866000Y-62230047D01*
X70884306Y-62185853D01*
X70928500Y-62167547D01*
X70947138Y-62170391D01*
X70996630Y-62185853D01*
X71042549Y-62200199D01*
X71046999Y-62200281D01*
X71047002Y-62200281D01*
X71103156Y-62201310D01*
X71179876Y-62202716D01*
X71241730Y-62185853D01*
X71308090Y-62167762D01*
X71308093Y-62167761D01*
X71312391Y-62166589D01*
X71429439Y-62094721D01*
X71521612Y-61992890D01*
X71581499Y-61869283D01*
X71604286Y-61733836D01*
X71604431Y-61722000D01*
X71584959Y-61586036D01*
X71566464Y-61545359D01*
X71529953Y-61465055D01*
X71529951Y-61465051D01*
X71528110Y-61461003D01*
X71438453Y-61356951D01*
X71434719Y-61354531D01*
X71434716Y-61354528D01*
X71364607Y-61309086D01*
X71323196Y-61282244D01*
X71191603Y-61242890D01*
X71122929Y-61242471D01*
X71058708Y-61242078D01*
X71058707Y-61242078D01*
X71054255Y-61242051D01*
X71046855Y-61244166D01*
X70945675Y-61273083D01*
X70898152Y-61267626D01*
X70868406Y-61230164D01*
X70866000Y-61212989D01*
X70866000Y-60773568D01*
X71257200Y-60773568D01*
X71260841Y-60782358D01*
X71269631Y-60785999D01*
X71375945Y-60785999D01*
X71382030Y-60785400D01*
X71447068Y-60772464D01*
X71458224Y-60767843D01*
X71532007Y-60718543D01*
X71540543Y-60710007D01*
X71589843Y-60636225D01*
X71594464Y-60625067D01*
X71607401Y-60560030D01*
X71608000Y-60553946D01*
X71608000Y-60397631D01*
X71604359Y-60388841D01*
X71595569Y-60385200D01*
X71269631Y-60385200D01*
X71260841Y-60388841D01*
X71257200Y-60397631D01*
X71257200Y-60773568D01*
X70866000Y-60773568D01*
X70866000Y-59966369D01*
X71257200Y-59966369D01*
X71260841Y-59975159D01*
X71269631Y-59978800D01*
X71595568Y-59978800D01*
X71604358Y-59975159D01*
X71607999Y-59966369D01*
X71607999Y-59810055D01*
X71607400Y-59803970D01*
X71594464Y-59738932D01*
X71589843Y-59727776D01*
X71540543Y-59653993D01*
X71532007Y-59645457D01*
X71458225Y-59596157D01*
X71447067Y-59591536D01*
X71382030Y-59578599D01*
X71375946Y-59578000D01*
X71269631Y-59578000D01*
X71260841Y-59581641D01*
X71257200Y-59590431D01*
X71257200Y-59966369D01*
X70866000Y-59966369D01*
X70866000Y-58849000D01*
X70884306Y-58804806D01*
X70928500Y-58786500D01*
X71369213Y-58786499D01*
X71379066Y-58786499D01*
X71382075Y-58785900D01*
X71382080Y-58785900D01*
X71447263Y-58772935D01*
X71453301Y-58771734D01*
X71537484Y-58715484D01*
X71593734Y-58631301D01*
X71608500Y-58557067D01*
X71608499Y-57806934D01*
X71593734Y-57732699D01*
X71537484Y-57648516D01*
X71517452Y-57635131D01*
X71458420Y-57595686D01*
X71458418Y-57595685D01*
X71453301Y-57592266D01*
X71414822Y-57584612D01*
X71382080Y-57578099D01*
X71382077Y-57578099D01*
X71379067Y-57577500D01*
X71369214Y-57577500D01*
X70928499Y-57577501D01*
X70884306Y-57559195D01*
X70866000Y-57515001D01*
X70866000Y-56672015D01*
X70872254Y-56644764D01*
X70913557Y-56559514D01*
X70915499Y-56555506D01*
X70938286Y-56420059D01*
X70938431Y-56408223D01*
X70918959Y-56272259D01*
X70887105Y-56202199D01*
X70881500Y-56176331D01*
X70881500Y-55898500D01*
X70899806Y-55854306D01*
X70924293Y-55844163D01*
X70922882Y-55840758D01*
X70943159Y-55832359D01*
X70946800Y-55823569D01*
X70946800Y-55727100D01*
X70957334Y-55692376D01*
X70961313Y-55686421D01*
X70964734Y-55681301D01*
X70979500Y-55607067D01*
X70979499Y-54751299D01*
X70997805Y-54707106D01*
X71041999Y-54688800D01*
X71290700Y-54688800D01*
X71334894Y-54707106D01*
G37*
%TD.AperFunction*%
%TD*%
%TA.AperFunction,Conductor*%
%TO.N,GNDREF*%
G36*
X67573792Y-51072806D02*
G01*
X67592098Y-51117000D01*
X67581565Y-51151723D01*
X67564157Y-51177775D01*
X67559536Y-51188933D01*
X67546599Y-51253970D01*
X67546000Y-51260054D01*
X67546000Y-51323959D01*
X67527694Y-51368153D01*
X67483500Y-51386459D01*
X67448777Y-51375926D01*
X67404225Y-51346157D01*
X67393067Y-51341536D01*
X67328030Y-51328599D01*
X67321946Y-51328000D01*
X66690631Y-51328000D01*
X66681841Y-51331641D01*
X66678200Y-51340431D01*
X66678200Y-52016369D01*
X66681841Y-52025159D01*
X66690631Y-52028800D01*
X69041568Y-52028800D01*
X69050358Y-52025159D01*
X69053999Y-52016369D01*
X69053999Y-51260055D01*
X69053400Y-51253970D01*
X69040464Y-51188932D01*
X69035843Y-51177776D01*
X69018435Y-51151723D01*
X69009103Y-51104807D01*
X69035679Y-51065033D01*
X69070402Y-51054500D01*
X69829598Y-51054500D01*
X69873792Y-51072806D01*
X69892098Y-51117000D01*
X69881565Y-51151723D01*
X69864157Y-51177775D01*
X69859536Y-51188933D01*
X69846599Y-51253970D01*
X69846000Y-51260054D01*
X69846000Y-52016369D01*
X69849641Y-52025159D01*
X69858431Y-52028800D01*
X73009369Y-52028800D01*
X73018159Y-52025159D01*
X73021800Y-52016369D01*
X73428200Y-52016369D01*
X73431841Y-52025159D01*
X73440631Y-52028800D01*
X74291568Y-52028800D01*
X74300358Y-52025159D01*
X74303999Y-52016369D01*
X74303999Y-51560055D01*
X74303400Y-51553970D01*
X74290464Y-51488932D01*
X74285843Y-51477776D01*
X74236543Y-51403993D01*
X74228007Y-51395457D01*
X74154225Y-51346157D01*
X74143067Y-51341536D01*
X74078030Y-51328599D01*
X74071946Y-51328000D01*
X73440631Y-51328000D01*
X73431841Y-51331641D01*
X73428200Y-51340431D01*
X73428200Y-52016369D01*
X73021800Y-52016369D01*
X73021800Y-51340432D01*
X73018159Y-51331642D01*
X73009369Y-51328001D01*
X72378055Y-51328001D01*
X72371970Y-51328600D01*
X72306932Y-51341536D01*
X72295776Y-51346157D01*
X72251222Y-51375927D01*
X72204306Y-51385259D01*
X72164532Y-51358683D01*
X72153999Y-51323960D01*
X72153999Y-51260055D01*
X72153400Y-51253970D01*
X72140464Y-51188932D01*
X72135843Y-51177776D01*
X72118435Y-51151723D01*
X72109103Y-51104807D01*
X72135679Y-51065033D01*
X72170402Y-51054500D01*
X74167704Y-51054500D01*
X74175861Y-51055035D01*
X74192141Y-51057178D01*
X74291319Y-51070236D01*
X74307078Y-51074458D01*
X74414400Y-51118911D01*
X74428523Y-51127065D01*
X74520690Y-51197787D01*
X74532213Y-51209310D01*
X74602935Y-51301477D01*
X74611089Y-51315600D01*
X74655542Y-51422922D01*
X74659764Y-51438681D01*
X74675465Y-51557936D01*
X74676000Y-51566094D01*
X74676000Y-56383906D01*
X74675465Y-56392064D01*
X74659764Y-56511319D01*
X74655542Y-56527078D01*
X74611089Y-56634400D01*
X74602935Y-56648523D01*
X74532213Y-56740690D01*
X74520690Y-56752213D01*
X74428523Y-56822935D01*
X74414400Y-56831089D01*
X74307078Y-56875542D01*
X74291319Y-56879764D01*
X74213840Y-56889965D01*
X74205682Y-56890500D01*
X72204000Y-56890500D01*
X72159806Y-56872194D01*
X72141500Y-56828000D01*
X72141500Y-55899000D01*
X72132726Y-55854892D01*
X72134587Y-55836000D01*
X72134300Y-55836000D01*
X72134300Y-55823568D01*
X72540700Y-55823568D01*
X72544341Y-55832358D01*
X72553131Y-55835999D01*
X73071945Y-55835999D01*
X73078030Y-55835400D01*
X73143068Y-55822464D01*
X73154224Y-55817843D01*
X73228007Y-55768543D01*
X73236543Y-55760007D01*
X73285843Y-55686225D01*
X73290464Y-55675067D01*
X73303401Y-55610030D01*
X73304000Y-55603946D01*
X73304000Y-55022631D01*
X73300359Y-55013841D01*
X73291569Y-55010200D01*
X72553131Y-55010200D01*
X72544341Y-55013841D01*
X72540700Y-55022631D01*
X72540700Y-55823568D01*
X72134300Y-55823568D01*
X72134300Y-54591369D01*
X72540700Y-54591369D01*
X72544341Y-54600159D01*
X72553131Y-54603800D01*
X73291568Y-54603800D01*
X73300358Y-54600159D01*
X73303999Y-54591369D01*
X73303999Y-54010055D01*
X73303400Y-54003970D01*
X73290464Y-53938932D01*
X73285843Y-53927776D01*
X73236543Y-53853993D01*
X73228007Y-53845457D01*
X73154225Y-53796157D01*
X73143067Y-53791536D01*
X73078030Y-53778599D01*
X73071946Y-53778000D01*
X72553131Y-53778000D01*
X72544341Y-53781641D01*
X72540700Y-53790431D01*
X72540700Y-54591369D01*
X72134300Y-54591369D01*
X72134300Y-53790432D01*
X72130659Y-53781642D01*
X72121869Y-53778001D01*
X71603055Y-53778001D01*
X71596970Y-53778600D01*
X71531932Y-53791536D01*
X71520776Y-53796157D01*
X71446993Y-53845457D01*
X71438457Y-53853993D01*
X71394538Y-53919723D01*
X71354764Y-53946299D01*
X71342571Y-53947500D01*
X70925293Y-53947501D01*
X70899934Y-53947501D01*
X70896925Y-53948100D01*
X70896920Y-53948100D01*
X70847977Y-53957835D01*
X70837192Y-53959980D01*
X70812808Y-53959980D01*
X70753080Y-53948099D01*
X70753077Y-53948099D01*
X70750067Y-53947500D01*
X70746996Y-53947500D01*
X70500001Y-53947501D01*
X70249934Y-53947501D01*
X70246925Y-53948100D01*
X70246920Y-53948100D01*
X70197977Y-53957835D01*
X70187192Y-53959980D01*
X70162808Y-53959980D01*
X70103080Y-53948099D01*
X70103077Y-53948099D01*
X70100067Y-53947500D01*
X70096996Y-53947500D01*
X69850001Y-53947501D01*
X69599934Y-53947501D01*
X69596925Y-53948100D01*
X69596920Y-53948100D01*
X69547977Y-53957835D01*
X69537192Y-53959980D01*
X69512808Y-53959980D01*
X69453080Y-53948099D01*
X69453077Y-53948099D01*
X69450067Y-53947500D01*
X69446996Y-53947500D01*
X69200001Y-53947501D01*
X68949934Y-53947501D01*
X68946925Y-53948100D01*
X68946920Y-53948100D01*
X68898290Y-53957773D01*
X68885910Y-53960235D01*
X68861526Y-53960235D01*
X68803030Y-53948599D01*
X68796946Y-53948000D01*
X68765631Y-53948000D01*
X68756841Y-53951641D01*
X68753200Y-53960431D01*
X68753200Y-54056900D01*
X68742666Y-54091624D01*
X68735266Y-54102699D01*
X68720500Y-54176933D01*
X68720501Y-55607066D01*
X68735266Y-55681301D01*
X68738685Y-55686418D01*
X68738686Y-55686420D01*
X68742666Y-55692376D01*
X68753200Y-55727100D01*
X68753200Y-55823568D01*
X68756841Y-55832358D01*
X68765631Y-55835999D01*
X68796945Y-55835999D01*
X68803030Y-55835400D01*
X68861525Y-55823765D01*
X68885910Y-55823765D01*
X68946920Y-55835901D01*
X68946923Y-55835901D01*
X68949933Y-55836500D01*
X68982517Y-55836500D01*
X69406000Y-55836499D01*
X69450194Y-55854805D01*
X69468500Y-55898999D01*
X69468500Y-55987031D01*
X69450194Y-56031225D01*
X69446507Y-56034628D01*
X69443799Y-56036932D01*
X69440031Y-56039310D01*
X69349109Y-56142259D01*
X69290736Y-56266589D01*
X69269605Y-56402305D01*
X69287414Y-56538496D01*
X69342732Y-56664215D01*
X69345596Y-56667622D01*
X69357843Y-56682192D01*
X69372500Y-56722408D01*
X69372500Y-56833500D01*
X69354194Y-56877694D01*
X69310000Y-56896000D01*
X65536094Y-56896000D01*
X65527936Y-56895465D01*
X65408681Y-56879764D01*
X65392922Y-56875542D01*
X65285600Y-56831089D01*
X65271477Y-56822935D01*
X65179310Y-56752213D01*
X65167787Y-56740690D01*
X65097065Y-56648523D01*
X65088911Y-56634400D01*
X65044458Y-56527078D01*
X65040236Y-56511319D01*
X65024535Y-56392064D01*
X65024000Y-56383906D01*
X65024000Y-55603945D01*
X66396001Y-55603945D01*
X66396600Y-55610030D01*
X66409536Y-55675068D01*
X66414157Y-55686224D01*
X66463457Y-55760007D01*
X66471993Y-55768543D01*
X66545775Y-55817843D01*
X66556933Y-55822464D01*
X66621970Y-55835401D01*
X66628054Y-55836000D01*
X67146869Y-55836000D01*
X67155659Y-55832359D01*
X67159300Y-55823569D01*
X67159300Y-55823568D01*
X67565700Y-55823568D01*
X67569341Y-55832358D01*
X67578131Y-55835999D01*
X68096945Y-55835999D01*
X68103030Y-55835400D01*
X68168068Y-55822464D01*
X68176084Y-55819144D01*
X68223917Y-55819144D01*
X68231933Y-55822464D01*
X68296970Y-55835401D01*
X68303054Y-55836000D01*
X68334369Y-55836000D01*
X68343159Y-55832359D01*
X68346800Y-55823569D01*
X68346800Y-55107631D01*
X68343159Y-55098841D01*
X68334369Y-55095200D01*
X68093500Y-55095200D01*
X68049306Y-55076894D01*
X68031000Y-55032700D01*
X68031000Y-55022631D01*
X68027359Y-55013841D01*
X68018569Y-55010200D01*
X67578131Y-55010200D01*
X67569341Y-55013841D01*
X67565700Y-55022631D01*
X67565700Y-55823568D01*
X67159300Y-55823568D01*
X67159300Y-55022631D01*
X67155659Y-55013841D01*
X67146869Y-55010200D01*
X66408432Y-55010200D01*
X66399642Y-55013841D01*
X66396001Y-55022631D01*
X66396001Y-55603945D01*
X65024000Y-55603945D01*
X65024000Y-54591369D01*
X66396000Y-54591369D01*
X66399641Y-54600159D01*
X66408431Y-54603800D01*
X67146869Y-54603800D01*
X67155659Y-54600159D01*
X67159300Y-54591369D01*
X67565700Y-54591369D01*
X67569341Y-54600159D01*
X67578131Y-54603800D01*
X68334369Y-54603800D01*
X68343159Y-54600159D01*
X68346800Y-54591369D01*
X68346800Y-53960432D01*
X68343159Y-53951643D01*
X68338043Y-53949524D01*
X68309993Y-53926504D01*
X68261543Y-53853993D01*
X68253007Y-53845457D01*
X68179225Y-53796157D01*
X68168067Y-53791536D01*
X68103030Y-53778599D01*
X68096946Y-53778000D01*
X67578131Y-53778000D01*
X67569341Y-53781641D01*
X67565700Y-53790431D01*
X67565700Y-54591369D01*
X67159300Y-54591369D01*
X67159300Y-53790432D01*
X67155659Y-53781642D01*
X67146869Y-53778001D01*
X66628055Y-53778001D01*
X66621970Y-53778600D01*
X66556932Y-53791536D01*
X66545776Y-53796157D01*
X66471993Y-53845457D01*
X66463457Y-53853993D01*
X66414157Y-53927775D01*
X66409536Y-53938933D01*
X66396599Y-54003970D01*
X66396000Y-54010054D01*
X66396000Y-54591369D01*
X65024000Y-54591369D01*
X65024000Y-52903945D01*
X65396001Y-52903945D01*
X65396600Y-52910030D01*
X65409536Y-52975068D01*
X65414157Y-52986224D01*
X65463457Y-53060007D01*
X65471993Y-53068543D01*
X65545775Y-53117843D01*
X65556933Y-53122464D01*
X65621970Y-53135401D01*
X65628054Y-53136000D01*
X66259369Y-53136000D01*
X66268159Y-53132359D01*
X66271800Y-53123569D01*
X66271800Y-53123568D01*
X66678200Y-53123568D01*
X66681841Y-53132358D01*
X66690631Y-53135999D01*
X67321945Y-53135999D01*
X67328030Y-53135400D01*
X67393068Y-53122464D01*
X67404224Y-53117843D01*
X67448778Y-53088073D01*
X67495694Y-53078741D01*
X67535468Y-53105317D01*
X67546001Y-53140040D01*
X67546001Y-53203945D01*
X67546600Y-53210030D01*
X67559536Y-53275068D01*
X67564157Y-53286224D01*
X67613457Y-53360007D01*
X67621993Y-53368543D01*
X67695775Y-53417843D01*
X67706933Y-53422464D01*
X67771970Y-53435401D01*
X67778054Y-53436000D01*
X68084369Y-53436000D01*
X68093159Y-53432359D01*
X68096800Y-53423569D01*
X68096800Y-53423568D01*
X68503200Y-53423568D01*
X68506841Y-53432358D01*
X68515631Y-53435999D01*
X68821945Y-53435999D01*
X68828030Y-53435400D01*
X68893068Y-53422464D01*
X68904224Y-53417843D01*
X68978007Y-53368543D01*
X68986543Y-53360007D01*
X69035843Y-53286225D01*
X69040464Y-53275067D01*
X69053401Y-53210030D01*
X69054000Y-53203946D01*
X69054000Y-53203945D01*
X69846001Y-53203945D01*
X69846600Y-53210030D01*
X69859536Y-53275068D01*
X69864157Y-53286224D01*
X69913457Y-53360007D01*
X69921993Y-53368543D01*
X69995775Y-53417843D01*
X70006933Y-53422464D01*
X70071970Y-53435401D01*
X70078054Y-53436000D01*
X70784369Y-53436000D01*
X70793159Y-53432359D01*
X70796800Y-53423569D01*
X70796800Y-53423568D01*
X71203200Y-53423568D01*
X71206841Y-53432358D01*
X71215631Y-53435999D01*
X71921945Y-53435999D01*
X71928030Y-53435400D01*
X71993068Y-53422464D01*
X72004224Y-53417843D01*
X72078007Y-53368543D01*
X72086543Y-53360007D01*
X72135843Y-53286225D01*
X72140464Y-53275067D01*
X72153401Y-53210030D01*
X72154000Y-53203946D01*
X72154000Y-53140041D01*
X72172306Y-53095847D01*
X72216500Y-53077541D01*
X72251223Y-53088074D01*
X72295775Y-53117843D01*
X72306933Y-53122464D01*
X72371970Y-53135401D01*
X72378054Y-53136000D01*
X73009369Y-53136000D01*
X73018159Y-53132359D01*
X73021800Y-53123569D01*
X73021800Y-53123568D01*
X73428200Y-53123568D01*
X73431841Y-53132358D01*
X73440631Y-53135999D01*
X74071945Y-53135999D01*
X74078030Y-53135400D01*
X74143068Y-53122464D01*
X74154224Y-53117843D01*
X74228007Y-53068543D01*
X74236543Y-53060007D01*
X74285843Y-52986225D01*
X74290464Y-52975067D01*
X74303401Y-52910030D01*
X74304000Y-52903946D01*
X74304000Y-52447631D01*
X74300359Y-52438841D01*
X74291569Y-52435200D01*
X73440631Y-52435200D01*
X73431841Y-52438841D01*
X73428200Y-52447631D01*
X73428200Y-53123568D01*
X73021800Y-53123568D01*
X73021800Y-52447631D01*
X73018159Y-52438841D01*
X73009369Y-52435200D01*
X71215631Y-52435200D01*
X71206841Y-52438841D01*
X71203200Y-52447631D01*
X71203200Y-53423568D01*
X70796800Y-53423568D01*
X70796800Y-52447631D01*
X70793159Y-52438841D01*
X70784369Y-52435200D01*
X69858432Y-52435200D01*
X69849642Y-52438841D01*
X69846001Y-52447631D01*
X69846001Y-53203945D01*
X69054000Y-53203945D01*
X69054000Y-52447631D01*
X69050359Y-52438841D01*
X69041569Y-52435200D01*
X68515631Y-52435200D01*
X68506841Y-52438841D01*
X68503200Y-52447631D01*
X68503200Y-53423568D01*
X68096800Y-53423568D01*
X68096800Y-52447631D01*
X68093159Y-52438841D01*
X68084369Y-52435200D01*
X66690631Y-52435200D01*
X66681841Y-52438841D01*
X66678200Y-52447631D01*
X66678200Y-53123568D01*
X66271800Y-53123568D01*
X66271800Y-52447631D01*
X66268159Y-52438841D01*
X66259369Y-52435200D01*
X65408432Y-52435200D01*
X65399642Y-52438841D01*
X65396001Y-52447631D01*
X65396001Y-52903945D01*
X65024000Y-52903945D01*
X65024000Y-52016369D01*
X65396000Y-52016369D01*
X65399641Y-52025159D01*
X65408431Y-52028800D01*
X66259369Y-52028800D01*
X66268159Y-52025159D01*
X66271800Y-52016369D01*
X66271800Y-51340432D01*
X66268159Y-51331642D01*
X66259369Y-51328001D01*
X65628055Y-51328001D01*
X65621970Y-51328600D01*
X65556932Y-51341536D01*
X65545776Y-51346157D01*
X65471993Y-51395457D01*
X65463457Y-51403993D01*
X65414157Y-51477775D01*
X65409536Y-51488933D01*
X65396599Y-51553970D01*
X65396000Y-51560054D01*
X65396000Y-52016369D01*
X65024000Y-52016369D01*
X65024000Y-51566094D01*
X65024535Y-51557936D01*
X65040236Y-51438681D01*
X65044458Y-51422922D01*
X65088911Y-51315600D01*
X65097065Y-51301477D01*
X65167787Y-51209310D01*
X65179310Y-51197787D01*
X65271477Y-51127065D01*
X65285600Y-51118911D01*
X65392922Y-51074458D01*
X65408681Y-51070236D01*
X65507859Y-51057178D01*
X65524139Y-51055035D01*
X65532296Y-51054500D01*
X67529598Y-51054500D01*
X67573792Y-51072806D01*
G37*
%TD.AperFunction*%
%TD*%
M02*
